<svg width="600" height="450" viewBox="0 0 800 600" fill="none" xmlns="http://www.w3.org/2000/svg" data-reactroot="">
<path d="M306.98 502.009C307.041 499.854 307.041 497.604 307.563 495.442C307.828 494.384 309.034 493.503 309.82 492.527C310.871 493.456 312.477 491.802 313.616 493.747C314.951 496.018 317.052 497.929 319.038 499.746C320.801 501.393 321.614 501.027 322.8 498.871C324.522 495.774 326.291 492.669 328.229 489.647C329.28 487.972 333.74 487.003 335.359 488.006C335.915 488.338 336.227 489.111 336.668 489.714C336.119 489.789 335.624 489.911 335.068 489.985C333.306 490.175 331.571 490.209 330.629 492.283C328.954 495.733 326.962 499.075 325.179 502.484C323.857 505.12 324.481 507.845 326.596 509.445C330.479 512.441 332.452 516.765 335.4 520.35C336.125 521.171 336.857 522.038 337.535 522.865C337.847 523.285 338.118 523.753 338.382 524.18C337.908 524.451 337.454 524.871 336.959 524.986C334.675 525.454 333.828 523.78 332.614 522.363C329.937 519.252 327.09 516.379 324.237 513.444C323.458 512.583 322.129 512.969 321.607 514.366C319.825 518.9 318.361 523.495 316.524 527.989C315.148 531.344 313.392 534.604 311.745 537.844C311.508 538.339 310.607 538.461 309.983 538.8C309.834 538.102 309.373 537.349 309.549 536.766C310.62 533.398 311.854 530.111 312.986 526.789C314.68 522.011 316.375 517.226 318.062 512.4C318.259 511.966 318.347 511.492 318.652 511.092C320.38 508.808 319.696 506.761 317.954 504.904C316.273 503.087 314.504 501.338 312.769 499.536C311.223 497.956 309.671 498.173 308.594 500.003C308.18 500.715 307.604 501.359 306.98 502.009Z" fill="#cb28eb"></path>
<path d="M334.31 553.21C334.371 551.054 334.371 548.804 334.892 546.642C335.157 545.584 336.363 544.703 337.15 543.727C338.2 544.656 339.806 543.002 340.945 544.947C342.28 547.218 344.382 549.129 346.367 550.946C348.13 552.593 348.943 552.227 350.129 550.071C351.851 546.974 353.62 543.87 355.558 540.847C356.609 539.173 361.069 538.203 362.689 539.207C363.244 539.539 363.556 540.311 363.997 540.915C363.448 540.989 362.953 541.111 362.397 541.186C360.635 541.375 358.9 541.409 357.958 543.483C356.284 546.933 354.291 550.275 352.508 553.684C351.187 556.321 351.81 559.045 353.925 560.645C357.809 563.641 359.781 567.965 362.729 571.551C363.455 572.371 364.187 573.238 364.864 574.065C365.176 574.485 365.447 574.953 365.712 575.38C365.237 575.651 364.783 576.071 364.288 576.187C362.004 576.654 361.157 574.98 359.944 573.564C357.266 570.453 354.42 567.579 351.566 564.644C350.787 563.783 349.458 564.169 348.936 565.566C347.154 570.1 345.69 574.696 343.853 579.189C342.477 582.544 340.721 585.804 339.074 589.044C338.837 589.539 337.936 589.661 337.312 590C337.163 589.302 336.702 588.55 336.878 587.967C337.949 584.598 339.183 581.311 340.315 577.99C342.009 573.211 343.704 568.426 345.391 563.6C345.588 563.166 345.676 562.692 345.981 562.292C347.709 560.008 347.025 557.961 345.283 556.104C343.602 554.287 341.833 552.539 340.098 550.736C338.553 549.156 337 549.373 335.923 551.203C335.516 551.922 334.933 552.566 334.31 553.21Z" fill="#cb28eb"></path>
<path d="M257.555 238.919C260.361 241.406 263.289 243.331 265.865 245.649C269.83 249.14 273.504 252.949 277.299 256.67C277.774 257.151 278.309 257.558 278.594 258.134C279.231 259.28 279.732 260.439 280.309 261.659C278.641 261.476 276.581 261.896 275.442 261.096C271.965 258.697 268.84 255.843 265.655 253.064C261.866 249.892 258.179 246.429 254.214 243.48C251.082 241.108 246.982 243.108 246.412 247.967C246.101 250.679 244.264 251.75 243.369 253.722C241.681 257.375 238.902 260.561 236.476 263.834C235.608 264.98 234.368 265.902 233.189 266.817C233.067 266.905 231.786 266.051 231.881 265.766C232.158 264.289 232.565 262.797 233.202 261.415C235.48 256.589 238.414 252.014 240.109 246.924C241.173 243.697 240.712 239.861 240.427 236.276C240.319 234.988 238.78 233.768 237.743 232.677C234.368 229.037 230.952 225.533 227.577 221.893C227.102 221.412 226.329 220.761 226.309 220.151C226.153 219.012 226.479 217.874 226.587 216.694C227.509 216.911 228.79 216.803 229.42 217.399C232.843 220.415 235.981 223.818 239.451 226.698C241.532 228.4 243.999 229.904 246.494 230.657C247.707 231.036 249.808 229.864 250.96 228.813C253.197 226.658 255.047 224.218 256.911 221.839C258.192 220.226 259.704 220.775 261.317 221.032C262.917 221.222 264.57 220.795 266.15 220.849C267.661 220.917 269.159 221.324 270.698 221.595C270.338 221.988 270.155 222.625 269.715 222.896C266.312 224.523 262.652 225.777 259.582 227.844C257.454 229.301 255.651 231.599 254.675 233.991C254.281 234.988 256.478 237.014 257.555 238.919ZM245.802 240.532C245.104 239.942 244.406 239.353 243.715 238.763C243.647 238.77 243.41 239.014 243.213 239.102C243.986 239.753 244.752 240.329 245.802 240.532Z" fill="#2249B3"></path>
<path d="M329.421 417.747C327.428 414.188 325.137 410.949 323.822 407.363C322.602 403.974 322.229 400.26 321.667 396.647C321.592 396.112 322.67 395.007 323.348 394.912C324.29 394.783 325.625 395.082 326.12 395.692C326.872 396.681 327.008 398.172 327.448 399.406C328.54 402.883 329.502 406.374 330.973 409.661C331.569 411.016 333.101 412.718 334.348 412.826C335.528 412.941 336.992 411.166 337.92 409.939C338.849 408.719 339.459 407.194 340.008 405.682C341.939 400.836 346.298 398.66 350.33 396.125C350.839 395.848 351.537 395.963 352.14 395.875C351.944 396.451 351.896 397.074 351.625 397.589C347.633 403.405 343.654 409.288 339.574 414.975C337.9 417.259 337.703 419.814 338.93 421.766C341.011 424.972 343.661 427.819 346.345 430.462C347.755 431.77 349.409 433.329 348.365 434.698C347.728 435.539 344.644 435.485 343.37 434.698C340.896 433.119 339.059 430.706 336.815 428.822C335.643 427.751 334.463 426.131 332.999 428.937C331.427 431.96 329.136 434.664 327.123 437.471C323.632 442.466 320.23 447.583 316.502 452.334C315.682 453.338 313.642 453.412 312.103 453.69C311.764 453.737 310.917 453.033 310.856 452.558C310.761 451.887 310.924 451.047 311.391 450.498C314.367 446.736 317.654 443.279 320.338 439.416C323.422 434.956 325.598 429.873 328.756 425.467C330.668 422.844 330.769 420.573 329.421 417.747Z" fill="#2249B3"></path>
<path d="M232.226 340.086C235.52 338.676 238.604 337.225 241.83 336.303C242.684 336.053 244.013 337.239 245.104 337.7C244.196 338.574 243.47 339.774 242.427 340.119C237.662 341.8 233.9 344.776 230.714 348.497C229.237 350.205 230.22 351.852 231.778 353.275C237.445 358.657 242.921 364.201 248.588 369.576C249.448 370.349 250.038 370.674 248.283 370.85C245.599 371.216 243.464 370.62 241.464 368.505C237.33 364.283 232.883 360.311 228.552 356.183C226.37 354.224 224.94 354.285 222.513 356.535C217.592 361.043 213.573 366.174 209.716 371.494C208.903 372.565 208.171 374.714 208.727 375.737C209.744 377.649 211.269 375.798 212.726 375.459C213.837 375.1 215.227 375.73 216.501 376.035C216.569 376.029 216.589 377.188 216.454 377.201C213.011 378.015 209.486 379.255 205.995 379.248C202.518 379.316 201.569 377.391 202.891 374.063C203.759 371.894 204.755 369.705 206.145 367.868C209.391 363.591 212.929 359.477 216.413 355.444C217.057 354.672 218.094 354.258 218.961 353.587C222.466 350.713 222.459 349.141 218.65 346.308C214.698 343.427 210.631 340.702 206.666 337.754C205.982 337.232 205.745 336.032 205.216 335.151C206.294 335.002 207.378 334.446 208.293 334.663C209.994 335.111 211.736 335.836 213.166 336.798C216.338 338.96 219.402 341.346 222.398 343.739C224.628 345.555 226.485 346.118 228.593 343.508C229.515 342.234 230.897 341.36 232.226 340.086Z" fill="#2249B3"></path>
<path d="M129.915 150.244C131.366 153.328 132.538 156.384 134.036 159.326C135.731 162.722 138.706 162.925 140.875 159.828C144.04 155.497 147.456 151.47 152.581 149.396C154.261 148.685 156.098 148.095 157.867 148.054C158.952 147.973 160.05 148.99 161.148 149.518C160.348 150.176 159.663 151.159 158.796 151.348C153.258 152.379 149.822 156.276 146.297 159.97C145.159 161.149 144.108 162.457 142.963 163.576C140.035 166.165 141.302 168.937 143.159 171.004C148.31 176.657 153.821 181.924 158.972 187.515C160.002 188.539 160.118 190.369 160.653 191.799C159.121 191.596 157.305 191.846 156.18 191.114C149.896 187.19 145.057 181.829 140.746 175.851C138.787 173.038 136.795 172.97 134.863 175.837C131.888 180.554 129.143 185.516 126.248 190.362C126.133 190.518 126.025 190.735 125.835 190.83C124.642 191.609 123.375 192.328 122.182 193.107C122.202 191.738 121.85 190.213 122.46 189.169C125.638 183.394 128.953 177.674 132.362 172.075C133.582 169.994 134.456 167.887 132.538 165.894C129.021 162.2 127.963 157.489 126.716 152.873C126.282 151.22 126.113 149.464 126.004 147.702C125.876 146.285 125.801 144.238 127.923 144.706C128.831 144.855 129.387 146.902 129.908 148.197C130.119 148.712 129.807 149.437 129.915 150.244Z" fill="#2249B3"></path>
<path d="M300.84 44.7051C298.874 41.3501 297.139 38.1644 295.201 35.0127C294.32 33.5623 290.612 34.0028 289.175 35.9752C284.695 42.1973 280.35 48.4736 276.101 54.8719C274.847 56.6884 274.189 58.898 273.166 60.8839C272.901 61.4668 272.42 61.9413 272.013 62.4767C271.593 61.921 270.976 61.3855 270.746 60.7348C269.519 56.7969 271.898 53.6655 273.376 50.4528C277.036 42.6989 282.641 36.1853 288.423 29.9835C290.863 27.3198 289.894 25.2661 288.477 23.409C286.139 20.3115 284.065 16.6921 279.645 15.8652C278.737 15.7161 278.127 14.2927 277.327 13.4455C278.574 13.0659 279.856 12.4152 281.137 12.3068C285.928 11.8527 288.172 15.7228 290.89 18.5628C293.615 21.4705 294.902 21.3621 297.58 18.4679C301.165 14.6316 304.48 10.348 310.451 10.0023C311.068 9.98875 311.684 10.0362 312.308 10.0904C311.901 10.6259 311.583 11.2833 311.088 11.6968C308.465 14.0419 305.679 16.1363 303.205 18.5899C301.335 20.4199 299.159 22.494 298.386 24.8594C297.783 26.9267 298.318 29.8615 299.362 31.9762C302.195 37.6764 305.598 43.0242 308.689 48.6227C309.061 49.3276 308.994 50.3579 309.116 51.2322C307.916 50.9882 306.364 51.1306 305.652 50.4053C303.937 48.799 302.555 46.7317 300.84 44.7051Z" fill="#2249B3"></path>
<path d="M142.434 95.4443C140.468 92.0893 138.733 88.9036 136.794 85.7519C135.913 84.3015 132.206 84.742 130.769 86.7144C126.289 92.9365 121.944 99.2128 117.694 105.611C116.44 107.428 115.783 109.637 114.759 111.623C114.495 112.206 114.014 112.68 113.607 113.216C113.187 112.66 112.57 112.125 112.34 111.474C111.113 107.536 113.492 104.405 114.97 101.192C118.63 93.438 124.235 86.9245 130.017 80.7227C132.457 78.059 131.487 76.0053 130.071 74.1482C127.732 71.0507 125.658 67.4313 121.239 66.6044C120.331 66.4553 119.721 65.0319 118.921 64.1847C120.168 63.8051 121.449 63.1544 122.73 63.046C127.522 62.5919 129.766 66.462 132.484 69.302C135.208 72.2097 136.496 72.1012 139.173 69.2071C142.752 65.364 146.06 61.0804 152.038 60.7415C152.655 60.728 153.271 60.7754 153.895 60.8296C153.488 61.3651 153.17 62.0225 152.675 62.436C150.052 64.7811 147.266 66.8755 144.792 69.3291C142.922 71.1591 140.746 73.2332 139.973 75.5986C139.37 77.6659 139.905 80.6007 140.949 82.7154C143.782 88.4156 147.185 93.7634 150.276 99.3619C150.648 100.067 150.581 101.097 150.703 101.971C149.503 101.727 147.951 101.87 147.239 101.145C145.524 99.5382 144.148 97.4641 142.434 95.4443Z" fill="#2249B3"></path>
<path d="M323.953 250.041C321.893 248.476 319.656 247.622 319.765 244.456C319.873 242.253 321.317 242.328 322.055 242.708C323.594 243.453 325.18 244.538 326.258 245.893C330.141 250.766 331.639 250.699 334.974 245.588C336.316 243.419 338.417 241.765 340.363 239.99C340.905 239.434 341.949 239.088 342.708 239.122C343.609 239.203 344.389 239.915 345.27 240.342C344.789 240.817 344.233 241.237 343.758 241.779C340.464 245.175 337.529 248.72 335.848 253.464C334.662 256.772 335.821 258.737 337.631 260.954C341.122 265.468 344.673 269.907 348.164 274.421C348.421 274.794 348.76 275.296 348.828 275.77C348.889 276.719 348.815 277.688 348.801 278.576C347.872 278.291 346.768 278.237 346.144 277.641C342.972 274.448 340.098 270.944 336.75 267.982C335.665 267.04 334.839 264.004 332.351 265.847C331.416 266.525 330.528 267.535 330.128 268.613C328.908 272.198 327.613 275.729 326.82 279.396C325.431 285.74 324.468 292.173 323.214 298.496C323.045 299.269 322.394 299.981 321.947 300.72C321.235 299.52 319.907 298.334 319.88 297.107C319.609 289.143 321.012 281.423 324.028 273.96C326.082 268.958 327.884 263.651 328.379 258.31C328.637 255.762 325.648 252.888 323.953 250.041Z" fill="#2249B3"></path>
<path d="M238.293 33.5825C239.222 33.8672 239.825 34.2603 240.482 34.5789C239.872 35.1415 239.391 36.0971 238.788 36.1785C230.146 37.5002 225.008 44.4339 218.217 48.7853C217.58 49.1446 217.282 51.4423 217.749 51.8625C222.86 56.7019 226.784 62.8698 233.535 65.703C235.135 66.374 237.087 66.1706 238.889 66.3401C240.069 66.4553 241.221 66.3604 242.407 66.5434C244.359 66.8213 244.115 67.5398 242.76 68.6175C239.167 71.3693 233.826 72.3046 229.129 68.5022C224.283 64.5846 219.376 60.7415 214.53 56.8239C212.212 54.8855 210.605 55.6514 209.27 57.8881C207.332 61.2296 205.407 64.6456 203.475 67.9871C203.136 68.5158 202.743 69.1122 202.248 69.5257C201.577 70.095 200.669 70.4949 199.91 70.9423C199.761 69.8646 199.307 68.5632 199.652 67.5601C201.442 62.6597 203.319 57.8881 207.244 54.0653C210.388 51.0356 207.257 48.1821 205.861 45.4981C204.702 43.058 202.973 40.9027 201.692 38.544C201.164 37.6561 200.784 36.4089 200.994 35.4261C201.143 34.5179 202.214 33.8198 202.851 32.9793C203.556 33.6368 204.885 34.3417 204.824 34.8975C204.6 37.7306 206.999 38.7744 208.274 40.5841C208.789 41.3364 209.758 41.9532 210.077 42.7327C211.303 46.1894 214.53 47.2535 217.627 44.4339C222.609 39.8521 227.903 36.0497 234.301 33.7994C235.399 33.4334 236.66 33.6707 238.293 33.5825Z" fill="#2249B3"></path>
<path d="M222.297 151.396C223.679 151.003 224.825 150.366 225.909 150.284C227.204 150.244 228.438 150.759 229.78 151.057C229.231 152.019 228.953 153.497 228.126 153.951C223.917 156.167 219.342 156.249 214.861 155.015C211.31 154.066 207.995 152.331 204.552 151.159C203.183 150.664 201.78 150.921 201.312 152.494C199.326 158.445 197.408 164.457 195.49 170.394C195.429 170.469 195.524 170.665 195.47 170.74C194.711 172.211 193.897 173.763 193.077 175.24C192.826 173.431 192.169 171.601 192.406 169.859C193.138 162.715 194.928 155.829 198.649 149.505C199.821 147.566 199.055 145.479 197.503 143.642C196.039 141.927 194.799 139.907 193.836 137.854C193.626 137.332 194.684 135.549 195.348 135.386C197.266 134.919 198.459 136.125 198.866 137.576C199.218 139.168 199.855 140.795 200.967 141.941C201.367 142.368 204.091 141.785 204.342 141.134C207.29 132.723 214.116 128.093 221.28 123.966C224.262 122.258 227.746 120.753 231.393 122.854C232.281 123.349 232.945 124.216 233.656 124.867C232.938 125.104 232.226 125.403 231.488 125.504C221.477 127.355 214.136 133.15 208.633 141.432C207.548 143.018 206.992 145.418 209.588 146.909C213.431 149.125 217.125 151.626 222.297 151.396Z" fill="#2249B3"></path>
<path d="M272.8 409.912C270.149 413.009 267.831 416.066 265.513 419.123C259.569 426.646 262.253 427.297 265.812 433.79C266.625 435.254 268.075 436.352 269.018 437.728C270.814 440.358 272.779 442.208 276.372 440.961C277.354 440.622 278.622 440.927 279.794 440.968C278.845 442.534 278.168 445.089 276.982 445.387C274.786 445.828 271.946 445.597 269.892 444.58C265.351 442.398 263.026 437.925 260.301 433.993C258.837 431.797 256.797 431.872 255.767 434.339C254.953 436.366 254.567 438.541 253.971 440.676C253.727 441.395 253.205 442.079 252.751 442.757C251.971 442.045 250.344 441.171 250.399 440.548C250.839 437.274 251.612 433.953 252.541 430.747C252.9 429.398 254.174 428.198 254.804 426.809C255.611 424.714 255.577 422.939 253.896 420.709C251.144 417.116 249.457 412.765 247.254 408.691C246.969 408.115 246.63 407.614 246.413 407.031C245.844 405.879 245.342 404.713 244.841 403.554C246.217 404.116 248.026 404.347 248.779 405.336C251.605 408.983 253.991 412.901 256.634 416.71C257.149 417.462 258.071 418.702 258.6 418.56C259.596 418.357 260.715 417.516 261.352 416.676C265.08 411.443 268.279 405.804 275.226 404.103C276.812 403.683 278.235 402.598 279.828 402.239C280.493 402.083 281.36 402.917 282.16 403.29C281.645 404.042 281.299 404.984 280.608 405.418C278.141 406.99 275.606 408.434 272.8 409.912Z" fill="#2249B3"></path>
<path d="M314.212 182.093C316.496 179.314 318.536 176.711 320.8 174.278C322.766 172.163 321.139 170.266 320.217 169.025C317.221 165.128 313.798 161.631 310.559 157.964C310.396 157.781 310.111 157.686 310.023 157.557C309.657 156.378 309.359 155.185 309.054 153.999C310.125 154.331 311.44 154.426 312.212 155.07C315.473 157.903 318.807 160.736 321.776 163.949C324.846 167.358 326.941 167.209 330.628 164.647C334.383 162.078 337.799 158.052 343.228 158.743C343.852 158.797 344.482 158.913 345.105 158.967C344.577 159.584 344.197 160.322 343.574 160.749C339.588 163.623 335.603 166.497 331.455 169.181C330.079 170.123 329.279 170.781 330.831 172.136C336.132 176.881 341.31 181.713 346.549 186.472C347.017 186.885 347.369 187.454 347.708 187.956C348.467 189.013 349.24 190.138 349.999 191.196C348.42 191.142 346.434 191.616 345.363 190.803C341.344 187.936 337.718 184.465 333.753 181.449C331.231 179.538 328.567 177.579 325.66 176.332C323.403 175.342 322.65 177.837 321.498 179.436C318.462 183.754 314.896 187.664 312.158 192.145C310.87 194.239 310.931 197.167 310.247 199.661C310.077 200.434 309.481 201.064 309.095 201.735C308.6 201.119 307.915 200.597 307.61 199.885C305.645 195.025 308.668 191.121 310.443 187.115C311.297 185.299 312.809 183.862 314.212 182.093Z" fill="#2249B3"></path>
<path d="M380.184 197.33C382.468 194.551 384.508 191.948 386.772 189.515C388.737 187.4 387.111 185.502 386.189 184.262C383.193 180.365 379.77 176.867 376.53 173.201C376.368 173.018 376.083 172.923 375.995 172.794C375.629 171.614 375.331 170.422 375.026 169.235C376.096 169.568 377.411 169.662 378.184 170.306C381.444 173.14 384.779 175.973 387.748 179.185C390.818 182.595 392.912 182.446 396.6 179.884C400.355 177.315 403.771 173.289 409.2 173.98C409.823 174.034 410.454 174.149 411.077 174.204C410.548 174.82 410.169 175.559 409.545 175.986C405.56 178.86 401.575 181.734 397.426 184.418C396.051 185.36 395.251 186.018 396.803 187.373C402.103 192.118 407.282 196.95 412.521 201.708C412.989 202.122 413.341 202.691 413.68 203.193C414.439 204.25 415.212 205.375 415.971 206.433C414.392 206.378 412.406 206.853 411.335 206.039C407.315 203.172 403.689 199.702 399.724 196.686C397.203 194.775 394.539 192.816 391.631 191.569C389.374 190.579 388.622 193.073 387.47 194.673C384.433 198.99 380.868 202.901 378.13 207.381C376.842 209.476 376.903 212.404 376.218 214.898C376.049 215.671 375.453 216.301 375.066 216.972C374.571 216.355 373.887 215.833 373.582 215.122C371.616 210.262 374.639 206.358 376.415 202.352C377.269 200.536 378.781 199.092 380.184 197.33Z" fill="#2249B3"></path>
<path d="M459.963 139.128C462.247 136.349 464.287 133.746 466.551 131.313C468.516 129.198 466.89 127.301 465.968 126.06C462.972 122.163 459.549 118.666 456.31 114.999C456.147 114.816 455.862 114.721 455.774 114.592C455.408 113.413 455.11 112.22 454.805 111.034C455.876 111.366 457.191 111.461 457.963 112.105C461.223 114.938 464.558 117.771 467.527 120.984C470.597 124.393 472.692 124.244 476.379 121.682C480.134 119.113 483.55 115.087 488.979 115.778C489.603 115.832 490.233 115.948 490.856 116.002C490.328 116.619 489.948 117.357 489.325 117.785C485.339 120.658 481.354 123.532 477.206 126.216C475.83 127.158 475.03 127.816 476.582 129.171C481.883 133.916 487.061 138.749 492.3 143.507C492.768 143.92 493.12 144.489 493.459 144.991C494.218 146.048 494.991 147.173 495.75 148.231C494.171 148.177 492.185 148.651 491.114 147.838C487.095 144.971 483.469 141.5 479.503 138.484C476.982 136.573 474.318 134.614 471.411 133.367C469.154 132.377 468.401 134.872 467.249 136.471C464.213 140.789 460.647 144.7 457.909 149.18C456.621 151.274 456.682 154.202 455.998 156.696C455.828 157.469 455.232 158.099 454.845 158.77C454.351 158.154 453.666 157.632 453.361 156.92C451.396 152.06 454.418 148.156 456.194 144.15C457.048 142.334 458.56 140.89 459.963 139.128Z" fill="#FF7373"></path>
<path d="M652.538 193.331C654.822 190.552 656.862 187.949 659.126 185.516C661.092 183.401 659.465 181.503 658.543 180.263C655.547 176.366 652.125 172.868 648.885 169.202C648.722 169.019 648.437 168.924 648.349 168.795C647.983 167.616 647.685 166.423 647.38 165.237C648.451 165.569 649.766 165.664 650.539 166.307C653.799 169.141 657.133 171.974 660.102 175.186C663.172 178.596 665.267 178.447 668.954 175.885C672.709 173.316 676.125 169.29 681.554 169.981C682.178 170.035 682.808 170.15 683.432 170.205C682.903 170.821 682.523 171.56 681.9 171.987C677.914 174.861 673.929 177.735 669.781 180.419C668.405 181.361 667.605 182.019 669.157 183.374C674.458 188.119 679.636 192.951 684.875 197.709C685.343 198.123 685.695 198.692 686.034 199.194C686.793 200.251 687.566 201.376 688.325 202.434C686.746 202.379 684.76 202.854 683.689 202.04C679.67 199.173 676.044 195.703 672.079 192.687C669.557 190.776 666.894 188.817 663.986 187.57C661.729 186.58 660.976 189.074 659.824 190.674C656.788 194.991 653.223 198.902 650.484 203.382C649.196 205.477 649.258 208.405 648.573 210.899C648.404 211.672 647.807 212.302 647.421 212.973C646.926 212.356 646.241 211.835 645.936 211.123C643.971 206.263 646.994 202.359 648.769 198.353C649.624 196.537 651.135 195.1 652.538 193.331Z" fill="#FF7373"></path>
<path d="M364.384 351.893C366.22 349.663 367.854 347.575 369.67 345.623C371.25 343.922 369.942 342.404 369.203 341.407C366.797 338.276 364.052 335.47 361.456 332.535C361.327 332.386 361.096 332.312 361.029 332.21C360.737 331.261 360.493 330.305 360.256 329.35C361.117 329.614 362.167 329.688 362.791 330.21C365.407 332.488 368.078 334.752 370.463 337.334C372.924 340.072 374.611 339.95 377.567 337.896C380.576 335.836 383.321 332.61 387.672 333.159C388.174 333.199 388.682 333.294 389.177 333.335C388.75 333.83 388.445 334.426 387.944 334.765C384.744 337.07 381.552 339.374 378.224 341.529C377.119 342.282 376.482 342.81 377.729 343.902C381.986 347.711 386.141 351.588 390.336 355.397C390.709 355.729 390.994 356.183 391.265 356.59C391.875 357.437 392.492 358.345 393.102 359.193C391.834 359.145 390.241 359.532 389.381 358.881C386.154 356.576 383.247 353.791 380.061 351.378C378.041 349.846 375.899 348.273 373.568 347.27C371.758 346.477 371.155 348.477 370.233 349.758C367.8 353.221 364.933 356.359 362.737 359.952C361.706 361.633 361.754 363.985 361.205 365.977C361.069 366.601 360.588 367.102 360.283 367.638C359.883 367.143 359.334 366.723 359.09 366.154C357.511 362.256 359.937 359.125 361.361 355.905C362.052 354.468 363.265 353.309 364.384 351.893Z" fill="#2249B3"></path>
<path d="M427.845 395.692C429.681 393.462 431.315 391.374 433.131 389.422C434.711 387.721 433.402 386.202 432.664 385.206C430.258 382.075 427.512 379.269 424.917 376.334C424.788 376.185 424.557 376.11 424.49 376.009C424.198 375.06 423.954 374.104 423.717 373.148C424.578 373.413 425.628 373.487 426.252 374.009C428.868 376.286 431.539 378.55 433.924 381.133C436.385 383.871 438.072 383.749 441.028 381.695C444.037 379.635 446.782 376.408 451.133 376.957C451.635 376.998 452.143 377.093 452.638 377.134C452.211 377.628 451.906 378.225 451.405 378.564C448.205 380.868 445.013 383.173 441.685 385.328C440.58 386.08 439.943 386.609 441.19 387.7C445.447 391.51 449.602 395.387 453.797 399.202C454.17 399.535 454.455 399.989 454.726 400.395C455.336 401.243 455.952 402.151 456.562 402.998C455.295 402.951 453.702 403.337 452.841 402.686C449.615 400.382 446.707 397.596 443.522 395.183C441.502 393.651 439.36 392.079 437.029 391.076C435.219 390.283 434.616 392.282 433.694 393.563C431.261 397.027 428.394 400.165 426.198 403.757C425.167 405.438 425.215 407.79 424.666 409.783C424.53 410.406 424.049 410.908 423.744 411.443C423.344 410.949 422.795 410.528 422.551 409.959C420.972 406.062 423.398 402.93 424.822 399.711C425.506 398.26 426.719 397.108 427.845 395.692Z" fill="#cb28eb"></path>
<path d="M386.147 264.77C387.984 262.54 389.618 260.452 391.434 258.5C393.013 256.799 391.705 255.281 390.966 254.284C388.56 251.153 385.815 248.347 383.219 245.412C383.09 245.263 382.86 245.188 382.792 245.087C382.501 244.138 382.257 243.182 382.02 242.227C382.88 242.491 383.931 242.565 384.555 243.087C387.171 245.365 389.841 247.628 392.227 250.211C394.687 252.949 396.375 252.827 399.33 250.773C402.34 248.713 405.085 245.487 409.436 246.036C409.938 246.076 410.446 246.171 410.941 246.212C410.514 246.707 410.209 247.303 409.707 247.642C406.508 249.947 403.316 252.251 399.988 254.406C398.883 255.159 398.246 255.687 399.493 256.779C403.749 260.588 407.904 264.465 412.1 268.274C412.473 268.606 412.757 269.06 413.028 269.467C413.638 270.314 414.255 271.222 414.865 272.07C413.598 272.022 412.005 272.408 411.144 271.758C407.918 269.453 405.01 266.668 401.825 264.255C399.805 262.723 397.663 261.15 395.331 260.147C393.522 259.354 392.918 261.354 391.997 262.635C389.563 266.098 386.696 269.236 384.5 272.829C383.47 274.51 383.517 276.862 382.968 278.854C382.833 279.478 382.352 279.979 382.047 280.515C381.647 280.02 381.098 279.6 380.854 279.03C379.275 275.133 381.701 272.002 383.124 268.782C383.809 267.345 385.022 266.186 386.147 264.77Z" fill="#2249B3"></path>
<path d="M152.602 258.304C150.508 257.016 148.528 256.06 146.841 254.718C145.912 253.959 145.58 252.495 145.011 251.343C146.163 251.255 147.593 250.712 148.542 251.133C151.294 252.258 153.951 253.674 156.492 255.24C159.637 257.206 161.705 256.853 163.04 253.593C165.304 248.15 170.116 245.853 174.861 243.487C175.504 243.196 176.596 243.657 177.497 243.745C177.07 244.626 176.948 245.737 176.352 246.368C173.661 249.201 170.801 251.783 168.178 254.603C163.182 260.079 163.25 261.571 169.553 265.637C172.183 267.332 175.355 268.057 178.277 269.365C179.226 269.785 180.141 270.477 181.117 271.093C179.971 271.731 178.846 272.978 177.626 273.079C173.234 273.479 169.553 271.588 166.07 269.121C162.335 266.349 160.234 266.979 158.655 271.439C156.513 277.756 154.229 284.087 152.019 290.41C151.687 291.481 151.707 292.64 151.457 293.772C151.348 294.47 151.036 295.196 150.86 295.907C150.358 295.223 149.728 294.626 149.416 293.847C147.62 289.238 149.484 284.873 150.386 280.44C151.063 277.404 152.161 274.449 153.266 271.493C153.863 269.84 154.649 268.091 155.679 266.647C158.079 263.17 158.045 262.425 154.683 259.876C154.052 259.408 153.436 258.873 152.602 258.304Z" fill="#2249B3"></path>
<path d="M267.357 104.852C266.768 104.045 266.246 103.225 265.92 102.378C265.29 100.751 266.293 99.5924 267.994 100.04C269.486 100.453 270.902 101.28 272.346 101.836C275.457 103.049 278.548 104.683 281.767 105.198C283.157 105.347 285.278 103.347 286.451 101.958C289.745 98.0199 292.639 93.7228 295.872 89.8594C296.577 89.0121 298.38 89.1748 299.661 89.0664C299.864 89.0392 300.488 90.5982 300.257 90.9032C298.115 93.7295 295.811 96.3729 293.581 99.0705C292.463 100.385 291.263 101.646 290.226 103.022C289.812 103.49 289.704 104.188 289.284 104.656C285.773 108.492 285.549 108.865 290.029 111.603C294.808 114.504 294.93 119.892 297.79 123.81C298.048 124.183 297.58 125.274 297.187 125.877C297.072 126.033 296.028 125.897 295.58 125.62C294.672 124.989 293.757 124.298 293.032 123.505C290.755 120.875 288.714 117.94 286.193 115.548C283.828 113.27 281.388 113.948 278.961 116.679C274.223 122.048 269.411 127.361 264.443 132.56C263.731 133.34 262.071 133.224 260.884 133.529C260.986 132.282 260.62 130.622 261.339 129.842C265.554 124.677 269.919 119.567 274.528 114.761C278.114 110.986 277.863 108.146 273.017 106.214C271.343 105.469 269.397 105.259 267.357 104.852Z" fill="#2249B3"></path>
<path d="M344.219 94.482C343.629 93.6754 343.107 92.8553 342.782 92.0081C342.151 90.3814 343.154 89.2224 344.856 89.6697C346.347 90.0832 347.763 90.9101 349.207 91.4659C352.318 92.6791 355.409 94.3126 358.628 94.8277C360.018 94.9768 362.139 92.9773 363.312 91.5879C366.606 87.6499 369.5 83.3527 372.733 79.4893C373.438 78.6421 375.241 78.8047 376.522 78.6963C376.725 78.6692 377.349 80.2281 377.118 80.5331C374.977 83.3595 372.672 86.0029 370.442 88.7005C369.324 90.0154 368.124 91.2761 367.087 92.652C366.674 93.1197 366.565 93.8178 366.145 94.2855C362.634 98.1217 362.41 98.4945 366.891 101.233C371.669 104.134 371.791 109.522 374.651 113.44C374.909 113.813 374.441 114.904 374.048 115.507C373.933 115.663 372.889 115.527 372.442 115.249C371.534 114.619 370.618 113.928 369.893 113.135C367.616 110.505 365.576 107.57 363.054 105.178C360.689 102.9 358.249 103.578 355.822 106.309C351.085 111.678 346.272 116.991 341.304 122.19C340.592 122.969 338.932 122.854 337.746 123.159C337.847 121.912 337.481 120.252 338.2 119.472C342.416 114.307 346.781 109.197 351.39 104.391C354.975 100.616 354.724 97.7761 349.878 95.8444C348.197 95.0988 346.259 94.8887 344.219 94.482Z" fill="#2249B3"></path>
<path d="M302.16 313.733C303.482 313.415 304.627 313.259 305.766 313.103C305.271 313.991 304.858 314.94 304.207 315.712C302.018 318.2 299.693 320.708 297.361 323.148C294.257 326.448 295.097 329.071 298.825 331.844C302.106 334.338 305.759 336.5 309.263 338.622C310.226 339.171 311.493 339.408 312.591 339.462C313.96 339.482 316.034 338.649 315.797 340.872C315.695 342.119 313.96 343.929 312.747 344.091C310.924 344.274 308.674 343.827 307.04 342.892C302.492 340.16 298.12 337.205 293.85 334.026C291.261 332.122 289.614 332.555 287.75 334.934C287.052 335.849 285.818 336.297 284.809 336.914C284.985 335.727 284.944 334.433 285.48 333.335C287.649 329.207 287.364 327.601 284.11 324.354C282.931 323.215 282.043 321.765 281.162 320.314C280.884 319.806 281.243 318.932 281.291 318.247C282.05 318.281 282.918 318.159 283.453 318.566C284.361 319.196 285.181 320.179 285.981 321.026C289.106 324.361 290.909 324.042 294.006 320.68C296.324 318.091 299.34 316.105 302.16 313.733Z" fill="#2249B3"></path>
<path d="M280.05 509.228C280.253 509.607 280.402 509.946 280.409 510.353C280.416 510.4 280.131 510.543 279.935 510.624C279.921 510.163 279.908 509.709 280.05 509.228Z" fill="#2249B3"></path>
<path d="M267.023 104.9C267.152 105.361 267.078 105.781 266.996 106.201C266.942 105.801 266.881 105.395 267.023 104.9Z" fill="#2249B3"></path>
<path d="M392.313 508.144C391.981 507.466 391.682 506.802 391.54 506.117C391.147 504.368 389.961 503.799 388.314 504.66C386.463 505.663 384.586 506.605 382.776 507.628C380.905 508.665 379.821 510.136 380.621 512.407C380.763 512.807 380.709 513.207 380.756 513.607C380.865 517.917 380.987 522.181 381.109 526.451C381.156 529.406 381.299 532.361 381.285 535.33C381.271 535.845 380.709 536.333 380.411 536.848C380.004 536.414 379.313 536.082 379.245 535.628C378.757 532.605 378.194 529.541 377.957 526.498C377.645 522.425 377.659 518.358 377.401 514.264C377.34 513.003 376.378 512.353 375.531 512.847C372.487 514.461 369.458 516.033 366.516 517.829C365.174 518.649 364.069 519.774 362.354 518.812C361.988 518.588 361.731 518.134 361.426 517.795C361.744 517.524 362.083 517.212 362.442 516.962C363.195 516.474 364.008 515.965 364.801 515.498C368.088 513.39 370.786 510.428 374.67 509.032C376.778 508.293 377.984 506.273 377.598 503.819C377.049 500.627 376.317 497.435 375.863 494.235C375.639 492.331 374.263 491.856 372.901 491.253C372.481 491.05 372.115 490.826 371.688 490.623C372.196 490.25 372.643 489.715 373.179 489.586C374.738 489.199 378.066 491.131 378.472 492.744C379.245 495.665 379.862 498.614 380.438 501.542C380.831 503.575 381.393 504.084 383.23 503.216C385.291 502.267 387.473 501.278 389.127 499.807C390.537 498.546 391.404 500.288 392.482 499.814C392.862 500.796 393.6 501.82 393.539 502.735C393.397 504.599 392.821 506.395 392.313 508.144Z" fill="#cb28eb"></path>
<path d="M522.422 267.759C524.035 266.281 526.746 265.02 526.665 263.936C526.475 261.36 525.458 258.622 523.879 256.582C521.588 253.674 518.491 251.363 515.752 248.767C515.413 248.381 515.434 247.71 515.21 247.228C516.762 247.445 518.308 247.513 519.765 247.913C521.29 248.347 522.727 249.262 524.306 249.567C525.919 249.818 527.525 249.757 528.251 251.688C529.295 254.521 530.311 257.416 531.782 260.154C532.561 261.503 534.195 263.272 535.469 263.278C538.079 263.326 540.885 262.648 543.386 261.665C547.574 259.991 551.601 257.714 555.783 255.891C556.562 255.518 557.755 256.013 558.697 256.087C558.439 257.246 558.399 258.425 557.904 259.463C557.701 260.039 556.765 260.418 556.169 260.73C551.845 263.163 547.513 265.441 543.182 267.874C541.861 268.592 540.024 269.29 539.522 270.477C538.146 273.805 536.54 277.315 536.56 280.711C536.615 286.079 537.997 291.332 538.689 296.626C538.865 298.137 538.797 299.683 538.607 301.174C538.614 301.479 537.137 301.892 537.042 301.777C536.201 300.55 535.307 299.289 534.832 297.934C533.531 294.077 531.863 290.187 531.375 286.195C531.131 284.046 529.708 282.46 530.243 279.783C531.199 274.977 527.905 271.819 524.198 273.12C519.521 274.706 514.952 276.875 510.371 278.732C506.487 280.399 502.63 282.155 498.591 283.375C497.262 283.788 495.425 282.758 493.785 282.419C494.707 281.436 495.541 280.481 496.496 279.586C496.944 279.125 497.574 278.902 498.177 278.59C502.929 276.211 507.592 273.71 512.438 271.609C515.61 270.205 518.992 269.27 522.422 267.759ZM533.11 272.896C534.175 273.032 535.076 272.713 536.011 272.334C535.856 272.185 535.7 271.886 535.639 271.852C534.798 272.205 533.958 272.551 533.11 272.896Z" fill="#FF7373"></path>
<path d="M399.187 438.636C397.038 440.914 396.435 443.103 397.425 446.214C399.085 451.372 399.594 456.882 401.159 462.074C402.535 466.568 404.603 470.872 406.277 475.366C406.561 476.03 406.453 476.877 406.161 477.487C405.958 477.914 404.935 478.328 404.623 478.178C403.247 477.44 401.329 476.742 400.854 475.542C398.767 469.876 397.093 463.958 395.303 458.136C394.253 454.849 392.897 451.568 392.328 448.207C391.792 445.096 390.172 446.268 388.729 446.932C386.018 448.037 383.53 449.772 380.69 450.518C379.24 450.877 376.285 449.982 375.939 448.986C375.37 447.359 377.416 446.383 379.158 445.57C382.527 443.882 385.923 441.978 388.885 439.565C390.647 438.08 391.25 435.586 390.355 432.902C388.22 426.233 386.234 419.414 384.215 412.657C384.113 412.08 384.255 411.47 384.249 410.867C384.798 411.132 385.496 411.24 385.896 411.66C388.952 415.314 392.436 418.709 392.789 423.921C392.843 425.528 392.958 427.161 393.466 428.612C393.975 430.062 394.829 432.197 395.981 432.455C397.201 432.739 399.18 431.587 400.163 430.482C402.576 427.805 404.562 424.775 406.663 421.8C407.463 420.756 408.053 419.38 409.069 418.669C409.727 418.235 411.096 418.364 411.95 418.777C412.56 419.068 413.251 420.451 413.014 420.946C411.367 424.213 409.876 427.636 407.68 430.489C405.348 433.478 402.169 435.864 399.187 438.636Z" fill="#cb28eb"></path>
<path d="M515.509 394.519C516.384 396.145 517.434 397.399 517.916 398.904C519.115 402.035 521.06 402.069 523.738 401.026C527.323 399.663 530.97 398.335 534.65 397.244C536.311 396.762 538.188 396.613 539.944 396.708C540.886 396.783 541.747 397.65 542.723 398.118C541.943 398.796 541.353 399.867 540.54 400.151C535.863 401.737 531.16 403.086 526.517 404.618C522.023 406.143 521.535 407.634 523.989 411.45C524.612 412.351 525.466 413.063 525.846 413.998C527.926 418.906 530.034 423.908 531.81 428.971C532.569 431.14 532.854 433.532 533.01 435.864C533.247 439.436 531.756 440.974 528.462 439.849C525.141 438.778 522.165 436.521 519.136 434.691C519.014 434.63 519.393 433.532 519.454 433.566C520.762 433.668 522.274 433.492 523.223 434.176C524.51 434.942 525.392 437.172 526.944 435.661C527.777 434.861 527.743 432.583 527.303 431.323C525.263 425.08 523.019 418.96 519.712 413.165C518.092 410.277 516.75 409.783 514.066 410.982C508.677 413.585 503.228 416.005 498.002 418.75C495.447 420.153 493.23 420.065 490.79 418.892C489.17 418.187 489.835 418.058 490.892 417.584C497.934 414.202 504.848 410.603 511.89 407.221C513.815 406.339 515.252 405.079 514.371 402.998C512.48 398.477 509.809 394.492 505.79 391.428C504.902 390.777 504.577 389.415 503.98 388.303C505.16 388.195 506.786 387.47 507.525 387.978C510.311 389.842 512.805 392.167 515.509 394.519Z" fill="#FF7373"></path>
<path d="M671.102 245.195C671.455 244.463 671.38 243.677 671.739 243.243C672.634 242.165 673.786 240.39 674.694 240.532C676.85 240.742 676.152 242.66 675.596 243.975C674.952 245.622 674.254 247.242 673.339 248.679C670.736 252.691 668.283 256.853 663.802 259.286C661.369 260.594 661.552 262.872 662.074 265.224C663.599 271.595 665.002 278.061 666.256 284.527C666.52 285.707 665.72 287.049 665.314 288.363C664.419 287.259 663.43 286.181 662.535 285.069C662.379 284.92 662.345 284.676 662.284 284.5C661.017 279.003 659.925 273.439 658.536 268.037C657.573 264.715 655.655 264.173 652.931 266.247C647 270.612 640.751 274.232 633.559 276.041C632.258 276.394 630.611 275.601 629.093 275.323C630.042 274.123 630.713 272.415 632.007 271.758C638.616 268.016 645.475 264.695 652.117 260.893C654.523 259.49 656.577 257.246 654.584 253.884C653.832 252.475 653.236 250.902 652.51 249.431C650.287 244.829 648.213 240.071 643.259 237.387C642.493 236.946 642.14 235.801 641.584 234.927C642.798 234.757 644.146 234.127 645.156 234.54C646.831 235.123 648.396 236.248 649.779 237.441C654.015 240.979 656.035 245.859 657.723 250.956C658.841 254.576 661.728 255.287 664.385 252.576C666.73 250.238 668.777 247.689 671.102 245.195Z" fill="#FF7373"></path>
<path d="M540.771 92.3334C538.52 93.7296 536.575 95.2818 534.433 96.2849C533.532 96.7526 532.095 96.1426 530.882 96.007C531.261 95.214 531.519 94.2109 532.088 93.6551C536.751 89.2766 541.625 85.2302 546.071 80.6754C547.711 78.9809 549.128 76.3511 549.182 74.2025C549.175 71.7151 547.738 69.0717 546.518 66.7536C544.926 63.6561 542.906 60.8094 541.13 57.7729C540.791 57.2307 540.683 56.5055 540.466 55.8751C541.076 56.0175 541.686 56.1598 542.262 56.3631C547.84 58.5185 549.684 63.6155 551.907 68.3668C553.567 71.9455 554.76 72.4471 558.244 70.5086C561.701 68.6379 565.022 65.6421 569.441 67.5467C570.634 68.0414 571.651 69.0581 572.722 69.7969C571.698 70.3595 570.688 71.5253 569.773 71.3897C565.307 70.8204 562.23 73.6332 559.051 75.8631C557.133 77.1984 555.58 78.8589 557.085 82.1395C560.691 89.812 564.032 97.7354 565.13 106.235C565.551 109.746 566.852 113.453 564.48 116.822C564.066 117.371 563.314 117.689 562.745 118.089C562.521 117.459 562.209 116.856 562.141 116.219C561.775 114.009 561.83 111.705 561.186 109.597C559.098 102.202 556.895 94.9022 554.537 87.6024C553.771 85.2776 550.382 83.7255 549.094 84.8371C546.302 87.2432 543.672 89.7375 540.771 92.3334Z" fill="#FF7373"></path>
<path d="M452.549 296.761C450.068 298.951 446.333 300.767 445.798 303.295C444.639 308.528 444.727 314.133 445.14 319.522C445.723 327.547 444.693 335.321 441.989 342.824C441.582 343.983 439.955 344.708 438.911 345.63C438.715 344.783 438.308 343.908 438.39 343.122C439.135 336.717 440.186 330.298 440.816 323.832C441.182 320.098 441.033 316.343 440.972 312.554C440.925 311.402 440.389 310.168 439.704 309.24C437.908 306.718 436.187 309.355 434.865 309.924C430.771 311.713 426.962 314.174 422.956 316.234C422.177 316.607 421.106 316.322 420.137 316.309C420.394 315.455 420.625 314.513 420.97 313.625C421.174 313.198 421.655 312.825 422.014 312.547C426.725 309.321 431.463 306.183 436.173 302.956C438.573 301.404 440.281 299.893 440.165 296.375C440.023 291.346 438.322 287.069 436.221 282.826C435.936 282.162 435.536 281.593 435.224 280.989C436.194 280.854 437.156 280.413 438.037 280.61C438.769 280.813 439.657 281.464 440.003 282.155C441.311 284.439 442.802 286.656 443.419 289.136C445.025 295.02 446.428 295.548 451.62 292.098C453.057 291.136 454.901 290.594 456.595 290.35C457.408 290.214 458.811 290.587 458.242 292.722C457.381 295.779 454.989 295.907 452.549 296.761Z" fill="#cb28eb"></path>
<path d="M603.723 100.921C605.248 101.504 606.523 101.667 607.471 102.344C612.873 106.445 616.744 111.684 620.078 117.574C622.166 121.207 625.562 121.187 627.792 118.272C628.327 117.628 629.445 117.337 630.164 116.781C631.933 115.453 634.536 115.195 635.186 112.43C635.302 111.881 636.779 111.616 637.653 111.21C638.006 112.206 638.806 113.196 638.67 114.104C638.562 115.107 637.823 116.178 637.043 116.856C635.105 118.706 632.794 120.224 630.943 122.197C628.795 124.325 624.938 126.081 627.005 129.93C629.567 134.77 629.893 139.887 630.096 145.099C630.11 146.163 629.283 147.261 628.808 148.244C628.219 147.587 627.487 146.929 627.019 146.184C626.68 145.641 626.483 144.95 626.321 144.347C625.501 140.572 624.714 136.735 623.901 132.953C623.318 130.418 622.024 129.192 619.224 130.33C613.409 132.574 607.56 134.729 601.744 136.973C596.112 139.155 591.313 136.62 588.737 132.906C587.775 131.469 587.761 130.71 589.707 131.042C590.893 131.238 591.957 131.672 593.116 131.93C594.878 132.33 596.681 133.116 598.409 132.967C605.702 132.336 611.335 127.673 617.679 124.63C618.248 124.379 618.669 122.095 618.174 121.56C613.043 115.338 610.278 107.163 602.456 103.253C601.907 102.988 601.737 101.931 601.331 101.206C602.056 101.097 602.754 100.907 603.723 100.921Z" fill="#FF7373"></path>
<path d="M582.828 217.968C587.674 219.771 591.964 218.524 596.316 217.602C599.244 216.979 599.447 214.518 598.905 212.682C596.207 203.111 590.995 195.344 582.035 190.511C581.364 190.186 580.781 189.684 580.164 189.237C581.038 188.83 581.94 188.207 582.936 188.01C587.044 187.129 589.904 189.63 592.215 192.172C597.766 198.299 602.843 204.799 603.073 213.705C603.114 214.403 605.534 215.786 606.042 215.508C607.452 214.756 608.557 213.407 609.384 211.997C610.21 210.743 611.715 209.957 613.403 210.994C613.986 211.346 614.44 213.373 614.081 213.8C612.529 215.461 610.732 217.006 608.814 218.185C606.774 219.459 605.405 221.208 605.927 223.418C607.526 230.575 607.12 237.678 605.622 244.707C605.317 246.442 604.124 247.974 603.338 249.621C603.006 247.961 602.707 246.239 602.443 244.605C602.409 244.517 602.558 244.361 602.531 244.273C602.524 238.031 602.545 231.721 602.477 225.451C602.511 223.811 601.257 223.133 599.806 223.187C596.167 223.242 592.479 223.879 588.813 223.696C584.17 223.499 579.846 222.015 576.518 218.612C575.867 217.928 576.057 216.437 575.833 215.352C577.202 215.481 578.531 215.372 579.751 215.806C580.733 216.206 581.628 217.169 582.828 217.968Z" fill="#FF7373"></path>
<path d="M455.483 448.546C453.267 446.275 451.288 444.126 449.438 441.883C448.916 441.253 448.868 440.256 448.611 439.382C449.485 439.28 450.569 438.745 451.152 439.097C452.562 439.924 453.586 441.395 454.962 442.283C461.055 446.038 462.363 452.382 464.308 458.509C464.661 459.505 465.46 460.644 466.348 461.146C466.809 461.444 468.07 460.543 468.788 459.987C472.476 457.167 475.939 454.178 479.748 451.569C480.765 450.857 482.561 451.189 484.045 451.074C483.212 452.029 482.378 452.978 481.483 453.9C481.097 454.388 480.616 454.761 480.169 455.222C476.82 458.428 473.879 462.054 470.158 464.623C467.88 466.236 467.297 467.91 467.426 470.154C467.602 471.665 468.443 473.197 468.375 474.593C468.273 477.928 467.995 481.33 467.413 484.584C467.27 485.194 465.454 485.526 464.491 485.966C464.268 485.18 463.983 484.367 463.969 483.608C464.057 481.391 464.356 479.209 464.2 477.026C463.976 474.363 462.058 473.664 459.991 475.305C456.188 478.212 452.603 481.757 447.614 482.442C445.344 482.781 442.578 482.13 440.62 481.039C439.576 480.388 439.718 477.752 439.298 475.969C440.423 476.288 441.731 476.382 442.558 477.006C445.595 479.29 448.035 478.131 450.549 476.186C451.864 475.162 453.586 474.559 454.812 473.42C460.187 468.337 462.953 468.534 459.598 459.553C458.33 455.927 457.056 452.307 455.483 448.546Z" fill="#cb28eb"></path>
<path d="M475.783 222.293C476.576 224.401 477.572 226.237 477.816 228.23C478.277 232.588 479.958 237.231 476.596 241.257C476.088 241.84 475.275 242.125 474.617 242.559C474.454 241.806 474.075 241.02 474.156 240.234C474.265 237.658 475.227 234.879 474.644 232.493C473.411 227.39 471.215 222.571 469.649 217.535C469.046 215.664 469.093 213.054 466.639 213.305C463.495 213.597 460.356 214.647 457.367 215.691C452.663 217.338 448.149 219.534 443.446 221.032C442.178 221.479 440.436 220.415 438.911 219.981C439.962 219.209 441.039 218.368 442.09 217.596C442.571 217.223 443.08 216.789 443.649 216.538C450.088 213.617 456.5 210.608 463 207.713C464.898 206.893 464.335 206.026 463.318 204.704C460.194 200.875 457.286 196.916 454.372 192.958C453.911 192.362 453.775 191.541 453.456 190.789C454.066 190.931 454.704 191.013 455.314 191.155C460.695 192.165 462.715 197.038 465.494 200.637C468.219 204.203 470.171 204.989 474.136 202.684C477.952 200.536 481.991 198.862 485.963 197.16C486.899 196.781 488.173 197.093 489.298 197.106C488.647 198.15 487.997 199.187 487.285 200.197C487.163 200.292 486.865 200.292 486.655 200.42C482.452 202.915 478.121 205.192 474.068 207.985C472.807 208.886 470.679 210.187 471.899 212.81C473.316 215.847 474.461 218.951 475.783 222.293Z" fill="#FF7373"></path>
<path d="M616.376 341.095C615.413 341.38 614.654 341.699 613.936 341.949C609.957 343.346 609.693 344.051 610.913 348.09C611.455 349.778 611.665 351.689 611.726 353.445C611.869 356.596 612.004 359.748 611.719 362.846C611.211 367.339 611.652 372.064 608.527 375.9C607.992 376.544 607.212 376.923 606.521 377.418C606.568 376.693 606.494 375.9 606.609 375.202C606.711 374.05 607.09 372.952 607.104 371.826C606.941 365.13 606.711 358.406 606.609 351.737C606.473 347.013 604.664 345.765 600.265 347.257C596.191 348.531 592.111 349.202 588.051 347.48C586.919 347.013 586.228 345.481 585.34 344.518C586.458 344.227 587.543 343.847 588.573 343.739C591.752 343.386 594.998 343.671 598.015 342.864C605.26 340.933 605.782 339.53 602.705 332.786C601.071 329.295 599.14 325.96 597.452 322.443C597.079 321.663 597.303 320.565 597.167 319.596C598.048 319.793 599.228 319.684 599.75 320.159C603.538 323.859 607.415 327.526 607.903 333.403C608.168 336.914 610.038 337.883 613.631 336.981C616.532 336.27 619.494 335.734 622.462 335.51C623.493 335.402 624.686 336.358 625.756 336.792C624.862 337.713 624.096 339.001 622.977 339.442C620.937 340.208 618.762 340.513 616.376 341.095Z" fill="#FF7373"></path>
<path d="M554.203 159.848C552.136 159.611 550.225 159.211 548.408 159.394C543.203 159.746 542.091 162.376 544.348 167.066C547.263 173.051 549.845 179.26 552.278 185.461C552.719 186.424 551.865 187.895 551.58 189.108C550.537 188.457 548.923 188.057 548.49 187.095C545.358 180.629 542.403 174.095 539.543 167.527C538.065 164.186 535.951 162.796 533.002 164.233C529.871 165.738 527.024 167.907 524.055 169.71C523.127 170.238 522.035 170.618 520.985 170.943C520.47 171.072 519.44 170.875 519.372 170.692C519.182 170.001 519.067 168.815 519.426 168.537C523.35 165.684 525.119 160.593 530.555 159.299C535.659 158.065 535.564 157.645 533.395 152.921C533.144 152.351 533.253 151.647 533.002 151.077C532.433 149.451 531.68 147.885 531.016 146.285C529.722 143.032 528.339 139.812 527.166 136.464C527.038 136.105 528.108 134.81 528.291 134.898C529.484 135.393 531.247 135.793 531.653 136.817C533.544 141.487 534.988 146.468 536.913 151.226C537.604 152.914 539.014 155.469 540.376 155.747C543.596 156.242 547.046 155.646 550.374 155.435C551.919 155.347 553.519 154.995 555.064 155.056C556.826 155.151 557.423 156.567 556.325 157.916C555.762 158.641 555.01 159.258 554.203 159.848Z" fill="#FF7373"></path>
<path d="M523.29 321.792C525.249 324.917 527.506 327.729 528.922 330.888C530.834 335.043 532.454 335.897 536.453 333.68C537.476 333.118 538.554 332.433 539.611 332.115C540.241 331.891 541.041 332.277 541.766 332.474C541.597 333.145 541.671 334.08 541.251 334.48C539.963 335.592 538.682 336.703 537.205 337.422C533.118 339.516 532.352 340.953 533.152 345.549C533.321 346.762 532.887 347.975 532.691 349.161C531.918 348.266 530.874 347.46 530.495 346.375C529.451 343.542 528.007 342.627 524.964 343.644C519.928 345.359 514.858 346.836 509.693 348.036C507.85 348.429 505.572 348.158 503.892 347.433C502.794 346.904 501.695 344.647 501.98 343.434C502.428 341.245 504.149 342.675 505.464 343.075C506.528 343.359 507.802 343.522 508.894 343.291C512.879 342.349 517.02 341.407 520.911 340.038C525.316 338.547 526.916 336.303 524.971 332.216C523.5 329.18 522.056 326.076 520.735 323.039C520.355 322.104 520.247 321.074 520.05 320.077C521.087 320.586 522.124 321.087 523.29 321.792Z" fill="#FF7373"></path>
<path d="M423.478 496.391C425.437 499.515 427.694 502.328 429.111 505.486C431.022 509.641 432.642 510.495 436.641 508.279C437.664 507.716 438.742 507.032 439.8 506.713C440.43 506.49 441.23 506.876 441.955 507.072C441.785 507.744 441.86 508.679 441.44 509.079C440.152 510.19 438.871 511.302 437.393 512.02C433.306 514.115 432.54 515.552 433.34 520.147C433.51 521.36 433.076 522.574 432.879 523.76C432.107 522.865 431.063 522.058 430.683 520.974C429.639 518.141 428.196 517.226 425.152 518.242C420.117 519.957 415.047 521.435 409.882 522.635C408.038 523.028 405.761 522.757 404.08 522.031C402.982 521.503 401.884 519.246 402.169 518.032C402.616 515.843 404.338 517.273 405.652 517.673C406.717 517.958 407.991 518.12 409.082 517.89C413.068 516.948 417.209 516.006 421.099 514.637C425.505 513.146 427.105 510.902 425.159 506.815C423.688 503.778 422.245 500.674 420.923 497.638C420.544 496.702 420.435 495.672 420.239 494.676C421.276 495.184 422.313 495.686 423.478 496.391Z" fill="#cb28eb"></path>
<path d="M554.509 159.99C554.488 160.505 554.312 160.871 554.136 161.237C554.19 160.817 554.244 160.39 554.509 159.99Z" fill="#FF7373"></path>
</svg>
