<svg height="57" viewBox="0 0 110 57" width="110" xmlns="http://www.w3.org/2000/svg"><g fill="none" fill-rule="evenodd"><path d="m31.4073879 21.7457344v21.6894712c0 .4246687.3511679.7689307.7843512.7689307h6.2556522c.4275699-.0076689.7700056-.3496949.7700056-.7689307v-22.5427967c.0008567-.2232543-.0973013-.4358536-.2689713-.5825498-.17167-.1466963-.3999008-.2130041-.6253821-.1816922l-6.2365218.8533255c-.3898434.051734-.6802871.3785774-.6791338.764242z" fill="#373373"/><path d="m64.0199943 21.7457344v21.6894712c0 .4246687.3511702.7689307.7843535.7689307h6.2508696c.4331833 0 .7843535-.344262.7843535-.7689307v-22.5427967c.0008566-.2232543-.0973014-.4358536-.2689714-.5825498-.17167-.1466963-.3999008-.2130041-.6253821-.1816922l-6.2508696.8533255c-.3879434.0538668-.6758306.3801309-.6743535.764242z" fill="#373373"/><path d="m96.60869 21.7457344v21.6894712c0 .4246687.3511701.7689307.7843535.7689307h6.2508695c.433183 0 .784354-.344262.784354-.7689307v-22.5427967c.000856-.2232543-.097302-.4358536-.268972-.5825498-.17167-.1466963-.399901-.2130041-.625382-.1816922l-6.2508695.8533255c-.3879435.0538668-.6758306.3801309-.6743535.764242z" fill="#373373"/><ellipse cx="35.319565" cy="10.155511" fill="#f8aa17" rx="4.863913" ry="4.768308"/><ellipse cx="51.628261" cy="4.768308" fill="#f1454f" rx="4.863913" ry="4.768308"/><ellipse cx="67.932174" cy="10.155511" fill="#2681db" rx="4.863913" ry="4.768308"/><ellipse cx="84.236087" cy="4.768308" fill="#37a864" rx="4.863913" ry="4.768308"/><ellipse cx="100.544783" cy="10.155511" fill="#9b44ad" rx="4.863913" ry="4.768308"/><g fill="#373373"><path d="m15.4191304 27.93 10.3352174-11.9887544c.203602-.2280661.2515579-.5521045.1224641-.8274911s-.4111533-.4507446-.7202902-.4478086h-7.7765217c-.237725-.0005387-.4628712.1046485-.6121739.2860047l-8.54173914 10.3149237c-.06135469.0727983-.16254265.1003041-.25337684.0688751-.09083419-.0314289-.15199377-.1151076-.1531449-.2095332v-22.17239716c0-.42466869-.35116449-.76893067-.78434783-.76893067l-6.25086956.90021151c-.48304348.07970623-.78434783.34226792-.78434783.76893067v39.58117505c0 .4246687.35116448.7689456.78434783.7689456h6.25565217c.43318334 0 .78434783-.3442769.78434783-.7689456v-12.0215746c-.00014482-.1047605.06928594-.1974154.17130223-.2286017.1020163-.0311862.21286103.0063587.27348037.0926323l8.98652177 12.5982726c.147348.2065198.3885756.3291421.6456521.328217h7.652174c.299696.0018086.5742545-.1639533.7074711-.4271433s.1018014-.5777955-.0809494-.8106624l-10.7656522-14.8347356c-.0425057-.0613034-.0405841-.1423099.0047826-.2016099z"/><path d="m54.6413043 14.7456522-6.2508695.8533255c-.3898435.051734-.6802872.3785774-.6791305.764242v27.329859c.0015749.7955344-.0399328 1.5905898-.1243478 2.3818097-.0630781.6640097-.2460703 1.3117378-.5404348 1.9129494-.2617979.5121844-.6643092.942509-1.1621739 1.2424795-.6130814.3338032-1.307953.4959968-2.0086956.4688601-.3197124-.0038057-.6389971-.0241512-.9565218-.0609518l-.4017391-.0562632c-.7413043-.1500353-.9565217.2484959-1.0091304.4688602 0 .1031492-.0573913.3703995-.0573913.3703995-.2008696 1.4065805-.5165218 3.4930082-.6647826 4.6886016-.0366348.2325091.0262748.4695302.1738611.6550469.1475863.1855168.3667533.3030675.6057041.3248709.243913.0421974.5069565.0797062.8226087.1219036.7235034.0901438 1.4516149.1402351 2.1808695.1500353 2.2526087 0 4.1082609-.3563337 5.5143479-1.0549354 1.3401076-.6458965 2.4917728-1.6136348 3.347826-2.813161.8496401-1.2505116 1.4200774-2.6629536 1.6739131-4.1447238.2963862-1.6468587.4420381-3.3163911.4352174-4.9886722v-27.8549824c-.0003257-.2233818-.0997249-.4355831-.2723403-.5814025-.1726154-.1458193-.4013824-.2108412-.6267902-.1781509z"/><path d="m87.4452174 15.3739248-6.2508696-.6564042c-.2160942-.0168703-.4296744.0546881-.5900363.1976869-.160362.1429988-.2532041.344685-.2564854.5571779v12.2419389 15.9787544c.0015748.7955344-.0399329 1.5905898-.1243478 2.3818097-.0630781.6640097-.2460703 1.3117378-.5404348 1.9129494-.2601608.5196963-.664649.9568628-1.1669565 1.2612339-.6130815.3338032-1.3079531.4959968-2.0086957.4688601-.3197124-.0038056-.638997-.0241512-.9565217-.0609518l-.4017392-.0562632c-.7413043-.1500352-.9565217.2484959-1.0091304.4688602 0 .1031492-.0573913.3703995-.0573913.3703995-.2008696 1.4065805-.5165217 3.4930082-.6647826 4.6886016-.0366348.2325091.0262749.4695302.1738612.6550469.1475862.1855168.3667532.3030675.605704.3248709.243913.0421974.5069565.0797062.8226087.1219036.7235035.0901439 1.4516149.1402351 2.1808696.1500353 2.2526087 0 4.1082608-.3563337 5.5143478-1.0549354 1.3401076-.6458965 2.4917728-1.6136348 3.3478261-2.813161.84964-1.2505116 1.4200773-2.6629536 1.673913-4.1447238.2963863-1.6468587.4420381-3.3163911.4352174-4.9886722v-27.2360869c.0011036-.4036329-.3163328-.7393979-.7269565-.7689307z"/><path d="m107.69 20.4845006h-.559565v1.4065805h-.339565v-1.4065805h-.564348v-.3235135h1.468261z"/><path d="m109.746522 21.8723267h-.344348v-1.0783784l-.047826.1500352-.392174.9377204h-.286957l-.392174-.9377204-.047826-.1500352v1.0783784h-.339565v-1.7113396h.392174l.478261 1.0971328.038261.0984606.038261-.0984606.478261-1.0971328h.392173z"/></g></g></svg>