<?xml version="1.0" encoding="UTF-8" standalone="no"?>
<!DOCTYPE svg PUBLIC "-//W3C//DTD SVG 1.1//EN" "http://www.w3.org/Graphics/SVG/1.1/DTD/svg11.dtd">
<svg version="1.1" xmlns="http://www.w3.org/2000/svg" xmlns:xlink="http://www.w3.org/1999/xlink" preserveAspectRatio="xMidYMid meet" viewBox="0 0 910 484" width="910" height="484"><defs><path d="M398.64 32.62C395.18 39.29 394.64 41.96 394.64 50.49C394.78 66.48 401.71 78.21 415.71 85.55C423.84 89.95 442.77 89.95 450.9 85.55C464.9 78.21 471.83 66.48 471.96 50.49C471.96 41.96 471.43 39.29 467.96 32.62C463.43 23.83 454.5 15.96 445.97 13.43C439.97 11.7 425.57 11.7 419.84 13.56C411.97 16.09 402.91 24.23 398.64 32.62Z" id="eHxCv3pfs"></path><path d="M26.85 38.49C24.85 40.09 24.72 54.89 24.72 202.06C24.72 347.23 24.99 363.89 26.85 365.76C28.59 367.62 33.25 367.89 56.71 367.89C83.91 367.89 84.58 367.89 86.58 364.96C88.44 362.42 88.71 355.09 88.71 312.7C88.71 270.04 88.97 263.64 90.57 265.24C91.64 266.31 107.64 288.84 126.03 315.23C144.56 341.63 160.56 364.29 161.76 365.49C163.63 367.62 167.09 367.89 197.35 367.89C232.94 367.89 234.01 367.75 234.01 361.49C234.01 359.22 219.35 337.76 191.22 298.3C167.76 265.38 148.7 237.65 149.1 236.85C149.5 235.92 160.16 222.98 172.96 207.92C221.35 150.87 231.35 138.6 231.35 136.07C231.35 134.6 230.41 132.47 229.21 131.4C227.35 129.54 222.68 129.27 192.95 129.54C190.68 129.56 179.3 129.7 158.83 129.94L124.03 172.46L89.37 214.99C88.97 160.04 88.75 129.51 88.71 123.41C87.91 22.23 88.71 29.16 79.38 29.43C76.84 29.56 64.45 31.16 51.92 33.16C39.25 35.16 28.05 37.56 26.85 38.49Z" id="f5f1NnuijI"></path><path d="M527.55 76.08C523.28 84.08 523.02 85.28 523.55 95.28C524.22 107.54 527.02 113.94 534.88 121.54C542.61 129 551.41 132.47 562.61 132.34C578.21 132.2 589.8 125.14 596.47 111.81C603.53 97.54 601.67 79.68 591.8 68.22C582.07 56.75 563.41 51.95 548.88 57.02C538.88 60.62 532.62 66.22 527.55 76.08Z" id="b5R2Td1q7"></path><path d="M782.7 107.01C785.63 115.67 794.83 125.54 803.49 129.27C812.82 133.4 826.55 133.54 835.49 129.54C859.21 119.14 865.88 87.15 848.55 67.42C839.22 56.89 821.09 52.09 807.49 56.49C786.56 63.28 775.5 85.95 782.7 107.01Z" id="aydoaDCIg"></path><path d="M403.98 138.6C402.24 140.07 401.98 155.8 401.98 256.44C401.98 327.5 401.44 376.15 400.51 381.89C398.78 394.28 394.91 401.88 388.25 406.28C383.31 409.61 381.71 409.88 369.05 410.01C361.45 410.01 354.79 410.55 354.12 411.35C352.65 412.68 347.32 448.14 347.32 455.87C347.32 462.53 348.92 463.47 364.78 465.2C413.57 470.8 449.43 449.47 459.83 408.55C464.23 391.08 464.63 378.02 464.63 255.64C464.63 247.5 464.63 206.75 464.63 133.4C462.87 132.2 461.89 131.54 461.7 131.4C460.1 130.2 458.36 129.4 457.96 129.4C457.56 129.54 445.7 131.27 431.57 133.27C417.44 135.27 405.04 137.67 403.98 138.6Z" id="arEBtHsUe"></path><path d="M658.99 259.91C658.59 376.69 658.46 386.28 656.19 391.75C650.32 406.55 642.06 411.35 624.6 410.15C617.66 409.75 613.4 410.01 612.07 410.95C609.8 412.81 603.8 453.74 605.13 458.94C606.2 463.2 607.53 463.6 623.26 465.33C638.59 467.07 657.79 465.2 670.32 461.07C688.18 455.07 703.51 441.47 711.38 424.54C721.51 402.81 721.91 397.22 721.91 258.31C721.91 250.24 721.91 209.89 721.91 137.27C720.15 136.47 719.17 136.03 718.98 135.94C717.24 135.27 706.31 133.8 694.58 132.6C682.85 131.54 671.12 130.2 668.59 129.8C664.99 129.27 663.26 129.8 661.52 131.54C659.52 133.8 659.26 144.6 658.99 259.91Z" id="c252lWiu19"></path><path d="M275.07 182.33C272.8 184.19 272.67 190.32 272.67 274.04C272.67 353.76 272.94 363.89 274.8 365.76C276.54 367.62 281.2 367.89 304.66 367.89C331.86 367.89 332.52 367.89 334.52 364.96C336.39 362.29 336.66 351.09 336.66 270.57C336.66 169.13 337.06 173.13 328.26 173.4C325.86 173.4 313.46 174.99 300.66 176.86C285.47 178.99 276.54 180.86 275.07 182.33Z" id="b2JrHlmMag"></path><path d="M532.35 182.86C530.08 185.39 529.95 191.66 529.95 273.77C529.95 351.49 530.22 362.29 532.08 364.96C534.08 367.89 534.75 367.89 561.94 367.89C585.4 367.89 590.07 367.62 591.8 365.76C593.67 363.89 593.94 353.49 593.94 270.57C593.94 167.66 594.47 173.13 585.54 173.4C583.14 173.53 570.74 174.99 557.94 176.86C538.61 179.53 534.22 180.59 532.35 182.86Z" id="aeVKz6JzT"></path><path d="M790.3 181.53C787.9 183.53 787.76 363.89 790.16 366.29C791.36 367.49 799.89 367.89 820.16 367.89C846.82 367.89 848.55 367.75 849.88 365.36C850.68 363.62 851.22 331.36 851.22 270.04C851.22 167.66 851.75 173.13 842.82 173.4C840.42 173.53 828.02 174.99 815.22 176.86C802.43 178.73 791.1 180.86 790.3 181.53Z" id="c4dSLpyRPm"></path><path d="M865.88 177.26C868.15 177.26 868.55 178.19 868.55 182.59C868.55 186.46 869.08 187.93 870.55 187.93C872.01 187.93 872.55 186.46 872.55 182.59C872.55 178.73 873.08 177.26 874.54 177.26C876.01 177.26 876.54 178.73 876.54 182.59C876.54 188.19 879.74 190.32 880.94 185.53C881.48 183.39 881.61 183.39 881.74 185.53C881.88 188.33 886.68 188.86 887.61 186.19C888.14 184.86 888.41 184.86 888.41 186.19C888.54 187.13 889.47 187.93 890.54 187.93C892.14 187.93 892.54 186.19 892.54 180.59C892.54 171.93 889.61 170.46 886.54 177.53C886.42 177.82 885.8 179.29 884.68 181.93C883.8 179.29 883.31 177.82 883.21 177.53C881.61 173.26 881.61 173.26 872.41 173.26C865.08 173.26 863.21 173.66 863.21 175.26C863.21 176.33 864.41 177.26 865.88 177.26Z" id="cc4aRoxRU"></path><path d="M270.18 76.08C265.91 84.08 265.65 85.28 266.18 95.28C266.85 107.54 269.65 113.94 277.51 121.54C285.24 129 294.04 132.47 305.24 132.34C320.84 132.2 332.43 125.14 339.1 111.81C346.16 97.54 344.3 79.68 334.43 68.22C324.7 56.75 306.04 51.95 291.51 57.02C281.51 60.62 275.25 66.22 270.18 76.08Z" id="bfHPVekks"></path><path d="M660.16 32.62C656.69 39.29 656.16 41.96 656.16 50.49C656.29 66.48 663.23 78.21 677.22 85.55C685.35 89.95 704.28 89.95 712.42 85.55C726.41 78.21 733.34 66.48 733.48 50.49C733.48 41.96 732.94 39.29 729.48 32.62C724.95 23.83 716.01 15.96 707.48 13.43C701.48 11.7 687.09 11.7 681.35 13.56C673.49 16.09 664.43 24.23 660.16 32.62Z" id="cbWjxyBLw"></path></defs><g><g><g><use xlink:href="#eHxCv3pfs" opacity="1" fill="#f1454f" fill-opacity="1"></use><g><use xlink:href="#eHxCv3pfs" opacity="1" fill-opacity="0" stroke="#000000" stroke-width="0" stroke-opacity="0"></use></g></g><g><use xlink:href="#f5f1NnuijI" opacity="1" fill="#373373" fill-opacity="1"></use><g><use xlink:href="#f5f1NnuijI" opacity="1" fill-opacity="0" stroke="#000000" stroke-width="0" stroke-opacity="0"></use></g></g><g><use xlink:href="#b5R2Td1q7" opacity="1" fill="#2681db" fill-opacity="1"></use><g><use xlink:href="#b5R2Td1q7" opacity="1" fill-opacity="0" stroke="#000000" stroke-width="1" stroke-opacity="0"></use></g></g><g><use xlink:href="#aydoaDCIg" opacity="1" fill="#9b44ad" fill-opacity="1"></use><g><use xlink:href="#aydoaDCIg" opacity="1" fill-opacity="0" stroke="#000000" stroke-width="0" stroke-opacity="0"></use></g></g><g><use xlink:href="#arEBtHsUe" opacity="1" fill="#373373" fill-opacity="1"></use><g><use xlink:href="#arEBtHsUe" opacity="1" fill-opacity="0" stroke="#000000" stroke-width="0" stroke-opacity="0"></use></g></g><g><use xlink:href="#c252lWiu19" opacity="1" fill="#373373" fill-opacity="1"></use><g><use xlink:href="#c252lWiu19" opacity="1" fill-opacity="0" stroke="#343474" stroke-width="0" stroke-opacity="0"></use></g></g><g><use xlink:href="#b2JrHlmMag" opacity="1" fill="#373373" fill-opacity="1"></use><g><use xlink:href="#b2JrHlmMag" opacity="1" fill-opacity="0" stroke="#000000" stroke-width="0" stroke-opacity="0"></use></g></g><g><use xlink:href="#aeVKz6JzT" opacity="1" fill="#373373" fill-opacity="1"></use><g><use xlink:href="#aeVKz6JzT" opacity="1" fill-opacity="0" stroke="#000000" stroke-width="1" stroke-opacity="0"></use></g></g><g><use xlink:href="#c4dSLpyRPm" opacity="1" fill="#373373" fill-opacity="1"></use><g><use xlink:href="#c4dSLpyRPm" opacity="1" fill-opacity="0" stroke="#000000" stroke-width="0" stroke-opacity="0"></use></g></g><g><use xlink:href="#cc4aRoxRU" opacity="1" fill="#373373" fill-opacity="1"></use><g><use xlink:href="#cc4aRoxRU" opacity="1" fill-opacity="0" stroke="#000000" stroke-width="0" stroke-opacity="0"></use></g></g><g><use xlink:href="#bfHPVekks" opacity="1" fill="#f8aa17" fill-opacity="1"></use><g><use xlink:href="#bfHPVekks" opacity="1" fill-opacity="0" stroke="#000000" stroke-width="1" stroke-opacity="0"></use></g></g><g><use xlink:href="#cbWjxyBLw" opacity="1" fill="#37a864" fill-opacity="1"></use><g><use xlink:href="#cbWjxyBLw" opacity="1" fill-opacity="0" stroke="#000000" stroke-width="0" stroke-opacity="0"></use></g></g></g></g></svg>