<svg height="484" preserveAspectRatio="xMidYMid meet" viewBox="0 0 910 484" width="910"
     xmlns="http://www.w3.org/2000/svg" xmlns:xlink="http://www.w3.org/1999/xlink">
    <defs>
        <path id="a"
              d="m26.85 38.49c-2 1.6-2.13 16.4-2.13 163.57 0 145.17.27 161.83 2.13 163.7 1.74 1.86 6.4 2.13 29.86 2.13 27.2 0 27.87 0 29.87-2.93 1.86-2.54 2.13-9.87 2.13-52.26 0-42.66.26-49.06 1.86-47.46 1.07 1.07 17.07 23.6 35.46 49.99 18.53 26.4 34.53 49.06 35.73 50.26 1.87 2.13 5.33 2.4 35.59 2.4 35.59 0 36.66-.14 36.66-6.4 0-2.27-14.66-23.73-42.79-63.19-23.46-32.92-42.52-60.65-42.12-61.45.4-.93 11.06-13.87 23.86-28.93 48.39-57.05 58.39-69.32 58.39-71.85 0-1.47-.94-3.6-2.14-4.67-1.86-1.86-6.53-2.13-36.26-1.86-2.27.02-13.65.16-34.12.4l-34.8 42.52-34.66 42.53c-.4-54.95-.62-85.48-.66-91.58-.8-101.18 0-94.25-9.33-93.98-2.54.13-14.93 1.73-27.46 3.73-12.67 2-23.87 4.4-25.07 5.33z"/>
        <path id="b"
              d="m403.98 138.6c-1.74 1.47-2 17.2-2 117.84 0 71.06-.54 119.71-1.47 125.45-1.73 12.39-5.6 19.99-12.26 24.39-4.94 3.33-6.54 3.6-19.2 3.73-7.6 0-14.26.54-14.93 1.34-1.47 1.33-6.8 36.79-6.8 44.52 0 6.66 1.6 7.6 17.46 9.33 48.79 5.6 84.65-15.73 95.05-56.65 4.4-17.47 4.8-30.53 4.8-152.91 0-8.14 0-48.89 0-122.24-1.76-1.2-2.74-1.86-2.93-2-1.6-1.2-3.34-2-3.74-2-.4.14-12.26 1.87-26.39 3.87s-26.53 4.4-27.59 5.33z"/>
        <path id="c"
              d="m658.99 259.91c-.4 116.78-.53 126.37-2.8 131.84-5.87 14.8-14.13 19.6-31.59 18.4-6.94-.4-11.2-.14-12.53.8-2.27 1.86-8.27 42.79-6.94 47.99 1.07 4.26 2.4 4.66 18.13 6.39 15.33 1.74 34.53-.13 47.06-4.26 17.86-6 33.19-19.6 41.06-36.53 10.13-21.73 10.53-27.32 10.53-166.23 0-8.07 0-48.42 0-121.04-1.76-.8-2.74-1.24-2.93-1.33-1.74-.67-12.67-2.14-24.4-3.34-11.73-1.06-23.46-2.4-25.99-2.8-3.6-.53-5.33 0-7.07 1.74-2 2.26-2.26 13.06-2.53 128.37z"/>
        <path id="d"
              d="m275.07 182.33c-2.27 1.86-2.4 7.99-2.4 91.71 0 79.72.27 89.85 2.13 91.72 1.74 1.86 6.4 2.13 29.86 2.13 27.2 0 27.86 0 29.86-2.93 1.87-2.67 2.14-13.87 2.14-94.39 0-101.44.4-97.44-8.4-97.17-2.4 0-14.8 1.59-27.6 3.46-15.19 2.13-24.12 4-25.59 5.47z"/>
        <path id="e"
              d="m532.35 182.86c-2.27 2.53-2.4 8.8-2.4 90.91 0 77.72.27 88.52 2.13 91.19 2 2.93 2.67 2.93 29.86 2.93 23.46 0 28.13-.27 29.86-2.13 1.87-1.87 2.14-12.27 2.14-95.19 0-102.91.53-97.44-8.4-97.17-2.4.13-14.8 1.59-27.6 3.46-19.33 2.67-23.72 3.73-25.59 6z"/>
        <path id="f"
              d="m790.3 181.53c-2.4 2-2.54 182.36-.14 184.76 1.2 1.2 9.73 1.6 30 1.6 26.66 0 28.39-.14 29.72-2.53.8-1.74 1.34-34 1.34-95.32 0-102.38.53-96.91-8.4-96.64-2.4.13-14.8 1.59-27.6 3.46-12.79 1.87-24.12 4-24.92 4.67z"/>
        <path id="g"
              d="m865.88 177.26c2.27 0 2.67.93 2.67 5.33 0 3.87.53 5.34 2 5.34 1.46 0 2-1.47 2-5.34 0-3.86.53-5.33 1.99-5.33 1.47 0 2 1.47 2 5.33 0 5.6 3.2 7.73 4.4 2.94.54-2.14.67-2.14.8 0 .14 2.8 4.94 3.33 5.87.66.53-1.33.8-1.33.8 0 .13.94 1.06 1.74 2.13 1.74 1.6 0 2-1.74 2-7.34 0-8.66-2.93-10.13-6-3.06-.12.29-.74 1.76-1.86 4.4-.88-2.64-1.37-4.11-1.47-4.4-1.6-4.27-1.6-4.27-10.8-4.27-7.33 0-9.2.4-9.2 2 0 1.07 1.2 2 2.67 2z"/>
    </defs>
    <use fill="#373373" xlink:href="#a"/>
    <use fill="none" xlink:href="#a"/>
    <use fill="#373373" xlink:href="#b"/>
    <use fill="none" xlink:href="#b"/>
    <use fill="#373373" xlink:href="#c"/>
    <use fill="none" xlink:href="#c"/>
    <use fill="#373373" xlink:href="#d"/>
    <use fill="none" xlink:href="#d"/>
    <use fill="#373373" xlink:href="#e"/>
    <use fill="none" xlink:href="#e"/>
    <use fill="#373373" xlink:href="#f"/>
    <use fill="none" xlink:href="#f"/>
    <use fill="#373373" xlink:href="#g"/>
    <use fill="none" xlink:href="#g"/>
    <path d="m858.29 90.75c0 21.33-17.32 38.65-38.66 38.65-21.33 0-38.66-17.32-38.66-38.65 0-21.34 17.33-38.66 38.66-38.66 21.34 0 38.66 17.32 38.66 38.66z"
          fill="#9b44ad"/>
    <path d="m733.48 50.8c0 21.34-17.33 38.66-38.66 38.66-21.34 0-38.66-17.32-38.66-38.66 0-21.33 17.32-38.66 38.66-38.66 21.33 0 38.66 17.33 38.66 38.66z"
          fill="#37a864"/>
    <path d="m600.72 93.68c0 21.34-17.32 38.66-38.66 38.66-21.33 0-38.66-17.32-38.66-38.66 0-21.33 17.33-38.66 38.66-38.66 21.34 0 38.66 17.33 38.66 38.66z"
          fill="#2681db"/>
    <path d="m343.3 93.68c0 21.34-17.33 38.66-38.66 38.66-21.34 0-38.66-17.32-38.66-38.66 0-21.33 17.32-38.66 38.66-38.66 21.33 0 38.66 17.33 38.66 38.66z"
          fill="#f8aa17"/>
    <path d="m471.96 50.8c0 21.34-17.32 38.66-38.66 38.66-21.33 0-38.66-17.32-38.66-38.66 0-21.33 17.33-38.66 38.66-38.66 21.34 0 38.66 17.33 38.66 38.66z"
          fill="#f1454f"/>
</svg>