<svg height="800" viewBox="0 0 512 512" width="800" xmlns="http://www.w3.org/2000/svg"><path d="m210.574 298.095c13.291-39.886-1.344-62.965-22.773-66.983-25.862-4.847-44.194 4.018-72.33 40.184-28.129 36.166-18.747 91.078 29.473 92.423 40.183 1.11 56.256-37.503 65.63-65.624z"/><path d="m318.735 229.596c-25.447 10.71-30.701 28.426-17.41 68.304 9.374 28.129 25.439 66.749 65.631 65.632 48.221-1.329 57.594-56.242 29.466-92.423-28.13-36.158-52.232-52.224-77.687-41.513z"/><path d="m145.28 140.472c.344-2.877.532-5.801.532-8.756 0-40.277-32.632-72.917-72.901-72.917-40.263-.001-72.911 32.639-72.911 72.917 0 40.255 32.648 72.894 72.91 72.894 2.454 0 4.894-.117 7.286-.36 12.618-15.518 34.914-40.348 65.084-63.778z"/><path d="m439.091 61.613c-40.262 0-72.91 32.632-72.91 72.902 0 2.978.203 5.902.548 8.772 30.162 23.422 52.466 48.268 65.068 63.778 2.408.235 4.831.36 7.294.36 40.269 0 72.909-32.632 72.909-72.909 0-40.271-32.64-72.903-72.909-72.903z"/><path d="m322.581 420.461c-3.807-1.532-8.131.328-9.655 4.128-.978 2.455-2.283 4.449-3.847 6.137-2.338 2.541-5.355 4.417-8.912 5.707-3.542 1.29-7.6 1.931-11.727 1.931-3.448 0-6.926-.445-10.132-1.258-4.816-1.204-8.975-3.284-11.516-5.496-1.283-1.087-2.158-2.181-2.666-3.135-.5-.962-.696-1.744-.704-2.612v-29.418c6.731-1.188 17.121-4.862 27.308-15.964 5.348-5.825 9.053-22.148-4.503-28.536-7.059-3.322-17.504-4.003-30.224-4.003-12.727 0-23.164.68-30.231 4.003-13.548 6.388-9.843 22.711-4.495 28.536 10.186 11.101 20.576 14.776 27.307 15.964v29.418c-.008.587-.102 1.118-.305 1.696-.352 1.025-1.11 2.236-2.462 3.502-1.986 1.924-5.261 3.847-9.202 5.176-3.948 1.353-8.522 2.126-13.056 2.126-5.496.016-10.867-1.157-15.096-3.416-2.119-1.142-3.98-2.526-5.543-4.222-1.564-1.688-2.854-3.682-3.846-6.137-1.524-3.799-5.84-5.66-9.648-4.128-3.807 1.517-5.652 5.832-4.128 9.648 1.642 4.112 3.956 7.716 6.739 10.71 4.175 4.503 9.334 7.622 14.753 9.577 5.433 1.954 11.148 2.806 16.769 2.806 4.722 0 9.374-.601 13.783-1.72 6.606-1.681 12.681-4.472 17.527-8.599.384-.328.704-.735 1.071-1.079.008 0 .008.016.016.016 4.034 3.83 9.1 6.567 14.658 8.474 5.551 1.892 11.641 2.908 17.825 2.908 7.49-.007 15.182-1.493 22.078-5.16 3.44-1.829 6.668-4.221 9.452-7.223 2.783-2.995 5.097-6.598 6.747-10.71 1.517-3.815-.335-8.13-4.135-9.647z"/></svg>