<?xml version="1.0" encoding="UTF-8"?>
<svg id="Layer_1" xmlns="http://www.w3.org/2000/svg" viewBox="0 0 90 90">
    <defs>
        <style>.cls-1{fill-rule:evenodd;}</style>
    </defs>
    <path class="cls-1" d="M24.07,6.34l23.59,8.88-4.38,11.73-23.59-8.88,4.38-11.73Z"/>
    <path class="cls-1" d="M61.89,3.44l7.79,24.06-11.87,3.87-7.79-24.06,11.87-3.87Z"/>
    <path class="cls-1" d="M87.73,31.34l-13.88,21.12-10.42-6.9,13.88-21.12,10.42,6.9Z"/>
    <path class="cls-1" d="M82.12,69.01l-25.1,2.27-1.12-12.48,25.1-2.27,1.12,12.48Z"/>
    <path class="cls-1" d="M49.29,88.09l-17.42-18.28,9.02-8.66,17.42,18.28-9.02,8.66Z"/>
    <path class="cls-1" d="M13.96,74.23l3.38-25.07,12.37,1.68-3.38,25.07-12.37-1.68Z"/>
    <path class="cls-1" d="M2.73,37.82l21.63-12.98,6.4,10.75-21.63,12.98-6.4-10.75Z"/>
</svg>