<?xml version="1.0" encoding="UTF-8" standalone="no"?>
<!DOCTYPE svg PUBLIC "-//W3C//DTD SVG 1.1//EN" "http://www.w3.org/Graphics/SVG/1.1/DTD/svg11.dtd">
<svg width="100%" height="100%" viewBox="0 0 800 800" version="1.1" xmlns="http://www.w3.org/2000/svg" xmlns:xlink="http://www.w3.org/1999/xlink" xml:space="preserve" xmlns:serif="http://www.serif.com/" style="fill-rule:evenodd;clip-rule:evenodd;stroke-linejoin:round;stroke-miterlimit:2;">
    <g id="ðŸ”-Product-Icons" transform="matrix(33.3333,0,0,33.3333,0,0)">
        <g id="ic_fluent_bot_add_24_regular">
            <path id="ðŸŽ¨-Color" d="M17.5,12C20.538,12 23,14.462 23,17.5C23,20.538 20.538,23 17.5,23C14.462,23 12,20.538 12,17.5C12,14.462 14.462,12 17.5,12ZM12.022,13.999C11.726,14.463 11.486,14.966 11.314,15.5L4.254,15.5C3.839,15.5 3.504,15.836 3.504,16.25L3.504,17.157C3.504,17.813 3.79,18.436 4.287,18.863C5.545,19.945 7.441,20.501 10,20.501C10.599,20.501 11.161,20.471 11.688,20.41C11.937,20.91 12.251,21.374 12.617,21.79C11.815,21.931 10.942,22.001 10,22.001C7.111,22.001 4.872,21.344 3.309,20.001C2.48,19.288 2.004,18.25 2.004,17.157L2.004,16.25C2.004,15.007 3.011,14 4.254,14L12.022,13.999ZM17.5,13.999L17.41,14.007C17.206,14.044 17.045,14.205 17.008,14.409L17,14.499L17,16.999L14.498,17L14.408,17.008C14.204,17.045 14.043,17.206 14.006,17.41L13.998,17.5L14.006,17.59C14.043,17.794 14.204,17.955 14.408,17.992L14.498,18L17.001,17.999L17.001,20.503L17.009,20.593C17.046,20.797 17.207,20.958 17.411,20.995L17.501,21.003L17.591,20.995C17.795,20.958 17.956,20.797 17.993,20.593L18.001,20.503L18.001,17.999L20.505,18L20.594,17.992C20.799,17.955 20.959,17.794 20.997,17.59L21.005,17.5L20.997,17.41C20.959,17.206 20.799,17.045 20.594,17.008L20.505,17L18,16.999L18,14.499L17.992,14.409C17.955,14.205 17.794,14.044 17.59,14.007L17.5,13.999ZM10,2C10.38,2 10.694,2.283 10.743,2.649L10.75,2.75L10.75,3.499L14.25,3.5C15.493,3.5 16.5,4.507 16.5,5.75L16.5,10.255C16.5,10.556 16.441,10.843 16.334,11.106C15.208,11.308 14.184,11.802 13.341,12.505L5.75,12.505C4.507,12.505 3.5,11.497 3.5,10.255L3.5,5.75C3.5,4.507 4.507,3.5 5.75,3.5L9.25,3.499L9.25,2.75C9.25,2.405 9.484,2.115 9.801,2.027L9.899,2.007L10,2ZM14.25,5L5.75,5C5.336,5 5,5.336 5,5.75L5,10.255C5,10.669 5.336,11.005 5.75,11.005L14.25,11.005C14.664,11.005 15,10.669 15,10.255L15,5.75C15,5.336 14.664,5 14.25,5ZM7.749,6.5C8.439,6.5 8.999,7.059 8.999,7.749C8.999,8.439 8.439,8.999 7.749,8.999C7.059,8.999 6.5,8.439 6.5,7.749C6.5,7.059 7.059,6.5 7.749,6.5ZM12.242,6.5C12.932,6.5 13.491,7.059 13.491,7.749C13.491,8.439 12.932,8.999 12.242,8.999C11.552,8.999 10.993,8.439 10.993,7.749C10.993,7.059 11.552,6.5 12.242,6.5Z" style="fill:rgb(33,33,33);fill-rule:nonzero;"/>
        </g>
        <g transform="matrix(0.03,0,0,0.03,-1.08442,-1.42009)">
            <circle cx="617.863" cy="626.724" r="164.997" style="fill:rgb(33,33,33);"/>
        </g>
        <g transform="matrix(0.0956411,0,0,0.0956411,13.1582,13.1609)">
            <path d="M24.07,6.34L47.66,15.22L43.28,26.95L19.69,18.07L24.07,6.34Z" style="fill:white;"/>
            <path d="M61.89,3.44L69.68,27.5L57.81,31.37L50.02,7.31L61.89,3.44Z" style="fill:white;"/>
            <path d="M87.73,31.34L73.85,52.46L63.43,45.56L77.31,24.44L87.73,31.34Z" style="fill:white;"/>
            <path d="M82.12,69.01L57.02,71.28L55.9,58.8L81,56.53L82.12,69.01Z" style="fill:white;"/>
            <path d="M49.29,88.09L31.87,69.81L40.89,61.15L58.31,79.43L49.29,88.09Z" style="fill:white;"/>
            <path d="M13.96,74.23L17.34,49.16L29.71,50.84L26.33,75.91L13.96,74.23Z" style="fill:white;"/>
            <path d="M2.73,37.82L24.36,24.84L30.76,35.59L9.13,48.57L2.73,37.82Z" style="fill:white;"/>
        </g>
    </g>
</svg>
