<svg version="1.1" xmlns="http://www.w3.org/2000/svg" style="display: block;" viewBox="0 0 2048 2048" width="1024" height="1024">
<defs>
	<linearGradient id="Gradient1" gradientUnits="userSpaceOnUse" x1="1216.22" y1="935.029" x2="1239.7" y2="977.537">
		<stop class="stop0" offset="0" stop-opacity="1" stop-color="rgb(2,84,176)"/>
		<stop class="stop1" offset="1" stop-opacity="1" stop-color="rgb(3,110,201)"/>
	</linearGradient>
	<linearGradient id="Gradient2" gradientUnits="userSpaceOnUse" x1="1362.63" y1="1062.44" x2="1445.47" y2="1128.87">
		<stop class="stop0" offset="0" stop-opacity="1" stop-color="rgb(16,196,244)"/>
		<stop class="stop1" offset="1" stop-opacity="1" stop-color="rgb(32,225,250)"/>
	</linearGradient>
	<linearGradient id="Gradient3" gradientUnits="userSpaceOnUse" x1="648.668" y1="900.365" x2="1041.8" y2="864.604">
		<stop class="stop0" offset="0" stop-opacity="1" stop-color="rgb(14,142,146)"/>
		<stop class="stop1" offset="1" stop-opacity="1" stop-color="rgb(10,144,169)"/>
	</linearGradient>
</defs>
<path transform="translate(0,0)" fill="rgb(152,150,222)" d="M 0 0 L 2048 0 L 2048 2048 L 0 2048 L 0 0 z"/>
<path transform="translate(0,0)" fill="rgb(167,61,106)" d="M 1547.13 761.283 C 1549.15 761.621 1550.39 761.825 1552.03 763.082 C 1553.5 785.576 1552.54 808.715 1552.67 831.273 C 1552.75 845.927 1554.2 861.857 1552.82 876.366 C 1552.54 879.368 1551.88 881.301 1549.61 883.274 L 1548.11 882.047 C 1545.03 871.686 1546.98 849.52 1546.99 838.124 L 1547.13 761.283 z"/>
<path transform="translate(0,0)" fill="rgb(251,251,250)" d="M 1495.22 839.997 C 1497.48 839.942 1499.68 840.04 1501.87 840.646 C 1505.81 841.734 1509.08 844.857 1510.89 848.453 C 1513.02 852.666 1513.17 857.534 1511.65 861.969 C 1509.79 867.423 1506.38 870.032 1501.31 872.365 C 1498.99 872.399 1496.17 872.613 1493.94 871.847 C 1489.8 870.419 1486.13 867.577 1484.15 863.612 C 1482.12 859.551 1482.17 854.995 1483.65 850.761 C 1485.65 845.086 1490.11 842.539 1495.22 839.997 z"/>
<path transform="translate(0,0)" fill="rgb(251,251,250)" d="M 1700.31 603.541 C 1705.94 599.671 1712.11 595.8 1719.29 597.275 C 1723.25 598.09 1726.47 600.711 1728.6 604.085 A 21.6881 21.6881 0 0 1 1731.11 621.177 C 1729.72 626.196 1726.58 630.844 1721.9 633.305 C 1718.05 635.326 1712.35 635.666 1708.24 634.308 C 1705.88 633.529 1703.51 632.143 1701.38 630.863 C 1699.33 628.554 1697.65 626.689 1696.8 623.669 C 1696.18 621.474 1695.49 619.301 1694.83 617.116 C 1681.85 613.81 1664.48 615.978 1651.06 616.083 C 1651 614.624 1651.18 613.053 1651.25 611.603 C 1656.35 607.413 1676.9 610.313 1684.36 609.348 L 1685.53 609.185 C 1688.67 609.229 1693.53 609.87 1696.53 608.884 C 1699.18 608.01 1699.42 605.841 1700.31 603.541 z"/>
<path transform="translate(0,0)" fill="rgb(251,251,250)" d="M 1545.86 420.978 C 1540.09 417.801 1532.83 413.59 1531.11 406.659 C 1530.2 403.015 1530.73 399.714 1532.75 396.573 C 1535.97 391.588 1541.6 388.055 1547.43 387.092 C 1552.07 386.326 1556.92 387.052 1560.79 389.855 C 1564.51 392.551 1566.38 396.734 1566.91 401.203 C 1567.44 405.679 1567.21 410.939 1564.11 414.491 C 1561.46 417.525 1557.87 418.808 1554.11 419.839 C 1554.04 430.066 1554.23 440.384 1553.89 450.601 C 1553.65 467.195 1552.46 484.721 1553.89 501.22 C 1550.82 502.074 1549.09 501.877 1546.03 501.395 L 1546.22 450.7 A 512.587 512.587 0 0 0 1545.86 420.978 z"/>
<path transform="translate(0,0)" fill="rgb(251,251,250)" d="M 275.453 1064.23 C 281.209 1063.78 287.2 1064.23 292.595 1066.4 A 27.4475 27.4475 0 0 1 308.291 1082.35 A 30.8875 30.8875 0 0 1 306.876 1106.97 C 302.454 1115.58 295.427 1119.71 286.634 1122.83 C 280.73 1123.27 274.993 1122.94 269.474 1120.63 A 27.6382 27.6382 0 0 1 254.125 1104.56 C 251.175 1096.47 251.908 1087.07 255.834 1079.43 C 260.137 1071.06 266.701 1066.91 275.453 1064.23 z"/>
<path transform="translate(0,0)" fill="rgb(251,251,250)" d="M 1804.35 762.146 A 35.2943 35.2943 0 0 1 1821.46 765.366 A 26.4776 26.4776 0 0 1 1835.49 780.579 C 1838.38 788.562 1837.62 797.952 1833.77 805.483 C 1829.01 814.792 1821.41 819.14 1811.8 822.033 C 1804.69 822.272 1799.17 822.056 1792.71 818.516 A 30.4752 30.4752 0 0 1 1777.63 799.181 A 29.4175 29.4175 0 0 1 1781.23 776.337 C 1786.66 767.738 1794.75 764.157 1804.35 762.146 z"/>
<path transform="translate(0,0)" fill="rgb(21,35,111)" d="M 725.242 258.326 C 729.002 256.732 732.372 255.015 736.556 255.155 C 747.366 259.684 767.679 281.818 772.09 292.646 C 773.563 296.262 773.155 298.805 771.512 302.221 C 768.032 309.458 760.095 315.192 754.106 320.344 C 768.181 363.007 767.526 369.831 755.158 412.583 C 763.552 418.155 771.601 422.587 774.562 432.821 C 771.899 443.612 756.461 463.647 747.661 470.492 C 740.687 472.328 735.277 470.496 729.118 466.973 C 725.565 464.94 722.347 462.498 719.125 459.987 C 700.282 474.629 682.429 483.778 659 488.264 C 658.792 496.657 660.629 516.65 653.322 522.347 C 646.976 527.294 634.111 524.365 626.888 523.033 L 627.84 520.91 C 633.322 517.105 641.771 515.478 648.113 513.094 C 648.132 505.1 646.596 497.034 646.869 489.074 C 646.975 485.995 647.247 483.817 649.702 481.755 C 654.717 477.543 665.87 476.435 672.164 474.021 C 690.54 466.973 704.378 455.334 717.993 441.525 C 725.106 446.398 732.023 451.585 738.999 456.652 A 193.672 193.672 0 0 0 757.068 434.732 C 752.448 428.419 747.328 422.676 743.116 416.037 L 745.07 408.599 C 753.63 375.58 755.205 348.293 737.45 318.115 C 743.897 310.991 750.948 304.654 758.069 298.225 C 747.855 284.414 736.465 271.328 725.242 258.326 z"/>
<path transform="translate(0,0)" fill="rgb(251,212,138)" d="M 1416.27 237.403 C 1422.03 239.037 1428.04 240.439 1433.61 242.642 C 1432.55 247.535 1429.7 255.606 1432.11 260.272 C 1434.08 261.225 1434.38 261.483 1436.57 260.741 C 1440.66 259.363 1444.47 255.251 1448.86 255.536 C 1454.84 259.496 1457.23 267.689 1459.88 274.073 C 1454.7 276.013 1448.5 277.506 1445.12 282.151 C 1445.06 283.694 1444.61 284.197 1445.87 285.349 C 1450.05 289.181 1461.72 288.535 1462.11 292.475 C 1462.6 297.437 1460.97 304.594 1457.94 308.605 C 1452.24 311.114 1444.36 304.972 1440.6 312.344 C 1439.56 314.381 1439.74 316.018 1440.7 318.051 C 1442.37 321.576 1444.53 322.564 1444.8 326.675 C 1442.62 330.694 1439.59 337.014 1434.58 338.041 C 1432 338.568 1429.48 337.563 1427.56 335.864 C 1423.98 332.693 1420.89 326.716 1416.42 324.997 C 1414.42 325.819 1415.03 325.164 1414.12 327.145 C 1411.85 332.112 1411.82 338.045 1411.98 343.394 C 1403.75 342.567 1395.67 341.608 1387.9 338.592 C 1384.56 336.592 1381.41 334.183 1378.23 331.934 C 1371.72 331.123 1365.17 321.913 1361.18 317.243 C 1360.72 316.763 1360.2 316.335 1359.8 315.803 C 1357.49 312.721 1357.04 306.918 1357.86 303.281 C 1354.74 300.237 1354.41 295.507 1354.41 291.342 C 1354.42 287.141 1354.98 282.603 1355.74 278.479 C 1359.66 280.246 1365.94 283.857 1370.25 282.332 C 1371.49 281.89 1371.5 281.009 1371.98 279.905 C 1371.59 277.554 1371.42 275.846 1370.06 273.829 L 1368.69 273.304 C 1365.91 272.223 1363.38 271.637 1361.68 269.027 C 1361.21 263.408 1365.08 259.169 1368.56 255.076 C 1369.64 253.802 1370.76 252.619 1371.92 251.42 C 1374.38 254.088 1377.93 258.972 1381.69 259.584 C 1382.83 259.77 1383.55 259.611 1384.64 259.47 C 1386.36 257.696 1387.04 256.352 1387.1 253.79 C 1387.18 249.902 1384.67 245.831 1383 242.411 C 1389.53 240.615 1395.82 239.376 1402.53 238.496 C 1402.68 242.105 1402.22 248.046 1404.77 250.873 C 1406.74 253.057 1407.47 253.042 1410.17 253.009 C 1412.82 251.171 1414.66 249.682 1415.31 246.284 C 1415.86 243.386 1416.04 240.344 1416.27 237.403 z"/>
<path transform="translate(0,0)" fill="rgb(138,123,217)" d="M 1378.23 331.934 C 1379.38 328.422 1380 325.277 1382.96 322.881 C 1385.46 322.143 1385.73 322.001 1388.18 322.784 C 1389.83 324.729 1391.3 326.92 1391.17 329.606 C 1391.01 332.859 1389.35 335.754 1387.9 338.592 C 1384.56 336.592 1381.41 334.183 1378.23 331.934 z"/>
<path transform="translate(0,0)" fill="rgb(138,123,217)" d="M 1357.86 303.281 C 1360.71 302.099 1365.2 299.698 1368.28 300.578 C 1369.35 300.885 1370.01 301.352 1370.93 301.907 C 1371.88 304.286 1372.05 305.699 1371.01 308.157 C 1369.19 312.465 1365 314.884 1361.18 317.243 C 1360.72 316.763 1360.2 316.335 1359.8 315.803 C 1357.49 312.721 1357.04 306.918 1357.86 303.281 z"/>
<path transform="translate(0,0)" fill="rgb(184,102,198)" d="M 1408.1 268.241 C 1412.96 268.166 1418.03 269.069 1422.14 271.782 C 1427.28 275.166 1430.62 280.383 1431.74 286.412 C 1432.86 292.405 1431.77 298.598 1428.24 303.627 C 1423.83 309.919 1417.52 312.432 1410.22 313.795 C 1405.74 313.644 1401.41 312.772 1397.54 310.417 A 23.428 23.428 0 0 1 1386.59 294.546 C 1385.46 288.572 1386.67 282.283 1390.24 277.329 C 1394.85 270.933 1400.64 269.353 1408.1 268.241 z"/>
<path transform="translate(0,0)" fill="rgb(167,61,106)" d="M 1553.89 450.601 C 1596.5 453.171 1635.59 470.725 1664.09 503.06 C 1685.84 527.739 1703.27 562.622 1700.99 596.269 A 167.876 167.876 0 0 1 1700.31 603.541 C 1699.42 605.841 1699.18 608.01 1696.53 608.884 C 1693.53 609.87 1688.67 609.229 1685.53 609.185 C 1674.45 608.699 1663.18 609.103 1652.09 609.103 A 108.317 108.317 0 0 0 1621.44 531.942 C 1603.88 513.837 1579.33 501.722 1553.89 501.22 C 1552.46 484.721 1553.65 467.195 1553.89 450.601 z"/>
<path transform="translate(0,0)" fill="rgb(28,193,119)" d="M 1596.79 850.733 C 1614.49 861.01 1634.78 867.789 1653.83 875.256 C 1653.44 877.845 1652.89 880.421 1651.88 882.846 C 1645.37 898.543 1636.28 913.691 1628.86 929.037 C 1618.15 951.208 1587.26 1024.45 1574.8 1038.03 C 1573.25 1032.78 1571.69 1027.77 1568.58 1023.19 C 1559.36 1009.58 1544.19 1002.76 1528.62 999.46 C 1534.86 988.5 1539.21 975.665 1544.58 964.158 C 1553.6 944.778 1563.05 925.598 1571.83 906.099 C 1580.12 887.666 1587.7 868.788 1596.79 850.733 z"/>
<path transform="translate(0,0)" fill="rgb(167,61,106)" d="M 1394.01 596.853 C 1395.19 561.552 1412.64 523.586 1437.05 498.331 C 1466.54 467.812 1504.01 451.577 1546.22 450.7 L 1546.03 501.395 C 1525.04 499.512 1496.98 514.334 1481.36 527.415 C 1460.32 545.026 1449.49 569.132 1447.27 596.247 C 1446.93 600.494 1446.93 604.757 1446.95 609.015 C 1433.66 608.988 1420.01 608.336 1406.77 609.268 C 1401.86 607.001 1398.92 600.181 1394.01 596.853 z"/>
<path transform="translate(0,0)" fill="rgb(218,138,56)" d="M 1874.43 1058.86 C 1888.26 1064.77 1902.75 1069.18 1916.44 1075.32 C 1870.6 1166.98 1820.09 1256.35 1772.88 1347.32 C 1770.38 1352.31 1767.99 1357.4 1765.31 1362.3 L 1758.23 1375.02 C 1752.48 1387.54 1746.59 1400.26 1740.01 1412.37 C 1725.56 1414.11 1710.81 1416.48 1696.29 1417.21 C 1704.59 1400.38 1712.49 1382.77 1722.61 1366.96 C 1726.2 1356.34 1733.84 1344.73 1739.02 1334.57 A 3215.26 3215.26 0 0 1 1769.78 1275.08 C 1778.01 1259.6 1786.8 1244.23 1793.99 1228.25 L 1784.38 1224.15 C 1806.65 1189.41 1823.13 1156.71 1842.15 1120.41 C 1852.91 1099.88 1864.7 1079.91 1874.43 1058.86 z"/>
<path transform="translate(0,0)" fill="rgb(165,92,47)" d="M 1722.61 1366.96 C 1721.6 1376.56 1704.76 1403.77 1699.61 1414.31 C 1706.42 1408.64 1723.28 1402.13 1731.82 1403.11 C 1733.27 1403.28 1734.62 1403.75 1736 1404.22 C 1737.2 1404.63 1738.39 1405.03 1739.58 1405.47 L 1739.89 1404.24 L 1740.96 1405.69 C 1745.7 1402.5 1752.06 1376.25 1758.23 1375.02 C 1752.48 1387.54 1746.59 1400.26 1740.01 1412.37 C 1725.56 1414.11 1710.81 1416.48 1696.29 1417.21 C 1704.59 1400.38 1712.49 1382.77 1722.61 1366.96 z"/>
<path transform="translate(0,0)" fill="rgb(94,44,148)" d="M 614.169 259.951 C 616.955 251.017 616.888 240.787 620.372 232.163 C 622.013 228.101 624.755 224.95 628.972 223.523 C 640.923 219.477 665.491 225.558 676.639 230.893 C 682.098 239.528 679.677 247.334 677.705 256.698 C 687.695 261.558 697.332 266.936 706.406 273.365 C 712.466 267.906 718.321 262.675 725.242 258.326 C 736.465 271.328 747.855 284.414 758.069 298.225 C 750.948 304.654 743.897 310.991 737.45 318.115 C 755.205 348.293 753.63 375.58 745.07 408.599 L 743.116 416.037 C 747.328 422.676 752.448 428.419 757.068 434.732 A 193.672 193.672 0 0 1 738.999 456.652 C 732.023 451.585 725.106 446.398 717.993 441.525 C 704.378 455.334 690.54 466.973 672.164 474.021 C 665.87 476.435 654.717 477.543 649.702 481.755 C 647.247 483.817 646.975 485.995 646.869 489.074 C 646.596 497.034 648.132 505.1 648.113 513.094 C 641.771 515.478 633.322 517.105 627.84 520.91 L 626.888 523.033 C 626.661 523.052 626.434 523.08 626.205 523.089 C 619.311 523.38 611.257 524.06 605.981 518.787 C 598.446 511.255 600.924 484.697 600.645 473.505 A 88.0805 88.0805 0 0 1 548.637 441.514 C 539.876 447.586 519.433 461.422 508.259 460.501 C 504.408 460.183 500.934 456.27 498.679 453.468 C 492.111 445.304 481.298 427.283 482.533 416.644 C 484.253 413.775 486.49 412.303 489.303 410.619 C 496.752 406.16 512.789 397.565 521.224 399.701 C 523.336 399.738 524.757 399.097 526.686 398.298 C 527.746 400.391 528.719 402.635 529.931 404.638 C 532.078 404.421 534.053 409.836 535.124 411.712 C 546.694 431.976 566.175 450.383 588.826 457.288 C 611.45 464.184 637.509 462.22 658.324 450.921 C 682.651 437.716 702.65 416.207 710.292 389.287 C 717.927 362.393 713.738 334.615 699.92 310.42 C 686.565 287.035 666.157 270.596 639.379 265.723 C 631.579 264.303 623.218 264.731 615.648 262.681 L 614.169 259.951 z"/>
<path transform="translate(0,0)" fill="rgb(184,102,198)" d="M 526.686 398.298 C 527.746 400.391 528.719 402.635 529.931 404.638 L 530.213 406.287 C 528.665 409.091 527.466 410.656 525.049 412.754 C 523.453 408.477 522.363 404.115 521.224 399.701 C 523.336 399.738 524.757 399.097 526.686 398.298 z"/>
<path transform="translate(0,0)" fill="rgb(21,35,111)" d="M 676.639 230.893 C 682.098 239.528 679.677 247.334 677.705 256.698 L 672.539 256.511 C 671.193 255.557 670.411 255.473 670.011 253.753 C 668.412 246.867 673.227 236.828 676.639 230.893 z"/>
<path transform="translate(0,0)" fill="rgb(124,60,178)" d="M 530.213 406.287 C 535.941 415.887 540.775 426.363 545.346 436.559 C 544.231 436.55 544.132 436.619 542.908 436.216 C 535.023 433.627 528.352 419.828 525.049 412.754 C 527.466 410.656 528.665 409.091 530.213 406.287 z"/>
<path transform="translate(0,0)" fill="rgb(167,61,106)" d="M 1651.06 616.083 C 1664.48 615.978 1681.85 613.81 1694.83 617.116 C 1695.49 619.301 1696.18 621.474 1696.8 623.669 C 1697.65 626.689 1699.33 628.554 1701.38 630.863 C 1691.45 680.194 1674.98 711.186 1631.78 739.866 C 1611.11 753.591 1579.17 767.409 1553.66 762.394 L 1552.03 763.082 C 1550.39 761.825 1549.15 761.621 1547.13 761.283 C 1518.51 761.308 1489.26 751.101 1465.6 735.33 C 1425.63 708.682 1408.1 672.161 1398.9 626.211 C 1400 624.516 1400.8 622.611 1401.87 620.887 C 1403.65 618.019 1404.17 617.5 1407.46 616.646 C 1420.56 617.105 1433.7 616.86 1446.8 616.807 C 1448.82 642.449 1462.77 668.264 1482.37 684.832 C 1498.76 698.682 1524.45 709.827 1546.09 710.113 L 1553.2 709.992 C 1580.25 707.709 1604.48 698.304 1623.52 678.379 C 1639.6 661.543 1651.5 639.763 1651.06 616.083 z"/>
<path transform="translate(0,0)" fill="rgb(251,251,250)" d="M 1546.09 710.113 L 1553.2 709.992 C 1553.19 725.267 1552.69 740.703 1553.21 755.958 C 1551.56 755.351 1549.74 755.131 1548.02 754.799 C 1544.83 750.985 1546.12 717.28 1546.09 710.113 z"/>
<path transform="translate(0,0)" fill="rgb(251,212,138)" d="M 1241.78 280.477 C 1254.98 281.09 1267.28 285.732 1279.4 290.643 C 1277.75 296.482 1273.71 309.441 1277.69 314.909 C 1279.21 316.982 1280.54 317.601 1283.1 317.642 C 1289.44 317.744 1296.55 309.173 1300.67 305.157 C 1310.59 313.771 1316.11 322.163 1321.05 334.272 C 1317.02 336.39 1312.09 338.535 1308.71 341.573 C 1304.97 344.93 1302.86 348.616 1302.79 353.652 C 1303.56 355.353 1304.09 356.556 1305.73 357.616 C 1313.15 362.412 1322.73 358.455 1330.27 356.186 L 1330.56 357.814 C 1331.98 365.965 1335.12 389.234 1329.58 396.001 C 1327.23 398.872 1316 391.834 1311.21 393.311 C 1308.97 393.999 1307.32 395.869 1306.23 397.848 C 1304.77 400.524 1303.63 403.551 1304.9 406.555 C 1307.67 413.056 1318.76 415.684 1324.87 417.775 C 1318.29 430.634 1308.38 442.93 1296.61 451.344 C 1292.01 444.911 1288.56 437.921 1282.65 432.506 C 1278.64 434.351 1274.29 435.958 1271.86 439.842 C 1267.99 445.999 1272.88 457.87 1274.65 464.414 C 1260.93 469.488 1246.29 471.144 1231.73 471.041 C 1230.79 463.985 1232.74 454.867 1229.58 448.465 C 1227.86 444.98 1225.13 444.017 1221.71 442.914 C 1219.46 443.359 1216.93 443.852 1215.03 445.223 C 1209.42 449.266 1209.27 460.278 1208.37 466.458 C 1192.38 460.425 1180.42 450.452 1168.06 439.01 A 176.186 176.186 0 0 0 1188.84 420.252 C 1185.45 416.328 1181.88 412.998 1177.99 409.601 C 1169.3 412.041 1161.17 415.666 1152.91 419.235 C 1149.7 406.146 1146.02 393.372 1143.43 380.121 C 1150.35 379.602 1158.74 379.769 1165.18 377.215 C 1168.05 376.076 1170.62 374.234 1171.51 371.096 C 1172.15 368.857 1171.83 365.217 1170.66 363.1 C 1166.52 355.607 1158.19 358.839 1151.77 356.002 C 1149.52 355.009 1149.4 354.281 1148.72 352.158 C 1150.76 339.906 1157.87 326.414 1164.39 315.943 C 1170.37 321.843 1176.62 327.145 1183.71 331.652 C 1187.56 328.15 1190.86 324.307 1194.23 320.362 C 1189.78 313.237 1184.69 306.794 1179.42 300.262 C 1192.25 293.762 1205.74 287.196 1219.74 283.779 C 1220.86 289.436 1221.52 295.911 1224.9 300.73 C 1227.07 303.834 1229.24 305.636 1233.01 306.379 C 1235.05 306.039 1236.4 305.539 1237.84 303.971 C 1243.45 297.852 1242.04 288.05 1241.78 280.477 z"/>
<path transform="translate(0,0)" fill="rgb(184,102,198)" d="M 1231.7 338.147 C 1240.85 337.34 1249.71 337.992 1258.19 341.795 C 1267.63 346.029 1275.04 353.489 1278.4 363.366 C 1281.9 373.7 1281.11 386.734 1276.06 396.44 C 1270.72 406.692 1261.26 412.245 1250.53 415.471 C 1241.16 417.437 1232.26 417.175 1223.52 412.881 A 41.0844 41.0844 0 0 1 1202.87 389.104 A 38.8712 38.8712 0 0 1 1205.2 358.404 C 1210.93 347.561 1220.33 341.673 1231.7 338.147 z"/>
<path transform="translate(0,0)" fill="rgb(242,190,87)" d="M 1739.29 1005.41 C 1754.69 1013.42 1771.36 1019.23 1787.54 1025.49 A 3009.76 3009.76 0 0 1 1874.43 1058.86 C 1864.7 1079.91 1852.91 1099.88 1842.15 1120.41 C 1823.13 1156.71 1806.65 1189.41 1784.38 1224.15 A 767.253 767.253 0 0 1 1753.17 1211.04 C 1735.27 1201.9 1715.51 1194.62 1697.01 1186.65 L 1697.2 1186.29 C 1682.38 1179.92 1667.18 1173.92 1652.88 1166.47 C 1655.72 1164.01 1657.33 1161.41 1658.98 1158.1 C 1670.7 1137.99 1681.36 1116.87 1691.56 1095.95 C 1699.54 1085.41 1705.14 1071.35 1711.13 1059.56 L 1739.29 1005.41 z"/>
<path transform="translate(0,0)" fill="rgb(251,212,138)" d="M 1816.94 1065.27 C 1821.39 1065.15 1826.27 1065.37 1830.18 1067.69 C 1834.5 1070.25 1837.64 1074.85 1838.7 1079.72 C 1839.97 1085.5 1839.02 1091.41 1835.49 1096.22 C 1832.14 1100.79 1828.65 1101.84 1823.25 1102.84 C 1819.63 1102.49 1816.04 1101.96 1812.81 1100.16 C 1808.12 1097.54 1804.6 1092.94 1803.14 1087.78 C 1801.83 1083.15 1802.18 1078.03 1804.63 1073.82 C 1807.47 1068.94 1811.73 1066.83 1816.94 1065.27 z"/>
<path transform="translate(0,0)" fill="rgb(251,212,138)" d="M 1739.29 1005.41 C 1754.69 1013.42 1771.36 1019.23 1787.54 1025.49 C 1777.39 1043.96 1702.81 1182.92 1697.2 1186.29 C 1682.38 1179.92 1667.18 1173.92 1652.88 1166.47 C 1655.72 1164.01 1657.33 1161.41 1658.98 1158.1 C 1670.7 1137.99 1681.36 1116.87 1691.56 1095.95 C 1699.54 1085.41 1705.14 1071.35 1711.13 1059.56 L 1739.29 1005.41 z"/>
<path transform="translate(0,0)" fill="rgb(124,60,178)" d="M 563.662 283.289 C 578.369 270.604 594.191 260.972 614.169 259.951 L 615.648 262.681 C 623.218 264.731 631.579 264.303 639.379 265.723 C 666.157 270.596 686.565 287.035 699.92 310.42 C 713.738 334.615 717.927 362.393 710.292 389.287 C 702.65 416.207 682.651 437.716 658.324 450.921 C 637.509 462.22 611.45 464.184 588.826 457.288 C 566.175 450.383 546.694 431.976 535.124 411.712 C 534.053 409.836 532.078 404.421 529.931 404.638 C 528.719 402.635 527.746 400.391 526.686 398.298 C 517.618 376.09 521.204 356.595 527.916 334.454 C 520.212 328.728 512.52 323.081 505.35 316.682 C 505.997 314.903 506.692 313.096 507.578 311.42 C 511.561 303.882 528.641 275.184 536.803 273.276 C 546.326 271.05 556.183 278.383 563.662 283.289 z"/>
<path transform="translate(0,0)" fill="rgb(251,251,250)" d="M 624.581 324.176 C 632.657 323.442 640.156 323.799 647.646 327.22 C 656.498 331.263 662.865 338.764 666.094 347.875 A 39.4577 39.4577 0 0 1 664.323 378.536 C 658.568 390.044 649.342 395.16 637.62 398.912 C 628.902 400.319 620.653 400.918 612.356 397.094 C 604.25 393.357 598.596 386.255 595.735 377.903 A 41.3788 41.3788 0 0 1 598.394 344.961 C 604.169 334.148 613.146 327.88 624.581 324.176 z"/>
<path transform="translate(0,0)" fill="rgb(18,175,139)" d="M 1653.83 875.256 A 4743.31 4743.31 0 0 0 1723.99 904.146 C 1737.22 909.668 1750.53 915.021 1763.39 921.346 C 1754.42 943.963 1743.16 965.527 1733.25 987.725 C 1722.7 1011.36 1713.58 1035.71 1704.16 1059.81 C 1699.88 1070.77 1692.79 1084.27 1691.56 1095.95 C 1681.36 1116.87 1670.7 1137.99 1658.98 1158.1 C 1640.48 1152.09 1622.13 1144.1 1604.03 1136.94 C 1598.22 1134.52 1592.35 1132.46 1586.37 1130.47 C 1574.32 1125.2 1561.88 1119.49 1549.27 1115.77 C 1561.22 1090.68 1571.36 1065.83 1574.8 1038.03 C 1587.26 1024.45 1618.15 951.208 1628.86 929.037 C 1636.28 913.691 1645.37 898.543 1651.88 882.846 C 1652.89 880.421 1653.44 877.845 1653.83 875.256 z"/>
<path transform="translate(0,0)" fill="rgb(28,193,119)" d="M 1672.34 931.086 C 1675.25 930.942 1678.05 930.828 1680.84 931.833 C 1685.81 933.623 1690 937.644 1692.11 942.455 A 20.3307 20.3307 0 0 1 1692.26 958.474 C 1689.72 964.638 1684.98 967.902 1679.02 970.319 C 1676.92 970.226 1674.79 970.122 1672.75 969.556 C 1666.71 967.873 1660.87 963.655 1658.05 957.973 A 16.876 16.876 0 0 1 1657.25 944.657 C 1659.85 937.29 1665.63 934.103 1672.34 931.086 z"/>
<path transform="translate(0,0)" fill="rgb(11,147,154)" d="M 1723.99 904.146 C 1737.22 909.668 1750.53 915.021 1763.39 921.346 C 1754.42 943.963 1743.16 965.527 1733.25 987.725 C 1722.7 1011.36 1713.58 1035.71 1704.16 1059.81 C 1699.88 1070.77 1692.79 1084.27 1691.56 1095.95 C 1681.36 1116.87 1670.7 1137.99 1658.98 1158.1 C 1640.48 1152.09 1622.13 1144.1 1604.03 1136.94 C 1630.76 1092.12 1653.57 1045.1 1677.52 998.734 C 1693.55 967.675 1712.09 937.128 1723.99 904.146 z"/>
<path transform="translate(0,0)" fill="rgb(242,166,227)" d="M 1553.89 501.22 C 1579.33 501.722 1603.88 513.837 1621.44 531.942 A 108.317 108.317 0 0 1 1652.09 609.103 C 1663.18 609.103 1674.45 608.699 1685.53 609.185 L 1684.36 609.348 C 1676.9 610.313 1656.35 607.413 1651.25 611.603 C 1651.18 613.053 1651 614.624 1651.06 616.083 C 1651.5 639.763 1639.6 661.543 1623.52 678.379 C 1604.48 698.304 1580.25 707.709 1553.2 709.992 L 1546.09 710.113 C 1524.45 709.827 1498.76 698.682 1482.37 684.832 C 1462.77 668.264 1448.82 642.449 1446.8 616.807 C 1433.7 616.86 1420.56 617.105 1407.46 616.646 C 1404.17 617.5 1403.65 618.019 1401.87 620.887 C 1400.8 622.611 1400 624.516 1398.9 626.211 C 1395.73 628.29 1392.89 629.778 1389.01 629.879 C 1384.41 629.998 1380.17 628.371 1376.86 625.159 C 1373.52 621.907 1371.35 617.21 1371.34 612.518 C 1371.32 608.063 1372.92 604.096 1376.27 601.123 C 1381.48 596.501 1387.47 596.596 1394.01 596.853 C 1398.92 600.181 1401.86 607.001 1406.77 609.268 C 1420.01 608.336 1433.66 608.988 1446.95 609.015 C 1446.93 604.757 1446.93 600.494 1447.27 596.247 C 1449.49 569.132 1460.32 545.026 1481.36 527.415 C 1496.98 514.334 1525.04 499.512 1546.03 501.395 C 1549.09 501.877 1550.82 502.074 1553.89 501.22 z"/>
<path transform="translate(0,0)" fill="rgb(251,251,250)" d="M 1398.9 626.211 C 1395.73 628.29 1392.89 629.778 1389.01 629.879 C 1384.41 629.998 1380.17 628.371 1376.86 625.159 C 1373.52 621.907 1371.35 617.21 1371.34 612.518 C 1371.32 608.063 1372.92 604.096 1376.27 601.123 C 1381.48 596.501 1387.47 596.596 1394.01 596.853 C 1398.92 600.181 1401.86 607.001 1406.77 609.268 C 1407.1 609.302 1407.44 609.341 1407.77 609.372 C 1419.42 610.461 1436.08 606.795 1446.57 611.663 L 1447.82 613.438 C 1446.99 614.81 1447.53 614.547 1446.3 614.833 C 1433.78 617.759 1420.16 614.646 1407.46 616.646 C 1404.17 617.5 1403.65 618.019 1401.87 620.887 C 1400.8 622.611 1400 624.516 1398.9 626.211 z"/>
<path transform="translate(0,0)" fill="rgb(167,61,106)" d="M 1539.7 530.298 C 1556.13 527.796 1573.98 531.436 1587.99 540.345 C 1605.38 551.399 1618.58 570.822 1622.83 590.965 C 1626.9 610.299 1621.92 631.97 1611.2 648.404 C 1599.23 666.751 1581.97 675.541 1561.02 679.944 C 1542.27 682.688 1522.06 676.959 1506.63 666.172 A 76.2613 76.2613 0 0 1 1475.42 616.289 A 75.2442 75.2442 0 0 1 1488.69 559.922 C 1501.11 543.081 1519.31 533.494 1539.7 530.298 z"/>
<path transform="translate(0,0)" fill="rgb(251,251,250)" d="M 1541.64 540.255 C 1555.79 538.702 1568.86 541.145 1580.99 548.74 C 1596.17 558.241 1606.65 572.82 1610.53 590.314 C 1614.6 608.674 1610.69 627.299 1600.4 642.973 C 1589.91 658.964 1575.11 666.148 1556.98 669.977 C 1541.68 671.195 1527.56 667.192 1514.82 658.745 A 66.2946 66.2946 0 0 1 1486.22 616.053 C 1483.06 599.862 1485.93 582.337 1495.29 568.62 C 1506.33 552.427 1522.76 543.791 1541.64 540.255 z"/>
<path transform="translate(0,0)" fill="rgb(3,2,5)" d="M 1543.13 574.243 C 1549 573.613 1554.87 573.651 1560.48 575.734 A 26.9561 26.9561 0 0 1 1576.38 591.326 A 32.2901 32.2901 0 0 1 1575.64 616.369 C 1571.47 625.416 1564.73 630.072 1555.8 633.597 C 1550.64 634.345 1545.13 634.263 1540.17 632.546 C 1532.7 629.96 1526.87 624.542 1523.48 617.431 A 31.0035 31.0035 0 0 1 1522.67 592.528 C 1526.61 582.845 1533.83 577.971 1543.13 574.243 z"/>
<path transform="translate(0,0)" fill="rgb(251,251,250)" d="M 1545.19 588.883 C 1546.62 588.909 1548.08 588.899 1549.5 589.146 C 1552.86 589.73 1556.01 591.848 1557.96 594.63 C 1559.85 597.319 1560.44 600.529 1559.78 603.725 C 1558.83 608.392 1556.11 610.472 1552.3 612.976 C 1550.21 613.094 1548.02 613.273 1545.93 613.079 C 1543.28 612.832 1540.6 611.047 1539 608.955 C 1536.98 606.322 1536.37 603.216 1536.98 599.983 C 1537.99 594.634 1540.86 591.865 1545.19 588.883 z"/>
<path transform="translate(0,0)" fill="rgb(251,212,138)" d="M 905.082 211.208 C 923.604 204.777 943.536 200.493 963.192 203.137 C 963.268 211.297 960.156 225.698 964.966 232.5 C 968.47 237.453 975.459 237.411 980.924 238.135 C 989.223 230.386 992.005 218.764 995.462 208.323 C 1012.01 218.074 1030.76 228.405 1042.19 244.259 C 1031.72 251.323 1023.36 257.332 1017.64 269.041 C 1021.37 274.833 1025.1 279.774 1030.01 284.607 C 1041.19 280.959 1051.51 275.968 1061.93 270.588 C 1069.59 287.122 1071.69 304.915 1072.78 322.878 C 1063.18 322.71 1050.87 321.389 1041.69 324.535 C 1041.77 327.719 1041.86 324.491 1041.22 327.842 C 1040.76 330.235 1041.24 349.075 1042.05 350.794 L 1041.84 351.38 C 1048.52 354.821 1057.23 356.192 1064.55 358.03 C 1056.81 380.211 1045.7 396.829 1028.53 412.94 C 1022.39 403.685 1014.92 390.532 1004.03 386.372 C 1001.01 385.22 997.757 384.769 994.835 386.443 C 992.74 387.642 991.672 390.382 991.304 392.665 C 989.493 403.915 997.027 414.956 1003.25 423.631 C 985.819 432.382 965.435 434.565 946.376 437.602 C 946.479 430.784 951.024 416.461 947.889 410.956 C 946.246 408.069 943.695 405.644 940.496 405.111 L 941.659 404.653 C 940.368 404.007 939.028 403.272 937.631 402.862 C 934.595 401.97 931.291 402.747 928.681 404.424 C 920.001 410 918.362 422.818 916.192 432.08 C 899.814 422.014 882.263 411.807 868.643 398.147 C 875.512 390.318 883.908 383.985 890.939 376.234 C 887.218 368.69 882.62 361.406 877.61 354.655 C 867.947 358.358 858.565 363.397 849.248 367.925 A 180.711 180.711 0 0 1 839.963 311.829 C 848.495 312.444 857.74 313.552 866.054 311.07 C 870.202 309.831 874.676 307.354 876.392 303.136 C 877.489 300.439 877.077 297.385 875.635 294.904 C 870.006 285.22 856.954 283.302 847.064 281.085 C 853.902 261.787 865.561 244.675 878.523 228.952 C 881.478 235.121 885.886 248.089 891.781 251.476 C 895.575 253.656 900.362 252.732 904.299 251.359 C 908.257 249.979 913.042 247.448 914.577 243.247 C 916.94 236.78 907.458 217.655 905.082 211.208 z"/>
<path transform="translate(0,0)" fill="rgb(138,123,217)" d="M 1041.84 351.38 C 1038.62 350.291 1036.18 348.574 1034.78 345.391 C 1032.77 340.796 1033.25 335.743 1035.03 331.199 C 1036.48 327.503 1038.16 326.166 1041.69 324.535 C 1041.77 327.719 1041.86 324.491 1041.22 327.842 C 1040.76 330.235 1041.24 349.075 1042.05 350.794 L 1041.84 351.38 z"/>
<path transform="translate(0,0)" fill="rgb(184,102,198)" d="M 945.855 270.223 C 957.329 269.16 967.991 270.208 978.412 275.644 C 990.199 281.792 998.511 292.154 1002.31 304.865 A 50.707 50.707 0 0 1 997.845 344.683 C 990.263 357.846 978.185 365.335 963.79 369.023 C 951.644 371.286 938.942 369.603 928.104 363.507 C 916.274 356.853 907.339 346.001 904.142 332.708 C 900.93 319.351 903.622 304.859 910.956 293.302 C 919.119 280.441 931.334 273.506 945.855 270.223 z"/>
<path transform="translate(0,0)" fill="rgb(184,102,198)" d="M 1772.88 1347.32 C 1790.33 1354 1817.4 1361.94 1825.2 1380.62 C 1827.57 1386.3 1826.62 1391.53 1825.9 1397.43 C 1826.53 1411.55 1794.44 1558.75 1789.16 1570.33 A 4166.1 4166.1 0 0 1 1776.51 1625.36 C 1774.16 1635.11 1770.78 1645.19 1769.39 1655.09 C 1767.15 1663.97 1765.57 1672.95 1763.15 1681.82 C 1748.11 1693.36 1724.34 1699.44 1705.99 1703.06 C 1657.3 1712.68 1550.48 1715.22 1508.79 1686.13 C 1504.52 1683.15 1500.21 1679.28 1497.97 1674.48 C 1491.24 1660.04 1488.29 1622.55 1485.19 1604.96 C 1484.33 1582.28 1474.05 1552.21 1475.93 1530.84 C 1478.39 1525.26 1477.54 1516.93 1477.63 1510.82 L 1476.29 1504.07 A 683.395 683.395 0 0 0 1476.09 1465.91 C 1476.09 1461.06 1475.78 1456.22 1475.54 1451.38 A 2809.77 2809.77 0 0 0 1495.82 1431.72 C 1500.24 1426.52 1504.83 1421.65 1509.65 1416.82 C 1527.5 1416.96 1545.25 1418.45 1563.08 1419.21 A 1073.37 1073.37 0 0 0 1622.16 1420.01 C 1633.55 1419.94 1645.16 1420.3 1656.5 1419.16 C 1669.74 1419.15 1683.13 1418.76 1696.29 1417.21 C 1710.81 1416.48 1725.56 1414.11 1740.01 1412.37 C 1746.59 1400.26 1752.48 1387.54 1758.23 1375.02 L 1765.31 1362.3 C 1767.99 1357.4 1770.38 1352.31 1772.88 1347.32 z"/>
<path transform="translate(0,0)" fill="rgb(242,166,227)" d="M 1772.88 1347.32 C 1790.33 1354 1817.4 1361.94 1825.2 1380.62 C 1827.57 1386.3 1826.62 1391.53 1825.9 1397.43 C 1796.65 1431 1733.41 1435.39 1691.1 1438.27 C 1658.21 1440.51 1625.43 1439.61 1592.5 1438.8 C 1560.67 1438.02 1527.19 1437.79 1495.82 1431.72 C 1500.24 1426.52 1504.83 1421.65 1509.65 1416.82 C 1527.5 1416.96 1545.25 1418.45 1563.08 1419.21 A 1073.37 1073.37 0 0 0 1622.16 1420.01 C 1633.55 1419.94 1645.16 1420.3 1656.5 1419.16 C 1669.74 1419.15 1683.13 1418.76 1696.29 1417.21 C 1710.81 1416.48 1725.56 1414.11 1740.01 1412.37 C 1746.59 1400.26 1752.48 1387.54 1758.23 1375.02 L 1765.31 1362.3 C 1767.99 1357.4 1770.38 1352.31 1772.88 1347.32 z"/>
<path transform="translate(0,0)" fill="rgb(94,44,148)" d="M 1765.31 1362.3 C 1775.73 1365.84 1794.27 1371.58 1799.91 1381.97 C 1801.22 1384.37 1801.53 1386.91 1800.73 1389.54 C 1798.97 1395.29 1792.62 1399.36 1787.53 1401.84 C 1773.65 1408.58 1755.32 1411.72 1740.01 1412.37 C 1746.59 1400.26 1752.48 1387.54 1758.23 1375.02 L 1765.31 1362.3 z"/>
<path transform="translate(0,0)" fill="rgb(168,72,171)" d="M 1477.63 1510.82 L 1478.85 1512.37 C 1488.43 1524.87 1495.55 1540.41 1504.29 1553.65 C 1534.23 1599 1577.25 1639.08 1633.04 1647.06 C 1676.44 1653.27 1715.52 1637.89 1749.77 1611.8 C 1759.78 1604.17 1768.22 1595.51 1776.2 1585.81 C 1780.42 1580.67 1784.31 1574.87 1789.16 1570.33 A 4166.1 4166.1 0 0 1 1776.51 1625.36 C 1774.16 1635.11 1770.78 1645.19 1769.39 1655.09 C 1767.15 1663.97 1765.57 1672.95 1763.15 1681.82 C 1748.11 1693.36 1724.34 1699.44 1705.99 1703.06 C 1657.3 1712.68 1550.48 1715.22 1508.79 1686.13 C 1504.52 1683.15 1500.21 1679.28 1497.97 1674.48 C 1491.24 1660.04 1488.29 1622.55 1485.19 1604.96 C 1484.33 1582.28 1474.05 1552.21 1475.93 1530.84 C 1478.39 1525.26 1477.54 1516.93 1477.63 1510.82 z"/>
<path transform="translate(0,0)" fill="rgb(242,190,87)" d="M 474.969 493.169 A 137.788 137.788 0 0 1 478.169 493.034 C 492.047 492.662 513.094 490.97 523.633 501.487 C 535.859 513.687 531.975 541.017 531.818 557.227 C 544.524 556.776 558.316 556.352 568.215 565.827 C 575.984 573.262 576.568 583.285 576.828 593.433 C 577.372 614.654 576.829 636.042 576.849 657.281 L 576.876 791.354 L 576.7 860.369 C 576.597 870.538 577.398 882.497 575.532 892.472 C 574.406 898.488 570.447 904.537 566.16 908.779 C 561.421 913.468 556.245 914.705 549.723 915.529 C 532.019 917.766 512.29 916.03 494.316 916.02 L 377.5 915.933 A 3194.69 3194.69 0 0 0 329.275 916.182 C 318.991 916.295 307.661 917.329 297.542 915.629 C 292.12 914.719 286.047 912.568 281.996 908.708 C 278.393 905.275 275.582 900.284 274.829 895.334 C 272.229 878.238 274.145 850.745 274.207 832.336 L 274.788 689.725 L 274.78 619.55 C 274.77 607.086 272.879 590.809 275.785 578.856 C 277.143 573.27 280.961 568.04 285.049 564.115 C 289.54 559.803 294.862 559.039 300.87 558.296 C 317.031 556.296 335.152 557.951 351.49 557.974 A 9342.8 9342.8 0 0 1 448.206 558.106 C 448.139 542.676 444.764 519.827 453.09 506.575 C 458.212 498.422 466.065 495.37 474.969 493.169 z"/>
<path transform="translate(0,0)" fill="rgb(251,251,250)" d="M 306.542 616.366 C 354.125 614.997 402.281 615.263 449.877 616.12 C 450.23 620.889 450.022 625.571 449.815 630.337 C 402.166 631.758 354.122 630.54 306.447 630.249 C 306.198 625.606 306.386 621.008 306.542 616.366 z"/>
<path transform="translate(0,0)" fill="rgb(251,251,250)" d="M 306.644 645.978 C 354.532 644.887 403.108 644.904 451 646.058 C 451.042 650.756 450.789 655.458 450.613 660.152 C 423.225 661.148 395.681 660.809 368.277 660.834 C 347.982 660.852 327.344 661.612 307.091 660.322 C 306.606 655.537 306.649 650.782 306.644 645.978 z"/>
<path transform="translate(0,0)" fill="rgb(218,138,56)" d="M 479.447 505.198 C 483.566 504.848 487.731 504.712 491.862 504.617 C 499.465 504.444 507.092 505.886 512.622 511.552 C 523.24 522.433 520.263 543.988 520.134 558.014 L 501.5 557.943 L 461.296 557.889 C 462.018 544.74 461.464 531.531 462.199 518.336 C 466.745 510.462 470.663 507.579 479.447 505.198 z"/>
<path transform="translate(0,0)" fill="rgb(124,60,178)" d="M 480.289 510.37 C 485.256 510.136 491.243 509.32 496.108 510.236 C 501.756 511.3 506.672 513.271 509.892 518.142 C 510.018 519.359 510.471 520.782 509.914 521.92 C 508.045 525.739 503.594 528.518 499.749 529.964 C 498.433 530.3 498.329 530.354 496.762 530.589 C 489.326 531.701 480.864 531.243 474.682 526.414 C 472.183 524.462 471.957 522.896 471.659 519.984 C 473.164 515.448 476.441 512.922 480.289 510.37 z"/>
<path transform="translate(0,0)" fill="rgb(28,193,119)" d="M 304.322 766.535 L 355.655 766.895 A 4274.92 4274.92 0 0 0 355.904 876.653 C 343.719 879.03 317.831 877.061 304.166 876.97 C 304.008 840.158 304.715 803.345 304.322 766.535 z"/>
<path transform="translate(0,0)" fill="rgb(28,193,119)" d="M 368.008 724.118 C 385.286 724.885 402.714 724.379 420.011 724.315 C 420.974 775.061 420.223 826.115 419.954 876.877 A 2639.77 2639.77 0 0 0 367.747 877.067 C 366.979 859.279 367.685 841.225 367.721 823.403 L 368.008 724.118 z"/>
<path transform="translate(0,0)" fill="rgb(28,193,119)" d="M 431.366 688.059 A 1911.1 1911.1 0 0 0 484.735 687.989 C 485.633 750.848 484.221 813.865 484.249 876.744 L 431.81 876.79 L 431.366 688.059 z"/>
<path transform="translate(0,0)" fill="rgb(28,193,119)" d="M 498.882 627.668 L 551.214 628.43 A 5002.85 5002.85 0 0 0 550.205 800.257 C 550.256 815.938 552.237 864.96 549.822 876.899 L 496.293 876.676 L 497.043 740.252 C 497.481 702.698 499.049 665.242 498.882 627.668 z"/>
<path transform="translate(0,0)" fill="rgb(104,103,199)" d="M 980.18 1601.72 C 989.733 1606.44 1045.82 1602.92 1059.66 1601.89 C 1072.91 1615.55 1087.29 1628.31 1103.4 1638.54 C 1148.4 1667.11 1207.72 1680.35 1260.64 1681.1 C 1272.69 1681.27 1284.72 1681.06 1296.7 1679.56 C 1318.77 1676.81 1370.63 1663.33 1388.05 1680.46 C 1390.06 1682.44 1390.71 1684.25 1390.74 1687.05 C 1390.87 1702.23 1355.8 1716.27 1380.22 1745.2 C 1385.31 1751.23 1392 1754.72 1399.9 1755.18 C 1419.55 1756.31 1440.53 1742.88 1454.35 1730.07 C 1469.66 1715.88 1480.24 1697.27 1480.8 1676.07 C 1481.48 1650.38 1465.75 1622.89 1450.87 1603.01 C 1461.8 1603.26 1474.5 1602.84 1485.19 1604.96 C 1488.29 1622.55 1491.24 1660.04 1497.97 1674.48 C 1500.21 1679.28 1504.52 1683.15 1508.79 1686.13 C 1550.48 1715.22 1657.3 1712.68 1705.99 1703.06 C 1724.34 1699.44 1748.11 1693.36 1763.15 1681.82 C 1765.57 1672.95 1767.15 1663.97 1769.39 1655.09 C 1801.6 1660.7 1865.04 1676.74 1883.88 1703.51 C 1887.12 1708.1 1888.32 1712.79 1889.45 1718.22 C 1885.24 1734.19 1874.61 1744.05 1860.72 1752.14 C 1846.41 1760.47 1830.03 1766.02 1814.38 1771.33 C 1761.61 1789.21 1707.68 1799.76 1652.91 1809.35 C 1490.11 1837.84 1323.53 1849.5 1158.42 1853.47 A 4336.45 4336.45 0 0 1 633.225 1837.79 C 551.081 1830.73 470.359 1822.18 389.11 1807.79 C 353.191 1801.43 317.283 1794.65 282.052 1785.08 C 253.078 1777.2 187.582 1758.93 172.111 1733.19 C 170.32 1730.21 169.535 1726.61 168.65 1723.28 C 168.604 1723.11 168.555 1722.94 168.508 1722.77 C 172.012 1707.76 180.436 1698.63 193.322 1690.71 C 212.649 1678.83 250.38 1666.91 273.434 1662.57 C 275.594 1671.69 277.811 1690.9 286.43 1696 C 295.084 1701.12 306.215 1703.76 315.718 1707.03 L 362.45 1723.33 L 519.566 1779.31 C 546.058 1788.61 575.013 1796.6 600.759 1807.32 C 622.117 1802.21 643.184 1795.9 664.452 1790.41 L 818.518 1751.15 L 960.237 1715.03 C 987.178 1708.24 1014.49 1702.09 1041.22 1694.64 C 1044.8 1693.64 1047.34 1692.22 1050.17 1689.85 C 1051.21 1687.75 1051.51 1686.19 1051.73 1683.86 C 1052.56 1672.13 1052.12 1660.37 1051.59 1648.64 C 1030.95 1642.17 1010.13 1636.03 989.801 1628.67 C 979.446 1626.2 968.808 1620.93 958.604 1617.53 C 965.896 1612.42 973.004 1607 980.18 1601.72 z"/>
<path transform="translate(0,0)" fill="rgb(21,35,111)" d="M 642.089 1187.15 C 657.202 1185.98 669.223 1183.09 682.867 1191.59 C 685.624 1197.07 688.141 1202.8 689.606 1208.77 A 885.461 885.461 0 0 0 699.563 1242.15 C 701.427 1251.65 705.726 1261.01 708.9 1270.16 C 713.59 1296.43 724.112 1333.2 731.869 1358.97 C 746.666 1363.84 759.483 1373.99 771.779 1383.24 C 774.445 1402.15 762.346 1422.33 753.266 1437.95 C 750.72 1442.76 754.043 1453.08 755.171 1458.47 C 756.718 1460.19 755.909 1459.7 757.306 1460.32 C 760.302 1466.24 761.582 1473.06 763.215 1479.46 A 756.339 756.339 0 0 0 772.457 1515.99 C 775.357 1528.49 777.818 1542.96 782.619 1554.79 C 793.461 1556.58 802.854 1562.86 814.06 1563.57 C 819.405 1565.59 826.102 1568.95 831.719 1569.37 C 849.394 1578.6 880.622 1587.64 900.42 1594.61 C 911.977 1600.25 925.749 1602.5 936.822 1608.59 C 942.21 1613 951.757 1616.44 958.604 1617.53 C 968.808 1620.93 979.446 1626.2 989.801 1628.67 C 1010.13 1636.03 1030.95 1642.17 1051.59 1648.64 C 1052.12 1660.37 1052.56 1672.13 1051.73 1683.86 C 1051.51 1686.19 1051.21 1687.75 1050.17 1689.85 C 1047.34 1692.22 1044.8 1693.64 1041.22 1694.64 C 1014.49 1702.09 987.178 1708.24 960.237 1715.03 L 818.518 1751.15 L 664.452 1790.41 C 643.184 1795.9 622.117 1802.21 600.759 1807.32 C 575.013 1796.6 546.058 1788.61 519.566 1779.31 L 362.45 1723.33 L 315.718 1707.03 C 306.215 1703.76 295.084 1701.12 286.43 1696 C 277.811 1690.9 275.594 1671.69 273.434 1662.57 C 262.2 1624.51 253.735 1584.9 244.469 1546.3 A 7652.24 7652.24 0 0 0 216.61 1437.45 L 190.697 1336.61 C 185.077 1315.43 177.236 1292.8 174.586 1271.03 C 173.627 1263.15 176.133 1255.59 181.105 1249.4 C 184.164 1245.59 187.711 1243.04 192.474 1241.88 C 203.187 1239.28 215.103 1238.75 226.082 1237.47 L 292.866 1229.66 L 533.04 1200.76 C 541.46 1200.24 549.842 1198.74 558.181 1197.48 C 566.999 1195.36 576.644 1194.9 585.688 1193.85 C 604.486 1191.68 623.349 1189.78 642.089 1187.15 z"/>
<path transform="translate(0,0)" fill="rgb(234,106,97)" d="M 731.869 1358.97 C 746.666 1363.84 759.483 1373.99 771.779 1383.24 C 774.445 1402.15 762.346 1422.33 753.266 1437.95 C 747.608 1426.59 735.346 1374.38 731.869 1358.97 z"/>
<path transform="translate(0,0)" fill="rgb(70,129,182)" d="M 216.594 1254.52 C 235.863 1251.08 255.907 1249.65 275.36 1247.2 A 4705.91 4705.91 0 0 1 405.8 1231.43 A 24573.6 24573.6 0 0 1 673.166 1199.87 A 1454.86 1454.86 0 0 0 676.835 1216.18 C 665.662 1219.38 652.323 1219.41 640.737 1220.57 A 2457.04 2457.04 0 0 0 571.115 1228.26 A 12391.6 12391.6 0 0 1 350.13 1256.62 C 303.007 1262.48 255.047 1270.61 207.465 1270 C 209 1263.31 211.789 1259.3 216.594 1254.52 z"/>
<path transform="translate(0,0)" fill="rgb(23,69,160)" d="M 989.801 1628.67 C 1010.13 1636.03 1030.95 1642.17 1051.59 1648.64 C 1052.12 1660.37 1052.56 1672.13 1051.73 1683.86 C 1049.54 1682.42 1049.35 1682.19 1046.64 1682.71 C 1039.35 1684.14 1032.14 1687.63 1025 1689.77 A 1176.61 1176.61 0 0 1 977.257 1702.62 L 710.885 1771.16 L 645.945 1787.63 C 632.646 1790.99 618.569 1795.63 604.884 1796.72 C 604.957 1786.62 604.771 1776.42 605.135 1766.34 C 616.45 1765.02 628.279 1761.16 639.313 1758.3 L 708.021 1740.1 C 810.521 1713.82 914.399 1689.21 1013.88 1652.72 C 1005.47 1649.2 996.952 1646.33 988.297 1643.5 A 619.197 619.197 0 0 1 989.801 1628.67 z"/>
<path transform="translate(0,0)" fill="rgb(70,129,182)" d="M 803.949 1576.66 C 834.092 1585.89 863.272 1599.78 892.842 1610.8 C 924.346 1622.55 956.863 1631.66 988.297 1643.5 C 996.952 1646.33 1005.47 1649.2 1013.88 1652.72 C 914.399 1689.21 810.521 1713.82 708.021 1740.1 L 639.313 1758.3 C 628.279 1761.16 616.45 1765.02 605.135 1766.34 C 588.491 1757.83 570.388 1751.34 553.044 1744.4 C 517.391 1730.13 481.553 1716.88 445.667 1703.26 A 3544.16 3544.16 0 0 1 381.157 1678.13 C 366.561 1672.23 352.007 1665.6 337.031 1660.74 C 351.159 1656.34 367.533 1654.57 382.156 1651.92 A 8907.07 8907.07 0 0 1 474.699 1635.62 L 618.093 1610.06 C 679.947 1599.6 742.675 1590.03 803.949 1576.66 z"/>
<path transform="translate(0,0)" fill="rgb(23,69,160)" d="M 784.569 1595.35 C 794.652 1593.56 811.363 1603.09 820.996 1607.18 C 793.06 1616.41 763.484 1622.4 734.702 1628.49 A 12324.1 12324.1 0 0 1 589.879 1656.94 L 491.313 1676.29 C 474.872 1679.57 457.895 1684.25 441.293 1686.14 C 438.214 1686.49 435.911 1685.94 433.101 1684.72 A 727.474 727.474 0 0 1 390.824 1666.58 C 404.111 1662.89 418.707 1661.43 432.34 1659.12 A 3676.94 3676.94 0 0 0 504.628 1646.08 A 8397.7 8397.7 0 0 1 784.569 1595.35 z"/>
<path transform="translate(0,0)" fill="rgb(23,69,160)" d="M 830.116 1611.19 C 839.405 1610.15 883.401 1626.85 894.518 1631.02 C 879.684 1632.69 865.122 1636.94 850.642 1640.44 A 1764.5 1764.5 0 0 1 783.376 1655.81 C 691.531 1674.34 599.264 1691.17 507.637 1710.66 C 494.095 1712.68 455.891 1694.82 442.184 1688.68 C 459.094 1687.17 475.976 1683.14 492.612 1679.8 L 568.027 1664.81 C 631.481 1652.66 695.447 1641.93 758.613 1628.38 C 782.563 1623.24 806.322 1617 830.116 1611.19 z"/>
<path transform="translate(0,0)" fill="rgb(23,69,160)" d="M 899.288 1632.96 C 907.877 1632.64 932.916 1643.27 942.009 1646.83 C 926.949 1650.9 912.115 1656.91 897.308 1661.87 A 836.259 836.259 0 0 1 836.457 1679.74 C 753.806 1701.33 668.744 1717.72 588.27 1746.67 A 409.51 409.51 0 0 1 561.741 1736.72 A 1467.85 1467.85 0 0 1 506.816 1714.58 C 539.527 1705.71 576.784 1700.79 610.475 1694.78 A 10471.4 10471.4 0 0 0 758.476 1666.46 C 805.335 1657.17 853.976 1648.08 899.288 1632.96 z"/>
<path transform="translate(0,0)" fill="rgb(49,102,160)" d="M 676.835 1216.18 C 678.594 1228.31 682.827 1240.7 686.009 1252.57 L 705.69 1325.99 L 741.222 1460.21 C 749.605 1492.66 756.637 1525.85 766.682 1557.82 C 732.186 1565.66 697.193 1571.9 662.458 1578.63 A 21596.8 21596.8 0 0 1 427.56 1622.72 L 347.828 1638.03 C 332.049 1641.1 315.993 1643.76 300.43 1647.79 C 295.415 1619.06 286.859 1591.27 279.952 1562.98 L 229.3 1361.29 C 221.929 1331.53 210.858 1300.44 207.465 1270 C 255.047 1270.61 303.007 1262.48 350.13 1256.62 A 12391.6 12391.6 0 0 0 571.115 1228.26 A 2457.04 2457.04 0 0 1 640.737 1220.57 C 652.323 1219.41 665.662 1219.38 676.835 1216.18 z"/>
<path transform="translate(0,0)" fill="rgb(251,251,250)" d="M 667.345 1237.51 L 668.483 1237.46 C 671.222 1239.78 685.868 1298.05 687.976 1306.35 C 692.812 1325.39 696.341 1344.78 700.957 1363.89 A 5593.13 5593.13 0 0 0 739.847 1517.45 C 706.872 1522.98 674.339 1530.15 641.482 1536.22 L 437.374 1573.33 L 361.22 1587.33 C 346.896 1590.07 330.457 1594.88 315.987 1595.45 L 314.845 1593.74 L 237.228 1288.3 C 282.551 1284.59 327.563 1278.06 372.658 1272.36 L 534.088 1253.28 C 578.433 1247.89 622.864 1241.48 667.345 1237.51 z"/>
<path transform="translate(0,0)" fill="rgb(31,185,196)" d="M 679.498 1348.39 C 680.404 1348.28 681.802 1348.48 682.728 1348.53 C 685.932 1352.15 686.691 1360.8 687.791 1365.68 C 657.417 1367.78 626.535 1373.99 596.447 1378.69 C 565.368 1383.55 534.094 1387.29 503.089 1392.58 C 501.636 1392.52 501.143 1392.31 499.861 1391.72 C 497.774 1386 496.05 1380.23 494.377 1374.37 C 511.488 1370.31 530.246 1369.01 547.739 1366.41 A 4684.05 4684.05 0 0 1 679.498 1348.39 z"/>
<path transform="translate(0,0)" fill="rgb(31,185,196)" d="M 703.862 1455.34 C 706.677 1454.95 707.666 1454.56 710.327 1455.71 C 713.609 1460.84 714.356 1467.41 715.767 1473.29 C 655.967 1481.34 596.645 1492.62 537.234 1503.09 L 532.988 1503.55 C 528.099 1500.21 527.278 1489.74 525.71 1484.02 A 8951.14 8951.14 0 0 0 703.862 1455.34 z"/>
<path transform="translate(0,0)" fill="rgb(31,185,196)" d="M 694.935 1401.49 C 697.302 1403.81 699.662 1415.02 701 1418.77 C 678.654 1423.77 655.368 1426.68 632.783 1430.57 A 5136.04 5136.04 0 0 1 516.315 1450.16 C 512.889 1445.58 511.704 1434.99 510.295 1429.22 C 537.602 1427.12 564.999 1421.95 592.028 1417.63 L 694.935 1401.49 z"/>
<path transform="translate(0,0)" fill="rgb(31,185,196)" d="M 666.481 1293.42 C 668.054 1293.08 668.019 1293.45 669.33 1294.25 C 671.508 1299.54 672.529 1304.78 673.609 1310.37 C 631.261 1318.19 588.259 1323.71 545.643 1329.92 C 525.429 1332.87 504.662 1335.14 484.754 1339.63 C 480.974 1337.33 478.546 1323.32 477.31 1318.59 C 501.779 1316.69 526.503 1312.37 550.834 1309.01 L 666.481 1293.42 z"/>
<path transform="translate(0,0)" fill="rgb(142,224,220)" d="M 363.301 1327.62 C 393.157 1328.87 420.818 1339.46 441.401 1361.76 C 454.571 1376.03 462.378 1393.25 468.939 1411.31 C 459.807 1415.32 399.348 1437.2 392.696 1437.05 C 389.469 1421.64 384.838 1406.66 380.64 1391.5 L 363.301 1327.62 z"/>
<path transform="translate(0,0)" fill="rgb(234,106,97)" d="M 298.901 1468.46 C 294.409 1457.58 290.668 1446.42 288.841 1434.75 C 284.83 1409.16 289.14 1380.58 304.688 1359.36 C 319.833 1338.7 338.752 1331.59 363.301 1327.62 L 380.64 1391.5 C 384.838 1406.66 389.469 1421.64 392.696 1437.05 C 383.323 1444.59 313.699 1465.75 298.901 1468.46 z"/>
<path transform="translate(0,0)" fill="rgb(31,185,196)" d="M 392.696 1437.05 C 399.348 1437.2 459.807 1415.32 468.939 1411.31 C 477.475 1438.63 478.052 1471.22 464.554 1497.11 A 79.5981 79.5981 0 0 1 418.069 1535.96 C 396.284 1542.69 373.561 1539.49 353.668 1528.67 C 329.302 1515.42 311.458 1492.74 298.901 1468.46 C 313.699 1465.75 383.323 1444.59 392.696 1437.05 z"/>
<path transform="translate(0,0)" fill="rgb(31,185,196)" d="M 727.197 1140.14 C 708.145 1128.04 691.382 1110.93 677.377 1093.36 C 621.96 1023.83 602.268 928.895 612.568 841.877 C 621.48 766.582 661.035 690.979 712.64 635.98 C 728.473 619.105 746.401 603.998 764.583 589.723 A 412.656 412.656 0 0 1 1066.56 506.202 C 1173.49 519.342 1262.3 574.467 1327.79 658.709 C 1383.98 730.997 1410.67 838.505 1399.1 928.847 C 1387.67 1018.06 1349.59 1085.32 1278.42 1140.41 A 279.014 279.014 0 0 0 1281.27 1140.61 C 1302.73 1142 1325.43 1141.99 1346.65 1138.42 C 1391.99 1130.78 1440.44 1105.54 1459.3 1061.63 C 1466.33 1045.24 1470.8 1019.19 1484.7 1007.58 C 1497.46 996.914 1513.2 997.819 1528.62 999.46 C 1544.19 1002.76 1559.36 1009.58 1568.58 1023.19 C 1571.69 1027.77 1573.25 1032.78 1574.8 1038.03 C 1571.36 1065.83 1561.22 1090.68 1549.27 1115.77 C 1561.88 1119.49 1574.32 1125.2 1586.37 1130.47 C 1592.35 1132.46 1598.22 1134.52 1604.03 1136.94 C 1622.13 1144.1 1640.48 1152.09 1658.98 1158.1 C 1657.33 1161.41 1655.72 1164.01 1652.88 1166.47 C 1667.18 1173.92 1682.38 1179.92 1697.2 1186.29 L 1697.01 1186.65 C 1715.51 1194.62 1735.27 1201.9 1753.17 1211.04 A 767.253 767.253 0 0 0 1784.38 1224.15 L 1793.99 1228.25 C 1786.8 1244.23 1778.01 1259.6 1769.78 1275.08 A 3215.26 3215.26 0 0 0 1739.02 1334.57 C 1733.84 1344.73 1726.2 1356.34 1722.61 1366.96 C 1712.49 1382.77 1704.59 1400.38 1696.29 1417.21 C 1683.13 1418.76 1669.74 1419.15 1656.5 1419.16 C 1645.16 1420.3 1633.55 1419.94 1622.16 1420.01 A 1073.37 1073.37 0 0 1 1563.08 1419.21 C 1545.25 1418.45 1527.5 1416.96 1509.65 1416.82 C 1504.83 1421.65 1500.24 1426.52 1495.82 1431.72 A 2809.77 2809.77 0 0 1 1475.54 1451.38 C 1475.78 1456.22 1476.09 1461.06 1476.09 1465.91 A 683.395 683.395 0 0 1 1476.29 1504.07 L 1477.63 1510.82 C 1477.54 1516.93 1478.39 1525.26 1475.93 1530.84 C 1474.05 1552.21 1484.33 1582.28 1485.19 1604.96 C 1474.5 1602.84 1461.8 1603.26 1450.87 1603.01 C 1465.75 1622.89 1481.48 1650.38 1480.8 1676.07 C 1480.24 1697.27 1469.66 1715.88 1454.35 1730.07 C 1440.53 1742.88 1419.55 1756.31 1399.9 1755.18 C 1392 1754.72 1385.31 1751.23 1380.22 1745.2 C 1355.8 1716.27 1390.87 1702.23 1390.74 1687.05 C 1390.71 1684.25 1390.06 1682.44 1388.05 1680.46 C 1370.63 1663.33 1318.77 1676.81 1296.7 1679.56 C 1284.72 1681.06 1272.69 1681.27 1260.64 1681.1 C 1207.72 1680.35 1148.4 1667.11 1103.4 1638.54 C 1087.29 1628.31 1072.91 1615.55 1059.66 1601.89 C 1045.82 1602.92 989.733 1606.44 980.18 1601.72 C 973.004 1607 965.896 1612.42 958.604 1617.53 C 951.757 1616.44 942.21 1613 936.822 1608.59 C 925.749 1602.5 911.977 1600.25 900.42 1594.61 C 880.622 1587.64 849.394 1578.6 831.719 1569.37 C 826.102 1568.95 819.405 1565.59 814.06 1563.57 C 802.854 1562.86 793.461 1556.58 782.619 1554.79 C 777.818 1542.96 775.357 1528.49 772.457 1515.99 A 756.339 756.339 0 0 1 763.215 1479.46 C 761.582 1473.06 760.302 1466.24 757.306 1460.32 C 755.909 1459.7 756.718 1460.19 755.171 1458.47 C 754.043 1453.08 750.72 1442.76 753.266 1437.95 C 762.346 1422.33 774.445 1402.15 771.779 1383.24 C 759.483 1373.99 746.666 1363.84 731.869 1358.97 C 724.112 1333.2 713.59 1296.43 708.9 1270.16 C 705.726 1261.01 701.427 1251.65 699.563 1242.15 A 885.461 885.461 0 0 1 689.606 1208.77 C 688.141 1202.8 685.624 1197.07 682.867 1191.59 C 669.223 1183.09 657.202 1185.98 642.089 1187.15 C 623.349 1189.78 604.486 1191.68 585.688 1193.85 C 576.644 1194.9 566.999 1195.36 558.181 1197.48 C 549.842 1198.74 541.46 1200.24 533.04 1200.76 C 531.608 1196.86 514.292 1178.2 510.13 1172.67 C 484.96 1139.17 458.898 1082.36 459.424 1040.44 C 459.6 1026.4 462.953 1012.95 473.676 1003.09 C 483.073 994.441 496.308 990.378 508.945 991.064 A 46.8106 46.8106 0 0 1 532.399 998.75 C 553.153 1012.46 553.67 1034.55 562.333 1055.44 A 115.517 115.517 0 0 0 582.491 1087.23 C 619.159 1128.43 675.051 1136.84 727.197 1140.14 z"/>
<path transform="translate(0,0)" fill="rgb(41,222,250)" d="M 814.791 1262.35 C 816.201 1265.74 809.026 1294.2 808.352 1301.39 C 805.414 1332.75 808.965 1364.4 805.458 1395.72 C 803.923 1409.42 801.138 1423.18 795.884 1435.97 C 789.429 1451.68 777.389 1469.71 763.215 1479.46 C 761.582 1473.06 760.302 1466.24 757.306 1460.32 C 757.781 1457.41 760.673 1454.63 762.437 1452.28 A 113.331 113.331 0 0 0 781.253 1414.74 C 796.85 1358.59 772.158 1311.76 814.791 1262.35 z"/>
<path transform="translate(0,0)" fill="rgb(23,69,160)" d="M 782.619 1554.79 C 783.671 1554.66 783.612 1554.7 784.838 1554.39 C 799.513 1550.72 815.388 1538.5 827.659 1529.62 A 141.852 141.852 0 0 0 870.629 1480.75 C 877.604 1467.96 884.097 1453.46 886.225 1438.93 C 887.317 1431.48 887.015 1423.24 886.251 1415.76 C 885.333 1406.77 877.838 1378.46 881.592 1371.89 C 897.233 1420.25 915.045 1472.12 889.861 1520.98 C 888.187 1524.23 885.615 1529.06 881.95 1530.39 C 881.003 1530.74 880.364 1530.82 879.325 1531.03 C 866.591 1548.82 851.102 1559.48 831.719 1569.37 C 826.102 1568.95 819.405 1565.59 814.06 1563.57 C 802.854 1562.86 793.461 1556.58 782.619 1554.79 z"/>
<path transform="translate(0,0)" fill="rgb(142,224,220)" d="M 892.669 1475.21 C 889.992 1494.38 885.228 1512.65 879.325 1531.03 C 866.591 1548.82 851.102 1559.48 831.719 1569.37 C 826.102 1568.95 819.405 1565.59 814.06 1563.57 C 815.52 1561.01 847.149 1540.44 852.408 1535.78 C 870.069 1520.14 882.878 1496.35 892.669 1475.21 z"/>
<path transform="translate(0,0)" fill="rgb(234,106,97)" d="M 1261.44 1010.09 C 1261.7 1010.22 1261.96 1010.34 1262.22 1010.46 C 1278.52 1017.92 1297.88 1019.9 1305.61 1039.12 C 1308.54 1046.43 1307.37 1054.25 1304.16 1061.26 C 1298.19 1074.3 1285.3 1084.07 1272.01 1088.74 C 1252.24 1095.68 1223.21 1095.41 1204.31 1085.77 C 1195.04 1081.05 1187.23 1074.09 1184.14 1063.87 C 1181.96 1056.63 1182.26 1048.29 1185.99 1041.61 C 1188.33 1037.43 1191.78 1033.97 1195.49 1031 C 1208.31 1028.16 1220.98 1025.13 1233.36 1020.7 C 1242.77 1017.33 1251.85 1012.91 1261.44 1010.09 z"/>
<path transform="translate(0,0)" fill="rgb(234,106,97)" d="M 756.216 1005.38 C 773.836 1015.11 790.613 1018.46 810.303 1021.74 C 817.598 1022.96 825.694 1023.75 832.493 1026.76 C 839.682 1035 845.276 1042.44 844.561 1054.07 C 844.03 1062.69 839.699 1070.23 833.112 1075.69 C 814.227 1091.34 786.379 1088.98 763.685 1086.75 A 144.421 144.421 0 0 1 757.983 1084.77 C 743.199 1079.4 729.112 1071.2 722.431 1056.1 C 718.934 1048.2 718.236 1038.96 721.619 1030.9 C 727.703 1016.39 742.641 1010.64 756.216 1005.38 z"/>
<path transform="translate(0,0)" fill="rgb(41,222,250)" d="M 1194.43 1266.46 C 1199.22 1270.37 1203.37 1274.99 1207.63 1279.46 C 1213.21 1291.45 1218.48 1303.12 1221.47 1316.09 C 1226.95 1339.87 1227.15 1364.39 1230.93 1388.4 C 1237.94 1432.8 1262.22 1470.33 1305.41 1486.22 C 1347.63 1501.74 1398.03 1493.52 1437.89 1474.78 A 176.873 176.873 0 0 0 1475.54 1451.38 C 1475.78 1456.22 1476.09 1461.06 1476.09 1465.91 C 1455.5 1481.25 1430.61 1498.62 1406.95 1508.56 L 1405.88 1508.3 L 1405.71 1507.73 C 1411.44 1504.34 1418.41 1501.96 1423.77 1498.49 C 1419.26 1497.82 1412.12 1501.82 1407.7 1503.42 C 1372.87 1515.98 1323.09 1518.38 1289.3 1502.21 C 1268.38 1492.2 1251.01 1477.06 1236.33 1459.29 C 1211.81 1429.6 1201.43 1394.03 1202.05 1355.78 C 1202.61 1320.7 1206.65 1300.98 1194.43 1266.46 z"/>
<path transform="translate(0,0)" fill="rgb(11,147,154)" d="M 872.693 1321.79 C 873.439 1339.05 878.724 1355 881.592 1371.89 C 877.838 1378.46 885.333 1406.77 886.251 1415.76 C 887.015 1423.24 887.317 1431.48 886.225 1438.93 C 884.097 1453.46 877.604 1467.96 870.629 1480.75 A 141.852 141.852 0 0 1 827.659 1529.62 C 815.388 1538.5 799.513 1550.72 784.838 1554.39 C 783.612 1554.7 783.671 1554.66 782.619 1554.79 C 777.818 1542.96 775.357 1528.49 772.457 1515.99 C 833.811 1479.82 842.794 1435.34 858.334 1370.71 C 862.32 1354.13 865.913 1337.5 872.693 1321.79 z"/>
<path transform="translate(0,0)" fill="rgb(41,222,250)" d="M 1081.21 1307.15 A 415.071 415.071 0 0 1 1093.08 1317.13 C 1096.85 1321.91 1100.23 1329.14 1104.4 1333.14 C 1140.59 1404.01 1110.03 1470.17 1169.58 1540.53 C 1187.31 1561.47 1209.22 1576.29 1235.35 1584.83 C 1298.19 1605.35 1371.45 1563.2 1427.62 1608.2 C 1438.57 1616.96 1448.49 1628.64 1454.89 1641.14 C 1462.91 1656.78 1465.58 1676.04 1459.73 1692.85 C 1455.43 1705.2 1446.68 1715.71 1435.84 1722.91 L 1425.77 1718.68 C 1431.21 1713.35 1436.12 1706.59 1439.36 1699.7 A 48.588 48.588 0 0 0 1440.83 1661.52 C 1436.15 1649.25 1426.6 1639.41 1416.37 1631.52 C 1372.88 1598 1329.49 1611.88 1279.66 1609.85 C 1254.57 1608.82 1229.56 1604.28 1206.6 1593.86 A 170.05 170.05 0 0 1 1145.36 1547.03 C 1084.58 1474.35 1112.75 1390.38 1081.21 1307.15 z"/>
<path transform="translate(0,0)" fill="rgb(41,222,250)" d="M 1239.84 1166.21 L 1242.93 1165.31 C 1249.13 1168.85 1254.52 1178.11 1258.71 1183.77 C 1279.82 1212.28 1291.71 1229.65 1301.41 1265.04 C 1312.85 1306.78 1317.03 1361.28 1358.94 1384.91 C 1377.25 1395.24 1398.87 1395.39 1418.67 1389.59 C 1434.58 1384.93 1449.27 1377.09 1463.23 1368.29 C 1489.1 1351.97 1529.5 1315.44 1562.49 1334.55 C 1565.17 1336.1 1567.77 1338.06 1570.01 1340.2 C 1561.77 1340.06 1553.04 1339.44 1544.98 1341.35 C 1529.84 1344.95 1514.46 1355.09 1501.77 1363.8 C 1463.89 1389.79 1426.77 1414.95 1378.54 1408.6 C 1345.95 1404.3 1316.56 1377.88 1302.73 1348.89 C 1291.89 1326.17 1288.83 1307.93 1272.43 1286.87 C 1252.79 1261.65 1224.9 1256.08 1194.67 1253.04 C 1181.94 1251.75 1169.02 1250.71 1156.21 1250.9 C 1147.03 1251.04 1137.27 1253.37 1128.21 1252.28 C 1128.62 1249.34 1130.77 1248.03 1133.15 1246.43 C 1152.23 1233.58 1176.65 1225.48 1197.1 1211.6 A 151.371 151.371 0 0 0 1230.46 1180.8 C 1233.4 1177.12 1238.04 1172.27 1239.38 1167.86 C 1239.55 1167.32 1239.69 1166.76 1239.84 1166.21 z"/>
<path transform="translate(0,0)" fill="rgb(23,69,160)" d="M 1090.89 1022.39 C 1095.55 1021.84 1100 1022.72 1103.71 1025.74 C 1107.99 1029.24 1109.59 1034.86 1110.03 1040.17 C 1111.9 1063.04 1098.72 1088.07 1083.91 1104.61 A 100.783 100.783 0 0 1 1013.66 1138.05 C 985.164 1139.61 960.467 1132.13 939.106 1113.09 C 922.815 1096.22 910.325 1074.23 906.724 1050.84 C 905.788 1044.76 905.15 1037.41 909.272 1032.28 C 912.661 1028.06 917.163 1027.16 922.326 1027.25 C 931.39 1027.39 940.615 1030.34 949.439 1032.34 C 964.253 1035.68 979.585 1038.74 994.802 1039.06 C 1015.8 1039.49 1036.33 1035.71 1056.54 1030.34 C 1067.82 1027.35 1079.28 1023.69 1090.89 1022.39 z"/>
<path transform="translate(0,0)" fill="rgb(21,35,111)" d="M 958.72 1111.26 C 957.311 1110.49 955.948 1109.73 954.622 1108.83 C 937.34 1097.01 921.47 1073.18 917.801 1052.5 C 916.895 1047.39 917.269 1043.44 920.273 1039.19 C 933.281 1037.89 948.218 1043.77 961 1046.28 A 233.59 233.59 0 0 0 998.258 1050.32 C 1030.78 1050.96 1061.13 1038.5 1092.89 1034.32 C 1094.87 1035.3 1096.06 1036.21 1097.11 1038.21 C 1099.87 1043.52 1097.92 1050.9 1096.38 1056.32 C 1091.98 1071.81 1080.85 1093.59 1066.33 1101.78 C 1045.51 1119.25 1022.65 1126.93 995.368 1124.39 C 981.765 1123.12 970.009 1118.91 958.72 1111.26 z"/>
<path transform="translate(0,0)" fill="rgb(167,61,106)" d="M 958.72 1111.26 C 960.968 1106.9 964.157 1102.93 967.679 1099.54 C 980.359 1087.31 999.939 1081.02 1017.36 1081.36 C 1036.23 1081.73 1053.12 1088.19 1066.33 1101.78 C 1045.51 1119.25 1022.65 1126.93 995.368 1124.39 C 981.765 1123.12 970.009 1118.91 958.72 1111.26 z"/>
<path transform="translate(0,0)" fill="rgb(11,147,154)" d="M 763.131 1164.94 C 793.08 1181.09 825.968 1194.01 859.552 1199.84 C 874.398 1202.42 889.542 1203.17 904.355 1205.91 C 897.062 1209.09 885.598 1215.08 878.123 1216.44 C 860.094 1226.62 825.78 1244.51 814.791 1262.35 C 772.158 1311.76 796.85 1358.59 781.253 1414.74 A 113.331 113.331 0 0 1 762.437 1452.28 C 760.673 1454.63 757.781 1457.41 757.306 1460.32 C 755.909 1459.7 756.718 1460.19 755.171 1458.47 C 754.043 1453.08 750.72 1442.76 753.266 1437.95 C 762.346 1422.33 774.445 1402.15 771.779 1383.24 C 759.483 1373.99 746.666 1363.84 731.869 1358.97 C 724.112 1333.2 713.59 1296.43 708.9 1270.16 C 725.11 1229.18 737.21 1201.48 763.131 1164.94 z"/>
<path transform="translate(0,0)" fill="rgb(23,69,160)" d="M 771.779 1383.24 C 772.927 1369.1 771.851 1354.56 772.214 1340.35 C 773.08 1306.43 783.536 1277.3 808.587 1253.74 C 822.275 1240.87 859.112 1215.9 878.123 1216.44 C 860.094 1226.62 825.78 1244.51 814.791 1262.35 C 772.158 1311.76 796.85 1358.59 781.253 1414.74 A 113.331 113.331 0 0 1 762.437 1452.28 C 760.673 1454.63 757.781 1457.41 757.306 1460.32 C 755.909 1459.7 756.718 1460.19 755.171 1458.47 C 754.043 1453.08 750.72 1442.76 753.266 1437.95 C 762.346 1422.33 774.445 1402.15 771.779 1383.24 z"/>
<path transform="translate(0,0)" fill="rgb(142,224,220)" d="M 1014.28 552.62 C 1042.91 548.655 1068.82 549.252 1097.32 553.017 C 1140.27 562.186 1186.9 582.08 1221.9 608.564 C 1232.18 616.343 1241.28 625.785 1251.1 634.148 C 1263.13 647.622 1274.47 661.209 1282.67 677.451 C 1288.93 689.844 1297.02 710.258 1292.01 724.003 C 1290.16 729.055 1286.65 733.158 1281.63 735.195 C 1277 737.079 1271.09 737.409 1266.46 735.312 C 1256.26 730.684 1235.09 708.253 1224.82 699.636 A 463.472 463.472 0 0 0 1185.88 670.526 C 1150.91 647.593 1112.62 629.265 1075.62 609.845 C 1058.93 601.083 1041.52 592.389 1025.8 581.983 C 1020.39 578.404 1011.91 572.98 1009.97 566.546 C 1008.36 561.261 1011.73 556.92 1014.28 552.62 z"/>
<path transform="translate(0,0)" fill="rgb(11,147,154)" d="M 990.233 1326.59 C 993.805 1343.37 996.715 1360.18 1001.5 1376.67 C 1023.73 1453.26 1069.77 1545.69 1138.15 1589.83 C 1171.68 1611.48 1216.91 1626.48 1256.72 1628.34 C 1270.77 1628.99 1285.35 1628.68 1299.32 1627.04 C 1317.41 1624.9 1335.43 1619.97 1353.64 1619.42 C 1387.21 1618.42 1424.77 1634.45 1432.48 1670.29 C 1435.22 1683.03 1434.69 1694.03 1427.44 1705.21 C 1425.23 1708.62 1422.86 1711.95 1420.52 1715.27 C 1421.62 1717.54 1423.52 1717.72 1425.77 1718.68 L 1435.84 1722.91 C 1430.21 1726.63 1424.55 1730.63 1418.46 1733.57 C 1411.67 1736.86 1398.15 1741.23 1390.81 1737.52 C 1388.25 1736.23 1388.07 1735.44 1387.05 1732.93 C 1387.93 1716.53 1404.62 1710.49 1408.13 1699.73 C 1410.61 1692.13 1409.88 1684.45 1405.99 1677.48 C 1386.5 1642.55 1332.82 1655.97 1301.55 1660.59 A 212.208 212.208 0 0 1 1271.67 1663.08 C 1241 1663.69 1211.41 1659.39 1181.99 1650.91 C 1114.91 1631.57 1070.14 1601.05 1036.88 1538.54 C 1028.47 1522.74 1023.04 1505.39 1014.4 1489.77 L 1013.11 1489.81 C 1012.72 1490.61 1011.85 1516.03 1009.98 1523.38 C 999.757 1563.41 971.228 1588.36 936.822 1608.59 C 925.749 1602.5 911.977 1600.25 900.42 1594.61 C 909.276 1587.85 919.177 1582 927.53 1574.66 C 957.538 1548.29 981.107 1509.73 986.59 1469.85 C 991.121 1436.9 988.719 1402.39 988.57 1369.17 C 988.507 1355.11 988.156 1340.5 990.233 1326.59 z"/>
<path transform="translate(0,0)" fill="rgb(23,69,160)" d="M 1093.08 1317.13 C 1098.93 1317.63 1108.15 1328.57 1112.01 1333.13 C 1132.17 1356.98 1142.82 1389.38 1157.59 1416.69 C 1187.19 1471.4 1249.62 1522.68 1312.91 1528.49 C 1342.44 1531.2 1382.53 1527.25 1406.95 1508.56 C 1430.61 1498.62 1455.5 1481.25 1476.09 1465.91 A 683.395 683.395 0 0 1 1476.29 1504.07 L 1477.63 1510.82 C 1477.54 1516.93 1478.39 1525.26 1475.93 1530.84 C 1474.05 1552.21 1484.33 1582.28 1485.19 1604.96 C 1474.5 1602.84 1461.8 1603.26 1450.87 1603.01 C 1465.75 1622.89 1481.48 1650.38 1480.8 1676.07 C 1480.24 1697.27 1469.66 1715.88 1454.35 1730.07 C 1440.53 1742.88 1419.55 1756.31 1399.9 1755.18 C 1392 1754.72 1385.31 1751.23 1380.22 1745.2 C 1355.8 1716.27 1390.87 1702.23 1390.74 1687.05 C 1390.71 1684.25 1390.06 1682.44 1388.05 1680.46 C 1370.63 1663.33 1318.77 1676.81 1296.7 1679.56 C 1284.72 1681.06 1272.69 1681.27 1260.64 1681.1 C 1207.72 1680.35 1148.4 1667.11 1103.4 1638.54 C 1087.29 1628.31 1072.91 1615.55 1059.66 1601.89 C 1045.82 1602.92 989.733 1606.44 980.18 1601.72 C 973.004 1607 965.896 1612.42 958.604 1617.53 C 951.757 1616.44 942.21 1613 936.822 1608.59 C 971.228 1588.36 999.757 1563.41 1009.98 1523.38 C 1011.85 1516.03 1012.72 1490.61 1013.11 1489.81 L 1014.4 1489.77 C 1023.04 1505.39 1028.47 1522.74 1036.88 1538.54 C 1070.14 1601.05 1114.91 1631.57 1181.99 1650.91 C 1211.41 1659.39 1241 1663.69 1271.67 1663.08 A 212.208 212.208 0 0 0 1301.55 1660.59 C 1332.82 1655.97 1386.5 1642.55 1405.99 1677.48 C 1409.88 1684.45 1410.61 1692.13 1408.13 1699.73 C 1404.62 1710.49 1387.93 1716.53 1387.05 1732.93 C 1388.07 1735.44 1388.25 1736.23 1390.81 1737.52 C 1398.15 1741.23 1411.67 1736.86 1418.46 1733.57 C 1424.55 1730.63 1430.21 1726.63 1435.84 1722.91 C 1446.68 1715.71 1455.43 1705.2 1459.73 1692.85 C 1465.58 1676.04 1462.91 1656.78 1454.89 1641.14 C 1448.49 1628.64 1438.57 1616.96 1427.62 1608.2 C 1371.45 1563.2 1298.19 1605.35 1235.35 1584.83 C 1209.22 1576.29 1187.31 1561.47 1169.58 1540.53 C 1110.03 1470.17 1140.59 1404.01 1104.4 1333.14 C 1100.23 1329.14 1096.85 1321.91 1093.08 1317.13 z"/>
<path transform="translate(0,0)" fill="rgb(11,147,154)" d="M 1453.46 1517.71 C 1456.76 1516.82 1458.97 1515.97 1462.29 1517.39 C 1466.34 1520.99 1467.83 1526 1471.79 1529.76 C 1470.02 1529.89 1468.3 1529.8 1466.57 1529.35 C 1460.65 1527.81 1456.57 1522.62 1453.46 1517.71 z"/>
<path transform="translate(0,0)" fill="rgb(138,123,217)" d="M 1171.3 1513.33 C 1179.77 1521.37 1189.18 1528.88 1198.68 1535.66 C 1242.95 1567.27 1293.47 1574.12 1345.86 1565.41 C 1350.91 1568.06 1358.85 1566.94 1364.53 1567.82 C 1326.39 1567.84 1288.38 1580 1250.53 1570.98 A 128.092 128.092 0 0 1 1171.3 1513.33 z"/>
<path transform="translate(0,0)" fill="rgb(138,123,217)" d="M 980.18 1601.72 C 999.211 1584.35 1012.26 1566.7 1021.63 1542.71 C 1033.09 1563.69 1044.56 1583.23 1059.66 1601.89 C 1045.82 1602.92 989.733 1606.44 980.18 1601.72 z"/>
<path transform="translate(0,0)" fill="rgb(184,102,198)" d="M 1453.46 1517.71 C 1456.57 1522.62 1460.65 1527.81 1466.57 1529.35 C 1468.3 1529.8 1470.02 1529.89 1471.79 1529.76 L 1475.93 1530.84 C 1474.05 1552.21 1484.33 1582.28 1485.19 1604.96 C 1474.5 1602.84 1461.8 1603.26 1450.87 1603.01 C 1424.87 1580.59 1398.89 1570.1 1364.53 1567.82 C 1358.85 1566.94 1350.91 1568.06 1345.86 1565.41 C 1368.25 1560.63 1389.32 1552.89 1409.21 1541.49 C 1423.68 1533.2 1437.83 1523.68 1453.46 1517.71 z"/>
<path transform="translate(0,0)" fill="rgb(11,147,154)" d="M 1093.08 1317.13 C 1098.93 1317.63 1108.15 1328.57 1112.01 1333.13 C 1132.17 1356.98 1142.82 1389.38 1157.59 1416.69 C 1187.19 1471.4 1249.62 1522.68 1312.91 1528.49 C 1342.44 1531.2 1382.53 1527.25 1406.95 1508.56 C 1430.61 1498.62 1455.5 1481.25 1476.09 1465.91 A 683.395 683.395 0 0 1 1476.29 1504.07 C 1471.03 1499.45 1466.2 1496.96 1459.05 1498.68 C 1445.13 1502.05 1431.61 1512.03 1419.35 1519.13 C 1383.19 1540.08 1341.69 1553.98 1299.58 1552.01 C 1264.44 1550.37 1233.23 1538.83 1204.73 1518.41 C 1171.41 1494.53 1143.62 1460.97 1135.58 1419.98 C 1131.15 1397.43 1128.47 1376.76 1118.91 1355.43 C 1115.67 1348.22 1111.72 1338.62 1106.4 1332.83 L 1104.4 1333.14 C 1100.23 1329.14 1096.85 1321.91 1093.08 1317.13 z"/>
<path transform="translate(0,0)" fill="rgb(23,69,160)" d="M 1195.49 1031 C 1180.65 1031.2 1166.63 1030.56 1152.14 1026.92 C 1119.38 1018.69 1094.01 998.552 1076.77 969.617 C 1059.19 940.117 1054.53 903.107 1063.2 870.022 C 1071.58 838.052 1094.54 808.856 1123.1 792.379 C 1154.8 774.085 1190.23 770.742 1225.26 780.5 C 1258.15 789.662 1285.76 809.485 1302.52 839.634 C 1319.19 869.623 1323.25 907.359 1313.63 940.246 C 1305.19 969.09 1288.14 995.427 1261.44 1010.09 C 1251.85 1012.91 1242.77 1017.33 1233.36 1020.7 C 1220.98 1025.13 1208.31 1028.16 1195.49 1031 z"/>
<path transform="translate(0,0)" fill="rgb(251,251,250)" d="M 1178.01 789.376 C 1205.7 785.615 1237.55 794.854 1259.67 811.628 C 1284.18 830.21 1301.67 857.87 1305.67 888.508 A 117.544 117.544 0 0 1 1281.06 976.371 C 1261.24 1001.59 1233.74 1014.9 1202.24 1018.85 A 118.92 118.92 0 0 1 1116.75 995.748 C 1092.76 977.835 1076.72 948.247 1072.49 918.791 C 1068.25 889.19 1076.93 858.687 1094.95 834.982 C 1115.62 807.778 1144.68 793.995 1178.01 789.376 z"/>
<path transform="translate(0,0)" fill="rgb(23,69,160)" d="M 1147.05 982.725 C 1139.57 978.625 1129.67 971.708 1125.35 964.214 C 1127.72 964.379 1129.95 964.894 1132.28 965.374 C 1134.34 966.031 1134.82 965.772 1136.1 967.593 C 1139.07 971.832 1144.68 975.703 1148.98 978.471 A 620.137 620.137 0 0 0 1162.97 985.538 C 1163.3 986.135 1163.87 987.61 1164.46 987.912 C 1163.43 988.849 1163.1 989.465 1161.7 989.734 C 1156.67 988.555 1151.34 985.558 1147.05 982.725 z"/>
<path transform="translate(0,0)" fill="url(#Gradient1)" d="M 1274.37 894.804 C 1276.12 895.418 1277.6 895.336 1278.43 897.083 C 1279.04 898.379 1279.5 899.659 1279.95 901.014 C 1278.32 929.166 1270.49 953.323 1248.93 972.68 C 1231.91 987.96 1210.03 996.875 1187.03 995.466 C 1178.58 994.948 1169.45 993.219 1161.7 989.734 C 1163.1 989.465 1163.43 988.849 1164.46 987.912 C 1163.87 987.61 1163.3 986.135 1162.97 985.538 A 85.004 85.004 0 0 0 1193.7 990.129 C 1216.24 989.353 1235.88 978.789 1251.03 962.387 C 1268.42 943.572 1275.26 920.034 1274.37 894.804 z"/>
<path transform="translate(0,0)" fill="rgb(104,103,199)" d="M 1108.34 931.639 C 1106.48 924.991 1104.97 918.195 1104.28 911.322 C 1102.05 888.899 1108.99 867.731 1123.33 850.393 C 1138.08 832.559 1161.57 821.483 1184.45 819.384 C 1207.89 817.234 1233.29 825.87 1251.11 841.135 C 1268.52 856.041 1278.36 878.388 1279.95 901.014 C 1279.5 899.659 1279.04 898.379 1278.43 897.083 C 1277.6 895.336 1276.12 895.418 1274.37 894.804 C 1270.48 895.172 1266.71 894.218 1262.91 893.507 C 1264.02 889.279 1263.48 885.246 1262.61 881.025 C 1260.81 872.392 1257.18 862.999 1249.55 858.006 C 1248.86 857.516 1249.19 857.815 1248.54 856.95 C 1242.95 849.551 1238.02 844.598 1229.84 840.331 L 1230.07 838.883 A 78.7814 78.7814 0 0 0 1170.78 830.379 C 1150.7 835.297 1132.73 850.023 1122.48 867.761 C 1113.58 883.157 1111.17 899.171 1110.01 916.601 C 1109.69 921.311 1110.18 927.293 1108.34 931.639 z"/>
<path transform="translate(0,0)" fill="rgb(41,222,250)" d="M 1262.91 893.507 C 1266.71 894.218 1270.48 895.172 1274.37 894.804 C 1275.26 920.034 1268.42 943.572 1251.03 962.387 C 1235.88 978.789 1216.24 989.353 1193.7 990.129 A 85.004 85.004 0 0 1 1162.97 985.538 A 620.137 620.137 0 0 1 1148.98 978.471 C 1144.68 975.703 1139.07 971.832 1136.1 967.593 C 1134.82 965.772 1134.34 966.031 1132.28 965.374 C 1138.93 965.048 1143.07 963.989 1148.87 960.639 C 1154.96 962.199 1160.78 965.679 1166.9 967.467 C 1184.62 972.642 1206.54 968.031 1222.34 959.178 C 1252 942.553 1254.58 923.664 1262.91 893.507 z"/>
<path transform="translate(0,0)" fill="rgb(21,35,111)" d="M 1108.34 931.639 C 1110.18 927.293 1109.69 921.311 1110.01 916.601 C 1111.17 899.171 1113.58 883.157 1122.48 867.761 C 1132.73 850.023 1150.7 835.297 1170.78 830.379 A 78.7814 78.7814 0 0 1 1230.07 838.883 L 1229.84 840.331 C 1238.02 844.598 1242.95 849.551 1248.54 856.95 C 1249.19 857.815 1248.86 857.516 1249.55 858.006 C 1257.18 862.999 1260.81 872.392 1262.61 881.025 C 1263.48 885.246 1264.02 889.279 1262.91 893.507 C 1254.58 923.664 1252 942.553 1222.34 959.178 C 1206.54 968.031 1184.62 972.642 1166.9 967.467 C 1160.78 965.679 1154.96 962.199 1148.87 960.639 C 1150.06 958.955 1151.26 957.234 1151.91 955.262 A 17.9209 17.9209 0 0 0 1150.67 941.315 A 18.357 18.357 0 0 0 1138.52 932.053 C 1133.55 930.887 1127.94 931.466 1123.67 934.386 A 15.5602 15.5602 0 0 0 1117 945.228 C 1116.2 951.303 1118.8 955.484 1122.3 960.19 L 1123.15 961.319 L 1122.35 961.613 C 1122.01 961.422 1121.64 961.271 1121.33 961.041 C 1114.43 955.972 1110.51 939.476 1108.34 931.639 z"/>
<path transform="translate(0,0)" fill="rgb(251,251,250)" d="M 1249.55 858.006 C 1251.18 862.94 1252.2 868.204 1252.08 873.411 C 1251.88 881.577 1249.32 889.163 1243.23 894.811 C 1236.85 900.726 1227.81 903.599 1219.19 903.133 A 33.3977 33.3977 0 0 1 1195.16 890.975 A 27.5699 27.5699 0 0 1 1188.95 869.937 C 1190.02 860.794 1195.27 851.335 1202.7 845.853 C 1211.03 839.715 1219.97 838.971 1229.84 840.331 C 1238.02 844.598 1242.95 849.551 1248.54 856.95 C 1249.19 857.815 1248.86 857.516 1249.55 858.006 z"/>
<path transform="translate(0,0)" fill="rgb(23,69,160)" d="M 768.973 784.766 C 804.755 767.922 840.086 763.525 877.851 777.092 A 127.654 127.654 0 0 1 951.7 844.395 C 966.159 875.429 970.059 910.454 958.187 942.997 C 945.793 976.972 924.412 1001.85 891.457 1016.95 C 871.43 1026.13 854.311 1028.26 832.493 1026.76 C 825.694 1023.75 817.598 1022.96 810.303 1021.74 C 790.613 1018.46 773.836 1015.11 756.216 1005.38 C 743.231 996.806 732.411 987.235 723.582 974.311 A 134.165 134.165 0 0 1 702.598 874.471 C 710.38 834.492 736.265 806.712 768.973 784.766 z"/>
<path transform="translate(0,0)" fill="rgb(251,251,250)" d="M 822.01 783.369 A 114.631 114.631 0 0 1 903.296 806.635 C 928.881 826.079 947.162 855.017 951.188 887.169 C 954.965 917.323 945.904 949.223 927.281 973.178 A 118.854 118.854 0 0 1 847.093 1017.95 A 119.499 119.499 0 0 1 762.329 995.022 A 117.995 117.995 0 0 1 716.313 917.28 C 711.46 885.316 718.144 856.788 737.654 830.879 C 758.821 802.767 787.559 788.126 822.01 783.369 z"/>
<path transform="translate(0,0)" fill="rgb(23,69,160)" d="M 782.798 969.566 L 784.616 970.263 C 801.914 983.78 825.486 989.858 847.188 987.305 C 861.878 985.577 874.601 979.599 886.634 971.227 C 885.481 974.896 882.229 976.799 878.854 978.598 C 874.716 980.804 867.655 982.291 864.549 985.682 L 864.84 985.215 L 865.158 986.2 C 871.378 984.493 882.65 975.469 887.068 975.307 L 887.235 976.522 C 877.728 985.512 860.715 990.452 848.026 992.002 C 823.48 995 799.713 988.555 780.31 973.241 L 782.798 969.566 z"/>
<path transform="translate(0,0)" fill="rgb(49,102,160)" d="M 780.31 973.241 C 762.371 957.484 752.684 935.747 751.215 912.025 C 749.737 888.152 756.972 865.482 772.961 847.578 C 789.059 829.553 812.169 820.407 836.057 819.237 C 858.45 818.141 880.34 825.46 896.898 840.781 C 914.017 856.622 922.662 879.529 923.309 902.554 C 923.965 925.889 916.734 948.348 900.524 965.416 C 896.588 969.561 892.127 973.558 887.235 976.522 L 887.068 975.307 C 882.65 975.469 871.378 984.493 865.158 986.2 L 864.84 985.215 L 864.549 985.682 C 867.655 982.291 874.716 980.804 878.854 978.598 C 882.229 976.799 885.481 974.896 886.634 971.227 C 888.493 968.77 891.963 966.456 894.188 964.141 A 91.852 91.852 0 0 0 910.573 940.299 C 914.839 931.101 919.914 915.756 916.231 905.882 C 914.897 899.567 915.824 892.061 914.861 885.466 C 913.746 877.836 911.062 870.569 904.686 865.865 C 898.507 854.494 893.337 848.275 880.81 844.274 C 875.694 836.431 861.733 831.712 852.951 829.855 C 831.881 825.4 808.62 829.124 790.64 841.195 A 72.5182 72.5182 0 0 0 759.808 887.731 C 757.678 899.377 759.151 909.864 762.376 921.156 C 766.205 929.848 770.638 938.091 775.199 946.409 C 774.461 949.828 773.535 953.313 773.216 956.795 C 775.84 961.207 778.246 964.881 781.864 968.584 C 782.18 968.907 782.487 969.239 782.798 969.566 L 780.31 973.241 z"/>
<path transform="translate(0,0)" fill="rgb(42,165,250)" d="M 773.216 956.795 C 769.05 952.656 765.76 945.359 763.808 939.823 C 761.832 934.218 759.709 926.813 762.376 921.156 C 766.205 929.848 770.638 938.091 775.199 946.409 C 774.461 949.828 773.535 953.313 773.216 956.795 z"/>
<path transform="translate(0,0)" fill="rgb(21,35,111)" d="M 762.376 921.156 C 759.151 909.864 757.678 899.377 759.808 887.731 A 72.5182 72.5182 0 0 1 790.64 841.195 C 808.62 829.124 831.881 825.4 852.951 829.855 C 861.733 831.712 875.694 836.431 880.81 844.274 C 893.337 848.275 898.507 854.494 904.686 865.865 C 911.062 870.569 913.746 877.836 914.861 885.466 C 915.824 892.061 914.897 899.567 916.231 905.882 C 919.914 915.756 914.839 931.101 910.573 940.299 A 91.852 91.852 0 0 1 894.188 964.141 C 891.963 966.456 888.493 968.77 886.634 971.227 C 874.601 979.599 861.878 985.577 847.188 987.305 C 825.486 989.858 801.914 983.78 784.616 970.263 L 782.798 969.566 C 782.487 969.239 782.18 968.907 781.864 968.584 C 778.246 964.881 775.84 961.207 773.216 956.795 C 773.535 953.313 774.461 949.828 775.199 946.409 C 770.638 938.091 766.205 929.848 762.376 921.156 z"/>
<path transform="translate(0,0)" fill="rgb(251,251,250)" d="M 775.199 946.409 C 778.605 942.26 781.941 938.919 787.59 938.543 A 14.4365 14.4365 0 0 1 798.804 942.855 A 16.251 16.251 0 0 1 803.3 954.713 C 803.153 957.884 801.728 960.898 800.254 963.649 C 795.077 966.821 790.668 969.051 784.616 970.263 L 782.798 969.566 C 782.487 969.239 782.18 968.907 781.864 968.584 C 778.246 964.881 775.84 961.207 773.216 956.795 C 773.535 953.313 774.461 949.828 775.199 946.409 z"/>
<path transform="translate(0,0)" fill="rgb(31,185,196)" d="M 916.231 905.882 C 919.914 915.756 914.839 931.101 910.573 940.299 A 91.852 91.852 0 0 1 894.188 964.141 C 891.963 966.456 888.493 968.77 886.634 971.227 C 874.601 979.599 861.878 985.577 847.188 987.305 C 825.486 989.858 801.914 983.78 784.616 970.263 C 790.668 969.051 795.077 966.821 800.254 963.649 C 806.203 965.465 812.186 967.271 818.248 968.673 C 836.972 973.003 857.061 970.992 873.456 960.48 C 892.1 948.527 898.967 932.79 903.588 911.905 C 908.268 910.317 912.224 908.915 916.231 905.882 z"/>
<path transform="translate(0,0)" fill="rgb(251,251,250)" d="M 904.686 865.865 A 32.9304 32.9304 0 0 1 905.626 870.985 C 906.502 879.453 904.257 889.209 898.614 895.739 C 893.009 902.226 884.17 906.152 875.666 906.58 C 866.364 907.048 856.991 903.214 850.339 896.765 C 844.788 891.383 841.552 884.268 841.724 876.491 C 841.925 867.393 846.675 857.502 853.36 851.379 C 861.314 844.094 870.659 843.686 880.81 844.274 C 893.337 848.275 898.507 854.494 904.686 865.865 z"/>
<path transform="translate(0,0)" fill="rgb(23,69,160)" d="M 727.197 1140.14 C 708.145 1128.04 691.382 1110.93 677.377 1093.36 C 621.96 1023.83 602.268 928.895 612.568 841.877 C 621.48 766.582 661.035 690.979 712.64 635.98 C 728.473 619.105 746.401 603.998 764.583 589.723 A 412.656 412.656 0 0 1 1066.56 506.202 C 1173.49 519.342 1262.3 574.467 1327.79 658.709 C 1383.98 730.997 1410.67 838.505 1399.1 928.847 C 1387.67 1018.06 1349.59 1085.32 1278.42 1140.41 A 279.014 279.014 0 0 0 1281.27 1140.61 C 1302.73 1142 1325.43 1141.99 1346.65 1138.42 C 1391.99 1130.78 1440.44 1105.54 1459.3 1061.63 C 1466.33 1045.24 1470.8 1019.19 1484.7 1007.58 C 1497.46 996.914 1513.2 997.819 1528.62 999.46 C 1544.19 1002.76 1559.36 1009.58 1568.58 1023.19 C 1571.69 1027.77 1573.25 1032.78 1574.8 1038.03 C 1571.36 1065.83 1561.22 1090.68 1549.27 1115.77 C 1561.88 1119.49 1574.32 1125.2 1586.37 1130.47 C 1592.35 1132.46 1598.22 1134.52 1604.03 1136.94 C 1622.13 1144.1 1640.48 1152.09 1658.98 1158.1 C 1657.33 1161.41 1655.72 1164.01 1652.88 1166.47 C 1667.18 1173.92 1682.38 1179.92 1697.2 1186.29 L 1697.01 1186.65 C 1715.51 1194.62 1735.27 1201.9 1753.17 1211.04 A 767.253 767.253 0 0 0 1784.38 1224.15 L 1793.99 1228.25 C 1786.8 1244.23 1778.01 1259.6 1769.78 1275.08 A 3215.26 3215.26 0 0 0 1739.02 1334.57 C 1733.84 1344.73 1726.2 1356.34 1722.61 1366.96 C 1712.49 1382.77 1704.59 1400.38 1696.29 1417.21 C 1683.13 1418.76 1669.74 1419.15 1656.5 1419.16 C 1645.16 1420.3 1633.55 1419.94 1622.16 1420.01 A 1073.37 1073.37 0 0 1 1563.08 1419.21 C 1545.25 1418.45 1527.5 1416.96 1509.65 1416.82 C 1504.83 1421.65 1500.24 1426.52 1495.82 1431.72 A 2809.77 2809.77 0 0 1 1475.54 1451.38 A 176.873 176.873 0 0 1 1437.89 1474.78 C 1398.03 1493.52 1347.63 1501.74 1305.41 1486.22 C 1262.22 1470.33 1237.94 1432.8 1230.93 1388.4 C 1227.15 1364.39 1226.95 1339.87 1221.47 1316.09 C 1218.48 1303.12 1213.21 1291.45 1207.63 1279.46 C 1209.17 1280.15 1209.95 1280.47 1211.14 1281.71 C 1217.73 1284.09 1221.77 1290.09 1225.96 1295.44 C 1267.38 1348.38 1273.46 1409.12 1347.07 1430.87 C 1396.3 1445.42 1433.41 1432.91 1478.09 1412.54 C 1483.42 1410.1 1488.62 1406.7 1494.32 1409.92 C 1507.5 1396.7 1522.69 1378.91 1539.94 1371.03 C 1549.46 1366.68 1564.4 1368.05 1572.31 1361.36 C 1574.79 1359.26 1576.47 1356.26 1576.56 1352.97 C 1576.71 1347.84 1573.25 1343.77 1570.01 1340.2 C 1567.77 1338.06 1565.17 1336.1 1562.49 1334.55 C 1529.5 1315.44 1489.1 1351.97 1463.23 1368.29 C 1449.27 1377.09 1434.58 1384.93 1418.67 1389.59 C 1398.87 1395.39 1377.25 1395.24 1358.94 1384.91 C 1317.03 1361.28 1312.85 1306.78 1301.41 1265.04 C 1291.71 1229.65 1279.82 1212.28 1258.71 1183.77 C 1254.52 1178.11 1249.13 1168.85 1242.93 1165.31 L 1239.84 1166.21 C 1227.56 1170.92 1215.79 1177.34 1203.57 1182.31 C 1171.6 1195.32 1133.45 1204.91 1098.97 1204.04 C 1164.63 1187.66 1217.71 1168.45 1270.84 1125.32 C 1286.37 1112.71 1301.78 1098.34 1313.19 1081.81 C 1312.65 1081.21 1311.83 1080.76 1311.56 1079.99 C 1309.66 1074.46 1323.33 1041.93 1325.92 1034.88 C 1331.72 1019.15 1338.49 1003.7 1343.55 987.716 C 1364.16 922.714 1363.55 859.531 1347.01 793.719 C 1338.87 761.301 1325.79 726.21 1307.64 698.098 C 1300.06 686.352 1291.03 675.611 1282.18 664.818 C 1273.03 653.669 1263.65 641.674 1251.1 634.148 C 1241.28 625.785 1232.18 616.343 1221.9 608.564 C 1186.9 582.08 1140.27 562.186 1097.32 553.017 C 1091.12 549.291 1029.44 545.198 1019.92 545.62 C 1011.06 554.553 998.723 553.505 987.49 557.824 C 967.084 565.67 946.548 575.483 927.442 586.054 C 863.766 621.284 812.162 683.168 782.203 748.794 C 777.329 759.47 769.131 772.784 768.973 784.766 C 736.265 806.712 710.38 834.492 702.598 874.471 A 134.165 134.165 0 0 0 723.582 974.311 C 732.411 987.235 743.231 996.806 756.216 1005.38 C 742.641 1010.64 727.703 1016.39 721.619 1030.9 C 718.236 1038.96 718.934 1048.2 722.431 1056.1 C 729.112 1071.2 743.199 1079.4 757.983 1084.77 A 144.421 144.421 0 0 0 763.685 1086.75 C 797.245 1125.59 833.561 1156.5 878.435 1181.55 C 891.214 1188.68 905.59 1196.35 919.592 1200.73 C 924.078 1202.15 928.706 1203.37 932.91 1205.51 C 923.386 1205.79 913.885 1206.08 904.355 1205.91 C 889.542 1203.17 874.398 1202.42 859.552 1199.84 C 825.968 1194.01 793.08 1181.09 763.131 1164.94 C 737.21 1201.48 725.11 1229.18 708.9 1270.16 C 705.726 1261.01 701.427 1251.65 699.563 1242.15 A 885.461 885.461 0 0 1 689.606 1208.77 C 688.141 1202.8 685.624 1197.07 682.867 1191.59 C 669.223 1183.09 657.202 1185.98 642.089 1187.15 C 623.349 1189.78 604.486 1191.68 585.688 1193.85 C 576.644 1194.9 566.999 1195.36 558.181 1197.48 C 549.842 1198.74 541.46 1200.24 533.04 1200.76 C 531.608 1196.86 514.292 1178.2 510.13 1172.67 C 484.96 1139.17 458.898 1082.36 459.424 1040.44 C 459.6 1026.4 462.953 1012.95 473.676 1003.09 C 483.073 994.441 496.308 990.378 508.945 991.064 A 46.8106 46.8106 0 0 1 532.399 998.75 C 553.153 1012.46 553.67 1034.55 562.333 1055.44 A 115.517 115.517 0 0 0 582.491 1087.23 C 619.159 1128.43 675.051 1136.84 727.197 1140.14 z"/>
<path transform="translate(0,0)" fill="rgb(11,147,154)" d="M 689.606 1208.77 C 697.882 1208.88 706.194 1209.15 714.459 1208.62 C 709.702 1219.18 705.645 1232.49 699.563 1242.15 A 885.461 885.461 0 0 1 689.606 1208.77 z"/>
<path transform="translate(0,0)" fill="rgb(242,190,87)" d="M 1321.21 1270.32 A 297.955 297.955 0 0 0 1382.03 1258.21 C 1370.7 1276.68 1360.87 1296.52 1351.12 1315.88 C 1347.28 1323.49 1343.92 1332.02 1339.4 1339.18 C 1329.07 1318.35 1325.27 1293.09 1321.21 1270.32 z"/>
<path transform="translate(0,0)" fill="rgb(41,222,250)" d="M 521.104 1008.13 C 529.922 1012.45 533.874 1019.42 536.901 1028.52 C 540.212 1038.46 542.18 1048.77 545.956 1058.59 A 143.857 143.857 0 0 0 614.786 1134.49 C 642.632 1148.94 676.647 1155.15 707.865 1156.99 C 720.056 1157.72 732.601 1157.35 744.697 1158.9 L 732.516 1176.14 C 699.728 1176.52 654.581 1167.36 623.615 1155.84 C 587.818 1142.52 553.332 1112.77 537.685 1077.62 A 146.562 146.562 0 0 1 530.545 1057.79 C 528.653 1051.04 519.529 1012.25 521.104 1008.13 z"/>
<path transform="translate(0,0)" fill="rgb(11,147,154)" d="M 1211.14 1281.71 C 1217.73 1284.09 1221.77 1290.09 1225.96 1295.44 C 1267.38 1348.38 1273.46 1409.12 1347.07 1430.87 C 1396.3 1445.42 1433.41 1432.91 1478.09 1412.54 C 1483.42 1410.1 1488.62 1406.7 1494.32 1409.92 C 1483.14 1422.31 1468.99 1433.21 1455.15 1442.39 C 1424.74 1462.55 1386.07 1474.74 1349.63 1467.21 C 1324.44 1462 1301.46 1451.52 1282.51 1433.97 C 1230.35 1385.69 1247.91 1337.61 1211.14 1281.71 z"/>
<path transform="translate(0,0)" fill="rgb(11,147,154)" d="M 1525.17 1014.33 C 1535.34 1016.84 1548.35 1019.64 1553.93 1029.53 C 1559.83 1040.01 1556.83 1053.28 1553.37 1064.07 A 283.245 283.245 0 0 1 1410.37 1230.53 C 1382.22 1244.8 1349.7 1252.65 1318.38 1255.41 C 1313.29 1240.29 1308.43 1224.81 1300.81 1210.72 C 1367.15 1202.93 1424.74 1193.32 1474.38 1143.26 C 1508.77 1108.57 1525.44 1062.74 1525.17 1014.33 z"/>
<path transform="translate(0,0)" fill="rgb(42,165,250)" d="M 906.8 539.452 C 907.313 539.523 907.823 539.608 908.338 539.666 C 919.679 540.938 960.236 524.115 967.346 529.252 L 967.126 530.67 C 966.699 530.87 966.256 531.037 965.845 531.269 C 958.599 535.362 963.582 547.534 954.517 549.929 C 947.438 551.8 913.692 556.261 911.561 560.908 C 894.941 566.886 878.329 572.013 862.231 579.423 A 369.915 369.915 0 0 0 679.434 759.858 C 644.038 835.092 637.972 925.94 666.575 1004.26 C 682.777 1048.62 707.77 1085.46 740.133 1119.57 C 743.678 1123.3 754.344 1131.66 752.809 1136.88 C 740.44 1128.59 729.509 1117.08 719.116 1106.45 C 672.675 1058.98 649.324 1009.13 636.396 944.676 C 619.594 860.911 640.269 771.033 687.807 700.415 C 728.338 640.208 778.181 598.128 842.334 564.721 C 861.875 554.546 885.014 543.668 906.8 539.452 z"/>
<path transform="translate(0,0)" fill="rgb(31,185,196)" d="M 1505.67 1014.59 A 65.8211 65.8211 0 0 1 1525.17 1014.33 C 1525.44 1062.74 1508.77 1108.57 1474.38 1143.26 C 1424.74 1193.32 1367.15 1202.93 1300.81 1210.72 C 1289.71 1190.12 1272.99 1173.27 1258.93 1154.75 C 1270.31 1154.86 1281.96 1155.07 1293.21 1156.91 C 1326.05 1158.25 1355.09 1156.26 1386.15 1144.62 C 1421.08 1131.54 1452.75 1109.07 1469.82 1075.21 C 1476.44 1062.05 1481.04 1047.99 1487.18 1034.62 C 1491.36 1025.53 1495.97 1018.24 1505.67 1014.59 z"/>
<path transform="translate(0,0)" fill="url(#Gradient2)" d="M 1293.21 1156.91 C 1326.05 1158.25 1355.09 1156.26 1386.15 1144.62 C 1421.08 1131.54 1452.75 1109.07 1469.82 1075.21 C 1476.44 1062.05 1481.04 1047.99 1487.18 1034.62 C 1491.36 1025.53 1495.97 1018.24 1505.67 1014.59 C 1503.32 1051.24 1471.86 1106.66 1444.73 1130.47 C 1412.65 1158.63 1363.41 1167.11 1322.04 1164.28 C 1310.96 1163.52 1297.38 1162.33 1286.83 1158.69 L 1287.89 1158.53 L 1288.78 1157.2 C 1291.02 1158.02 1290.97 1157.83 1293.21 1156.91 z"/>
<path transform="translate(0,0)" fill="rgb(31,185,196)" d="M 493.991 1007.76 C 503.385 1005.29 511.782 1004.8 521.104 1008.13 C 519.529 1012.25 528.653 1051.04 530.545 1057.79 A 146.562 146.562 0 0 0 537.685 1077.62 C 553.332 1112.77 587.818 1142.52 623.615 1155.84 C 654.581 1167.36 699.728 1176.52 732.516 1176.14 C 726.437 1186.89 720.818 1198.06 714.459 1208.62 C 706.194 1209.15 697.882 1208.88 689.606 1208.77 C 688.141 1202.8 685.624 1197.07 682.867 1191.59 C 669.223 1183.09 657.202 1185.98 642.089 1187.15 C 623.349 1189.78 604.486 1191.68 585.688 1193.85 C 576.644 1194.9 566.999 1195.36 558.181 1197.48 C 542.921 1183.02 527.268 1168.29 515.617 1150.66 C 497.514 1123.27 469.748 1063.76 477.452 1030.35 C 479.709 1020.56 485.511 1013.02 493.991 1007.76 z"/>
<path transform="translate(0,0)" fill="rgb(11,147,154)" d="M 558.181 1197.48 C 542.921 1183.02 527.268 1168.29 515.617 1150.66 C 497.514 1123.27 469.748 1063.76 477.452 1030.35 C 479.709 1020.56 485.511 1013.02 493.991 1007.76 C 504.179 1065.2 523.253 1125.05 573.332 1160.3 C 589.962 1172 621.78 1187.01 642.089 1187.15 C 623.349 1189.78 604.486 1191.68 585.688 1193.85 C 576.644 1194.9 566.999 1195.36 558.181 1197.48 z"/>
<path transform="translate(0,0)" fill="rgb(41,222,250)" d="M 906.8 539.452 A 368.977 368.977 0 0 1 1190.93 567.268 C 1274.68 611.983 1337.29 685.263 1364.83 776.403 C 1390.38 860.951 1387.24 955.806 1344.91 1034.37 C 1335.91 1051.07 1325.47 1067.32 1313.19 1081.81 C 1312.65 1081.21 1311.83 1080.76 1311.56 1079.99 C 1309.66 1074.46 1323.33 1041.93 1325.92 1034.88 C 1331.72 1019.15 1338.49 1003.7 1343.55 987.716 C 1364.16 922.714 1363.55 859.531 1347.01 793.719 C 1338.87 761.301 1325.79 726.21 1307.64 698.098 C 1300.06 686.352 1291.03 675.611 1282.18 664.818 C 1273.03 653.669 1263.65 641.674 1251.1 634.148 C 1241.28 625.785 1232.18 616.343 1221.9 608.564 C 1186.9 582.08 1140.27 562.186 1097.32 553.017 C 1091.12 549.291 1029.44 545.198 1019.92 545.62 C 996.117 546.491 972.331 547.637 948.874 552.125 C 936.413 554.509 924.015 558.968 911.561 560.908 C 913.692 556.261 947.438 551.8 954.517 549.929 C 963.582 547.534 958.599 535.362 965.845 531.269 C 966.256 531.037 966.699 530.87 967.126 530.67 L 967.346 529.252 C 960.236 524.115 919.679 540.938 908.338 539.666 C 907.823 539.608 907.313 539.523 906.8 539.452 z"/>
<path transform="translate(0,0)" fill="rgb(234,106,97)" d="M 1549.27 1115.77 C 1561.88 1119.49 1574.32 1125.2 1586.37 1130.47 C 1592.35 1132.46 1598.22 1134.52 1604.03 1136.94 C 1622.13 1144.1 1640.48 1152.09 1658.98 1158.1 C 1657.33 1161.41 1655.72 1164.01 1652.88 1166.47 L 1651.04 1166.5 C 1642.79 1175.14 1630.78 1203.74 1624.66 1215.71 C 1614.49 1235.57 1604.09 1255.53 1592.79 1274.78 A 1072.1 1072.1 0 0 1 1560.62 1261.51 C 1557.14 1274.84 1551.71 1286.21 1544.98 1298.19 C 1542.05 1303.4 1537.2 1309.84 1535.63 1315.55 C 1508.26 1318.08 1489.84 1335.74 1466.23 1346.76 C 1452.14 1360.12 1437.21 1368.54 1418.75 1374.44 C 1406.22 1379.3 1390.15 1379.58 1377.51 1375.42 C 1359.18 1369.38 1347.82 1355.87 1339.4 1339.18 C 1343.92 1332.02 1347.28 1323.49 1351.12 1315.88 C 1360.87 1296.52 1370.7 1276.68 1382.03 1258.21 C 1442.55 1241.79 1487.54 1203.6 1525.5 1155.24 C 1527.05 1151.97 1529.32 1148.76 1531.18 1145.63 C 1535.82 1135.51 1543.49 1125.4 1549.27 1115.77 z"/>
<path transform="translate(0,0)" fill="rgb(205,51,45)" d="M 1531.18 1145.63 C 1540.56 1155.95 1551.06 1165.11 1560.7 1175.16 C 1545.93 1197.5 1534.88 1221.97 1521.36 1245.01 C 1534.45 1250.48 1547.63 1255.8 1560.62 1261.51 C 1557.14 1274.84 1551.71 1286.21 1544.98 1298.19 C 1542.05 1303.4 1537.2 1309.84 1535.63 1315.55 C 1508.26 1318.08 1489.84 1335.74 1466.23 1346.76 C 1452.14 1360.12 1437.21 1368.54 1418.75 1374.44 C 1425.47 1359.17 1434.67 1344.42 1442.38 1329.55 C 1453.93 1307.27 1466.33 1285.41 1477.73 1263.07 C 1487.11 1244.71 1495.55 1225.79 1504.15 1207.06 C 1511.8 1190.4 1520.65 1172.94 1525.5 1155.24 C 1527.05 1151.97 1529.32 1148.76 1531.18 1145.63 z"/>
<path transform="translate(0,0)" fill="rgb(104,103,199)" d="M 1521.36 1245.01 C 1534.45 1250.48 1547.63 1255.8 1560.62 1261.51 C 1557.14 1274.84 1551.71 1286.21 1544.98 1298.19 C 1542.05 1303.4 1537.2 1309.84 1535.63 1315.55 C 1508.26 1318.08 1489.84 1335.74 1466.23 1346.76 C 1474.79 1330.39 1484.6 1314.65 1493.16 1298.26 C 1502.3 1280.78 1510.34 1261.23 1521.36 1245.01 z"/>
<path transform="translate(0,0)" fill="rgb(242,190,87)" d="M 1549.27 1115.77 C 1561.88 1119.49 1574.32 1125.2 1586.37 1130.47 C 1592.35 1132.46 1598.22 1134.52 1604.03 1136.94 C 1622.13 1144.1 1640.48 1152.09 1658.98 1158.1 C 1657.33 1161.41 1655.72 1164.01 1652.88 1166.47 L 1651.04 1166.5 C 1642.79 1175.14 1630.78 1203.74 1624.66 1215.71 C 1614.49 1235.57 1604.09 1255.53 1592.79 1274.78 A 1072.1 1072.1 0 0 1 1560.62 1261.51 C 1547.63 1255.8 1534.45 1250.48 1521.36 1245.01 C 1534.88 1221.97 1545.93 1197.5 1560.7 1175.16 C 1551.06 1165.11 1540.56 1155.95 1531.18 1145.63 C 1535.82 1135.51 1543.49 1125.4 1549.27 1115.77 z"/>
<path transform="translate(0,0)" fill="rgb(251,212,138)" d="M 1549.27 1115.77 C 1561.88 1119.49 1574.32 1125.2 1586.37 1130.47 C 1579.75 1142.92 1569.9 1165.38 1560.7 1175.16 C 1551.06 1165.11 1540.56 1155.95 1531.18 1145.63 C 1535.82 1135.51 1543.49 1125.4 1549.27 1115.77 z"/>
<path transform="translate(0,0)" fill="rgb(94,44,148)" d="M 1592.79 1274.78 C 1604.09 1255.53 1614.49 1235.57 1624.66 1215.71 C 1630.78 1203.74 1642.79 1175.14 1651.04 1166.5 L 1652.88 1166.47 C 1667.18 1173.92 1682.38 1179.92 1697.2 1186.29 L 1697.01 1186.65 C 1715.51 1194.62 1735.27 1201.9 1753.17 1211.04 A 767.253 767.253 0 0 0 1784.38 1224.15 L 1793.99 1228.25 C 1786.8 1244.23 1778.01 1259.6 1769.78 1275.08 A 3215.26 3215.26 0 0 0 1739.02 1334.57 C 1733.84 1344.73 1726.2 1356.34 1722.61 1366.96 C 1712.49 1382.77 1704.59 1400.38 1696.29 1417.21 C 1683.13 1418.76 1669.74 1419.15 1656.5 1419.16 C 1645.16 1420.3 1633.55 1419.94 1622.16 1420.01 A 1073.37 1073.37 0 0 1 1563.08 1419.21 C 1545.25 1418.45 1527.5 1416.96 1509.65 1416.82 C 1518.92 1407.09 1530.77 1392.18 1542.74 1386.08 C 1555.39 1379.62 1570.8 1384.24 1582.58 1374.07 C 1588.33 1369.11 1591.63 1361.01 1591.78 1353.49 C 1591.93 1345.73 1588.51 1338.54 1583.23 1332.99 C 1571.15 1320.31 1552.47 1315.98 1535.63 1315.55 C 1537.2 1309.84 1542.05 1303.4 1544.98 1298.19 C 1551.71 1286.21 1557.14 1274.84 1560.62 1261.51 A 1072.1 1072.1 0 0 0 1592.79 1274.78 z"/>
<path transform="translate(0,0)" fill="rgb(184,102,198)" d="M 1703.29 1227.2 C 1706.58 1227.3 1710.09 1227.54 1713.21 1228.64 C 1718.1 1230.38 1722.28 1233.88 1724.36 1238.7 C 1726.39 1243.41 1726.21 1248.73 1724.27 1253.43 C 1721.34 1260.5 1716.29 1263.56 1709.54 1266.44 C 1705.23 1266.47 1700.53 1266.39 1696.65 1264.29 C 1692.01 1261.77 1688.38 1257.44 1686.93 1252.35 A 19.3562 19.3562 0 0 1 1688.62 1237.72 C 1692.03 1231.69 1696.91 1229.21 1703.29 1227.2 z"/>
<path transform="translate(0,0)" fill="rgb(184,102,198)" d="M 1618.33 1328.18 C 1622.17 1327.87 1626.9 1327.39 1630.59 1328.67 C 1635.58 1330.39 1639.95 1334.54 1642.12 1339.31 A 19.5912 19.5912 0 0 1 1642.66 1354.53 C 1640.01 1361.51 1634.85 1364.9 1628.23 1367.68 C 1623.78 1368 1619.91 1367.83 1615.76 1366.01 C 1610.26 1363.61 1605.39 1359.19 1603.23 1353.5 C 1601.43 1348.77 1601.5 1343.29 1603.9 1338.78 C 1607.11 1332.75 1612.12 1330.25 1618.33 1328.18 z"/>
<path transform="translate(0,0)" fill="rgb(124,60,178)" d="M 1592.79 1274.78 C 1604.09 1255.53 1614.49 1235.57 1624.66 1215.71 C 1630.78 1203.74 1642.79 1175.14 1651.04 1166.5 L 1652.88 1166.47 C 1667.18 1173.92 1682.38 1179.92 1697.2 1186.29 L 1697.01 1186.65 C 1689.04 1194.22 1644.12 1280.83 1637.99 1294.56 C 1623.49 1287.26 1606.63 1282.84 1592.79 1274.78 z"/>
<path transform="translate(0,0)" fill="rgb(21,35,111)" d="M 1631.79 1418.73 C 1663.12 1386.4 1681.65 1348.56 1702.73 1309.39 C 1711.25 1293.55 1720.81 1278.18 1728.74 1262.04 C 1736.75 1245.74 1742.66 1225.83 1753.17 1211.04 A 767.253 767.253 0 0 0 1784.38 1224.15 L 1793.99 1228.25 C 1786.8 1244.23 1778.01 1259.6 1769.78 1275.08 A 3215.26 3215.26 0 0 0 1739.02 1334.57 C 1733.84 1344.73 1726.2 1356.34 1722.61 1366.96 C 1712.49 1382.77 1704.59 1400.38 1696.29 1417.21 C 1683.13 1418.76 1669.74 1419.15 1656.5 1419.16 C 1648.44 1418.25 1639.91 1418.76 1631.79 1418.73 z"/>
<path transform="translate(0,0)" fill="url(#Gradient3)" d="M 911.561 560.908 C 924.015 558.968 936.413 554.509 948.874 552.125 C 972.331 547.637 996.117 546.491 1019.92 545.62 C 1011.06 554.553 998.723 553.505 987.49 557.824 C 967.084 565.67 946.548 575.483 927.442 586.054 C 863.766 621.284 812.162 683.168 782.203 748.794 C 777.329 759.47 769.131 772.784 768.973 784.766 C 736.265 806.712 710.38 834.492 702.598 874.471 A 134.165 134.165 0 0 0 723.582 974.311 C 732.411 987.235 743.231 996.806 756.216 1005.38 C 742.641 1010.64 727.703 1016.39 721.619 1030.9 C 718.236 1038.96 718.934 1048.2 722.431 1056.1 C 729.112 1071.2 743.199 1079.4 757.983 1084.77 A 144.421 144.421 0 0 0 763.685 1086.75 C 797.245 1125.59 833.561 1156.5 878.435 1181.55 C 891.214 1188.68 905.59 1196.35 919.592 1200.73 C 918.047 1200.83 916.548 1200.91 915 1200.86 C 905.334 1200.56 895.285 1198.43 885.781 1196.6 C 845.598 1188.84 810.84 1173.98 776.068 1152.95 C 768.389 1148.31 758.941 1143.41 752.809 1136.88 C 754.344 1131.66 743.678 1123.3 740.133 1119.57 C 707.77 1085.46 682.777 1048.62 666.575 1004.26 C 637.972 925.94 644.038 835.092 679.434 759.858 A 369.915 369.915 0 0 1 862.231 579.423 C 878.329 572.013 894.941 566.886 911.561 560.908 z"/>
</svg>