<svg version="1.1" xmlns="http://www.w3.org/2000/svg" style="display: block;" viewBox="0 0 2048 2048" width="1024" height="1024">
<defs>
	<linearGradient id="Gradient1" gradientUnits="userSpaceOnUse" x1="793.161" y1="1353.1" x2="515.846" y2="627.064">
		<stop class="stop0" offset="0" stop-opacity="1" stop-color="rgb(37,153,217)"/>
		<stop class="stop1" offset="1" stop-opacity="1" stop-color="rgb(44,187,222)"/>
	</linearGradient>
	<linearGradient id="Gradient2" gradientUnits="userSpaceOnUse" x1="1369.15" y1="690.386" x2="1402.37" y2="1258.61">
		<stop class="stop0" offset="0" stop-opacity="1" stop-color="rgb(255,235,75)"/>
		<stop class="stop1" offset="1" stop-opacity="1" stop-color="rgb(251,117,132)"/>
	</linearGradient>
	<linearGradient id="Gradient3" gradientUnits="userSpaceOnUse" x1="635.006" y1="665.918" x2="704.892" y2="1212.29">
		<stop class="stop0" offset="0" stop-opacity="1" stop-color="rgb(255,238,79)"/>
		<stop class="stop1" offset="1" stop-opacity="1" stop-color="rgb(251,148,114)"/>
	</linearGradient>
</defs>
<path transform="translate(0,0)" fill="rgb(206,26,68)" d="M 0 0 L 2048 0 L 2048 2048 L 0 2048 L 0 0 z"/>
<path transform="translate(0,0)" fill="rgb(3,3,20)" d="M 995.455 103.715 C 1001.92 111.642 1007.04 122.518 1012.08 131.442 A 2578.32 2578.32 0 0 1 1052.26 205.761 C 1074.29 247.31 1097.24 288.427 1119.78 329.706 C 1135.46 358.424 1150.17 387.441 1167.1 415.489 C 1238.79 370.038 1313.93 326.768 1386.66 282.568 C 1407.15 270.118 1427.26 257.03 1447.82 244.714 C 1465.8 233.942 1484.24 223.926 1502.08 212.915 C 1527.34 197.324 1551.98 180.542 1577.66 165.66 C 1557.64 227.093 1541.04 290.251 1523.69 352.508 C 1513.85 387.798 1504.38 424.071 1491.84 458.496 C 1531.31 448.357 1570.21 435.158 1609.6 424.528 A 7344.46 7344.46 0 0 0 1722.18 394.265 C 1740.99 389.185 1760.73 385.183 1779.01 378.389 C 1794.21 372.734 1808.68 365.014 1823.22 357.864 C 1816.61 373.271 1807.78 388.203 1800.18 403.18 A 8667.49 8667.49 0 0 1 1739.38 518.636 C 1728.62 538.357 1716.04 557.676 1707.51 578.482 C 1740.37 577.621 1776.92 572.492 1809.81 568.73 A 9959.97 9959.97 0 0 1 1948.05 553.827 C 1951.18 579.093 1956.91 604.16 1961.87 629.12 C 1968.84 664.21 1975.64 699.483 1983.15 734.453 L 1836.78 859.722 C 1810.95 881.493 1785.95 903.583 1759.07 924.114 C 1788.9 948.342 1820.09 971.283 1850.81 994.395 C 1870.36 1009.11 1889.51 1024.37 1909.2 1038.91 C 1944.68 1065.13 1981.21 1090.91 2014.81 1119.52 L 1825.48 1183.82 C 1786.99 1197.09 1748.97 1212.12 1709.55 1222.48 A 12720.1 12720.1 0 0 1 1800.31 1348.5 A 6677.29 6677.29 0 0 1 1863.99 1436.36 C 1877.26 1455.31 1890.65 1474.28 1903.43 1493.56 C 1911.31 1505.45 1918.46 1517.79 1926.7 1529.45 C 1901.06 1524.77 1875.55 1519.02 1849.78 1515.09 C 1867.67 1543.19 1888.74 1569.1 1907.63 1596.52 C 1887.86 1595.05 1867.73 1590.58 1848.16 1587.37 L 1737.81 1569.67 L 1613.69 1551.5 C 1593.66 1548.49 1573.19 1546.19 1553.45 1541.63 C 1561.11 1599.93 1567.28 1658.34 1574.39 1716.71 C 1579.39 1757.8 1584.46 1799.6 1592.81 1840.14 A 4688.59 4688.59 0 0 1 1488.12 1781.95 L 1381.39 1722.77 C 1330.5 1694.38 1278.74 1667.82 1228.52 1638.19 C 1207.74 1669.54 1186.3 1700.38 1165.13 1731.46 C 1133.67 1775.56 1104.45 1821.15 1074.55 1866.29 C 1051.29 1901.42 1027.19 1936 1004.83 1971.72 A 7203.6 7203.6 0 0 0 892.352 1767.56 C 875.67 1737.94 860.413 1706.75 842.189 1678.08 C 829.263 1682.62 817.058 1690.02 805.086 1696.61 L 755.208 1724.08 L 568.75 1827.07 L 495.577 1867.65 C 484.264 1873.97 473.344 1881.31 461.65 1886.89 C 483.536 1818.02 502.412 1748.31 523.261 1679.14 C 529.693 1657.8 535.325 1636.15 542.562 1615.07 C 505.055 1628.16 466.302 1638.69 428.182 1649.89 A 8794.78 8794.78 0 0 0 259.069 1701.21 C 286.434 1641.65 309.387 1580.45 335.475 1520.4 C 311.184 1523.75 286.887 1528.99 262.744 1533.34 C 265.996 1521.31 269.909 1509.43 273.602 1497.52 C 264.197 1498.3 254.656 1500.32 245.331 1501.86 C 228.324 1475.27 207.291 1452.01 190.005 1425.83 C 198.655 1387.05 209.886 1348.69 219.958 1310.26 L 267.818 1127.76 C 231.04 1102.11 197.27 1071.6 161.664 1044.3 C 132.54 1021.97 102.808 1000.36 73.5208 978.229 C 60.3253 968.257 46.7342 958.552 34.1073 947.871 C 80.7782 935.011 126.721 919.762 172.873 905.214 L 339.68 853.925 C 345.067 840.697 348.013 825.813 351.66 811.972 A 3011.72 3011.72 0 0 0 368.857 745.257 C 365.279 735.816 360.329 726.643 356.085 717.471 A 3427.98 3427.98 0 0 0 329.76 660.78 C 298.193 594.199 264.956 528.247 234.636 461.111 C 263.034 466.354 291.706 470.117 320.172 474.964 A 15147.4 15147.4 0 0 0 516.496 508.549 C 509.652 472.922 500.437 437.575 492.584 402.141 C 478.882 340.321 465.78 278.684 450.015 217.322 C 483.522 236.828 515.344 260.185 547.953 281.245 A 14057.5 14057.5 0 0 0 697.791 376.811 C 731.412 398.411 764.392 420.711 798.363 441.803 C 824.829 397.822 849.724 352.905 875.552 308.547 L 995.455 103.715 z"/>
<path transform="translate(0,0)" fill="rgb(220,31,125)" d="M 1058.21 1262.47 C 1065 1266.42 1072.92 1273.13 1078.6 1278.57 L 1077.69 1279.74 L 1054.71 1280.05 C 1056.04 1274.24 1057.05 1268.32 1058.21 1262.47 z"/>
<path transform="translate(0,0)" fill="rgb(16,101,167)" d="M 1022.56 891.656 C 1022.84 891.921 1023.15 892.154 1023.39 892.45 C 1030.02 900.658 1050.61 998.363 1051.79 1014.56 C 1052.75 1027.73 1050.71 1041.27 1049.45 1054.37 C 1041.03 1020.84 1035.39 985.976 1030.24 951.784 C 1027.16 962.168 1024.19 972.455 1019.88 982.414 C 1008.15 1014.19 996.563 1046.13 981.763 1076.64 C 988.238 1049.97 993.713 1023.12 999.98 996.414 C 1008.1 961.798 1016.94 926.787 1022.56 891.656 z"/>
<path transform="translate(0,0)" fill="rgb(16,101,167)" d="M 1004.62 1220.72 C 1010.47 1221.5 1016.02 1226.99 1020.6 1230.52 C 1009.12 1279.55 994.619 1328.06 982.106 1376.87 L 962.239 1353.56 C 948.409 1337.69 933.915 1322.02 921.34 1305.14 A 1269.69 1269.69 0 0 0 929.876 1275.33 C 952.368 1262.76 982.966 1236.93 1004.62 1220.72 z"/>
<path transform="translate(0,0)" fill="rgb(16,101,167)" d="M 1340.59 833.294 A 9470.84 9470.84 0 0 0 1385.84 684.458 C 1393.15 659.911 1399.25 634.58 1407.99 610.503 C 1417.32 639.347 1422.65 671.18 1428.61 700.923 C 1431.86 717.176 1433.77 737.37 1441.22 752.118 C 1428.92 764.891 1412.94 775.409 1399.28 786.778 C 1382.54 800.72 1366.31 816.757 1348.75 829.497 C 1348.28 829.133 1347.62 829.119 1347.05 828.975 L 1340.59 833.294 z"/>
<path transform="translate(0,0)" fill="rgb(16,101,167)" d="M 716.838 1069.57 L 717.522 1070.1 C 715.498 1078.63 711.828 1087.12 709.349 1095.62 C 704.603 1111.89 700.562 1128.41 696.335 1144.83 C 665.993 1146.7 634.87 1151.39 604.869 1156.35 C 596.223 1146.13 587.174 1136.2 578.431 1126.05 C 567.357 1113.5 557.063 1100.2 546.315 1087.36 C 564.529 1086.41 582.98 1083.76 601.123 1081.84 L 716.838 1069.57 z"/>
<path transform="translate(0,0)" fill="rgb(253,232,30)" d="M 1605.47 656.072 C 1673.43 646.38 1742.6 644.756 1810.54 634.661 C 1786.42 658.195 1761.26 680.49 1736.17 702.977 C 1721.73 715.92 1707.46 729.888 1692.23 741.861 C 1692.75 739.879 1693.87 738.687 1695.16 737.155 L 1695.74 736.467 L 1695.51 736.513 C 1695.5 732.684 1695.35 728.953 1694.84 725.158 C 1693.86 717.82 1692.55 710.226 1683.96 709.171 C 1683.06 709.06 1679.9 709.035 1679.28 708.712 C 1677.6 707.838 1676.07 704.171 1674.33 702.96 C 1669.01 699.278 1623.14 703.855 1614.33 697.163 L 1614.85 694.271 C 1612.75 691.929 1606.79 692.904 1603.63 691.546 C 1601.46 690.615 1603.28 688.012 1601.17 686.763 C 1592.3 681.518 1589.51 685.092 1581.21 676.32 C 1589.22 669.486 1597.19 662.591 1605.47 656.072 z"/>
<path transform="translate(0,0)" fill="rgb(16,101,167)" d="M 659.453 629.273 C 665.716 632.303 695.135 685.516 700.303 695.047 A 4970.94 4970.94 0 0 1 661.425 850.606 C 653.009 851.178 644.565 852.799 636.224 854.066 C 624.039 854.92 611.665 856.999 599.517 858.46 C 613.741 806.111 626.693 753.252 640.015 700.66 C 644.252 683.934 651.838 641.852 659.453 629.273 z"/>
<path transform="translate(0,0)" fill="rgb(253,232,30)" d="M 1183.04 664.836 C 1201.86 661.341 1222 660.654 1241.1 659.097 C 1279.81 655.94 1318.59 653.41 1357.19 648.992 A 1884.18 1884.18 0 0 1 1341.4 701.615 C 1337.96 701.334 1336 702.143 1332.72 702.609 C 1328.86 703.156 1325.13 703.085 1321.31 704.104 C 1308.41 707.546 1286.12 719.549 1273.48 726.113 C 1265.63 730.186 1258.13 734.549 1249.57 736.986 C 1234.96 741.143 1217.7 741.017 1202.61 740.187 C 1195.6 739.802 1184.69 739.408 1179.9 733.707 C 1179.43 733.143 1179 732.542 1178.54 731.962 C 1177.78 730.993 1176.99 730.044 1176.23 729.079 C 1174.32 728.459 1173.17 727.581 1171.16 728.41 C 1170.6 728.642 1169.77 729.485 1169.24 729.803 C 1169.06 729.913 1168.84 729.95 1168.64 730.024 C 1171.43 708.352 1177.97 686.114 1183.04 664.836 z"/>
<path transform="translate(0,0)" fill="rgb(44,16,72)" d="M 1224.87 1308.5 C 1231.04 1309.96 1274.71 1353.05 1282.06 1360.67 C 1212.82 1366.49 1143.1 1366.03 1073.75 1370.25 L 1054.59 1371.56 C 1040.71 1356.21 1024.31 1340.42 1013.75 1322.64 C 1044.41 1317.49 1076.42 1316.76 1107.43 1315.09 L 1224.87 1308.5 z"/>
<path transform="translate(0,0)" fill="rgb(16,101,167)" d="M 1284.54 1107.67 C 1286.54 1109.55 1338.33 1200.95 1343.36 1209.64 C 1335.87 1236.58 1327.33 1263.3 1319.35 1290.11 C 1312.98 1311.5 1307.25 1333.16 1300.38 1354.4 L 1298.4 1355.03 C 1278.06 1336.04 1257.85 1316.76 1236.93 1298.41 L 1284.54 1107.67 z"/>
<path transform="translate(0,0)" fill="rgb(44,16,72)" d="M 452.6 1395.34 L 461.104 1394.52 C 477.482 1411.41 495.154 1428.08 509.606 1446.64 C 476.816 1448.39 444.262 1455.06 411.797 1459.73 C 367.809 1466.06 323.572 1471.16 279.5 1476.94 C 272.302 1477.79 265.123 1478.63 257.974 1479.83 C 244.359 1465.19 232.164 1446.76 223.015 1429.02 C 254.489 1423.2 286.434 1420.07 318.12 1415.62 L 452.6 1395.34 z"/>
<path transform="translate(0,0)" fill="rgb(44,16,72)" d="M 1487.57 1366.66 C 1523.58 1371.55 1559.83 1375.18 1595.89 1379.86 C 1662.05 1388.45 1728.06 1397.79 1794.37 1405.25 C 1804.74 1422.95 1818.93 1438.16 1829.13 1455.86 C 1786.8 1449.23 1743.91 1445.92 1701.49 1439.79 L 1582.69 1423.34 C 1551.3 1418.83 1519.86 1413.32 1488.26 1410.59 A 1286.2 1286.2 0 0 1 1487.57 1366.66 z"/>
<path transform="translate(0,0)" fill="rgb(44,16,72)" d="M 912.15 1320.45 C 916.734 1322.1 960.496 1374.71 967.405 1383.31 A 5556.37 5556.37 0 0 0 733.303 1409.39 L 727.85 1410.46 C 720.289 1405.73 685.311 1359.49 677.444 1349.25 C 755.661 1340.1 834.246 1331.98 912.15 1320.45 z"/>
<path transform="translate(0,0)" fill="rgb(36,172,218)" d="M 1091.16 575.24 C 1093.56 576.213 1094.45 576.437 1095.98 578.613 C 1102.95 588.555 1107.88 601.395 1113.33 612.339 A 2035.69 2035.69 0 0 0 1138.42 660.678 C 1130.8 687.686 1125.87 715.644 1119.84 743.052 L 1083.47 914.475 C 1076.62 909.026 1043.51 830.687 1037.05 815.674 C 1039.6 797.618 1044.08 779.705 1048.14 761.944 A 4399.49 4399.49 0 0 1 1069.08 674.165 C 1077.02 641.368 1082.79 607.858 1091.16 575.24 z"/>
<path transform="translate(0,0)" fill="rgb(253,232,30)" d="M 640.623 1188.12 C 654.423 1186.55 668.192 1184.96 681.917 1182.82 C 666.759 1239.84 652.864 1297.31 638.294 1354.49 C 657.995 1381.21 683.456 1403.72 703.802 1430.01 C 690.856 1435.45 667.124 1438.34 652.644 1441.33 A 4848.09 4848.09 0 0 1 586.966 1454.6 C 576.604 1456.58 565.761 1459.21 555.274 1460.22 C 565.82 1431.23 575.011 1397.4 584.278 1367.64 L 640.623 1188.12 z"/>
<path transform="translate(0,0)" fill="rgb(220,31,125)" d="M 297.249 1263.19 C 298.921 1263.72 299.958 1263.77 301.711 1263.56 C 355.231 1257.36 408.763 1248.55 462.644 1245.74 A 3099.99 3099.99 0 0 1 434.511 1357.24 L 268.237 1377.41 C 275.316 1352.04 281.123 1326.26 287.383 1300.67 C 290.428 1288.23 293.058 1275.29 297.249 1263.19 z"/>
<path transform="translate(0,0)" fill="rgb(253,232,30)" d="M 637.26 513.566 C 656.518 526.226 677.263 537.135 697.318 548.508 A 3702.45 3702.45 0 0 0 814.505 612.097 C 808.515 629.923 804.417 654.679 799.876 673.517 A 5495.79 5495.79 0 0 0 765.64 818.525 A 771.866 771.866 0 0 1 714.221 825.385 C 726.024 783.634 735.344 741.232 747.301 699.501 C 726.955 663.609 705.527 628.293 684.763 592.637 A 1455.67 1455.67 0 0 0 656.757 544.965 C 650.269 534.546 643.189 524.312 637.26 513.566 z"/>
<path transform="translate(0,0)" fill="rgb(220,31,125)" d="M 743.443 1190.05 C 764.912 1188.79 786.69 1184.81 808.012 1181.86 A 8062.35 8062.35 0 0 1 918.417 1167.53 C 908.544 1205.62 899.868 1243.9 890.644 1282.14 C 860.099 1285.95 829.485 1288.61 798.893 1291.95 C 771.447 1294.94 744.074 1298.69 716.593 1301.34 C 724.976 1264.19 733.187 1226.73 743.443 1190.05 z"/>
<path transform="translate(0,0)" fill="rgb(220,31,125)" d="M 1637.85 1240.74 C 1666.42 1278.05 1691.44 1318.21 1720.21 1355.45 L 1496.03 1327.46 C 1476.88 1298.62 1454.87 1270.86 1437.2 1241.17 A 9171.4 9171.4 0 0 0 1637.85 1240.74 z"/>
<path transform="translate(0,0)" fill="rgb(16,101,167)" d="M 537.707 1090.5 C 546.718 1103.24 557.722 1115.08 567.793 1127.01 C 580.92 1142.55 593.684 1158.97 608.726 1172.72 C 598.654 1202.56 589.896 1232.84 580.343 1262.85 C 562.379 1319.27 544.249 1375.56 527.614 1432.41 L 524.186 1444.46 C 504.974 1425.49 486.848 1404.9 468.364 1385.19 C 479.262 1353.69 485.078 1317.85 492.393 1285.27 A 10796.7 10796.7 0 0 1 519.434 1170.48 C 525.597 1143.84 530.827 1116.97 537.707 1090.5 z"/>
<path transform="translate(0,0)" fill="rgb(251,152,45)" d="M 94.2038 957.928 C 174.247 935.442 253.17 908.991 332.913 885.445 A 8816.53 8816.53 0 0 0 309.101 972.634 L 306.792 981.892 C 302.975 996.656 297.769 1011.27 294.31 1026.05 L 292.023 1033.64 C 285.578 1054.68 281.27 1078.25 275.947 1099.79 L 94.2038 957.928 z"/>
<path transform="translate(0,0)" fill="rgb(206,26,68)" d="M 232.873 986.457 C 258.036 980.565 283.884 978.096 309.101 972.634 L 306.792 981.892 C 301.421 980.634 257.817 990.548 248.34 991.923 C 265.206 1001.96 278.821 1014.33 294.31 1026.05 L 292.023 1033.64 C 271.512 1018.38 251.352 1004.35 232.873 986.457 z"/>
<path transform="translate(0,0)" fill="rgb(253,232,30)" d="M 248.34 991.923 C 257.817 990.548 301.421 980.634 306.792 981.892 C 302.975 996.656 297.769 1011.27 294.31 1026.05 C 278.821 1014.33 265.206 1001.96 248.34 991.923 z"/>
<path transform="translate(0,0)" fill="rgb(254,254,254)" d="M 1025.73 990.87 C 1029.06 994.965 1043.63 1081.35 1047.26 1094.99 C 1065.14 1094.85 1083.09 1095.78 1100.96 1096.24 C 1118.94 1096.7 1137.01 1096.63 1154.96 1097.85 C 1134.93 1111.24 1115.4 1125.27 1095.56 1138.92 C 1083.82 1146.99 1071.73 1154.51 1060.08 1162.71 C 1066.11 1198.82 1076.31 1234.43 1083.99 1270.23 C 1066.27 1256.03 1049.06 1241.17 1031.65 1226.61 C 1024.96 1221.01 1017.74 1213.56 1010.35 1209.14 C 1007.63 1207.51 1007.18 1207.91 1004.36 1208.81 C 981.316 1225.8 957.498 1248.64 932.92 1262.64 C 942.182 1228.17 952.806 1194.14 962.981 1159.93 C 951.415 1152.96 940.31 1142.47 929.446 1134.27 C 911.055 1120.39 891.791 1107.4 873.944 1092.84 C 910.915 1094.06 947.944 1094.33 984.892 1095.67 C 1000.03 1061.47 1012.17 1025.74 1025.73 990.87 z"/>
<path transform="translate(0,0)" fill="rgb(16,101,167)" d="M 1919.92 599.99 C 1923.15 603.773 1936.83 679.542 1938.76 689.236 C 1901.95 718.497 1866.32 749.807 1830.66 780.465 L 1644 941.766 C 1609.99 971.025 1577.17 1003.08 1541.21 1029.92 C 1536.9 1025.1 1532.86 1019.99 1528.72 1015.02 C 1517.34 1001.32 1507.05 986.684 1496.52 972.331 A 9600.14 9600.14 0 0 1 1676.78 812.926 A 15925.4 15925.4 0 0 1 1919.92 599.99 z"/>
<path transform="translate(0,0)" fill="rgb(251,152,45)" d="M 1736.16 943.668 C 1764.76 962.343 1791.57 984.365 1818.68 1005.14 C 1864.84 1040.51 1911.11 1076.06 1958.02 1110.39 L 1796.25 1164.69 C 1761.17 1176.69 1726.05 1190.15 1690.54 1200.73 A 1756.99 1756.99 0 0 0 1663.24 1162.06 L 1657.34 1154.12 C 1636.25 1124.64 1614.8 1095.16 1592.56 1066.54 C 1598.94 1061.99 1604.82 1056.75 1610.79 1051.68 C 1612.66 1049.84 1614.74 1048.27 1616.79 1046.63 C 1655.83 1011.44 1696.6 978.285 1736.16 943.668 z"/>
<path transform="translate(0,0)" fill="rgb(206,26,68)" d="M 1610.79 1051.68 C 1612.66 1049.84 1614.74 1048.27 1616.79 1046.63 C 1633.77 1050.42 1649.47 1057.27 1665.55 1063.72 L 1721.94 1086.44 C 1742.25 1094.63 1775 1105.81 1793.38 1116.24 C 1773.24 1122.94 1753.86 1131.5 1733.81 1138.38 A 3167.08 3167.08 0 0 1 1688.88 1153.04 C 1680.83 1155.6 1670.42 1157.74 1663.24 1162.06 L 1657.34 1154.12 C 1692.89 1139.78 1730.17 1128.93 1766.1 1115.37 C 1714.19 1094.75 1661.97 1074.05 1610.79 1051.68 z"/>
<path transform="translate(0,0)" fill="rgb(253,232,30)" d="M 1610.79 1051.68 C 1661.97 1074.05 1714.19 1094.75 1766.1 1115.37 C 1730.17 1128.93 1692.89 1139.78 1657.34 1154.12 C 1636.25 1124.64 1614.8 1095.16 1592.56 1066.54 C 1598.94 1061.99 1604.82 1056.75 1610.79 1051.68 z"/>
<path transform="translate(0,0)" fill="url(#Gradient1)" d="M 1082 577.581 C 1083.87 580.998 1058.8 681.542 1055.85 693.931 A 10565.8 10565.8 0 0 0 1014 878.756 C 1010.01 897.443 1006.94 916.32 1002.86 934.986 C 991.943 985.033 979.403 1035.24 970.246 1085.6 L 945.888 1085.04 C 955.324 1047.23 963.386 1009.32 971.909 971.313 A 12783.5 12783.5 0 0 0 1014.97 777.615 C 1027.59 720.657 1043.86 664.003 1053.63 606.485 C 1044.13 607.261 1034.49 609.076 1025 610.249 L 960.194 618.094 C 929.069 621.858 896.546 624.066 865.845 630.389 C 845.323 710.047 828.241 790.563 808.117 870.315 C 724.964 878.468 641.917 890.319 558.94 900.248 C 564.732 873.292 571.854 846.673 578.086 819.822 C 590.478 766.432 602.553 712.785 616.302 659.735 C 590.282 660.339 563.52 665.634 537.686 669.028 C 505.764 673.222 473.134 676.199 441.502 682.093 C 437.346 704.58 430.316 726.9 424.305 748.956 A 9247.37 9247.37 0 0 0 394.446 859.891 L 308.45 1189.51 C 291.435 1254.96 273.03 1320.2 258.703 1386.32 C 280.948 1385.06 303.441 1380.38 325.594 1377.67 C 364.576 1372.88 403.739 1369.18 442.523 1362.91 L 490.395 1165.15 C 499.266 1128.39 507.063 1091.41 517.539 1055.06 C 543.531 1053.41 569.459 1049.77 595.342 1046.91 A 9778.61 9778.61 0 0 1 709.732 1035.05 C 730.454 1032.86 751.079 1029.89 771.844 1028.1 C 768.198 1049.03 762.459 1069.79 757.796 1090.52 A 8979.08 8979.08 0 0 1 730.764 1208.78 C 722.723 1241.78 713.524 1275.79 708.334 1309.35 C 732.25 1308.78 756.658 1304.32 780.468 1301.81 C 819.084 1297.73 858.394 1295.09 896.659 1288.56 C 903.064 1266.99 907.303 1244.55 912.395 1222.63 C 918.348 1196.99 925.075 1171.51 931.37 1145.96 C 938.125 1151 944.609 1156.06 950.62 1161.98 C 941.367 1212.88 922.693 1261.74 910.157 1311.86 C 881.647 1313.52 853.178 1318.04 824.776 1321.06 C 775.15 1326.33 725.707 1330.92 676.172 1337.19 C 684.22 1289.97 699.956 1243.66 711.109 1197.03 C 722.165 1150.79 729.193 1103.31 741.361 1057.44 C 695.697 1063.65 649.414 1067.47 603.539 1071.88 C 579.501 1074.2 555.327 1078 531.218 1079.14 L 493.698 1240.8 A 3029.43 3029.43 0 0 0 473.332 1328.91 C 469.328 1347 464.879 1365.12 462.339 1383.49 C 414.939 1388.48 367.807 1394.9 320.524 1400.79 C 290.444 1404.54 259.86 1406.85 230.055 1412.44 C 246.883 1351.37 260.932 1289.5 276.969 1228.22 L 365.346 892.967 L 398.92 763.064 C 407.521 728.783 415.172 693.978 425.572 660.196 C 461.218 656.896 496.644 651.539 532.124 646.852 C 570.005 641.848 607.93 637.4 645.7 631.565 C 626.354 713.211 604.279 794.235 585.041 875.886 C 654.542 866.947 724.271 859.293 793.622 849.304 C 801.199 823.977 806.162 797.737 812.182 772.003 C 824.829 717.936 836.867 663.641 850.095 609.722 C 882.578 602.588 923.94 599.724 957.712 595.235 C 999.145 589.727 1040.45 581.978 1082 577.581 z"/>
<path transform="translate(0,0)" fill="rgb(36,172,218)" d="M 1596.6 623.221 C 1621.91 622.516 1647.71 618.903 1672.93 616.444 L 1829.74 600.755 C 1858.13 597.837 1886.79 593.717 1915.27 592.266 C 1878.94 626.191 1838.97 656.726 1801.48 689.382 C 1757.78 727.433 1715.32 766.841 1672.08 805.393 C 1635.45 838.049 1598.05 869.757 1561.69 902.713 A 2646.48 2646.48 0 0 1 1512.79 946.281 C 1503.03 954.765 1492.34 962.926 1483.25 972.072 A 25535.7 25535.7 0 0 1 1710.88 1291.63 C 1734.62 1325.47 1758.98 1358.88 1782.29 1393.02 C 1707.85 1385.46 1633.61 1375.04 1559.3 1366.15 C 1534.13 1363.14 1508.51 1358.54 1483.29 1356.72 C 1453.67 1319.3 1427.59 1279.05 1400.07 1240.06 A 6620.93 6620.93 0 0 1 1321.52 1126.75 C 1309.16 1108.42 1296.52 1090.37 1285.02 1071.49 C 1278.16 1095.92 1273.14 1120.89 1266.72 1145.45 C 1253.41 1196.33 1239.08 1247.64 1228.32 1299.11 L 1014.49 1312.3 C 1019.87 1287.31 1024.22 1262.11 1029.51 1237.1 C 1037.44 1243.39 1045.63 1249.51 1053.07 1256.37 C 1050.39 1267.07 1047.91 1277.66 1045.97 1288.52 A 6654.83 6654.83 0 0 0 1212.1 1278.89 L 1275.83 1018.41 C 1343.91 1126.41 1419.54 1229.68 1490.75 1335.65 L 1660.38 1356.59 C 1685.99 1359.88 1712.4 1362.35 1737.75 1367.23 C 1713.78 1327.78 1683.97 1290.91 1657.2 1253.27 L 1505.03 1037.4 C 1488.69 1013.83 1469.35 991.278 1454.71 966.671 C 1466.69 954.52 1479.76 943.584 1492.5 932.251 L 1545.77 884.367 L 1728.7 720.462 C 1753.51 698.575 1777.56 675.961 1802.04 653.715 C 1812.42 644.284 1824.68 635.833 1834.06 625.485 C 1795.37 628.174 1756.71 632.996 1718.04 636.319 A 3742.04 3742.04 0 0 0 1643.44 643.54 C 1631.49 644.771 1618.77 645.258 1607 647.521 C 1603.25 648.241 1601.09 649.406 1598.04 651.638 C 1582.84 662.76 1568.92 675.838 1554.45 687.906 C 1532.18 706.489 1509.5 724.638 1486.95 742.887 C 1421.12 796.163 1349.79 850.701 1288.36 908.556 C 1301.75 871.832 1310.93 833.42 1322.22 795.993 L 1350.31 701.409 C 1356.41 681.173 1363.37 660.953 1368.56 640.488 C 1343.07 640.606 1317.19 644.902 1291.73 646.952 C 1253.07 650.065 1213.91 651.658 1175.38 655.975 C 1171.69 680.283 1165.38 704.495 1159.95 728.472 L 1136.64 833.441 L 1107.31 967.153 C 1098.92 1007 1091.19 1046.87 1081.8 1086.51 L 1059.85 1085.99 C 1074.03 1034.65 1082.29 981.646 1093.49 929.585 L 1158.7 634.036 C 1207.23 629.005 1256.11 625.405 1304.74 621.165 C 1335.78 618.458 1367.81 614.034 1398.91 613.863 A 12660 12660 0 0 1 1358.73 748.632 C 1347.99 783.135 1336.34 817.423 1326.24 852.116 C 1333.63 844.446 1341.01 836.822 1348.75 829.497 C 1366.31 816.757 1382.54 800.72 1399.28 786.778 C 1412.94 775.409 1428.92 764.891 1441.22 752.118 L 1545.03 666.159 C 1562.22 651.863 1579.05 637.075 1596.6 623.221 z"/>
<path transform="translate(0,0)" fill="url(#Gradient2)" d="M 1272.44 935.64 C 1327.02 882.013 1387.88 833.977 1447.48 786.059 L 1581.21 676.32 C 1589.51 685.092 1592.3 681.518 1601.17 686.763 C 1603.28 688.012 1601.46 690.615 1603.63 691.546 C 1606.79 692.904 1612.75 691.929 1614.85 694.271 L 1614.33 697.163 C 1623.14 703.855 1669.01 699.278 1674.33 702.96 C 1676.07 704.171 1677.6 707.838 1679.28 708.712 C 1679.9 709.035 1683.06 709.06 1683.96 709.171 C 1692.55 710.226 1693.86 717.82 1694.84 725.158 C 1695.35 728.953 1695.5 732.684 1695.51 736.513 L 1695.74 736.467 L 1695.16 737.155 C 1693.87 738.687 1692.75 739.879 1692.23 741.861 C 1682.15 752.71 1670.06 762.295 1658.9 772.029 A 4624.8 4624.8 0 0 0 1606.77 817.979 C 1551.9 867.044 1498 917.192 1442.03 965.025 C 1474.8 1009.61 1506.08 1055.14 1538.45 1099.98 A 3963.94 3963.94 0 0 1 1608.87 1198.95 C 1618.53 1212.81 1628.73 1226.54 1637.85 1240.74 A 9171.4 9171.4 0 0 1 1437.2 1241.17 L 1348.96 1113.89 C 1322.95 1076.3 1296.19 1038.22 1272.7 999.016 L 1223.16 1197.73 L 1211.62 1244.12 C 1209.4 1253.26 1207.72 1263.06 1204.38 1271.86 C 1168.18 1273.27 1131.76 1275.89 1095.66 1278.82 C 1087.81 1241.83 1077.78 1205.32 1069.87 1168.33 C 1088.5 1155.64 1106.38 1141.89 1124.81 1128.93 C 1143.36 1115.89 1162.44 1103.75 1180.79 1090.4 C 1156.56 1086.43 1115.78 1087.19 1090.25 1086.5 C 1093.67 1064.56 1099.57 1042.51 1104.23 1020.77 A 10309.9 10309.9 0 0 1 1133.12 888.36 L 1155.9 787.314 C 1160.09 768.314 1163.44 748.754 1168.64 730.024 C 1168.84 729.95 1169.06 729.913 1169.24 729.803 C 1169.77 729.485 1170.6 728.642 1171.16 728.41 C 1173.17 727.581 1174.32 728.459 1176.23 729.079 C 1176.99 730.044 1177.78 730.993 1178.54 731.962 C 1179 732.542 1179.43 733.143 1179.9 733.707 C 1184.69 739.408 1195.6 739.802 1202.61 740.187 C 1217.7 741.017 1234.96 741.143 1249.57 736.986 C 1258.13 734.549 1265.63 730.186 1273.48 726.113 C 1286.12 719.549 1308.41 707.546 1321.31 704.104 C 1325.13 703.085 1328.86 703.156 1332.72 702.609 C 1336 702.143 1337.96 701.334 1341.4 701.615 C 1339.15 711.22 1335.64 720.899 1332.83 730.393 L 1316.03 787.609 A 12669 12669 0 0 1 1272.44 935.64 z"/>
<path transform="translate(0,0)" fill="url(#Gradient3)" d="M 872.786 636.629 C 929.918 631.068 986.689 622.736 1043.74 616.64 C 1038.41 636.018 1034.68 656.044 1030.09 675.626 A 5667.54 5667.54 0 0 0 998.416 815.888 L 938.387 1085.04 C 907.873 1085.43 877.105 1083.49 846.546 1083.26 L 925.231 1141.13 L 918.417 1167.53 A 8062.35 8062.35 0 0 0 808.012 1181.86 C 786.69 1184.81 764.912 1188.79 743.443 1190.05 C 752.738 1155.41 759.782 1120.12 767.628 1085.13 C 772.78 1062.15 779.069 1039.34 783.706 1016.27 A 10412.7 10412.7 0 0 1 598.984 1036.96 C 571.37 1039.94 539.078 1045.48 511.885 1046.2 C 492.952 1111.76 477.656 1179.15 462.644 1245.74 C 408.763 1248.55 355.231 1257.36 301.711 1263.56 C 299.958 1263.77 298.921 1263.72 297.249 1263.19 C 309.773 1221.66 319.045 1179.07 330.057 1137.13 L 391.842 903.942 L 427.552 769.569 C 434.613 743.224 443.271 716.32 447.682 689.398 C 478.666 684.618 509.796 681.329 540.901 677.494 C 562.432 674.839 583.943 671.313 605.556 669.44 C 592.681 717.797 582.251 767.042 570.958 815.793 C 563.598 847.566 554.928 878.971 548.365 910.928 C 573.996 905.746 601.314 904.207 627.333 901.078 L 816.413 879.839 A 18011.2 18011.2 0 0 1 872.786 636.629 z"/>
<path transform="translate(0,0)" fill="rgb(251,152,45)" d="M 995.423 162.885 C 1004.79 175.576 1011.37 190.985 1018.58 205.018 A 4979.12 4979.12 0 0 0 1046.57 258 C 1081.95 324.27 1118.56 389.739 1152.98 456.552 C 1170.65 445.557 1188.93 435.457 1206.72 424.636 A 11365.7 11365.7 0 0 1 1392.32 312.306 C 1437.61 285.118 1482 255.788 1528.25 230.258 C 1523.58 249.189 1517.13 267.894 1511.72 286.646 C 1503.59 314.782 1496.56 343.224 1488.32 371.32 C 1477.46 408.325 1465.22 445.704 1456.26 483.172 C 1456.79 486.28 1456.84 493.543 1459.69 495.072 C 1462 496.312 1464.31 495.384 1466.75 496.501 A 11532.9 11532.9 0 0 1 1760.94 414.061 C 1746.27 441.825 1732.14 469.876 1717.25 497.524 C 1701.97 525.893 1685.87 553.992 1671.2 582.664 C 1651.1 584.469 1630.65 588.104 1610.49 588.206 L 1603.26 588.102 C 1597.67 588.279 1592.19 588.488 1586.64 589.242 C 1564.98 605.413 1544.19 623.428 1523.13 640.44 C 1502.31 657.259 1480.79 673.315 1460.9 691.233 C 1458.82 676.768 1457.07 662.15 1454.35 647.794 C 1453.53 645.227 1453.54 641.408 1453.23 638.671 A 2250.24 2250.24 0 0 0 1443.56 577.4 A 3143.94 3143.94 0 0 0 1330.4 586.462 C 1328.52 586.638 1326.6 586.915 1324.7 586.899 A 1873.56 1873.56 0 0 1 1234.86 594.002 C 1229.14 594.744 1223.56 595.149 1217.79 595.285 C 1203.87 599.805 1172.68 600.775 1156.84 602.281 A 3654.65 3654.65 0 0 0 1126.2 540.614 C 1104.38 542.192 1082.4 546.18 1060.69 549.076 L 1053.27 549.671 A 3610.45 3610.45 0 0 0 954.911 561.979 C 938.014 564.218 920.832 567.282 903.84 568.477 L 894.41 569.396 C 870.978 572.016 846.976 574.723 823.786 578.889 L 816.542 605.684 L 814.505 612.097 A 3702.45 3702.45 0 0 1 697.318 548.508 C 677.263 537.135 656.518 526.226 637.26 513.566 C 643.189 524.312 650.269 534.546 656.757 544.965 A 1455.67 1455.67 0 0 1 684.763 592.637 C 681.935 593.078 679.09 593.443 676.304 594.101 C 658.973 597.416 641.194 598.821 623.719 601.411 C 549.133 612.466 474.135 619.964 399.63 631.603 A 5296.66 5296.66 0 0 0 380.933 703.333 C 370.284 677.644 357.631 652.736 345.505 627.718 C 324.625 584.636 303.334 541.584 283.053 498.227 C 372.387 511.559 464.127 527.933 552.809 544.977 C 533.498 456.495 515.853 367.293 493.291 279.587 C 505.986 286.811 518.015 295.458 530.233 303.465 L 597.319 347.217 L 704.523 415.322 C 739.285 437.416 773.873 459.916 809.04 481.355 A 3797.33 3797.33 0 0 1 861.717 389.869 L 929.303 274.071 C 951.214 237.107 971.665 198.648 995.423 162.885 z"/>
<path transform="translate(0,0)" fill="rgb(1,0,2)" d="M 1456.26 483.172 C 1456.79 486.28 1456.84 493.543 1459.69 495.072 C 1462 496.312 1464.31 495.384 1466.75 496.501 C 1461.51 498.504 1455.94 500.015 1450.59 501.738 C 1452.23 495.453 1454.2 489.331 1456.26 483.172 z"/>
<path transform="translate(0,0)" fill="rgb(206,26,68)" d="M 1217.79 595.285 C 1229.8 585.575 1243.76 577.373 1256.4 568.388 L 1326.25 518.394 C 1332.79 513.786 1341.8 505.441 1348.96 502.967 C 1350.65 502.383 1349.85 502.427 1351.68 503.352 C 1352.22 515.606 1334.84 570.662 1330.4 586.462 C 1328.52 586.638 1326.6 586.915 1324.7 586.899 C 1329.5 563.333 1335.07 538.685 1342.4 515.794 C 1318.75 532.615 1295.72 550.233 1272.23 567.272 C 1260.1 576.073 1245.85 583.92 1234.86 594.002 C 1229.14 594.744 1223.56 595.149 1217.79 595.285 z"/>
<path transform="translate(0,0)" fill="rgb(206,26,68)" d="M 1453.23 638.671 C 1509.26 604.008 1561.88 563.923 1617.79 529.087 C 1629.17 521.997 1640.28 513.885 1652.08 507.564 C 1636.17 532.683 1623.88 561.545 1610.49 588.206 L 1603.26 588.102 C 1611.27 567.856 1622.13 548.959 1631.42 529.312 C 1614.73 538.033 1599.18 549.894 1583.59 560.461 L 1492.22 622.693 C 1487.12 626.106 1456.23 644.433 1454.35 647.794 C 1453.53 645.227 1453.54 641.408 1453.23 638.671 z"/>
<path transform="translate(0,0)" fill="rgb(206,26,68)" d="M 615.581 493.527 C 661.572 521.447 709.403 546.907 756.603 572.751 C 776.492 583.641 797.295 593.769 816.542 605.684 L 814.505 612.097 A 3702.45 3702.45 0 0 1 697.318 548.508 C 677.263 537.135 656.518 526.226 637.26 513.566 C 643.189 524.312 650.269 534.546 656.757 544.965 A 1455.67 1455.67 0 0 1 684.763 592.637 C 681.935 593.078 679.09 593.443 676.304 594.101 C 658.758 559.023 635.147 527.409 615.581 493.527 z"/>
<path transform="translate(0,0)" fill="rgb(206,26,68)" d="M 985.099 386.162 C 1000.6 416.528 1014 447.994 1028.18 478.987 C 1038.89 502.403 1050.57 525.391 1060.69 549.076 L 1053.27 549.671 C 1039.81 519.409 1025.51 489.45 1011.79 459.293 C 1002.96 439.868 994.847 419.251 984.653 400.534 C 964.364 445.241 942.153 489.002 920.796 533.202 C 916.387 542.327 905.293 559.747 903.84 568.477 L 894.41 569.396 C 904.08 553.359 911.74 535.352 919.859 518.466 L 952.603 451.737 C 963.148 429.7 972.842 407.345 985.099 386.162 z"/>
<path transform="translate(0,0)" fill="rgb(253,232,30)" d="M 1342.4 515.794 C 1335.07 538.685 1329.5 563.333 1324.7 586.899 A 1873.56 1873.56 0 0 1 1234.86 594.002 C 1245.85 583.92 1260.1 576.073 1272.23 567.272 C 1295.72 550.233 1318.75 532.615 1342.4 515.794 z"/>
<path transform="translate(0,0)" fill="rgb(253,232,30)" d="M 1454.35 647.794 C 1456.23 644.433 1487.12 626.106 1492.22 622.693 L 1583.59 560.461 C 1599.18 549.894 1614.73 538.033 1631.42 529.312 C 1622.13 548.959 1611.27 567.856 1603.26 588.102 C 1597.67 588.279 1592.19 588.488 1586.64 589.242 C 1564.98 605.413 1544.19 623.428 1523.13 640.44 C 1502.31 657.259 1480.79 673.315 1460.9 691.233 C 1458.82 676.768 1457.07 662.15 1454.35 647.794 z"/>
<path transform="translate(0,0)" fill="rgb(253,232,30)" d="M 903.84 568.477 C 905.293 559.747 916.387 542.327 920.796 533.202 C 942.153 489.002 964.364 445.241 984.653 400.534 C 994.847 419.251 1002.96 439.868 1011.79 459.293 C 1025.51 489.45 1039.81 519.409 1053.27 549.671 A 3610.45 3610.45 0 0 0 954.911 561.979 C 938.014 564.218 920.832 567.282 903.84 568.477 z"/>
<path transform="translate(0,0)" fill="rgb(251,152,45)" d="M 1375.6 1263.39 C 1382.81 1273.57 1389.13 1284.46 1395.85 1294.98 L 1437.86 1360.22 C 1449.71 1378.27 1464.68 1395.67 1474.79 1414.64 C 1476.52 1417.37 1478.11 1420.13 1479.65 1422.99 C 1488.11 1427.43 1499.44 1429.61 1505.13 1437.57 C 1513.21 1447.93 1519.05 1461.05 1525.05 1472.73 C 1569.14 1476.95 1613.05 1485.06 1657.08 1490.35 L 1752.42 1501.77 C 1771.99 1504.11 1791.89 1505.8 1811.24 1509.58 C 1823.41 1523.73 1836.16 1542.08 1845.09 1558.45 C 1766.5 1542.88 1686.96 1533.17 1607.77 1521.34 C 1578.81 1517.01 1549.61 1513.12 1520.88 1507.51 L 1545.02 1721.5 C 1547.4 1743.08 1551.65 1764.5 1553.46 1786.13 A 9997.69 9997.69 0 0 0 1341.3 1668.08 C 1300.95 1645.76 1261.22 1621.04 1219.73 1601.01 C 1198.69 1633.19 1176.25 1664.37 1154.56 1696.11 L 1068.3 1823.54 C 1047.71 1853.57 1028.84 1885.08 1007.79 1914.7 C 997.152 1893.12 984.475 1872.36 972.858 1851.27 C 933.576 1779.97 891.512 1709.88 853.922 1637.69 C 832.492 1647.68 811.976 1659.52 791.296 1670.94 L 706.988 1717.27 A 7108.32 7108.32 0 0 0 581.775 1786.11 C 559.059 1798.69 536.003 1810.66 513.838 1824.21 C 521.835 1792.08 532.042 1760.62 540.978 1728.76 C 555.683 1676.32 569.656 1623.67 585.862 1571.66 C 544.505 1583.44 503.518 1596.29 462.279 1608.45 C 412.468 1623.13 362.019 1637.37 313.035 1654.58 C 329.886 1608.32 350.166 1561.23 368.818 1515.47 L 494.174 1496.15 C 511.083 1493.65 529.315 1489.41 546.346 1488.68 C 548.092 1483.22 550.172 1477.7 551.306 1472.07 C 552.467 1468.06 553.837 1464.15 555.274 1460.22 C 565.761 1459.21 576.604 1456.58 586.966 1454.6 A 4848.09 4848.09 0 0 0 652.644 1441.33 C 667.124 1438.34 690.856 1435.45 703.802 1430.01 L 710.311 1438.04 L 720.463 1450.43 C 722.372 1453.4 724.213 1456.38 725.969 1459.45 A 21684.5 21684.5 0 0 1 1008.55 1429.71 L 1021.52 1390.37 L 1053.01 1388.9 C 1045.48 1402.15 1039.16 1415.94 1032.81 1429.78 C 1061.3 1425.75 1090.32 1424.04 1118.98 1421.47 C 1171 1416.81 1224.32 1411.54 1276.57 1413.37 C 1295.92 1414.05 1315.24 1416.27 1334.45 1418.65 C 1338.68 1404.76 1341.72 1390.33 1345.42 1376.27 A 6268.59 6268.59 0 0 1 1375.6 1263.39 z"/>
<path transform="translate(0,0)" fill="rgb(206,26,68)" d="M 703.802 1430.01 L 710.311 1438.04 C 694.586 1446.89 575.593 1468.59 551.306 1472.07 C 552.467 1468.06 553.837 1464.15 555.274 1460.22 C 565.761 1459.21 576.604 1456.58 586.966 1454.6 A 4848.09 4848.09 0 0 0 652.644 1441.33 C 667.124 1438.34 690.856 1435.45 703.802 1430.01 z"/>
<path transform="translate(0,0)" fill="rgb(206,26,68)" d="M 1376.05 1373.65 A 1316.47 1316.47 0 0 1 1431.77 1396.13 C 1446.04 1402.32 1460.22 1409.2 1474.79 1414.64 C 1476.52 1417.37 1478.11 1420.13 1479.65 1422.99 C 1488.11 1427.43 1499.44 1429.61 1505.13 1437.57 C 1483.25 1432.52 1463.02 1421.85 1442.57 1412.86 A 3185.76 3185.76 0 0 0 1390.12 1390.93 C 1395.16 1410.77 1398.03 1431.41 1401.65 1451.57 A 8544.73 8544.73 0 0 0 1418.27 1540.35 C 1421.99 1559.85 1425.37 1579.54 1431.2 1598.54 C 1394.55 1576.43 1356.96 1556.31 1319.55 1535.57 A 10705.6 10705.6 0 0 1 1173.68 1453.43 C 1157.59 1477.29 1142.87 1501.96 1127.68 1526.38 L 1083.47 1596.62 C 1058.1 1637.63 1031.9 1677.86 1008.39 1720 L 916.499 1552.56 C 903.971 1529.33 892.846 1505.34 879.853 1482.37 C 863.812 1490.77 848.8 1501.21 833.703 1511.17 A 3588.85 3588.85 0 0 1 780.32 1545.91 A 2446.49 2446.49 0 0 1 719.744 1584.29 C 700.098 1596.36 680.124 1607.95 661.035 1620.89 C 674.008 1587.62 685.086 1553.28 696.113 1519.32 C 701.629 1502.32 711.203 1464.2 720.463 1450.43 C 722.372 1453.4 724.213 1456.38 725.969 1459.45 C 726.244 1473.07 689.771 1573.4 682.931 1594.41 C 704.14 1579.6 726.367 1566.27 748.197 1552.4 L 834.371 1497.24 C 850.774 1486.83 867.973 1477.23 883.766 1465.92 C 901.482 1495.17 916.138 1526.85 932.258 1557.03 C 957.561 1604.41 983.983 1651.17 1008.91 1698.75 L 1119.59 1520.51 C 1136.55 1493.32 1152.49 1465.68 1170.43 1439.08 C 1186.88 1446.56 1202.62 1456.28 1218.21 1465.38 A 4270.87 4270.87 0 0 0 1282.2 1502.18 L 1359.8 1544.49 C 1378.55 1554.66 1397.38 1564.49 1415.19 1576.27 C 1409.01 1555.19 1405.98 1533.07 1401.91 1511.5 C 1393.24 1465.59 1385.71 1419.35 1376.05 1373.65 z"/>
<path transform="translate(0,0)" fill="rgb(253,232,30)" d="M 1375.6 1263.39 C 1382.81 1273.57 1389.13 1284.46 1395.85 1294.98 L 1437.86 1360.22 C 1449.71 1378.27 1464.68 1395.67 1474.79 1414.64 C 1460.22 1409.2 1446.04 1402.32 1431.77 1396.13 A 1316.47 1316.47 0 0 0 1376.05 1373.65 C 1385.71 1419.35 1393.24 1465.59 1401.91 1511.5 C 1405.98 1533.07 1409.01 1555.19 1415.19 1576.27 C 1397.38 1564.49 1378.55 1554.66 1359.8 1544.49 L 1282.2 1502.18 A 4270.87 4270.87 0 0 1 1218.21 1465.38 C 1202.62 1456.28 1186.88 1446.56 1170.43 1439.08 C 1152.49 1465.68 1136.55 1493.32 1119.59 1520.51 L 1008.91 1698.75 C 983.983 1651.17 957.561 1604.41 932.258 1557.03 C 916.138 1526.85 901.482 1495.17 883.766 1465.92 C 867.973 1477.23 850.774 1486.83 834.371 1497.24 L 748.197 1552.4 C 726.367 1566.27 704.14 1579.6 682.931 1594.41 C 689.771 1573.4 726.244 1473.07 725.969 1459.45 A 21684.5 21684.5 0 0 1 1008.55 1429.71 L 1021.52 1390.37 L 1053.01 1388.9 C 1045.48 1402.15 1039.16 1415.94 1032.81 1429.78 C 1061.3 1425.75 1090.32 1424.04 1118.98 1421.47 C 1171 1416.81 1224.32 1411.54 1276.57 1413.37 C 1295.92 1414.05 1315.24 1416.27 1334.45 1418.65 C 1338.68 1404.76 1341.72 1390.33 1345.42 1376.27 A 6268.59 6268.59 0 0 1 1375.6 1263.39 z"/>
</svg>