<svg version="1.1" xmlns="http://www.w3.org/2000/svg" style="display: block;" viewBox="0 0 2048 2048" width="1024" height="1024">
<defs>
	<linearGradient id="Gradient1" gradientUnits="userSpaceOnUse" x1="1713.38" y1="1551.13" x2="1873.89" y2="1575.06">
		<stop class="stop0" offset="0" stop-opacity="1" stop-color="rgb(238,191,187)"/>
		<stop class="stop1" offset="1" stop-opacity="1" stop-color="rgb(255,255,255)"/>
	</linearGradient>
</defs>
<path transform="translate(0,0)" fill="rgb(254,254,254)" d="M 0 0 L 2048 0 L 2048 2048 L 0 2048 L 0 0 z"/>
<path transform="translate(0,0)" fill="rgb(0,0,0)" d="M 1266.32 155.446 C 1314.04 153.985 1362.23 155.8 1410.01 155.922 L 1676.78 155.881 L 1854.92 155.93 L 1911.37 155.995 C 1921.29 156.012 1931.62 155.45 1941.47 156.344 C 1947.97 156.935 1954.26 160.011 1958.26 165.229 C 1962.52 170.798 1963.92 178.126 1964.18 184.993 C 1965.77 226.796 1963.95 268.996 1964.26 310.853 L 1963.85 722.85 L 1964.19 904.741 C 1964.23 923.508 1966.33 969.108 1963.4 984.685 C 1962.02 991.976 1956.65 996.066 1950.76 999.859 C 1901.8 1001.18 1852.5 999.809 1803.51 999.864 L 1444 999.678 C 1451.7 1009.71 1457.91 1020.69 1463.04 1032.24 C 1486.41 1084.87 1484.42 1143.74 1466.51 1197.76 C 1461.83 1211.87 1455.07 1225.14 1449.79 1239.01 L 1697.52 1239.03 L 1767.69 1238.99 C 1781.34 1238.95 1795.25 1238.3 1808.85 1239.23 C 1820.96 1240.06 1831.47 1244.03 1839.44 1253.56 C 1844.75 1259.89 1847.75 1267.16 1848.31 1275.39 C 1849.21 1288.56 1844.65 1302.54 1841.71 1315.29 C 1835.9 1340.58 1828.28 1366.72 1825.49 1392.52 C 1833.29 1392.48 1844.61 1391.15 1850.87 1396.88 C 1857.79 1403.21 1855.5 1424.01 1855.85 1432.72 C 1864.56 1437.65 1873.37 1442.42 1882.12 1447.26 C 1889.86 1443.14 1902.11 1432.92 1911.04 1433.57 C 1913.93 1433.78 1914.81 1434.81 1916.79 1436.75 C 1925.34 1445.15 1969.2 1506.97 1969.19 1515.32 C 1964.76 1527 1950.88 1533.02 1940.7 1539.08 C 1943.88 1556.91 1942.67 1573.56 1940.91 1591.44 C 1949.84 1597.88 1963.12 1605.29 1969.13 1614.56 C 1969.89 1619.36 1966.84 1625.15 1964.56 1629.27 C 1958.96 1639.39 1925.67 1693.21 1917.16 1695.19 C 1906.55 1697.66 1894.13 1687.92 1885.55 1682.56 C 1875.28 1691.43 1863.19 1697.73 1851.01 1703.5 C 1851.09 1711.58 1852.15 1731.31 1847.53 1737.7 C 1845.34 1740.75 1839.61 1741.25 1836.16 1741.68 C 1824.31 1743.13 1768.51 1743.71 1757.17 1742.23 C 1752.4 1741.6 1748.21 1740.35 1744.44 1737.32 C 1740.03 1728.27 1741.99 1712.45 1741.97 1702.4 C 1728.45 1696.54 1716.85 1688.88 1704.59 1680.81 C 1695.38 1687.03 1687.15 1692.31 1675.67 1692.89 L 1644.6 1804.33 C 1638.69 1825.69 1633.71 1848.05 1626.41 1868.94 C 1624.94 1873.15 1623.3 1877.06 1620.39 1880.5 C 1613.74 1888.36 1606.3 1889.23 1596.64 1889.85 C 1577.92 1891.06 1558.69 1890.16 1539.92 1890.13 A 6230.55 6230.55 0 0 0 1437.72 1890.37 L 971.985 1891.59 L 631.426 1893.08 L 535.92 1893.29 C 518.602 1893.42 500.116 1894.9 482.911 1893.37 C 470.319 1892.26 450.214 1881.57 440.77 1873.32 C 439.416 1868.53 440.386 1863.09 441.457 1858.32 C 445.348 1840.99 452.11 1823.69 457.67 1806.78 C 468.345 1774.32 479.255 1741.69 488.102 1708.67 C 487.672 1708.9 487.245 1709.14 486.812 1709.36 C 478.516 1713.68 468.767 1716.83 459.384 1717.02 C 442.168 1717.35 424.246 1714.79 407.094 1713.13 C 368.392 1709.38 329.816 1704.46 291.16 1700.25 C 249.94 1695.76 208.764 1691.6 167.599 1686.55 C 149.375 1684.32 129.568 1683.74 112.057 1678.23 C 110.221 1675.23 109.871 1671.44 109.534 1667.99 C 107.636 1648.55 108.086 1628.42 107.488 1608.86 C 106.686 1582.6 105.149 1556.38 104.721 1530.11 C 99.9692 1530.07 95.107 1530.06 90.5158 1528.67 C 84.9737 1527 77.0924 1523.11 74.7658 1517.37 C 73.7358 1514.83 74.1777 1512.6 75.3121 1510.2 C 77.0205 1506.59 81.2574 1503.35 84.7548 1501.62 C 95.3988 1496.36 109.106 1493.92 120.567 1490.69 A 2620.62 2620.62 0 0 0 174.676 1474.77 C 192.77 1469.72 211.039 1463.76 229.468 1460.15 C 187.904 1448.12 151.168 1426.63 123.357 1393.13 C 87.361 1349.78 72.6095 1295.54 77.9998 1239.71 C 84.3248 1174.21 119.954 1119.86 170.115 1079.04 C 200.518 1054.3 260.67 1017.09 301.021 1021.67 C 312.981 1023.02 323.815 1028.49 331.238 1038.15 C 336.594 1045.12 339.953 1054.33 338.772 1063.15 C 337.505 1072.62 332.209 1081.96 325.249 1088.42 C 315.1 1097.85 300.158 1103.73 287.963 1110.28 A 224.483 224.483 0 0 0 258.239 1129.07 C 233.286 1147.86 209.249 1175.67 204.96 1207.71 C 202.337 1227.31 207.347 1247.8 219.635 1263.44 C 232.467 1279.78 251.868 1288.59 272.204 1290.81 C 309.592 1294.89 331.496 1279.93 359.02 1257.62 C 361.519 1243.42 362.648 1228.97 365.024 1214.74 C 376.159 1148.07 394.842 1096.95 438.098 1043.92 C 420.996 1023.63 402.224 1005.25 386.035 984.048 A 550.03 550.03 0 0 1 278.298 717.396 C 276.055 697.154 275.842 676.619 276.169 656.275 C 277.849 551.853 309.422 448.165 375.108 365.868 C 448.176 274.323 552.59 211.762 669.965 199.029 A 427.173 427.173 0 0 1 988.209 292.718 A 470.617 470.617 0 0 1 1158.91 606.747 A 523.085 523.085 0 0 1 1078.13 949.098 C 1060.85 975.772 1041.27 999.183 1021.33 1023.76 C 1059 1075.26 1111.49 1120.75 1168.94 1148.67 C 1206.91 1167.12 1249.75 1180.21 1291.4 1165.45 C 1312.24 1158.05 1327.05 1145.45 1336.43 1125.32 C 1347.63 1101.25 1351.35 1072.22 1341.84 1046.99 C 1329.77 1015 1298.54 995.78 1268.01 983.839 C 1257.91 979.888 1247.02 977.479 1237.19 972.946 C 1226.34 967.947 1216.84 959.262 1212.85 947.79 C 1209.49 938.151 1210.43 925.971 1215.06 916.887 C 1221.9 903.485 1234.62 897.126 1248.18 892.532 L 1248.09 398.974 L 1247.99 247.296 C 1247.94 225.623 1246.23 199.227 1247.52 178.203 C 1247.87 172.535 1248.94 166.881 1252.36 162.202 C 1255.91 157.351 1260.64 156.157 1266.32 155.446 z"/>
<path transform="translate(0,0)" fill="rgb(254,254,254)" d="M 1904.22 1461.13 L 1906.35 1460.9 C 1911.07 1465.26 1938.46 1503.8 1938.82 1508.34 C 1938.91 1509.39 1938.21 1510.1 1937.7 1510.95 C 1936.66 1510.39 1935.73 1509.76 1934.79 1509.04 C 1925.23 1501.75 1905.72 1473.09 1904.22 1461.13 z"/>
<path transform="translate(0,0)" fill="rgb(254,254,254)" d="M 1764.85 1414.29 C 1775.75 1411.02 1819.25 1411.99 1831.89 1413.54 C 1833.71 1416.08 1833.37 1419.92 1833.31 1423 A 374.327 374.327 0 0 1 1791.34 1421.11 C 1784.37 1420.44 1769.47 1419.89 1764.85 1414.29 z"/>
<path transform="translate(0,0)" fill="rgb(254,254,254)" d="M 206.639 1091.35 C 226.897 1076.06 271.704 1049.57 297.212 1053.71 C 302.264 1054.53 305.243 1056.28 308.136 1060.46 C 286.954 1064.78 266.279 1073.95 246.266 1081.95 C 237.218 1085.57 227.552 1090.1 217.939 1091.91 C 213.951 1092.66 210.529 1092.44 206.639 1091.35 z"/>
<path transform="translate(0,0)" fill="rgb(254,254,254)" d="M 936.31 1559.43 C 952.219 1558.38 968.39 1558.92 984.322 1559.05 C 991.42 1564.03 998.436 1566.99 1006.54 1569.85 C 996.094 1573.54 985.445 1576.76 974.9 1580.15 L 956.458 1585.59 C 939.517 1578.12 922.388 1569.49 906.329 1560.28 A 747.411 747.411 0 0 0 936.31 1559.43 z"/>
<path transform="translate(0,0)" fill="rgb(254,254,254)" d="M 1119.31 768.716 C 1105.35 833.351 1082.82 886.435 1046.67 941.855 C 1037.57 955.804 1027.89 971.307 1016.55 983.517 C 1016.49 978.459 1044.56 928.79 1049.15 917.83 C 1059.98 891.956 1075.87 843.197 1079.81 816.15 C 1095.41 801.308 1108.54 787.476 1119.31 768.716 z"/>
<path transform="translate(0,0)" fill="rgb(254,254,254)" d="M 773.186 1390.6 C 781.701 1396.1 800.39 1420.74 809.23 1429.91 C 844.595 1466.6 900.508 1514.82 946.819 1536.39 L 947.209 1537.93 C 925.271 1538.9 903.301 1539.41 881.352 1540.1 C 825.76 1503.86 789.972 1454.87 773.186 1390.6 z"/>
<path transform="translate(0,0)" fill="rgb(56,183,238)" d="M 1041.37 1789.4 C 1063.39 1786.7 1084.09 1791.58 1104.9 1798.08 L 1095.29 1832.14 C 1047.95 1831.74 1000.59 1832.92 953.25 1832.79 L 883.318 1833.01 C 894.692 1827.6 906.875 1823.73 918.742 1819.54 C 958.484 1805.51 999.273 1793.43 1041.37 1789.4 z"/>
<path transform="translate(0,0)" fill="rgb(158,158,161)" d="M 1016.6 1848.5 C 1041.18 1847.96 1065.81 1847.97 1090.4 1847.76 L 1094.42 1863.97 L 562.957 1863.92 A 2786.67 2786.67 0 0 1 523.807 1863.35 C 517.275 1863.28 510.133 1864.12 503.712 1863.18 C 497.797 1862.31 490.936 1860.23 485.966 1856.9 L 485.899 1855.6 C 496.506 1851.16 520.504 1853.1 532.87 1852.64 C 693.939 1846.56 855.43 1850.46 1016.6 1848.5 z"/>
<path transform="translate(0,0)" fill="rgb(254,254,254)" d="M 559.139 1391.73 C 569.736 1409.59 578.276 1428.7 588.748 1446.67 C 605.486 1475.4 629.527 1507.12 652.68 1530.77 C 663.302 1541.62 674.954 1551.42 686.419 1561.35 A 747.751 747.751 0 0 0 626.595 1575.73 L 616.233 1579.4 L 615.484 1523.81 C 615.341 1514.3 615.876 1504.15 614.302 1494.78 C 606.535 1490.75 519.146 1487.76 502.675 1486.75 C 510.782 1472.82 520.707 1459.81 529.166 1446.05 C 539.974 1428.47 549.303 1409.87 559.139 1391.73 z"/>
<path transform="translate(0,0)" fill="rgb(56,183,238)" d="M 665.139 1795.41 C 674.521 1794.24 684.837 1794.55 694.308 1794.66 C 743.547 1795.25 792.748 1806.13 834.927 1832.25 C 816.833 1833.3 798.353 1832.54 780.208 1832.62 L 673.855 1833.07 C 619.049 1833.59 563.782 1833.93 509.059 1836.77 C 555.037 1812.94 613.645 1799.65 665.139 1795.41 z"/>
<path transform="translate(0,0)" fill="rgb(203,214,221)" d="M 237.438 1485.04 C 246.611 1484.79 257.04 1487.5 266.232 1488.8 A 1983.81 1983.81 0 0 0 320.903 1495.85 C 396.271 1504.18 471.717 1512.48 547.538 1515.07 C 519.505 1525.55 491.913 1534.49 462.363 1539.72 C 458.309 1540.69 388.249 1530.8 375.537 1529.4 C 300.804 1521.18 226.443 1513.48 151.261 1510.66 C 180.14 1502.75 208.753 1493.65 237.438 1485.04 z"/>
<path transform="translate(0,0)" fill="rgb(254,254,254)" d="M 463.951 1062.34 C 469.753 1065.99 475.388 1069.95 481.069 1073.79 C 466.335 1100.8 454.003 1123.48 445.239 1153.52 C 422.817 1230.36 418.743 1311.52 395.068 1387.34 C 389.107 1406.43 381.015 1424.86 372.373 1442.87 C 367.791 1452.41 363.087 1464.59 355.35 1471.98 L 352.103 1472.56 C 343.874 1471.69 335.668 1470.81 327.482 1469.59 A 442.184 442.184 0 0 0 376.844 1336.61 C 396.518 1241.08 392.675 1138.51 463.951 1062.34 z"/>
<path transform="translate(0,0)" fill="rgb(5,107,205)" d="M 585.134 1529.98 L 587.011 1529.9 C 588.827 1532.36 591.114 1634.97 591.531 1647.42 C 551.693 1662.29 510.754 1673.41 471.216 1689.32 C 470.163 1689.84 469.15 1689.91 468 1690.1 C 466.228 1687.33 465.868 1579.79 465.782 1566.39 C 479.368 1562.69 493.222 1560.05 506.774 1556.15 C 533.105 1548.58 559.335 1539.22 585.134 1529.98 z"/>
<path transform="translate(0,0)" fill="rgb(254,254,254)" d="M 1012.08 1305.41 C 1074.04 1330.73 1139.71 1351.9 1207.3 1352.77 C 1221 1352.94 1234.77 1351.74 1248.44 1350.79 C 1238.51 1386.06 1225.96 1421.12 1214.02 1455.77 C 1209.49 1467.46 1206.09 1479.89 1202.11 1491.81 A 133.199 133.199 0 0 1 1192.92 1488.3 A 336.352 336.352 0 0 1 1012.08 1305.41 z"/>
<path transform="translate(0,0)" fill="rgb(254,254,254)" d="M 374.326 910.752 C 367.782 901.033 362.388 889.825 357.151 879.335 A 493.549 493.549 0 0 1 306.882 691.276 C 299.336 576.025 334.497 457.101 411.364 369.861 C 485.757 285.431 585.829 234.81 698.443 227.938 C 803.926 221.502 906.442 260.621 984.932 330.332 C 1086.73 420.746 1124.28 526.284 1132.13 659.43 C 1125.99 640.172 1118.33 623.455 1108.51 605.873 C 1106.35 593.062 1101.98 580.11 1098.49 567.581 C 1072.05 472.56 1016.78 383.298 935.743 325.528 C 855.197 268.106 754.779 240.004 656.339 256.706 C 557.417 273.49 465.153 338.063 407.66 419.295 C 386.945 448.563 369.521 482.912 357.19 516.516 C 338.82 566.576 325.701 636.254 325.582 689.627 C 325.508 722.635 329.862 756.343 335.557 788.796 C 340.37 816.223 348.496 844.236 359.017 869.997 C 362.492 878.507 374.596 903.2 374.326 910.752 z"/>
<path transform="translate(0,0)" fill="rgb(79,188,196)" d="M 206.639 1091.35 C 210.529 1092.44 213.951 1092.66 217.939 1091.91 C 227.552 1090.1 237.218 1085.57 246.266 1081.95 C 266.279 1073.95 286.954 1064.78 308.136 1060.46 C 306.093 1062.85 303.803 1064.71 301.18 1066.42 C 286.952 1075.7 271.537 1083.2 256.981 1091.95 C 249.793 1096.27 242.194 1102.83 234.756 1106.21 C 203.824 1132.66 177.134 1166.73 173.713 1208.69 C 171.548 1235.24 178.851 1264.26 196.386 1284.72 C 216.103 1307.74 244.106 1320.31 274.114 1322.34 C 304.834 1324.42 329.748 1313.61 357.262 1301.71 C 356.647 1310.33 356.308 1319.84 353.594 1328.1 C 349.901 1340.97 347.778 1354.53 344.657 1367.57 C 338.828 1391.94 330.014 1418.53 318.077 1440.66 A 228.245 228.245 0 0 1 233.372 1430.59 C 190.539 1417.02 148.423 1384.53 127.679 1344.27 C 106.338 1302.85 101.887 1250.26 116.182 1205.87 C 128.537 1167.51 154.221 1134.46 184.297 1108.19 C 191.025 1102.31 198.707 1095.4 206.639 1091.35 z"/>
<path transform="translate(0,0)" fill="rgb(254,254,254)" d="M 353.594 1328.1 C 348.73 1329.68 344.005 1332.14 339.163 1333.88 C 318.407 1341.38 298.589 1345.5 276.48 1345.02 C 241.958 1344.27 212.561 1332.71 188.646 1307.54 C 167.579 1285.37 157.653 1257.41 158.622 1226.96 C 159.923 1186.04 182.898 1146.96 212.621 1119.63 C 217.726 1114.93 227.601 1105.9 234.756 1106.21 C 203.824 1132.66 177.134 1166.73 173.713 1208.69 C 171.548 1235.24 178.851 1264.26 196.386 1284.72 C 216.103 1307.74 244.106 1320.31 274.114 1322.34 C 304.834 1324.42 329.748 1313.61 357.262 1301.71 C 356.647 1310.33 356.308 1319.84 353.594 1328.1 z"/>
<path transform="translate(0,0)" fill="rgb(254,254,254)" d="M 131.515 1534.05 A 10571.3 10571.3 0 0 1 275.584 1545.08 C 297.143 1546.98 318.6 1549.69 340.127 1551.87 C 373.004 1555.2 406.429 1557.09 438.871 1563.52 C 438.924 1604.96 439.959 1646.38 439.698 1687.83 A 5835.85 5835.85 0 0 1 136.876 1655.34 C 133.645 1615.04 134.94 1574.43 131.515 1534.05 z"/>
<path transform="translate(0,0)" fill="rgb(203,214,221)" d="M 155.841 1556.89 C 191.828 1558.13 227.667 1562.77 263.492 1566.13 C 316.032 1571.05 368.522 1575.32 420.979 1581.17 C 421.054 1608.85 421.917 1636.35 422.976 1664.01 C 335.341 1657.28 247.974 1646.75 160.452 1638.77 C 159.951 1611.25 157.509 1584.32 155.841 1556.89 z"/>
<path transform="translate(0,0)" fill="rgb(254,254,254)" d="M 1085.73 1565.43 C 1116.39 1563.63 1144.82 1575.74 1172.07 1588.34 C 1167.89 1602.24 1162.69 1615.88 1158.11 1629.65 C 1152.66 1646.01 1147.76 1662.56 1142.39 1678.95 C 1136.65 1676.47 1130.77 1674.09 1124.88 1672 C 1069.96 1652.55 1017.13 1668.86 964.952 1687.82 C 953.393 1692.02 939.194 1695.38 928.522 1701.13 C 924.799 1703.14 922.436 1706.33 921.395 1710.35 C 921.752 1711.44 921.73 1712.54 922.867 1713.08 C 925.517 1714.32 929.412 1713.34 932.128 1712.64 C 940.806 1710.41 949.391 1705.96 957.807 1702.8 C 973.046 1697.07 988.566 1691.8 1004.01 1686.66 C 1051.59 1670.82 1093.2 1666.87 1139.41 1689.99 C 1134.99 1703.78 1130.01 1717.33 1125.84 1731.21 C 1114.27 1726.46 1102.79 1721.62 1090.5 1719.03 C 1044.57 1709.34 996.22 1725.46 953.359 1741.2 C 943.288 1744.9 930.346 1748.23 921.662 1754.55 C 918.779 1756.65 919.036 1758.65 918.589 1761.91 L 921.223 1763.59 C 927.985 1764.65 982.803 1742.64 994.961 1738.77 C 1037.21 1725.32 1081.97 1721.45 1122.41 1742.36 C 1118.47 1757.42 1113.63 1772.3 1108.72 1787.07 C 1097.86 1782.61 1087.33 1778.78 1075.65 1777.15 C 1017.53 1769.01 957.671 1793.07 903.47 1810.9 C 887.336 1816.21 870.973 1820.9 854.689 1825.73 C 855.517 1801.85 881.173 1652.68 893.209 1639.22 C 909.591 1620.89 1017.4 1580.13 1043.87 1572.72 A 195.545 195.545 0 0 1 1085.73 1565.43 z"/>
<path transform="translate(0,0)" fill="rgb(0,0,0)" d="M 1058.65 1611.41 C 1065.43 1610.45 1073.06 1610.79 1079.89 1611.08 C 1094.21 1611.67 1128.84 1616.39 1138.49 1626.96 C 1139.34 1629.64 1139.25 1629.79 1138.35 1632.47 C 1130 1638.24 1108.75 1626.15 1099.04 1624.13 C 1068.05 1617.69 1037.7 1624.11 1008.31 1633.93 C 994.819 1638.64 981.048 1643.39 967.946 1649.07 C 961.222 1651.98 954.824 1656.38 947.942 1658.75 C 945.657 1659.54 944.3 1659.65 941.979 1659.05 C 939.754 1657.1 939.675 1656.94 938.988 1654.05 C 939.455 1652.82 939.427 1652.67 940.326 1651.47 C 944.931 1645.32 1016.68 1619.95 1027.98 1616.87 C 1038.12 1614.11 1048.19 1612.36 1058.65 1611.41 z"/>
<path transform="translate(0,0)" fill="rgb(230,161,159)" d="M 1764.85 1414.29 C 1769.47 1419.89 1784.37 1420.44 1791.34 1421.11 A 374.327 374.327 0 0 0 1833.31 1423 C 1833.29 1428.81 1831.51 1445.22 1834.88 1449.41 C 1850.2 1454.45 1866.91 1461.63 1878.8 1472.86 L 1885.47 1477.51 C 1891.64 1471.98 1898.67 1467.31 1904.22 1461.13 C 1905.72 1473.09 1925.23 1501.75 1934.79 1509.04 C 1935.73 1509.76 1936.66 1510.39 1937.7 1510.95 C 1928.55 1516.13 1920.2 1522.54 1910.98 1527.69 C 1917.42 1546.72 1919.58 1566.07 1914.85 1585.81 C 1913.54 1591.29 1911.39 1596.52 1910.06 1601.98 C 1916.22 1606.2 1922.49 1610.33 1928.25 1615.09 C 1932.4 1618.03 1936.68 1620.85 1940.45 1624.27 L 1930.23 1638.84 C 1922.88 1647.4 1917 1657.43 1909.81 1666.22 C 1900.89 1660.54 1891.96 1654.94 1882.78 1649.67 C 1866.44 1667.48 1848.41 1676.94 1826.42 1686.09 C 1825.56 1697.04 1826.26 1708.59 1826.22 1719.62 C 1806.44 1720.26 1786.49 1719.59 1766.7 1719.49 C 1766.77 1709 1768.56 1694.64 1765.11 1684.75 C 1754.3 1676.99 1738.94 1675.48 1727.68 1667.53 C 1720.61 1662.53 1708.97 1647.94 1700.24 1647.54 C 1695.37 1647.32 1684.51 1658.7 1680.71 1662.05 A 471.714 471.714 0 0 1 1661.46 1623.37 C 1670.46 1617.48 1680.01 1614.23 1687.95 1606.65 C 1678.24 1578.09 1677.62 1556.07 1683.29 1526.58 C 1674.1 1519.28 1662.98 1513.84 1652.74 1508.11 C 1663.45 1489.69 1674.76 1474.83 1689.9 1459.89 C 1696.09 1466.11 1702.75 1471.44 1710.03 1476.34 C 1720.82 1471.01 1728.5 1461 1739.24 1455.33 C 1746.04 1451.74 1761.43 1450.52 1765.84 1444.63 C 1768.57 1440.99 1765.33 1419.48 1764.85 1414.29 z"/>
<path transform="translate(0,0)" fill="rgb(239,198,195)" d="M 1834.88 1449.41 C 1850.2 1454.45 1866.91 1461.63 1878.8 1472.86 C 1878.67 1473.02 1878.58 1473.21 1878.42 1473.34 C 1876.94 1474.62 1876.05 1474.98 1874.1 1474.47 C 1869.82 1473.35 1835.1 1453.76 1833.76 1450.73 L 1834.88 1449.41 z"/>
<path transform="translate(0,0)" fill="rgb(239,198,195)" d="M 1928.25 1615.09 C 1932.4 1618.03 1936.68 1620.85 1940.45 1624.27 L 1930.23 1638.84 C 1925.07 1633.61 1920.27 1627.86 1915.34 1622.4 C 1919.41 1619.66 1923.95 1617.45 1928.25 1615.09 z"/>
<path transform="translate(0,0)" fill="rgb(189,120,118)" d="M 1724.81 1611.78 L 1723.75 1614.33 L 1724.13 1613.55 L 1721.94 1614.82 C 1716.38 1610.9 1712.01 1601.13 1709.35 1595.02 C 1700.74 1575.22 1699.17 1550.69 1707.38 1530.52 C 1716.72 1507.59 1735.97 1486.96 1759.09 1477.64 C 1776.42 1470.64 1805.4 1469.19 1822.76 1476.47 C 1822.47 1476.73 1815.85 1476.92 1813.18 1477.86 L 1813.21 1479.12 C 1817.36 1481.23 1822.07 1481.74 1826.03 1484.08 L 1825.86 1485.29 C 1802.33 1477.56 1779.76 1475.94 1757.1 1487.47 C 1737.62 1497.39 1722.69 1513.56 1715.9 1534.47 C 1708.56 1557.05 1709.93 1583.8 1721.01 1604.94 A 171.873 171.873 0 0 0 1724.81 1611.78 z"/>
<path transform="translate(0,0)" fill="url(#Gradient1)" d="M 1724.81 1611.78 A 171.873 171.873 0 0 1 1721.01 1604.94 C 1709.93 1583.8 1708.56 1557.05 1715.9 1534.47 C 1722.69 1513.56 1737.62 1497.39 1757.1 1487.47 C 1779.76 1475.94 1802.33 1477.56 1825.86 1485.29 C 1847.9 1496.81 1863.88 1513.17 1871.45 1537.33 C 1878.54 1560 1877.71 1588.34 1866.47 1609.55 C 1857.69 1626.12 1842.52 1640.02 1824.43 1645.51 C 1802.68 1652.12 1774.13 1648.63 1754.2 1637.86 C 1744.06 1632.38 1735.02 1623.57 1727.55 1614.91 L 1724.81 1611.78 z"/>
<path transform="translate(0,0)" fill="rgb(254,254,254)" d="M 1846.48 1620.87 L 1848.07 1622.06 C 1848.17 1624.76 1846.59 1625.58 1844.87 1627.54 L 1842.86 1625.69 C 1843.95 1623.97 1845.2 1622.44 1846.48 1620.87 z"/>
<path transform="translate(0,0)" fill="rgb(0,0,0)" d="M 1798.54 1492.39 A 60.6919 60.6919 0 0 1 1842.87 1506.61 C 1858.03 1519.52 1867.13 1540.57 1868.54 1560.23 C 1869.86 1578.66 1862.48 1597.41 1850.31 1611.13 C 1837.42 1625.67 1821.73 1631.67 1802.68 1632.93 C 1786.02 1632.77 1769.44 1627.53 1756.2 1617.29 A 67.2392 67.2392 0 0 1 1730.32 1572.01 A 70.2517 70.2517 0 0 1 1745.47 1519.23 C 1758.59 1503.22 1778.25 1494.41 1798.54 1492.39 z"/>
<path transform="translate(0,0)" fill="rgb(254,254,254)" d="M 1797.02 1509.41 C 1809.17 1509.63 1820.5 1512.48 1830.24 1520.09 C 1841.59 1528.95 1848.29 1541.83 1849.98 1556.01 C 1851.76 1570.94 1848.32 1586.29 1838.66 1598.09 C 1828.13 1610.96 1814.59 1614.57 1798.85 1616.16 C 1786.01 1615.65 1774.28 1612.87 1763.77 1604.94 A 50.9985 50.9985 0 0 1 1743.97 1570.03 C 1742.26 1555.68 1746.25 1539.91 1755.42 1528.63 C 1766.07 1515.54 1780.95 1510.89 1797.02 1509.41 z"/>
<path transform="translate(0,0)" fill="rgb(254,254,254)" d="M 702.517 1576.41 C 704.695 1576.44 705.519 1576.76 707.411 1577.78 C 714.36 1581.5 720.915 1586.58 727.557 1590.86 C 736.303 1596.49 745.311 1601.36 754.614 1605.99 C 742.41 1605.86 730.085 1605.51 717.946 1607.01 C 697.863 1609.48 654.134 1622.47 635.549 1631.1 C 631.82 1632.83 628.05 1634.56 626.585 1638.55 C 632.276 1642.78 656.814 1633.47 663.608 1631.48 C 682.761 1625.87 703.601 1619.79 723.418 1617.56 C 775.856 1611.66 825.189 1640.18 873.562 1656.13 C 867.564 1684.49 860.503 1712.62 854.808 1741.05 C 849.446 1767.82 845.46 1794.83 841.145 1821.78 C 820.441 1807.23 800.271 1798.78 776.242 1791.62 C 702.178 1770.3 620.053 1781.18 548.202 1806.05 C 525.078 1814.06 503.213 1824.97 479.947 1832.85 C 483.603 1816.8 489.842 1800.83 494.96 1785.15 L 524.321 1695.43 C 555.332 1686.39 587.099 1674.33 616.84 1661.74 C 618.509 1640.34 617.105 1618.27 616.597 1596.82 C 644.527 1587.51 673.148 1579.58 702.517 1576.41 z"/>
<path transform="translate(0,0)" fill="rgb(0,0,0)" d="M 719.947 1661.4 C 747.849 1658.18 789.716 1674.9 811.198 1691.58 C 814.147 1693.87 815.815 1695.76 816.313 1699.5 C 815.214 1701.07 814.511 1702.77 812.292 1702.8 C 811.608 1702.81 764.118 1680.27 758.49 1678.29 C 724.614 1666.38 693.26 1676.64 660.268 1686.33 C 635.572 1693.04 610.906 1700.33 585.932 1705.91 C 578.895 1707.48 571.267 1709.8 564.065 1710.07 C 560.411 1710.21 556.872 1709.34 554.21 1706.76 C 554.164 1705.34 553.893 1705.42 554.686 1704.42 C 556.688 1701.87 560.341 1700.35 563.324 1699.33 C 581.548 1693.1 604.34 1689.64 623.308 1684.78 C 655.341 1676.57 686.864 1664.55 719.947 1661.4 z"/>
<path transform="translate(0,0)" fill="rgb(0,0,0)" d="M 697.582 1717.34 C 720.92 1713.75 748.942 1718.29 770.709 1727.03 C 778.851 1730.3 803.221 1739.73 806.125 1748.44 C 806.599 1749.86 805.948 1750.24 805.277 1751.43 C 803.027 1752.56 801.242 1753.42 798.656 1753.18 C 791.516 1752.55 770.264 1738.04 760.125 1734.81 C 721.178 1722.43 693.257 1728.63 654.884 1738.47 C 640.41 1742.15 553.887 1763.63 547.214 1761.81 C 544.306 1761.02 544.078 1760.58 542.764 1758.1 C 542.893 1756.19 542.946 1755.29 544.092 1753.66 C 545.335 1751.9 547.924 1751.4 549.955 1750.89 C 577.134 1744.14 604.714 1738.63 632.003 1732.11 C 653.508 1726.98 675.621 1719.85 697.582 1717.34 z"/>
<path transform="translate(0,0)" fill="rgb(254,254,254)" d="M 971.314 549.41 C 1002.27 547.854 1038.16 558.031 1063.11 576.602 A 150.528 150.528 0 0 1 1121.7 676.252 C 1126.76 711.641 1117.12 750.912 1095.56 779.574 C 1071.71 811.281 1036.31 829.517 997.574 834.929 C 959.713 835.994 924.255 826.885 894.743 802.225 C 864.944 777.325 847.722 741.686 844.476 703.289 C 841.377 666.627 849.43 628.709 873.637 600.235 C 899.42 569.906 931.549 552.816 971.314 549.41 z"/>
<path transform="translate(0,0)" fill="rgb(0,0,0)" d="M 897.201 630.313 C 908.91 631.269 917.633 635.699 926.128 643.731 C 949.844 666.155 961.447 700.974 962.129 732.969 C 962.558 753.071 958.878 780.511 944.054 795.43 C 937.896 801.627 930.62 804.617 921.962 804.743 C 913.173 803.493 905.5 799.844 898.474 794.511 C 874.428 776.257 859.066 743.679 855.147 714.277 C 852.153 691.811 854.314 663.965 869.065 645.614 C 876.597 636.244 885.522 631.782 897.201 630.313 z"/>
<path transform="translate(0,0)" fill="rgb(254,254,254)" d="M 893.038 651.913 C 895.471 652.042 898.191 652.385 900.501 653.168 C 906.836 655.315 911.926 662.718 914.436 668.558 C 918.71 678.498 920.379 692.872 916.234 703.059 C 914.202 708.055 911.738 710.349 906.845 712.444 C 898.12 709.222 891.844 700.54 887.731 692.504 C 883.071 683.4 880.025 671.512 883.616 661.548 C 885.472 656.398 888.186 654.173 893.038 651.913 z"/>
<path transform="translate(0,0)" fill="rgb(254,254,254)" d="M 1307.69 1268.32 C 1352.08 1266.88 1396.86 1268.13 1441.29 1268.18 L 1677.73 1268.08 L 1766.98 1268.01 C 1778.12 1267.97 1799.53 1266.05 1809.58 1268.59 C 1814.54 1269.84 1816.38 1273.4 1819.07 1277.41 C 1817.08 1292.87 1812.46 1308.49 1808.96 1323.69 C 1803.94 1345.45 1799.46 1367.34 1794.25 1389.05 C 1784.68 1389.07 1775.09 1389.42 1765.52 1389.67 C 1758.56 1389.85 1748.35 1388.89 1743.35 1394.66 C 1736.59 1402.45 1740.25 1419.16 1741.02 1428.72 C 1729.52 1433.21 1718.93 1438.83 1708.29 1445.04 C 1704.48 1441 1700.44 1436.16 1695.79 1433.15 C 1693.47 1431.65 1691.27 1431.01 1688.52 1431.79 C 1673.33 1436.12 1644.33 1472.63 1636.83 1486.53 C 1632.95 1493.73 1622.57 1512.11 1626.25 1520.27 C 1629.78 1528.09 1646.71 1533.74 1654.25 1537.18 C 1651.34 1558.09 1652.13 1576.79 1657.64 1597.16 C 1649.71 1601.59 1637.94 1606.31 1634.89 1615.54 C 1631.42 1626.01 1649.35 1653.38 1654.67 1663.46 C 1651.81 1675.77 1647.55 1688 1644.15 1700.2 A 5521.89 5521.89 0 0 0 1622.87 1778.76 C 1615.7 1806.31 1607.43 1833.51 1600.07 1861.01 C 1483.93 1862.41 1367.54 1861.71 1251.39 1861.57 L 1173.34 1861.72 C 1161.52 1861.67 1144.49 1863.15 1133.25 1859.94 C 1129.39 1858.84 1125.64 1856.71 1123.87 1852.92 C 1122.06 1849.03 1122.63 1844.43 1123.62 1840.41 C 1126.29 1829.46 1130.63 1818.47 1133.89 1807.61 C 1145.67 1768.44 1158.88 1729.78 1170.9 1690.7 A 13172 13172 0 0 1 1307.69 1268.32 z"/>
<path transform="translate(0,0)" fill="rgb(0,0,0)" d="M 1280.2 1585.21 A 21061.4 21061.4 0 0 1 1499.13 1586.8 C 1513.39 1586.86 1579.1 1584.9 1586.03 1587.19 C 1588.33 1587.95 1588.47 1589 1589.4 1591.03 C 1589.06 1593.9 1588.53 1595.08 1586.76 1597.37 C 1571.52 1598.71 1555.47 1597.33 1540.13 1597.14 L 1447.09 1596.17 L 1338.4 1595.82 C 1320.83 1595.79 1302.77 1596.75 1285.27 1595.59 C 1281.84 1595.36 1280.21 1594.77 1278.04 1592.14 C 1277.78 1588.92 1278.58 1587.84 1280.2 1585.21 z"/>
<path transform="translate(0,0)" fill="rgb(0,0,0)" d="M 1224.01 1803.33 C 1239.61 1802.9 1255.43 1803.65 1271.05 1803.7 L 1382.03 1804.23 L 1472.82 1804.73 C 1485.35 1804.79 1498.22 1804.04 1510.68 1804.59 C 1513.93 1804.73 1516.35 1805.11 1519.33 1806.38 C 1520.58 1807.96 1521.59 1808.78 1520.99 1810.99 C 1520.32 1813.45 1519.06 1813.92 1517.02 1815.01 C 1447.86 1816.26 1378.41 1815.09 1309.23 1814.79 C 1288.66 1814.7 1237.27 1817.07 1221.43 1812.96 C 1219.32 1811.15 1219.4 1811.24 1219.04 1808.48 C 1220.63 1805.47 1221.1 1805.13 1224.01 1803.33 z"/>
<path transform="translate(0,0)" fill="rgb(0,0,0)" d="M 1240.19 1733.05 L 1525.06 1733.92 C 1530.61 1733.93 1536.8 1732.81 1540.98 1737 C 1541.79 1739.87 1541.2 1741.61 1540.39 1744.36 C 1526.2 1746.84 1509.02 1745 1494.59 1744.91 L 1392.79 1744.01 L 1289.62 1744.03 C 1275.17 1744.05 1259.06 1745.58 1244.8 1744.17 C 1242.05 1743.9 1241.16 1743.17 1239.37 1741.17 C 1238.71 1738.06 1239.35 1736 1240.19 1733.05 z"/>
<path transform="translate(0,0)" fill="rgb(0,0,0)" d="M 1263.57 1654.25 A 96.0566 96.0566 0 0 1 1268.69 1654.12 L 1467.86 1654.71 L 1529.49 1655.09 C 1538.71 1655.15 1548.45 1654.45 1557.61 1655.28 C 1560.37 1655.53 1561.5 1656.27 1563.42 1658.18 C 1564.15 1661.34 1563.59 1662.89 1562.46 1665.78 A 114.882 114.882 0 0 1 1558.5 1666.16 C 1541.08 1667.53 1522.8 1666.39 1505.29 1666.32 L 1400.67 1665.79 L 1315.34 1665.71 C 1300.2 1665.71 1284.34 1666.4 1269.28 1665.14 C 1266.35 1664.89 1265.15 1664.58 1262.9 1662.68 C 1261.85 1659.46 1262.66 1657.35 1263.57 1654.25 z"/>
<path transform="translate(0,0)" fill="rgb(254,254,254)" d="M 1276.53 184.87 L 1935.28 184.718 C 1936.59 220.522 1936.04 256.459 1936.01 292.285 L 1935.43 480.476 L 1935.68 969.078 C 1873.34 968.241 1810.88 968.839 1748.52 968.858 L 1418.51 969.054 C 1379.67 928.655 1329.52 907.568 1276.07 894.503 A 60199.4 60199.4 0 0 1 1276.53 184.87 z"/>
<path transform="translate(0,0)" fill="rgb(0,0,0)" d="M 1322.89 265.381 C 1340.83 264.693 1450.22 262.522 1459.29 267.753 C 1460.83 270.291 1461.16 270.652 1461.08 273.576 C 1459.43 276.303 1457.94 277.036 1455.18 278.327 A 4911.75 4911.75 0 0 0 1367.55 278.452 C 1353.82 278.579 1338.95 279.874 1325.34 278.589 C 1322.64 278.334 1320.77 278.131 1318.61 276.327 C 1317.45 273.752 1316.94 272.822 1317.77 269.925 C 1318.55 267.193 1320.54 266.412 1322.89 265.381 z"/>
<path transform="translate(0,0)" fill="rgb(0,0,0)" d="M 1331.27 869.47 C 1438.59 867.441 1546.16 869.843 1653.49 869.849 C 1680.22 869.851 1871.62 868.06 1879.42 871.002 C 1881.93 871.952 1882.62 872.735 1883.66 875.138 C 1883.24 877.013 1882.84 877.705 1881.46 879.141 C 1877.7 883.042 1872.6 882.191 1867.67 882.088 C 1805.05 883.965 1742.13 882.979 1679.48 882.989 L 1439.45 883.246 A 3989.42 3989.42 0 0 0 1373.57 883.297 C 1359.5 883.408 1340.11 885.651 1326.71 882.475 C 1323.54 881.723 1321.1 880.788 1319.31 877.942 C 1319.44 875.25 1319.9 874.08 1321.36 871.823 C 1324.51 869.711 1327.57 869.746 1331.27 869.47 z"/>
<path transform="translate(0,0)" fill="rgb(0,0,0)" d="M 1851.8 245.14 C 1857.72 244.943 1863.37 245.347 1868.8 247.933 C 1875.2 250.984 1879.81 256.386 1882.13 263.056 C 1884.86 270.923 1884.28 280.443 1880.54 287.889 A 27.291 27.291 0 0 1 1863.69 301.956 C 1854.01 304.825 1844.76 302.644 1836.04 298.119 C 1795.98 321.735 1759.01 350.309 1720.46 376.315 C 1720.7 385.875 1719.84 394.43 1714.3 402.632 C 1709.48 409.767 1702.22 414.836 1693.67 416.214 C 1683.61 417.833 1674.72 414.079 1666.63 408.494 C 1649.92 415.307 1634.32 428.286 1619.59 438.542 A 3127.34 3127.34 0 0 1 1577.56 466.946 C 1581.18 476.467 1583.12 487.044 1578.63 496.662 C 1574.98 504.479 1567.6 510.015 1559.57 512.767 C 1550.98 515.709 1542.25 514.996 1534.21 510.794 C 1526.36 506.69 1519.86 499.746 1517.27 491.177 C 1514 480.356 1517.27 470.514 1522.46 461.045 C 1513.34 452.048 1503 443.899 1493.37 435.407 A 3577.56 3577.56 0 0 1 1436.97 384.594 C 1425.13 390.043 1417.8 389.446 1405.5 386.379 C 1398.79 392.319 1392.73 399.056 1386.1 405.116 C 1372.53 417.516 1358.34 429.322 1344.38 441.284 C 1341.06 444.431 1337.31 448.687 1333.42 451.001 C 1331.06 452.401 1329.73 452.303 1327.16 451.733 C 1325.23 449.536 1324.52 448.941 1323.91 446.13 C 1327.69 438.154 1387.59 390.085 1399.37 377.743 C 1398.32 375.84 1397.32 373.946 1396.45 371.954 C 1393.01 364.033 1391.8 355.051 1395.29 346.917 C 1398.26 339.976 1404.5 334.511 1411.52 331.895 C 1419.34 328.981 1427.77 329.596 1435.21 333.304 A 28.6965 28.6965 0 0 1 1449.98 350.409 C 1453.02 360.162 1450.24 369.245 1445.86 377.988 C 1457.95 389.471 1471.05 400.16 1483.45 411.342 C 1499.23 425.574 1514.52 440.39 1530.59 454.293 C 1546.88 449.043 1555.04 450.629 1570.28 457.715 C 1600.56 440.868 1630.94 417.567 1659.83 397.908 A 204.219 204.219 0 0 1 1659.12 394.094 C 1657.4 384.29 1658.34 374.886 1664.41 366.651 C 1669.59 359.623 1677.74 355.243 1686.38 354.324 C 1698.31 353.056 1706.12 358.406 1714.82 365.55 C 1726.44 359.958 1737.27 351.092 1747.94 343.869 L 1828.77 288.019 C 1827.81 286.067 1826.8 284.063 1826.19 281.968 C 1824.11 274.871 1825.49 266.648 1829.2 260.347 C 1834.32 251.676 1842.34 247.523 1851.8 245.14 z"/>
<path transform="translate(0,0)" fill="rgb(56,183,238)" d="M 1421.49 341.184 C 1424.03 341.312 1426.73 341.726 1429.07 342.775 C 1433.37 344.699 1436.94 348.51 1438.53 352.933 C 1440.37 358.039 1439.68 363.651 1437.19 368.409 C 1433.99 374.527 1428.89 376.847 1422.57 378.853 C 1420.08 378.697 1417.3 378.66 1414.99 377.625 C 1410.5 375.616 1406.78 371.011 1405.36 366.36 A 20.3587 20.3587 0 0 1 1407.51 349.814 C 1410.82 344.44 1415.58 342.514 1421.49 341.184 z"/>
<path transform="translate(0,0)" fill="rgb(56,183,238)" d="M 1847.11 257.213 C 1850.7 256.794 1854.53 256.249 1858.11 257.004 C 1863.02 258.038 1867.95 261.986 1870.47 266.257 C 1872.85 270.273 1873.8 274.833 1872.51 279.376 C 1870.76 285.525 1866.69 288.555 1861.25 291.329 C 1858.26 291.964 1854.72 292.272 1851.71 291.619 C 1846.55 290.498 1841.55 287.138 1838.69 282.691 A 16.8224 16.8224 0 0 1 1836.52 269.407 C 1838.04 263.545 1842.24 260.319 1847.11 257.213 z"/>
<path transform="translate(0,0)" fill="rgb(56,183,238)" d="M 1683.31 366.151 C 1686.67 366.005 1690.12 365.766 1693.42 366.568 C 1699.09 367.948 1704.26 371.708 1707 376.901 A 18.0325 18.0325 0 0 1 1708.02 391.656 C 1705.67 398.138 1700.8 401.512 1694.88 404.472 C 1690.76 405.501 1686.98 405.598 1682.91 404.246 A 18.9705 18.9705 0 0 1 1671.52 394.146 A 21.1536 21.1536 0 0 1 1670.85 377.919 C 1673.24 371.32 1677.1 368.854 1683.31 366.151 z"/>
<path transform="translate(0,0)" fill="rgb(56,183,238)" d="M 1542 462.037 C 1546.22 461.837 1550.35 461.849 1554.4 463.239 C 1559.98 465.158 1564.9 469.435 1567.37 474.813 C 1569.57 479.58 1569.93 485.136 1568.06 490.073 C 1565.49 496.826 1560.39 500.233 1554.03 502.997 C 1550.86 503.213 1547.22 503.428 1544.11 502.661 C 1538.29 501.224 1532.85 496.849 1530 491.612 C 1527.42 486.87 1526.73 481.267 1528.36 476.097 C 1530.55 469.141 1535.75 465.215 1542 462.037 z"/>
<path transform="translate(0,0)" fill="rgb(0,0,0)" d="M 1726.59 488.466 C 1763.32 486.719 1800.49 487.922 1837.27 487.963 C 1838.09 524.291 1837.61 560.699 1837.6 597.036 L 1837.05 801.812 C 1848.44 801.856 1870.75 798.78 1880.88 803.065 C 1883.36 804.113 1884.18 805.062 1885.31 807.425 C 1884.96 809.429 1885 810.772 1883.12 812.002 C 1882.61 812.334 1882.03 812.545 1881.46 812.772 C 1876.39 814.812 1765.31 814.472 1748.85 814.677 C 1695.63 815.337 1642.37 814.847 1589.15 814.94 L 1408.54 815.443 C 1395.99 815.393 1335.69 816.808 1327.43 814.653 C 1323.67 813.673 1320.97 812.138 1318.96 808.745 C 1319.09 807.34 1318.83 806.759 1319.93 805.699 C 1326.52 799.363 1356.25 802.186 1366.27 802.288 L 1365.77 565.25 L 1365.83 549.354 L 1478.87 549.213 C 1480.55 633.3 1478.44 717.655 1479.01 801.783 L 1539.93 801.982 A 8905.53 8905.53 0 0 0 1539.22 600.07 L 1656.08 600.021 L 1656.15 802.451 C 1679.37 803.151 1702.78 802.517 1726.02 802.452 C 1725.85 774.544 1724.35 492.389 1725.4 489.99 C 1725.66 489.4 1726.19 488.974 1726.59 488.466 z"/>
<path transform="translate(0,0)" fill="rgb(27,54,105)" d="M 1551.8 612.012 A 5140.67 5140.67 0 0 0 1644.38 612.154 C 1644.07 636.132 1645.55 796.213 1642.73 800.997 A 2877.51 2877.51 0 0 0 1551.45 801.881 C 1550.41 738.679 1551.49 675.223 1551.8 612.012 z"/>
<path transform="translate(0,0)" fill="rgb(249,204,110)" d="M 1380.6 561.451 C 1409.11 561.413 1437.69 561.036 1466.19 561.698 L 1466.07 746.855 C 1466.07 755.716 1467.61 794.601 1465.97 800.033 C 1465.76 800.725 1465.13 801.209 1464.71 801.798 L 1379.07 801.904 L 1378.92 617.107 C 1378.91 608.502 1377.52 567.422 1379.07 562.997 C 1379.31 562.313 1380.09 561.966 1380.6 561.451 z"/>
<path transform="translate(0,0)" fill="rgb(56,183,238)" d="M 1737.98 499.622 L 1825.01 499.922 C 1826.91 536.068 1825.88 572.641 1825.92 608.854 L 1825.95 800.988 A 5499.78 5499.78 0 0 0 1738.29 802.092 L 1737.98 499.622 z"/>
<path transform="translate(0,0)" fill="rgb(79,188,196)" d="M 374.326 910.752 C 374.596 903.2 362.492 878.507 359.017 869.997 C 348.496 844.236 340.37 816.223 335.557 788.796 C 329.862 756.343 325.508 722.635 325.582 689.627 C 325.701 636.254 338.82 566.576 357.19 516.516 C 369.521 482.912 386.945 448.563 407.66 419.295 C 465.153 338.063 557.417 273.49 656.339 256.706 C 754.779 240.004 855.197 268.106 935.743 325.528 C 1016.78 383.298 1072.05 472.56 1098.49 567.581 C 1101.98 580.11 1106.35 593.062 1108.51 605.873 C 1077.89 567.282 1043.9 542.767 993.728 537.162 C 954.234 532.749 916.838 544.051 885.938 569.023 C 854.027 594.814 834.92 629.574 830.881 670.507 A 166.563 166.563 0 0 0 867.809 793.92 C 893.411 824.788 928.647 845.423 968.984 848.811 C 1008.96 852.168 1047.45 839.345 1079.81 816.15 C 1075.87 843.197 1059.98 891.956 1049.15 917.83 C 1044.56 928.79 1016.49 978.459 1016.55 983.517 C 1007.86 996.189 994.7 1007.68 983.42 1018.09 C 939.338 1058.76 891.619 1092.83 835.328 1114.56 C 821.843 1119.76 808.06 1123.96 794.155 1127.88 C 785.99 1130.18 776.67 1131.88 769.004 1135.41 C 851.467 1133.97 909.539 1101.86 976.238 1058.09 L 996.347 1043.06 C 1010.59 1058.1 1023.37 1074.43 1037.97 1089.25 C 1085.72 1137.74 1152.5 1185.4 1220.13 1198.9 C 1256.03 1206.07 1297.33 1202.36 1328.28 1181.43 C 1353.99 1164.04 1369.31 1135.5 1375.15 1105.56 C 1382.51 1067.81 1374.73 1036.99 1353.39 1005.47 C 1348.05 1000.14 1343.33 994.107 1337.69 989.089 C 1321.72 974.883 1300.33 963.533 1280.3 956.259 C 1270.3 952.629 1258.21 950.307 1248.99 945.173 C 1245.05 942.985 1241.47 939.026 1241.48 934.242 C 1241.49 931.58 1243.15 929.253 1245.1 927.591 C 1247.79 925.305 1251.02 923.842 1254.28 922.592 C 1268.34 923.619 1282.59 927.349 1296.02 931.502 C 1338.75 944.712 1376.57 966.016 1405.96 1000.31 A 183.466 183.466 0 0 1 1449.25 1135.69 C 1446.29 1172.97 1431.8 1206.7 1413.93 1239.07 A 5729.39 5729.39 0 0 1 1343.01 1239.16 C 1330.6 1239.15 1317.04 1238.07 1304.81 1239.81 C 1299.16 1240.61 1291.97 1242.51 1287.88 1246.78 C 1276.23 1258.95 1266.24 1299.71 1261.03 1316.74 C 1168.83 1337.74 1061.36 1298.86 980.375 1256.93 C 976.986 1247.58 959.506 1185.92 956.492 1183.49 L 955.833 1188.73 C 959.449 1217.8 962.409 1247.98 969.918 1276.32 C 989.737 1351.12 1037.87 1421.15 1098.69 1468.41 A 306.265 306.265 0 0 0 1160.97 1506.44 C 1171.52 1511.31 1182.69 1515.26 1193.02 1520.52 C 1190.91 1526.26 1188.86 1532.03 1186.68 1537.75 C 1183.67 1546.68 1181.22 1555.77 1178.67 1564.84 C 1171.49 1565.76 1164.62 1567.27 1157.6 1569 C 1136.2 1562.8 1118.42 1553.26 1095.5 1552.7 C 1085.18 1552.44 1074.82 1555.04 1064.57 1554.54 C 1051.73 1553.91 1037.89 1548.64 1025.98 1544.18 C 948.497 1515.21 872.011 1451.68 817.278 1390.81 C 802.679 1374.57 773.938 1341.23 767.399 1321.61 C 765.061 1314.59 764.839 1306.53 765.276 1299.2 C 767.445 1262.8 783.452 1237.32 810.153 1213.81 L 808.257 1214.49 C 781.361 1224.25 762.769 1244.25 750.997 1269.99 C 728.41 1319.37 736.044 1383.27 754.78 1432.59 C 762.199 1452.11 771.992 1471.41 784.116 1488.45 C 818.612 1536.93 876.296 1580.05 930.238 1604.46 C 916.917 1612.93 900.408 1618.95 886 1625.57 C 872.857 1623.77 859.653 1619.24 847.058 1615.15 C 794.245 1598.02 745.48 1573.04 703.351 1536.63 A 434.446 434.446 0 0 1 560.816 1294.03 C 556.508 1271.98 554.95 1249.72 553.307 1227.35 C 547.397 1260.77 549.083 1292.42 553.785 1325.74 C 542.5 1349.66 532.513 1374.09 520.474 1397.68 C 505.256 1427.51 486.083 1456.42 465.921 1483.1 A 3436.84 3436.84 0 0 1 352.103 1472.56 L 355.35 1471.98 C 363.087 1464.59 367.791 1452.41 372.373 1442.87 C 381.015 1424.86 389.107 1406.43 395.068 1387.34 C 418.743 1311.52 422.817 1230.36 445.239 1153.52 C 454.003 1123.48 466.335 1100.8 481.069 1073.79 C 544.02 1112.72 617.32 1141.35 692.376 1138.47 C 659.45 1130.6 627.757 1124.54 596.204 1111.75 C 518.665 1080.32 453.498 1023.27 403.951 956.641 C 393.573 942.685 381.135 926.834 374.326 910.752 z"/>
<path transform="translate(0,0)" fill="rgb(0,0,0)" d="M 962.341 459.166 C 968.823 458.63 974.424 458.818 980.555 461.259 C 989.218 464.709 998.888 472.185 1002.51 481.041 C 1003.57 483.618 1004.03 486.785 1002.51 489.292 C 1000.4 492.762 996.628 493.745 992.939 494.521 C 981.931 492.11 959.221 483.246 953.2 473.157 C 952.143 471.385 951.638 469.138 952.287 467.16 C 953.827 462.465 958.217 461.107 962.341 459.166 z"/>
<path transform="translate(0,0)" fill="rgb(0,0,0)" d="M 503.672 529.318 C 505.389 529.333 507.033 529.392 508.741 529.551 C 512.79 529.927 515.141 530.476 517.825 533.774 C 518.425 535.924 518.638 537.426 517.794 539.566 C 511.675 555.068 490.374 568.428 475.605 574.461 C 472.477 575.301 467.902 577.099 464.666 576.025 C 462.568 575.328 461.128 573.966 460.477 571.831 C 458.634 565.787 465.04 555.753 468.572 550.899 C 477.159 539.097 489.3 531.561 503.672 529.318 z"/>
<path transform="translate(0,0)" fill="rgb(0,0,0)" d="M 877.14 900.739 C 878.323 900.758 879.84 900.689 881.02 900.953 C 883.36 901.476 885.166 902.691 886.218 904.91 C 889.215 911.233 884.517 926.175 882.687 932.578 C 875.645 957.225 858.656 977.308 836.338 989.693 A 98.2206 98.2206 0 0 1 759.69 998.38 C 734.732 990.987 718.059 976.012 705.685 953.473 C 704.083 949.41 702.497 945.265 702.636 940.832 C 702.732 937.745 702.905 934.417 705.256 932.192 C 715.062 931.499 718.481 950.315 722.967 957.298 C 726.127 962.218 731.015 966.683 735.493 970.445 C 751.62 983.997 774.014 990.299 794.866 988.276 C 831.233 984.747 860.33 961.752 869.768 926.269 C 871.729 918.896 871.778 907.125 876.54 901.433 C 876.736 901.198 876.94 900.97 877.14 900.739 z"/>
<path transform="translate(0,0)" fill="rgb(254,254,254)" d="M 1186.68 1537.75 C 1146.63 1531.25 1092.07 1498.61 1061.48 1472.13 C 1011.36 1428.76 978.153 1381.85 956.449 1319.01 C 948.285 1295.37 941.967 1269.88 940.282 1244.84 C 938.829 1223.23 941.005 1205.56 955.833 1188.73 C 959.449 1217.8 962.409 1247.98 969.918 1276.32 C 989.737 1351.12 1037.87 1421.15 1098.69 1468.41 A 306.265 306.265 0 0 0 1160.97 1506.44 C 1171.52 1511.31 1182.69 1515.26 1193.02 1520.52 C 1190.91 1526.26 1188.86 1532.03 1186.68 1537.75 z"/>
<path transform="translate(0,0)" fill="rgb(254,254,254)" d="M 1353.39 1005.47 C 1363.5 1007.95 1378.94 1030.79 1384.21 1039.51 C 1398.67 1063.48 1402.27 1093.11 1395.35 1120.04 C 1386.7 1153.77 1363.58 1182.09 1333.78 1199.66 C 1290.29 1225.31 1240.53 1228.51 1192.52 1215.8 C 1120.25 1196.68 1057.32 1148.06 1007.11 1094.14 C 996.604 1082.85 984.871 1070.84 976.238 1058.09 L 996.347 1043.06 C 1010.59 1058.1 1023.37 1074.43 1037.97 1089.25 C 1085.72 1137.74 1152.5 1185.4 1220.13 1198.9 C 1256.03 1206.07 1297.33 1202.36 1328.28 1181.43 C 1353.99 1164.04 1369.31 1135.5 1375.15 1105.56 C 1382.51 1067.81 1374.73 1036.99 1353.39 1005.47 z"/>
<path transform="translate(0,0)" fill="rgb(0,0,0)" d="M 581.408 592.405 C 616.902 588.687 657.442 601.227 685.725 622.612 A 162.652 162.652 0 0 1 747.735 730.025 C 753.404 773.657 739.535 815.48 712.692 849.909 C 687.413 882.333 651.382 898.875 611.243 903.81 C 570.877 907.869 532.307 895.376 500.973 869.919 C 467.704 842.89 446.003 805.268 441.85 762.448 C 437.904 721.758 448.999 680.463 475.459 648.938 C 502.436 616.797 539.505 596.135 581.408 592.405 z"/>
<path transform="translate(0,0)" fill="rgb(254,254,254)" d="M 588.617 605.409 C 621.401 604.623 653.878 614.573 679.598 635.044 C 709.642 658.957 731.062 696.749 735.133 735.069 C 739.222 773.566 725.495 814.524 700.995 844.274 C 676.691 873.785 641.502 888.454 604.163 892.153 C 568.208 892.745 535.039 881.957 507.566 858.59 C 477.374 832.91 457.446 797.915 454.523 758.02 C 451.767 720.401 463.259 681.43 488.285 652.868 C 513.818 623.729 550.276 607.899 588.617 605.409 z"/>
<path transform="translate(0,0)" fill="rgb(0,0,0)" d="M 506.901 678.206 C 520.29 677.549 530.811 680.895 541.507 689.103 C 566.253 708.09 582.341 740.807 586.365 771.346 C 589.324 793.802 587.032 824.066 572.278 842.44 C 565.411 850.993 557.073 855.118 546.347 856.474 C 535.05 856.009 524.703 852.942 515.123 846.947 C 490.043 831.251 473.5 802.15 467.282 773.802 C 461.995 749.701 463.486 720.98 477.367 699.88 C 484.501 689.035 494.001 680.903 506.901 678.206 z"/>
<path transform="translate(0,0)" fill="rgb(254,254,254)" d="M 504.508 700.996 C 504.837 700.963 505.166 700.915 505.496 700.896 C 511.832 700.543 516.596 702.98 521.17 707.28 C 529.971 715.553 534.55 729.159 534.62 741.038 C 534.671 749.601 532.609 757.197 526.467 763.318 L 525.972 763.273 C 525.626 763.244 525.28 763.223 524.935 763.191 C 517.332 762.472 511.413 758.024 506.692 752.19 C 499.113 742.824 493.878 728.262 495.411 716.203 C 496.278 709.377 499.216 705.181 504.508 700.996 z"/>
</svg>