<svg version="1.1" xmlns="http://www.w3.org/2000/svg" style="display: block;" viewBox="0 0 2048 2048" width="512" height="512">
<path transform="translate(0,0)" fill="rgb(172,193,222)" d="M 1329.77 588.763 C 1385.41 551.23 1415.65 557.192 1480.35 557.122 C 1511.76 557.088 1551.08 554.151 1581.11 559.747 C 1646.5 571.932 1702.11 627.831 1715.44 692.707 C 1730.61 766.537 1689.47 809.502 1650.57 863.308 C 1621.26 903.851 1589.85 943.272 1562.44 985.119 C 1593.6 1039.19 1618.65 1096.98 1646.19 1152.96 L 1685.4 1231.44 C 1718.84 1298.98 1740.54 1373.17 1677.5 1435.49 C 1615.03 1500.4 1537.21 1490.96 1455.13 1490.95 C 1395.18 1490.94 1369.38 1497.98 1315.57 1469.89 C 1250.76 1496.54 1246.84 1490.93 1176.17 1490.93 C 1129.78 1490.93 1067.3 1499.99 1027.58 1469.89 C 965.405 1499.47 938.194 1490.96 871.022 1490.97 C 823.252 1490.97 761.998 1500.48 723.085 1465.64 C 674.249 1496.09 644.95 1490.93 589.899 1490.9 C 551.429 1490.87 492.285 1494.43 456.07 1485.68 C 392.292 1470.26 338.826 1414.99 329.252 1349.66 C 324.294 1315.83 327 1268 327.006 1232.73 L 326.928 742.799 C 326.927 640.252 365.056 573.115 473.42 557.098 C 502.434 555.475 532.465 557.044 561.564 557.051 C 629.682 557.069 664.287 549.933 725.242 583.959 C 790.719 549.447 815.156 556.99 888.029 557.037 C 949.12 557.077 970.426 553.32 1027.58 575.232 C 1094.4 555.287 1104.82 557.059 1177.39 557.049 C 1246.25 557.039 1269.91 551.715 1329.77 588.763 z"/>
<path transform="translate(0,0)" fill="rgb(254,254,254)" d="M 484.843 621.902 C 501.957 619.946 526.972 621.875 544.943 621.911 C 613.744 622.048 698.773 605.2 723.085 690.975 C 736.026 640.043 776.595 622.131 826.475 621.907 L 896.035 621.858 C 949.338 621.904 987.434 616.129 1027.58 655.998 C 1067.98 613.675 1107.86 621.939 1161.25 621.913 C 1226.98 621.879 1308.97 609.882 1326.17 695.569 C 1345.38 667.615 1362.96 635.003 1398 625.459 C 1419 619.735 1545.51 620.293 1568.76 623.857 C 1605.59 629.501 1637.46 657.722 1646.9 694.018 C 1661.43 749.852 1624.91 780.196 1594.15 820.966 C 1560.42 865.663 1515.9 922.354 1487.51 970.586 L 1486.84 971.742 C 1494.05 994.066 1507 1016.26 1517.02 1037.58 C 1537.62 1081.42 1647.98 1289.6 1651.04 1323.75 C 1652.78 1370.79 1626.26 1413.13 1575.91 1419.03 C 1543.96 1422.78 1510.58 1421.03 1478.43 1421.09 C 1424.46 1421.18 1343.43 1434.01 1315.57 1373.84 C 1278.31 1435.03 1230.81 1421.15 1166.54 1421.16 C 1119.17 1421.16 1059.56 1431.27 1027.58 1387.17 C 1002.3 1405.36 989.353 1420.27 956.796 1421.57 C 914.357 1423.27 871.639 1420.57 829.11 1421.27 C 780.527 1422.06 737.669 1410.13 725.242 1354.04 C 702.958 1428.59 653.905 1421.33 594.029 1421.06 C 505.173 1420.67 397.349 1444.91 392.637 1317.75 C 390.931 1271.74 392.355 1225.16 392.358 1179.09 L 392.35 771.811 C 392.234 700.628 390.491 625.162 484.843 621.902 z"/>
<path transform="translate(0,0)" fill="rgb(254,183,19)" d="M 1411.4 684.779 C 1435.42 683.762 1459.83 684.763 1483.9 684.75 C 1515.88 684.732 1579.16 673.382 1584.29 719.282 C 1585.83 733.053 1543.47 778.3 1534.62 790.046 C 1513.99 817.402 1495.64 846.612 1475.71 874.507 L 1435.86 930.758 C 1427.85 942.123 1419.14 953.363 1412.29 965.458 L 1411.4 967.037 C 1422.33 980.596 1428.78 999.009 1435.92 1014.77 L 1457.44 1061.58 L 1574.58 1308.31 C 1582.51 1324.78 1605.5 1353.39 1575.55 1361.95 C 1563.17 1365.49 1421.1 1365.46 1391.84 1363.83 C 1363.25 1362.24 1360.05 1328.7 1353.78 1306.58 L 1291.49 1094.77 C 1264.27 1133.62 1264.51 1128.65 1264.96 1176.5 C 1264.96 1199.57 1267.07 1339.48 1263.69 1348.17 C 1254.02 1373.08 1190.15 1363.4 1167.23 1363.43 C 1045.81 1363.59 1068.34 1372.71 1068.33 1247.64 L 1068.36 839.389 C 1068.36 817.753 1063.26 708.863 1071.63 695.642 C 1081.24 680.445 1106.41 684.669 1121.55 684.707 L 1179.26 684.876 C 1199.37 684.924 1222.44 682.839 1242.21 685.025 C 1275.22 688.674 1264.95 738.263 1264.94 761.266 L 1264.96 865.856 C 1264.93 883.779 1263.77 901.877 1264.96 919.755 C 1298.1 862.836 1333.98 806.954 1369.51 751.489 C 1382.7 730.89 1397.1 703.503 1411.4 684.779 z"/>
<path transform="translate(0,0)" fill="rgb(212,2,116)" d="M 484.843 684.779 C 491.455 684.02 498.705 684.657 505.384 684.692 L 600.624 684.701 C 667.613 684.083 659.724 691.04 659.446 753.795 L 659.44 870.189 C 659.419 906.863 650.225 959.139 700.524 966.542 C 797.506 980.814 787.974 928.331 788.025 859.863 L 788 744.734 C 787.969 724.188 781.038 699.547 800.188 685.615 L 801.356 684.779 L 905.838 684.745 C 952.308 684.772 985.731 669.677 986 724.955 L 986.026 1267.94 C 986.055 1306.76 1001.41 1363.98 951.004 1363.56 L 865.413 1363.6 C 848.744 1363.6 831.463 1364.47 814.878 1362.98 C 777.83 1359.66 787.843 1322.39 787.876 1293.43 L 788.045 1170.98 C 788.066 1139.85 796.562 1096.51 765.769 1076.68 C 749.298 1066.07 715.833 1065.07 697.333 1069.64 C 652.187 1080.8 659.362 1129.61 659.357 1165.09 L 659.43 1286.22 C 659.457 1306.45 669.563 1357.96 640.8 1362.87 C 624.896 1365.58 589.168 1363.64 571.596 1363.64 L 518.764 1363.6 C 465.06 1363.53 457.64 1362.87 457.977 1305.63 L 457.968 746.213 C 457.89 719.897 448.332 687.215 484.843 684.779 z"/>
</svg>