<svg version="1.1" xmlns="http://www.w3.org/2000/svg" style="display: block;" viewBox="0 0 2048 2048" width="1024" height="1024">
<defs>
	<linearGradient id="Gradient1" gradientUnits="userSpaceOnUse" x1="694.273" y1="1293.85" x2="734.075" y2="1296.17">
		<stop class="stop0" offset="0" stop-opacity="1" stop-color="rgb(24,42,33)"/>
		<stop class="stop1" offset="1" stop-opacity="1" stop-color="rgb(19,37,43)"/>
	</linearGradient>
	<linearGradient id="Gradient2" gradientUnits="userSpaceOnUse" x1="1375.57" y1="744.301" x2="1581.78" y2="449.925">
		<stop class="stop0" offset="0" stop-opacity="1" stop-color="rgb(219,129,50)"/>
		<stop class="stop1" offset="1" stop-opacity="1" stop-color="rgb(236,167,54)"/>
	</linearGradient>
</defs>
<path transform="translate(0,0)" fill="rgb(244,226,198)" d="M 0 0 L 2048 0 L 2048 2048 L 0 2048 L 0 0 z"/>
<path transform="translate(0,0)" fill="rgb(1,1,1)" d="M 185.284 1788.17 C 188.469 1787.03 189.685 1787.38 192.721 1788.83 C 213.678 1798.83 232.946 1812.95 253.009 1824.58 C 278.512 1841.52 305.529 1856.16 331.716 1872.01 C 357.524 1887.64 398.368 1916.59 425.606 1925.22 C 435.103 1928.23 446.063 1927.74 455.767 1925.8 C 465.762 1923.81 474.695 1919.69 483.825 1915.29 C 485.519 1915.86 486.507 1916.18 487.946 1917.28 C 477.878 1923.11 467.958 1928.88 456.446 1931.27 C 447.103 1933.22 435.486 1933.45 426.34 1930.59 C 404.141 1923.65 369.149 1900.13 347.771 1887.47 C 315.806 1868.54 283.063 1850.2 252.072 1829.74 C 235.03 1820.49 199.213 1800.39 185.284 1788.17 z"/>
<path transform="translate(0,0)" fill="rgb(248,212,125)" d="M 1063.02 163.959 L 1122.05 164.057 C 1122.01 184.223 1123.62 205.714 1121.66 225.708 A 1638.58 1638.58 0 0 0 1063.47 225.697 A 4484.76 4484.76 0 0 1 1063.02 163.959 z"/>
<path transform="translate(0,0)" fill="rgb(138,188,91)" d="M 1887.08 659.561 L 1888.01 659.851 L 1888.52 661.929 L 1889.7 662.235 C 1889.07 663.878 1888.73 664.963 1888.77 666.752 C 1889.19 687.415 1888.94 708.145 1888.96 728.818 L 1822.04 729.004 L 1820.58 727.77 C 1818.19 710.474 1820.06 678.693 1820.1 659.98 C 1842.4 659.509 1864.77 659.733 1887.08 659.561 z"/>
<path transform="translate(0,0)" fill="rgb(237,176,83)" d="M 212.996 1164.94 L 286.691 1164.98 A 4913.84 4913.84 0 0 0 286.269 1238.95 L 212.265 1239.08 C 214.087 1214.61 212.993 1189.48 212.996 1164.94 z"/>
<path transform="translate(0,0)" fill="rgb(216,93,79)" d="M 861.4 222.347 C 876.606 221.246 891.995 225.059 904.477 233.961 C 917.818 243.475 926.45 258.648 929.258 274.664 A 61.2846 61.2846 0 0 1 918.799 320.864 C 908.119 335.987 893.843 343.724 875.848 346.923 C 859.458 347.356 845.619 345.295 832.162 335.384 C 818.979 325.674 809.551 311.859 807.154 295.445 C 804.582 277.834 808.687 260.252 819.534 246.063 C 830.126 232.209 844.225 224.559 861.4 222.347 z"/>
<path transform="translate(0,0)" fill="rgb(216,93,79)" d="M 174.041 951.52 A 4026.91 4026.91 0 0 1 267.15 951.232 A 6296.75 6296.75 0 0 0 267.304 1064.45 L 242.094 1064.45 L 151.398 1064.25 C 151.866 1026.77 151.214 989.214 151.19 951.73 L 174.041 951.52 z"/>
<path transform="translate(0,0)" fill="rgb(51,40,35)" d="M 693.053 1727.11 C 707.585 1733.8 721.861 1737.89 737.499 1741.11 C 737.62 1743.54 737.93 1745.84 737.354 1748.21 C 735.35 1763.9 728.058 1777.2 715.482 1787.02 C 703 1796.76 687.922 1804.14 674.293 1812.21 C 670.437 1813.19 667.361 1814.74 663.87 1816.63 C 643.346 1829.78 621.414 1841.28 600.281 1853.47 C 588.998 1859.97 576.813 1868.79 564.902 1873.53 C 556.582 1878.46 548.152 1883.52 539.379 1887.6 C 529.091 1895.47 500.659 1911.06 487.946 1917.28 C 486.507 1916.18 485.519 1915.86 483.825 1915.29 C 474.695 1919.69 465.762 1923.81 455.767 1925.8 C 446.063 1927.74 435.103 1928.23 425.606 1925.22 C 398.368 1916.59 357.524 1887.64 331.716 1872.01 C 305.529 1856.16 278.512 1841.52 253.009 1824.58 C 232.946 1812.95 213.678 1798.83 192.721 1788.83 C 189.685 1787.38 188.469 1787.03 185.284 1788.17 C 184.967 1787.93 184.638 1787.71 184.332 1787.46 C 169.459 1775.35 162.606 1756.2 160.503 1737.74 L 161.196 1736.1 C 165.295 1733.61 199.694 1734.55 206.154 1735.35 L 207.766 1739.84 C 208.722 1742.63 210.005 1745.44 211.578 1747.94 C 214.305 1752.28 217.989 1755.64 222.133 1758.57 C 233.077 1766.33 244.917 1773.05 256.358 1780.06 A 5010.75 5010.75 0 0 0 325.703 1821.88 C 346.37 1834.35 404.475 1873.78 423.873 1878.45 C 431.364 1880.25 443.919 1881.93 451.347 1879.9 C 475.405 1873.33 519.652 1843.68 542.959 1830.51 C 583.003 1807.88 624.083 1786.64 663.328 1762.66 C 678.329 1753.49 688.752 1744.94 693.053 1727.11 z"/>
<path transform="translate(0,0)" fill="rgb(18,20,18)" d="M 540.15 1882.4 C 547.979 1878.02 555.606 1872.28 564.902 1873.53 C 556.582 1878.46 548.152 1883.52 539.379 1887.6 C 529.091 1895.47 500.659 1911.06 487.946 1917.28 C 486.507 1916.18 485.519 1915.86 483.825 1915.29 C 489.444 1910.05 530.777 1886.88 540.15 1882.4 z"/>
<path transform="translate(0,0)" fill="rgb(1,1,1)" d="M 663.87 1816.63 C 663.286 1814.48 662.656 1813.45 664.502 1811.64 C 668.312 1807.9 676.077 1804.3 680.801 1801.67 C 711.085 1784.78 723.387 1781.36 737.354 1748.21 C 735.35 1763.9 728.058 1777.2 715.482 1787.02 C 703 1796.76 687.922 1804.14 674.293 1812.21 C 670.437 1813.19 667.361 1814.74 663.87 1816.63 z"/>
<path transform="translate(0,0)" fill="rgb(138,188,91)" d="M 580.919 1538.5 C 600.821 1523.1 623.561 1511.11 644.821 1497.69 C 661.088 1487.42 677.083 1475.17 692.203 1463.27 A 14624.1 14624.1 0 0 0 692.336 1650.05 C 692.611 1675.51 691.617 1701.73 693.053 1727.11 C 688.752 1744.94 678.329 1753.49 663.328 1762.66 C 624.083 1786.64 583.003 1807.88 542.959 1830.51 C 519.652 1843.68 475.405 1873.33 451.347 1879.9 C 443.919 1881.93 431.364 1880.25 423.873 1878.45 C 404.475 1873.78 346.37 1834.35 325.703 1821.88 A 5010.75 5010.75 0 0 1 256.358 1780.06 C 244.917 1773.05 233.077 1766.33 222.133 1758.57 C 217.989 1755.64 214.305 1752.28 211.578 1747.94 C 210.005 1745.44 208.722 1742.63 207.766 1739.84 C 224.642 1734.82 289.831 1694.34 301.938 1681.9 C 301.93 1677.34 302.258 1672.99 302.826 1668.47 L 302.986 1679.79 C 307.245 1685.47 311.586 1691.02 316.382 1696.26 C 347.954 1730.75 386.673 1753.18 434.094 1754.9 C 475.866 1756.42 516.675 1742.24 547.241 1713.45 C 576.236 1686.15 590.952 1652.4 592.064 1612.78 C 592.471 1598.28 589.721 1550.67 579.875 1540.23 L 580.919 1538.5 z"/>
<path transform="translate(0,0)" fill="rgb(216,93,79)" d="M 1159.66 393.993 A 335.538 335.538 0 0 1 1298.6 179.278 C 1364.17 134.65 1450.61 115.798 1528.65 130.611 A 334.747 334.747 0 0 1 1741.87 270.419 C 1790.29 342.143 1812.15 431.259 1795.58 516.926 C 1784.02 576.733 1756.03 632.295 1712.48 675.237 C 1702.73 661.38 1691.06 648.288 1679.52 635.915 L 1676.49 632.059 C 1663.57 617.108 1648.77 603.887 1634.56 590.188 L 1632.64 588 C 1630.32 592.094 1631.73 599.3 1631.22 604.05 C 1630.22 588.377 1631.33 572.169 1631.55 556.457 L 1631.95 481.609 A 4084.84 4084.84 0 0 1 1555.01 482.054 C 1539.15 482.052 1522.88 482.711 1507.09 481.252 L 1506.47 481.81 C 1498.85 479.92 1480.13 480.746 1475.26 475.75 C 1471.33 474.636 1466.79 474.912 1462.7 474.762 C 1449 471.096 1431.89 464.101 1419.89 456.609 C 1405.4 447.564 1400.92 433.661 1397.29 417.988 L 1394.89 420.163 C 1388.77 426.188 1382.74 432.348 1376.23 437.961 L 1375.27 438.3 C 1352.9 428.651 1327.39 422.47 1303.71 416.913 C 1255.57 405.618 1208.95 397.67 1159.66 393.993 z"/>
<path transform="translate(0,0)" fill="rgb(202,57,48)" d="M 1586.04 448.506 C 1586.4 449.297 1586.6 449.653 1586.79 450.587 C 1587.37 453.472 1587.14 454.978 1585.74 457.581 C 1583.66 459.284 1582.35 459.931 1579.59 459.786 C 1575.26 459.56 1570.14 455.919 1567.33 452.828 C 1563.38 448.48 1559.87 441.772 1560.28 435.814 C 1564.02 441.253 1570.36 453.298 1577.81 453.897 C 1580.14 454.085 1582.07 453.079 1583.61 451.42 C 1584.48 450.497 1585.26 449.499 1586.04 448.506 z"/>
<path transform="translate(0,0)" fill="rgb(202,57,48)" d="M 1395.4 401.536 C 1396.06 403.946 1396.15 406.69 1395.26 409.018 C 1386.24 409.425 1374.98 410.393 1366.69 406.29 C 1364.72 403.488 1365.17 402.055 1365.16 398.691 C 1374.92 403.27 1384.95 402.005 1395.4 401.536 z"/>
<path transform="translate(0,0)" fill="rgb(254,254,254)" d="M 1365.16 398.691 C 1364.61 395.387 1364.22 394.318 1365.39 391.103 C 1370.87 385.593 1380.2 385.397 1387.59 385.361 C 1390.33 385.348 1393.29 385.48 1395.82 386.59 C 1397.38 390.79 1394.84 396.571 1395.4 401.536 C 1384.95 402.005 1374.92 403.27 1365.16 398.691 z"/>
<path transform="translate(0,0)" fill="rgb(254,254,254)" d="M 1397.29 417.988 C 1396.06 394.896 1399.61 375.847 1415.5 358.149 C 1425.14 347.414 1441.29 337.469 1456.11 337.271 C 1461.78 337.195 1468 339.214 1473.64 340.013 C 1475.44 329.136 1468.97 314.533 1476.19 304.896 C 1478.95 303.783 1479.11 303.813 1482 304.526 C 1485.77 308.115 1486.33 312.242 1486.48 317.285 C 1486.7 324.681 1485.41 331.982 1485.45 339.292 C 1502.34 336.508 1515.02 338.434 1529.14 348.538 C 1544.33 359.409 1554.39 377.272 1557.35 395.585 C 1558.93 405.315 1557.9 414.412 1556.02 424.015 C 1564.75 428.22 1582.25 436.778 1585.46 446.477 C 1585.68 447.145 1585.86 447.826 1586.04 448.506 C 1585.26 449.499 1584.48 450.497 1583.61 451.42 C 1582.07 453.079 1580.14 454.085 1577.81 453.897 C 1570.36 453.298 1564.02 441.253 1560.28 435.814 C 1558.53 433.238 1556.73 430.774 1554.77 428.352 C 1553.49 430.905 1551.4 434.133 1550.63 436.822 C 1552.52 440.214 1552.19 441.543 1550.97 445.296 C 1546.93 457.807 1532.23 470.327 1520.36 475.453 C 1515.72 477.461 1511.04 477.882 1507.09 481.252 L 1506.47 481.81 C 1498.85 479.92 1480.13 480.746 1475.26 475.75 C 1471.33 474.636 1466.79 474.912 1462.7 474.762 C 1449 471.096 1431.89 464.101 1419.89 456.609 C 1405.4 447.564 1400.92 433.661 1397.29 417.988 z"/>
<path transform="translate(0,0)" fill="rgb(128,44,44)" d="M 1550.63 436.822 C 1552.52 440.214 1552.19 441.543 1550.97 445.296 C 1546.93 457.807 1532.23 470.327 1520.36 475.453 C 1515.72 477.461 1511.04 477.882 1507.09 481.252 L 1506.47 481.81 C 1498.85 479.92 1480.13 480.746 1475.26 475.75 C 1485.46 476.096 1495.27 476.219 1505.24 473.652 C 1526.87 468.085 1539.6 455.641 1550.63 436.822 z"/>
<path transform="translate(0,0)" fill="rgb(248,212,125)" d="M 1484.13 342.437 C 1500.85 350.521 1512.43 361.221 1518.66 379.051 C 1524.86 396.786 1524.02 421.182 1515.82 438.162 C 1510.74 448.682 1502.05 456.574 1490.87 460.142 A 47.9429 47.9429 0 0 1 1462.05 460.193 A 61.5965 61.5965 0 0 1 1457.19 457.695 C 1445.69 451.228 1435.37 443.487 1431.76 430.126 A 70.5028 70.5028 0 0 1 1435.29 375.352 C 1442.17 361.546 1453.04 349.996 1467.97 344.992 C 1473.3 343.206 1478.58 342.758 1484.13 342.437 z"/>
<path transform="translate(0,0)" fill="rgb(244,226,198)" d="M 1431.76 430.126 L 1433.18 429.45 L 1432.78 427.777 C 1427.88 406.998 1428.7 388.669 1440.29 370.455 C 1445.68 361.969 1452.73 355.165 1460.31 348.643 C 1461.35 365.456 1461.03 382.434 1461.21 399.278 C 1461.43 419.583 1462.04 439.887 1462.05 460.193 A 61.5965 61.5965 0 0 1 1457.19 457.695 C 1445.69 451.228 1435.37 443.487 1431.76 430.126 z"/>
<path transform="translate(0,0)" fill="rgb(145,213,144)" d="M 365.256 1298.27 C 393.659 1281.64 432.501 1250.72 467.123 1260.04 C 491.263 1266.54 561.528 1317.67 572.773 1318.75 L 573.504 1318.07 C 576.253 1324.32 619.088 1347.98 627.322 1351.76 C 647.754 1365.33 677.457 1386.11 699.156 1396.01 C 714.133 1404.78 729.488 1413.32 734.606 1431.33 C 739.516 1448.6 736.755 1502.18 736.689 1523.91 L 736.965 1664.72 C 737.046 1690 736.004 1715.89 737.499 1741.11 C 721.861 1737.89 707.585 1733.8 693.053 1727.11 C 691.617 1701.73 692.611 1675.51 692.336 1650.05 A 14624.1 14624.1 0 0 1 692.203 1463.27 C 677.083 1475.17 661.088 1487.42 644.821 1497.69 C 623.561 1511.11 600.821 1523.1 580.919 1538.5 L 579.875 1540.23 C 589.721 1550.67 592.471 1598.28 592.064 1612.78 C 590.952 1652.4 576.236 1686.15 547.241 1713.45 C 516.675 1742.24 475.866 1756.42 434.094 1754.9 C 386.673 1753.18 347.954 1730.75 316.382 1696.26 C 311.586 1691.02 307.245 1685.47 302.986 1679.79 L 302.826 1668.47 C 302.258 1672.99 301.93 1677.34 301.938 1681.9 C 289.831 1694.34 224.642 1734.82 207.766 1739.84 L 206.154 1735.35 C 199.694 1734.55 165.295 1733.61 161.196 1736.1 L 160.503 1737.74 C 158.952 1730.39 160.343 1719.6 160.377 1711.85 L 160.575 1648.67 A 9886.93 9886.93 0 0 0 160.499 1532.87 C 160.367 1509.48 159.518 1485.83 160.328 1462.46 C 160.582 1455.11 161.441 1447.77 163.32 1440.65 C 166.697 1427.85 173.029 1415.59 182.628 1406.35 C 199.475 1390.13 236.545 1372.24 258.322 1359.84 L 365.256 1298.27 z"/>
<path transform="translate(0,0)" fill="rgb(99,87,77)" d="M 365.256 1298.27 C 393.659 1281.64 432.501 1250.72 467.123 1260.04 C 491.263 1266.54 561.528 1317.67 572.773 1318.75 L 573.504 1318.07 C 576.253 1324.32 619.088 1347.98 627.322 1351.76 C 647.754 1365.33 677.457 1386.11 699.156 1396.01 C 714.133 1404.78 729.488 1413.32 734.606 1431.33 C 739.516 1448.6 736.755 1502.18 736.689 1523.91 L 736.965 1664.72 C 737.046 1690 736.004 1715.89 737.499 1741.11 C 721.861 1737.89 707.585 1733.8 693.053 1727.11 C 691.617 1701.73 692.611 1675.51 692.336 1650.05 A 14624.1 14624.1 0 0 1 692.203 1463.27 C 690.766 1451.62 686.322 1444.24 677.11 1436.97 C 665.064 1427.46 650.292 1420.77 637.042 1412.98 L 560.256 1367.51 A 3127.2 3127.2 0 0 1 510.172 1337.68 C 497.656 1330.12 485.174 1322.05 471.873 1315.92 C 463.352 1312 453.576 1308.74 444.11 1310.1 C 439.587 1310.76 435.424 1312.27 431.409 1314.41 C 421.746 1319.57 412.696 1325.92 403.29 1331.54 L 341.371 1367.78 L 262.441 1413.55 C 249.886 1420.77 236.653 1427.27 224.432 1435.02 C 220.448 1437.55 216.785 1440.41 213.993 1444.25 C 209.633 1450.26 207.932 1457.72 207.187 1464.99 C 204.9 1487.3 206.895 1516.18 206.901 1539.25 L 206.712 1687.86 C 206.706 1703.05 208.487 1720.49 206.154 1735.35 C 199.694 1734.55 165.295 1733.61 161.196 1736.1 L 160.503 1737.74 C 158.952 1730.39 160.343 1719.6 160.377 1711.85 L 160.575 1648.67 A 9886.93 9886.93 0 0 0 160.499 1532.87 C 160.367 1509.48 159.518 1485.83 160.328 1462.46 C 160.582 1455.11 161.441 1447.77 163.32 1440.65 C 166.697 1427.85 173.029 1415.59 182.628 1406.35 C 199.475 1390.13 236.545 1372.24 258.322 1359.84 L 365.256 1298.27 z"/>
<path transform="translate(0,0)" fill="rgb(18,20,18)" d="M 447.027 1450.9 C 487.584 1451.64 522.727 1465.18 551.173 1494.62 C 563.072 1506.93 574.739 1522.39 580.919 1538.5 L 579.875 1540.23 C 589.721 1550.67 592.471 1598.28 592.064 1612.78 C 590.952 1652.4 576.236 1686.15 547.241 1713.45 C 516.675 1742.24 475.866 1756.42 434.094 1754.9 C 386.673 1753.18 347.954 1730.75 316.382 1696.26 C 311.586 1691.02 307.245 1685.47 302.986 1679.79 L 302.826 1668.47 C 303.327 1647.41 302.912 1626.28 302.844 1605.21 C 302.808 1594.04 302.223 1582.46 303.398 1571.34 C 306.376 1543.15 321.377 1517.07 340.485 1496.64 C 368.609 1466.56 405.429 1452.09 446.067 1450.89 C 446.099 1455.41 446.459 1459.84 446.848 1464.34 C 446.976 1459.85 447.153 1455.38 447.027 1450.9 z"/>
<path transform="translate(0,0)" fill="rgb(254,254,254)" d="M 447.027 1450.9 C 487.584 1451.64 522.727 1465.18 551.173 1494.62 C 563.072 1506.93 574.739 1522.39 580.919 1538.5 L 579.875 1540.23 C 534.946 1564.1 491.132 1590.4 447.175 1616.01 C 446.153 1565.53 447.077 1514.85 446.848 1464.34 C 446.976 1459.85 447.153 1455.38 447.027 1450.9 z"/>
<path transform="translate(0,0)" fill="rgb(254,254,254)" d="M 399.365 865.124 C 357.452 846.739 324.535 829.041 291.234 796.626 A 306.55 306.55 0 0 1 199.644 582.633 C 198.589 503.258 229.787 420.487 285.733 363.398 A 316.18 316.18 0 0 1 511.786 266.552 C 592.515 268.125 670.774 299.539 727.161 358.177 C 754.213 386.31 778.949 420.364 794.287 456.476 L 794.568 457.51 C 797.13 466.675 800.974 475.444 803.925 484.491 C 807.431 495.234 810.089 506.502 812.378 517.568 C 827.497 590.65 812.952 668.087 776.923 732.856 C 737.204 804.259 671.007 853.851 592.704 876.008 C 567.033 883.272 538.796 887.217 512.067 887.111 C 481.982 887.125 425.905 879.678 399.365 865.124 z"/>
<path transform="translate(0,0)" fill="rgb(237,176,83)" d="M 511.299 471.382 L 569.975 500.309 C 579.968 505.271 591.233 509.902 600.475 516.162 L 601.073 636.362 C 579.851 645.818 559.207 656.485 538.472 666.951 C 530.005 671.225 520.859 677.046 512.001 680.228 L 512.307 546.361 C 512.377 521.719 513.984 495.846 511.299 471.382 z"/>
<path transform="translate(0,0)" fill="rgb(248,212,125)" d="M 416.306 517.976 C 448.109 502.917 480.49 488.405 511.299 471.382 C 513.984 495.846 512.377 521.719 512.307 546.361 L 512.001 680.228 C 493.833 672.605 476.542 663.255 458.84 654.64 C 444.807 647.812 430.423 641.741 416.259 635.192 L 416.306 517.976 z"/>
<path transform="translate(0,0)" fill="rgb(138,188,91)" d="M 511.798 320.973 C 572.306 321.812 640.13 345.415 682.775 389.179 C 685.708 392.189 689.059 395.424 691.414 398.898 C 662.084 422.483 637.204 450.829 608.228 474.891 A 1969.65 1969.65 0 0 0 557.957 452.023 C 542.806 445.282 526.114 438.958 512.599 429.304 C 510.099 393.627 511.86 356.78 511.798 320.973 z"/>
<path transform="translate(0,0)" fill="rgb(112,211,199)" d="M 330.73 398.072 C 331.307 397.385 331.898 396.708 332.529 396.071 C 378.416 349.787 446.967 321.784 511.798 320.973 C 511.86 356.78 510.099 393.627 512.599 429.304 C 479.276 443.222 446.554 460.778 414.948 478.232 C 399.745 460.551 381.595 445.683 364.669 429.718 C 353.628 419.304 342.855 407.14 330.73 398.072 z"/>
<path transform="translate(0,0)" fill="rgb(138,188,91)" d="M 512.135 722.324 C 545.996 707.859 577.867 688.792 610.922 672.625 C 633.133 691.551 653.537 712.684 675.478 731.995 C 681.816 737.574 688.345 744.141 695.266 748.94 C 654.975 796.356 592.013 825.348 530.485 830.282 C 524.385 830.771 518.197 831.069 512.077 830.883 L 511.922 830.317 A 4665.35 4665.35 0 0 0 511.661 763.166 C 511.548 749.684 510.664 735.729 512.135 722.324 z"/>
<path transform="translate(0,0)" fill="rgb(138,188,91)" d="M 707.699 417.234 C 740.422 447.57 762.063 518.551 763.857 562.227 C 765.962 613.441 755.507 656.404 729.903 700.957 C 724.261 710.775 718.382 721.773 710.849 730.211 C 703.255 722.278 694.484 715.12 686.287 707.8 C 669.143 692.489 651.847 677.334 635.349 661.321 L 640.86 654.336 C 642.637 635.142 641.379 614.949 641.306 595.669 A 8354.57 8354.57 0 0 0 640.65 495.05 L 632.597 488.058 C 650.068 475.616 664.787 459.884 680.093 444.955 C 689.378 435.899 699.357 427.175 707.699 417.234 z"/>
<path transform="translate(0,0)" fill="rgb(112,211,199)" d="M 316.618 413.488 C 332.425 435.828 372.437 469.201 394.132 489.583 C 388.489 492.304 382.943 494.979 377.017 497.04 C 376.914 513.621 375.591 656.16 378.172 658.498 C 380.065 660.214 382.625 660.959 384.976 661.856 A 2145.77 2145.77 0 0 1 343.138 701.239 C 334.095 709.656 324.055 718.105 316.462 727.877 C 320.515 735.223 325.97 741.396 331.807 747.374 C 345.467 736.582 357.47 723.503 370.368 711.8 C 383.663 699.736 398.23 688.548 410.85 675.823 C 444.595 691.165 477.551 709.033 512.135 722.324 C 510.664 735.729 511.548 749.684 511.661 763.166 A 4665.35 4665.35 0 0 1 511.922 830.317 C 451.627 829.196 393.727 809.641 346.978 771.008 A 250.624 250.624 0 0 1 256.79 597.848 C 250.694 528.86 272.505 466.269 316.618 413.488 z"/>
<path transform="translate(0,0)" fill="rgb(51,155,89)" d="M 511.786 266.552 C 592.515 268.125 670.774 299.539 727.161 358.177 C 754.213 386.31 778.949 420.364 794.287 456.476 L 794.568 457.51 C 797.13 466.675 800.974 475.444 803.925 484.491 C 807.431 495.234 810.089 506.502 812.378 517.568 C 827.497 590.65 812.952 668.087 776.923 732.856 C 737.204 804.259 671.007 853.851 592.704 876.008 C 567.033 883.272 538.796 887.217 512.067 887.111 L 512.077 830.883 C 518.197 831.069 524.385 830.771 530.485 830.282 C 592.013 825.348 654.975 796.356 695.266 748.94 A 2197.47 2197.47 0 0 0 710.849 730.211 C 718.382 721.773 724.261 710.775 729.903 700.957 C 755.507 656.404 765.962 613.441 763.857 562.227 C 762.063 518.551 740.422 447.57 707.699 417.234 A 587.797 587.797 0 0 0 691.414 398.898 C 689.059 395.424 685.708 392.189 682.775 389.179 C 640.13 345.415 572.306 321.812 511.798 320.973 A 970.614 970.614 0 0 1 511.786 266.552 z"/>
<path transform="translate(0,0)" fill="rgb(41,163,182)" d="M 399.365 865.124 C 357.452 846.739 324.535 829.041 291.234 796.626 A 306.55 306.55 0 0 1 199.644 582.633 C 198.589 503.258 229.787 420.487 285.733 363.398 A 316.18 316.18 0 0 1 511.786 266.552 A 970.614 970.614 0 0 0 511.798 320.973 C 446.967 321.784 378.416 349.787 332.529 396.071 C 331.898 396.708 331.307 397.385 330.73 398.072 C 325.623 402.989 320.754 407.704 316.618 413.488 C 272.505 466.269 250.694 528.86 256.79 597.848 A 250.624 250.624 0 0 0 346.978 771.008 C 393.727 809.641 451.627 829.196 511.922 830.317 L 512.077 830.883 L 512.067 887.111 C 481.982 887.125 425.905 879.678 399.365 865.124 z"/>
<path transform="translate(0,0)" fill="rgb(44,69,83)" d="M 1034.99 394.232 C 1075.96 391.809 1118.81 389.269 1159.66 393.993 C 1208.95 397.67 1255.57 405.618 1303.71 416.913 C 1327.39 422.47 1352.9 428.651 1375.27 438.3 C 1360.65 448.025 1342.33 473.966 1330.91 487.808 A 4825.59 4825.59 0 0 0 1275.37 555.198 C 1232.4 607.718 1187.76 658.948 1144.54 711.281 C 1123.8 736.397 1104.88 763.312 1083.7 787.989 L 1083.23 787.934 C 1071.16 800.612 1060.43 814.534 1049.34 828.059 L 1049.66 828.777 C 1043.65 831.49 1039.75 837.716 1033.84 841.037 C 1034.78 910.789 1033.69 980.859 1032.15 1050.61 L 1012.07 1057.09 C 1010.23 1050.33 1008.05 1044.22 1002.82 1039.28 L 1000.87 1038.77 L 1000.44 1039.15 C 992.536 1036.98 908.752 1037.31 901.782 1040.98 C 898.185 1042.87 895.425 1046.86 893.234 1050.19 C 891.468 1087.41 892.387 1125.01 892.415 1162.28 C 892.426 1175.99 894.165 1194.48 891.993 1207.52 C 890.144 1223.33 891.024 1240.13 890.872 1256.06 L 890.219 1352.98 C 878.306 1352.94 865.971 1353.53 854.116 1352.61 C 840.145 1354.74 823.409 1353.1 809.169 1353.11 C 784.267 1353.12 758.859 1354.18 734.014 1352.76 C 721.28 1353.65 708.483 1353.29 695.736 1352.77 C 672.982 1352.74 650.041 1353.04 627.322 1351.76 C 619.088 1347.98 576.253 1324.32 573.504 1318.07 L 572.773 1318.75 C 561.528 1317.67 491.263 1266.54 467.123 1260.04 C 432.501 1250.72 393.659 1281.64 365.256 1298.27 C 357.278 1271.29 353.374 1242.27 350.572 1214.35 A 755.345 755.345 0 0 1 399.365 865.124 C 425.905 879.678 481.982 887.125 512.067 887.111 C 538.796 887.217 567.033 883.272 592.704 876.008 C 671.007 853.851 737.204 804.259 776.923 732.856 C 812.952 668.087 827.497 590.65 812.378 517.568 C 810.089 506.502 807.431 495.234 803.925 484.491 C 800.974 475.444 797.13 466.675 794.568 457.51 L 794.287 456.476 C 817.523 447.269 840.712 437.599 864.398 429.611 A 743.78 743.78 0 0 1 1034.99 394.232 z"/>
<path transform="translate(0,0)" fill="rgb(148,140,201)" d="M 681.755 1195.57 C 689.107 1198.89 691.576 1201.64 695.739 1208.46 C 697.089 1256.44 695.71 1304.75 695.736 1352.77 C 672.982 1352.74 650.041 1353.04 627.322 1351.76 C 619.088 1347.98 576.253 1324.32 573.504 1318.07 C 574.627 1293.38 574.165 1268.35 574.007 1243.64 C 573.939 1232.85 572.768 1221.32 573.966 1210.63 C 574.323 1207.44 575.208 1204.1 577.501 1201.73 C 580.718 1198.4 585.765 1197.36 590.167 1196.75 C 599.149 1195.51 608.72 1196.08 617.787 1196.08 C 638.987 1196.07 660.609 1196.92 681.755 1195.57 z"/>
<path transform="translate(0,0)" fill="rgb(216,93,79)" d="M 1035.72 749.947 C 1038.94 750.551 1042.27 751.107 1045.18 752.669 C 1055.27 758.08 1075.02 778.759 1083.23 787.934 C 1071.16 800.612 1060.43 814.534 1049.34 828.059 L 1049.66 828.777 C 1043.65 831.49 1039.75 837.716 1033.84 841.037 C 1033.76 834.962 1034.23 829.24 1030.66 824.016 C 968.002 884.374 907.946 947.513 846.109 1008.74 A 1344.66 1344.66 0 0 0 814.622 1040.85 C 807.534 1048.33 800.608 1056.51 792.871 1063.32 A 22.7421 22.7421 0 0 1 782.006 1068.72 C 776.42 1069.82 771.602 1067.55 767.116 1064.37 C 753.889 1054.99 731.711 1028.53 719.129 1015.65 C 706.431 1002.65 690.849 989.916 679.945 975.489 C 677.352 972.057 675.304 968.253 674.831 963.918 C 674.369 959.693 675.674 955.987 678.288 952.703 C 683.784 945.801 696.392 930.229 705.984 930.125 C 710.938 930.071 715.316 932.758 719.089 935.741 C 725.828 941.068 731.692 948.402 737.557 954.679 C 751.792 969.914 765.812 986.047 781.191 1000.11 C 805.954 973.916 831.855 948.83 857.234 923.234 C 890.633 889.55 923.516 855.403 957.285 822.075 A 3394.41 3394.41 0 0 0 1000.23 778.469 C 1007.7 770.831 1015.06 762.56 1023.23 755.675 C 1027.04 752.459 1030.98 751.277 1035.72 749.947 z"/>
<path transform="translate(0,0)" fill="rgb(36,53,65)" d="M 1038.77 816.406 C 1042.14 820.506 1045.54 824.334 1049.34 828.059 L 1049.66 828.777 C 1043.65 831.49 1039.75 837.716 1033.84 841.037 C 1033.76 834.962 1034.23 829.24 1030.66 824.016 L 1038.77 816.406 z"/>
<path transform="translate(0,0)" fill="rgb(248,212,125)" d="M 734.015 1129.46 C 736.825 1124.74 739.298 1120.16 745.038 1118.82 C 753.465 1116.85 830.493 1116.17 840.165 1117.34 C 842.6 1117.63 844.863 1118.56 846.887 1119.93 A 16.3084 16.3084 0 0 1 853.992 1131.05 C 856.258 1146.56 854.189 1179.98 854.175 1197.14 L 854.116 1352.61 C 840.145 1354.74 823.409 1353.1 809.169 1353.11 C 784.267 1353.12 758.859 1354.18 734.014 1352.76 C 721.28 1353.65 708.483 1353.29 695.736 1352.77 C 695.71 1304.75 697.089 1256.44 695.739 1208.46 C 691.576 1201.64 689.107 1198.89 681.755 1195.57 C 682.356 1195.44 682.944 1195.21 683.559 1195.18 C 686.415 1195.05 690.086 1196.93 692.06 1198.9 C 702.103 1208.89 699.108 1233.79 698.916 1246.92 C 710.024 1244.47 721.261 1240.88 731.87 1236.81 C 732.005 1221.77 730.525 1136.65 732.532 1131.49 C 732.836 1130.71 733.521 1130.13 734.015 1129.46 z"/>
<path transform="translate(0,0)" fill="url(#Gradient1)" d="M 731.87 1236.81 C 732.005 1221.77 730.525 1136.65 732.532 1131.49 C 732.836 1130.71 733.521 1130.13 734.015 1129.46 C 732.66 1155.84 733.679 1182.7 733.74 1209.14 L 734.014 1352.76 C 721.28 1353.65 708.483 1353.29 695.736 1352.77 C 695.71 1304.75 697.089 1256.44 695.739 1208.46 C 691.576 1201.64 689.107 1198.89 681.755 1195.57 C 682.356 1195.44 682.944 1195.21 683.559 1195.18 C 686.415 1195.05 690.086 1196.93 692.06 1198.9 C 702.103 1208.89 699.108 1233.79 698.916 1246.92 C 710.024 1244.47 721.261 1240.88 731.87 1236.81 z"/>
<path transform="translate(0,0)" fill="rgb(44,69,83)" d="M 1397.29 417.988 C 1400.92 433.661 1405.4 447.564 1419.89 456.609 C 1431.89 464.101 1449 471.096 1462.7 474.762 C 1466.79 474.912 1471.33 474.636 1475.26 475.75 C 1480.13 480.746 1498.85 479.92 1506.47 481.81 L 1507.09 481.252 C 1522.88 482.711 1539.15 482.052 1555.01 482.054 A 4084.84 4084.84 0 0 0 1631.95 481.609 L 1631.55 556.457 C 1631.33 572.169 1630.22 588.377 1631.22 604.05 C 1631.73 599.3 1630.32 592.094 1632.64 588 L 1634.56 590.188 C 1648.77 603.887 1663.57 617.108 1676.49 632.059 L 1679.52 635.915 C 1691.06 648.288 1702.73 661.38 1712.48 675.237 C 1731.97 702.671 1751.21 730.119 1768.49 759.026 C 1781.2 780.011 1794.38 800.938 1805.17 822.994 A 764.824 764.824 0 0 1 1856.79 1340.13 A 771.713 771.713 0 0 1 1506.65 1810.29 A 798.573 798.573 0 0 1 903.272 1902.01 C 845.221 1887.53 789.192 1865.92 734.719 1841.43 C 714.384 1832.28 693.762 1823.11 674.293 1812.21 C 687.922 1804.14 703 1796.76 715.482 1787.02 C 728.058 1777.2 735.35 1763.9 737.354 1748.21 C 737.93 1745.84 737.62 1743.54 737.499 1741.11 C 736.004 1715.89 737.046 1690 736.965 1664.72 L 736.689 1523.91 C 736.755 1502.18 739.516 1448.6 734.606 1431.33 C 729.488 1413.32 714.133 1404.78 699.156 1396.01 C 677.457 1386.11 647.754 1365.33 627.322 1351.76 C 650.041 1353.04 672.982 1352.74 695.736 1352.77 C 708.483 1353.29 721.28 1353.65 734.014 1352.76 C 758.859 1354.18 784.267 1353.12 809.169 1353.11 C 823.409 1353.1 840.145 1354.74 854.116 1352.61 C 865.971 1353.53 878.306 1352.94 890.219 1352.98 L 890.872 1256.06 C 891.024 1240.13 890.144 1223.33 891.993 1207.52 C 894.165 1194.48 892.426 1175.99 892.415 1162.28 C 892.387 1125.01 891.468 1087.41 893.234 1050.19 C 895.425 1046.86 898.185 1042.87 901.782 1040.98 C 908.752 1037.31 992.536 1036.98 1000.44 1039.15 L 1000.87 1038.77 L 1002.82 1039.28 C 1008.05 1044.22 1010.23 1050.33 1012.07 1057.09 L 1032.15 1050.61 C 1033.69 980.859 1034.78 910.789 1033.84 841.037 C 1039.75 837.716 1043.65 831.49 1049.66 828.777 L 1049.34 828.059 C 1060.43 814.534 1071.16 800.612 1083.23 787.934 L 1083.7 787.989 C 1104.88 763.312 1123.8 736.397 1144.54 711.281 C 1187.76 658.948 1232.4 607.718 1275.37 555.198 A 4825.59 4825.59 0 0 1 1330.91 487.808 C 1342.33 473.966 1360.65 448.025 1375.27 438.3 L 1376.23 437.961 C 1382.74 432.348 1388.77 426.188 1394.89 420.163 L 1397.29 417.988 z"/>
<path transform="translate(0,0)" fill="rgb(1,1,1)" d="M 1494.13 1582.02 C 1496.56 1585.87 1495.42 1591.11 1494.48 1595.35 C 1493.03 1601.87 1490.36 1610.77 1485.13 1615.16 L 1483.24 1615.57 C 1482.98 1613.93 1483.05 1613.37 1483.4 1611.81 C 1481.11 1610.93 1480.67 1611.65 1478.57 1611.34 C 1478.11 1611.27 1477.71 1610.99 1477.28 1610.81 C 1485.78 1601.73 1490.29 1593.74 1494.13 1582.02 z"/>
<path transform="translate(0,0)" fill="rgb(1,1,1)" d="M 866.376 1644.99 C 860.501 1645.14 849.316 1646.71 844.282 1643.44 C 843.948 1640.58 844.056 1638.38 844.447 1635.52 C 850.453 1633.59 859.819 1635.19 866.429 1634.76 L 866.376 1644.99 z"/>
<path transform="translate(0,0)" fill="rgb(1,1,1)" d="M 993.8 1776.18 L 995.082 1775.9 C 995.896 1778.55 996.43 1781.17 995.41 1783.81 C 994.199 1784.64 993.074 1785.29 991.614 1785.6 C 985.333 1786.93 958.842 1786.15 954.607 1783.27 C 953.123 1782.27 953.409 1781.83 953.087 1780.23 C 954.393 1778.71 955.023 1777.8 957.063 1777.24 C 965.045 1775.06 983.841 1777.33 993.8 1776.18 z"/>
<path transform="translate(0,0)" fill="rgb(1,1,1)" d="M 1043.93 1776.76 C 1057.88 1777.38 1072.34 1775.71 1086.16 1777.54 C 1087.33 1780.21 1087.07 1782.98 1087.14 1785.87 C 1073.12 1785.62 1058.85 1786.81 1044.88 1785.59 C 1043.69 1782.88 1044.01 1779.7 1043.93 1776.76 z"/>
<path transform="translate(0,0)" fill="rgb(1,1,1)" d="M 867.853 1562.86 A 2481.91 2481.91 0 0 0 908.122 1562.9 C 908.57 1563.73 908.761 1563.97 908.973 1565 C 909.519 1567.68 909.101 1569.29 907.587 1571.39 C 897.565 1575.54 878.846 1573.73 868.003 1572.44 C 866.649 1569.49 867.52 1565.99 867.853 1562.86 z"/>
<path transform="translate(0,0)" fill="rgb(1,1,1)" d="M 806.784 1524.75 C 807.05 1522.49 807.536 1520.34 808.397 1518.22 C 811.746 1510 817.914 1503.19 826.088 1499.63 C 833.569 1496.37 842.24 1495.75 849.889 1498.82 C 859.467 1502.66 864.176 1509.85 867.893 1518.98 L 866.579 1522.9 C 863.039 1521.5 860.298 1517.32 857.433 1514.82 C 849.817 1508.16 839.303 1504.9 829.593 1508.78 C 819.043 1513.01 812.983 1522.54 807.792 1532.07 C 807.446 1529.64 807.028 1527.19 806.784 1524.75 z"/>
<path transform="translate(0,0)" fill="rgb(1,1,1)" d="M 1300.72 1729.1 C 1303.25 1734.83 1300.9 1740.87 1298.66 1746.48 A 69.5004 69.5004 0 0 1 1260.14 1784.75 A 83.7191 83.7191 0 0 1 1196.4 1783.98 C 1181.78 1777.63 1167.78 1764.29 1161.77 1749.41 C 1160.24 1745.62 1157.66 1738.9 1159.24 1734.88 C 1159.32 1734.66 1159.44 1734.45 1159.54 1734.23 A 104.754 104.754 0 0 0 1161.23 1737.99 C 1170 1756.64 1183.69 1769.65 1203.29 1776.55 C 1222.65 1783.36 1244.51 1782.71 1263.05 1773.7 C 1282.28 1764.35 1293.89 1748.98 1300.72 1729.1 z"/>
<path transform="translate(0,0)" fill="rgb(1,1,1)" d="M 906.101 1725.73 C 908.899 1732.13 905.49 1740.07 903.063 1746.34 C 896.772 1762.61 883.496 1776.02 867.546 1782.93 C 849.776 1790.64 826.819 1791.55 808.741 1784.35 C 791.486 1777.48 778.407 1763.7 771.443 1746.56 C 770.079 1743.21 769.436 1740.16 769.316 1736.56 L 770.394 1734.13 A 104.888 104.888 0 0 0 772.768 1739.43 C 780.971 1756.32 794.613 1769.09 812.481 1775.16 A 75.4332 75.4332 0 0 0 870.061 1770.94 C 889.44 1761.14 899.517 1745.93 906.101 1725.73 z"/>
<path transform="translate(0,0)" fill="rgb(1,1,1)" d="M 1494.72 1731.08 C 1497.07 1736.3 1495.38 1741.46 1493.43 1746.69 C 1487.71 1762 1475.76 1772.93 1461.01 1779.34 C 1453.07 1782.79 1444.64 1784.78 1436.07 1785.84 C 1422.87 1787.47 1363.55 1788.37 1351 1786.44 C 1349.39 1784.4 1349.19 1784.06 1348.86 1781.49 C 1350.26 1779.19 1350.93 1778.29 1353.61 1777.55 C 1363.75 1774.76 1385.83 1778.32 1398.23 1776.84 C 1418.34 1776.87 1439.59 1778.11 1458.44 1769.9 C 1476.17 1762.17 1487.73 1748.86 1494.72 1731.08 z"/>
<path transform="translate(0,0)" fill="rgb(1,1,1)" d="M 1676.49 632.059 L 1679.52 635.915 C 1678.11 676.066 1679.07 716.621 1679.05 756.823 C 1679.02 797.861 1678.05 839.265 1679.55 880.248 C 1677.26 926.274 1679.12 975.503 1678.94 1021.94 L 1678.97 1354.17 C 1699.87 1353.99 1747.51 1348.98 1762.7 1363.88 C 1765.37 1366.5 1766.56 1369.55 1766.27 1373.34 C 1765.76 1380.16 1758.22 1388.59 1753 1392.44 C 1748.25 1395.94 1742.48 1397.49 1736.64 1397.69 C 1722.75 1398.16 1708.62 1397.44 1694.7 1397.46 A 7352.93 7352.93 0 0 1 1583.96 1397.22 L 1341.73 1396.74 L 708.152 1395.88 C 705.652 1395.38 703.09 1395.14 700.983 1393.61 L 703.036 1393.84 L 701.551 1393.42 C 735.652 1392.52 769.883 1393.06 804 1393.08 L 978.708 1393.18 L 1516.39 1392.85 A 8631.09 8631.09 0 0 0 1645.3 1392.02 C 1662.58 1391.92 1734.34 1392.97 1745.39 1389.21 C 1755.29 1385.85 1758.24 1380.47 1762.53 1371.55 C 1758.81 1367.62 1754.4 1361.84 1749.35 1359.75 C 1736.1 1354.27 1668.36 1362.18 1645.49 1357.53 C 1646.93 1356.65 1666.29 1356.69 1669.81 1356.42 C 1658.49 1355.76 1647.27 1355.85 1635.93 1354.86 L 1637.81 1354.53 L 1640.14 1353.77 C 1642.01 1351.5 1641.72 1347.82 1641.75 1344.99 C 1642.4 1291.97 1641.45 1238.8 1641.5 1185.76 L 1643.06 672.936 C 1605.19 671.831 1567.05 672.849 1529.16 673.158 C 1523.11 680.268 1521.84 684.687 1521.87 693.812 C 1520.41 691.547 1519.64 689.765 1519.65 687.007 C 1519.65 682.498 1522.14 674.861 1525.63 671.764 C 1527.71 669.91 1529.35 669.401 1532.01 668.998 C 1544.76 667.07 1559.17 668.264 1572.09 668.296 L 1647.15 668.758 C 1647.57 686.514 1646.22 704.456 1646.14 722.243 L 1646.07 866.831 L 1645 1354.66 C 1654.64 1354.92 1664.32 1354.77 1673.96 1354.8 L 1673.9 809.458 A 7065.21 7065.21 0 0 1 1674.57 692.489 C 1674.69 678.285 1672.43 643.906 1676.49 632.059 z"/>
<path transform="translate(0,0)" fill="rgb(24,34,42)" d="M 1679.52 635.915 C 1691.06 648.288 1702.73 661.38 1712.48 675.237 C 1731.97 702.671 1751.21 730.119 1768.49 759.026 C 1750.79 790.921 1706.59 859.397 1679.55 880.248 C 1678.05 839.265 1679.02 797.861 1679.05 756.823 C 1679.07 716.621 1678.11 676.066 1679.52 635.915 z"/>
<path transform="translate(0,0)" fill="rgb(254,254,254)" d="M 951.999 1459.81 L 995 1459.48 L 995.082 1680.4 A 3012 3012 0 0 0 995.394 1737.4 C 995.553 1750.02 996.53 1763.37 995.082 1775.9 L 993.8 1776.18 A 1399.4 1399.4 0 0 0 952.045 1775.95 L 951.999 1459.81 z"/>
<path transform="translate(0,0)" fill="rgb(254,254,254)" d="M 770.394 1734.13 C 768.342 1727.98 766.86 1721.93 766.171 1715.47 C 763.07 1686.39 765.262 1650.1 765.243 1620.2 L 765.149 1562.32 C 765.132 1546.94 764.413 1531.02 767.152 1515.84 C 769.424 1503.24 774.47 1491.19 782.653 1481.28 C 794.791 1466.58 812.524 1458.69 831.318 1457.09 C 850.447 1455.45 868.242 1461.07 882.906 1473.53 C 899.896 1487.96 907.544 1508.05 907.795 1530.01 C 907.912 1540.22 906.968 1550.94 907.933 1561.07 L 908.122 1562.9 A 2481.91 2481.91 0 0 1 867.853 1562.86 L 867.893 1518.98 C 864.176 1509.85 859.467 1502.66 849.889 1498.82 C 842.24 1495.75 833.569 1496.37 826.088 1499.63 C 817.914 1503.19 811.746 1510 808.397 1518.22 C 807.536 1520.34 807.05 1522.49 806.784 1524.75 C 805.337 1534.95 806.21 1546.02 806.256 1556.32 L 806.398 1611.83 L 806.261 1675.45 C 806.15 1688.64 805.318 1702.29 806.415 1715.43 C 806.785 1719.86 807.884 1722.95 810.504 1726.61 C 815.572 1733.68 823.296 1738.08 831.866 1739.3 C 839.713 1740.41 847.565 1738.9 853.885 1733.97 C 861.653 1727.91 865.09 1718.63 866.026 1709.09 C 868.085 1688.11 865.92 1666.12 866.376 1644.99 L 866.429 1634.76 C 858.791 1633.32 850.947 1634.41 843.231 1633.91 C 842.262 1622.97 842.376 1612.1 842.433 1601.13 L 906.763 1601.41 C 906.953 1635.9 907.585 1670.44 907.39 1704.93 C 907.35 1711.87 906.088 1718.91 906.101 1725.73 C 899.517 1745.93 889.44 1761.14 870.061 1770.94 A 75.4332 75.4332 0 0 1 812.481 1775.16 C 794.613 1769.09 780.971 1756.32 772.768 1739.43 A 104.888 104.888 0 0 1 770.394 1734.13 z"/>
<path transform="translate(0,0)" fill="rgb(18,20,18)" d="M 1517.85 1352.84 L 1518.69 1174.55 C 1518.68 1154.49 1516.7 967.407 1519.86 959.14 L 1521.02 959.395 L 1521.85 963.654 C 1522.44 1024.5 1521.65 1085.38 1521.51 1146.23 L 1521.51 1353.26 C 1538.73 1353.22 1628.42 1350.91 1637.81 1354.53 L 1635.93 1354.86 C 1647.27 1355.85 1658.49 1355.76 1669.81 1356.42 C 1666.29 1356.69 1646.93 1356.65 1645.49 1357.53 C 1668.36 1362.18 1736.1 1354.27 1749.35 1359.75 C 1754.4 1361.84 1758.81 1367.62 1762.53 1371.55 C 1758.24 1380.47 1755.29 1385.85 1745.39 1389.21 C 1734.34 1392.97 1662.58 1391.92 1645.3 1392.02 A 8631.09 8631.09 0 0 1 1516.39 1392.85 L 978.708 1393.18 L 804 1393.08 C 769.883 1393.06 735.652 1392.52 701.551 1393.42 L 703.036 1393.84 L 700.983 1393.61 C 703.09 1395.14 705.652 1395.38 708.152 1395.88 L 699.156 1396.01 C 677.457 1386.11 647.754 1365.33 627.322 1351.76 C 650.041 1353.04 672.982 1352.74 695.736 1352.77 C 708.483 1353.29 721.28 1353.65 734.014 1352.76 C 758.859 1354.18 784.267 1353.12 809.169 1353.11 C 823.409 1353.1 840.145 1354.74 854.116 1352.61 C 865.971 1353.53 878.306 1352.94 890.219 1352.98 L 890.872 1256.06 C 891.024 1240.13 890.144 1223.33 891.993 1207.52 A 14459.7 14459.7 0 0 1 892.098 1353.01 C 905.904 1353.04 1004.64 1354.94 1008.64 1352.01 L 1009.1 1349.45 C 1009.58 1346.47 1009.99 1343.5 1010.76 1340.58 C 1011.2 1344.81 1011.44 1348.96 1011.47 1353.22 C 1024.34 1353.12 1037.49 1352.54 1050.33 1353.47 C 1068.52 1355.7 1090.53 1353.67 1109.21 1353.51 C 1128.84 1353.34 1149.19 1354.52 1168.73 1353.14 L 1171.38 1353.93 C 1171.73 1356.83 1173.74 1354.3 1175.64 1355.79 C 1174.1 1355.89 1173.02 1356.01 1171.52 1356.45 C 1184.05 1356.73 1196.73 1357.47 1209.21 1356.21 A 1078.54 1078.54 0 0 1 1184.54 1355.69 C 1188.05 1355.24 1214.41 1355.04 1214.95 1354.62 C 1212.52 1354.5 1210.25 1354.14 1207.86 1353.73 C 1220.77 1351.62 1235.43 1352.92 1248.53 1352.97 A 3785.44 3785.44 0 0 1 1323.92 1353.7 C 1336.65 1353.69 1350.37 1354.57 1362.95 1352.72 C 1367.84 1354.92 1467.63 1353.76 1481.1 1353.08 C 1493.28 1352.5 1505.65 1352.89 1517.85 1352.84 z"/>
<path transform="translate(0,0)" fill="rgb(254,254,254)" d="M 1349.05 1459.81 C 1373.93 1459.31 1412.04 1457.98 1435.95 1460.48 C 1453.86 1462.35 1472.71 1470.07 1484.04 1484.62 C 1500.57 1505.84 1497.77 1556.19 1494.13 1582.02 C 1490.29 1593.74 1485.78 1601.73 1477.28 1610.81 L 1475.69 1612.56 C 1478.99 1618.8 1486.95 1621.74 1490.28 1627.83 C 1504.43 1653.77 1501.9 1703.47 1494.72 1731.08 C 1487.73 1748.86 1476.17 1762.17 1458.44 1769.9 C 1439.59 1778.11 1418.34 1776.87 1398.23 1776.84 C 1382.06 1775.43 1365.26 1776.3 1349 1776.12 C 1348.35 1740.77 1348.98 1705.31 1348.96 1669.95 L 1349.05 1459.81 z"/>
<path transform="translate(0,0)" fill="rgb(1,1,1)" d="M 1390.02 1643.82 C 1390.06 1640.85 1389.49 1637.94 1391.11 1635.41 C 1405.28 1632.7 1432.24 1632.56 1444.22 1640.82 C 1451.02 1645.51 1454.59 1651.62 1455.95 1659.69 C 1456.13 1660.76 1456.24 1661.83 1456.36 1662.9 L 1455.8 1663.18 C 1452.87 1662.43 1450.46 1655.21 1447.83 1652.55 C 1435.26 1639.88 1406.73 1644.28 1390.02 1643.82 z"/>
<path transform="translate(0,0)" fill="rgb(1,1,1)" d="M 1389.84 1508.11 C 1389.85 1504.96 1389.45 1501.66 1390.85 1498.8 C 1403.24 1496.27 1432.12 1496.38 1442.57 1503.37 C 1448.49 1507.32 1451.13 1512.8 1452.22 1519.73 C 1452.28 1520.14 1452.31 1520.56 1452.35 1520.97 C 1447.76 1519.95 1444.24 1513.2 1439.55 1511.28 C 1425.71 1505.61 1404.89 1508.24 1389.84 1508.11 z"/>
<path transform="translate(0,0)" fill="rgb(44,69,83)" d="M 1389.84 1508.11 C 1404.89 1508.24 1425.71 1505.61 1439.55 1511.28 C 1444.24 1513.2 1447.76 1519.95 1452.35 1520.97 C 1453.93 1525.22 1453.75 1531.6 1453.78 1536.11 C 1453.91 1551.03 1457.4 1577.48 1445.61 1588.76 C 1434.51 1599.37 1404.96 1595.69 1389.77 1595.69 L 1389.84 1508.11 z"/>
<path transform="translate(0,0)" fill="rgb(44,69,83)" d="M 1390.02 1643.82 C 1406.73 1644.28 1435.26 1639.88 1447.83 1652.55 C 1450.46 1655.21 1452.87 1662.43 1455.8 1663.18 L 1456.36 1662.9 C 1456.72 1664.06 1456.79 1665.38 1456.88 1666.59 C 1458.11 1683.71 1458.97 1718.37 1447.02 1730.92 C 1434.98 1743.57 1406.71 1739.38 1390.27 1739.49 C 1390.13 1707.62 1390.75 1675.69 1390.02 1643.82 z"/>
<path transform="translate(0,0)" fill="rgb(254,254,254)" d="M 1043.94 1458.88 A 2436.32 2436.32 0 0 1 1087.63 1458.81 L 1087.48 1599.08 C 1109.98 1598.63 1132.54 1597.78 1155.03 1597.98 L 1155.03 1459.05 C 1168.99 1459.13 1183.11 1458.8 1197.05 1459.48 L 1197.11 1631.5 L 1197.09 1681.11 C 1197.09 1691.81 1196.45 1703.16 1198.22 1713.73 C 1199.42 1720.93 1202.75 1727.37 1207.87 1732.59 C 1213.7 1738.53 1221.54 1741.97 1229.9 1741.7 C 1238.01 1741.43 1245.14 1737.88 1250.63 1731.98 C 1256.32 1725.87 1259.09 1718.17 1260.27 1710.03 C 1261.7 1700.2 1260.97 1689.45 1260.92 1679.51 L 1260.75 1628.87 L 1261.61 1459.02 C 1275.25 1459.07 1288.98 1458.8 1302.61 1459.3 L 1303.16 1635.54 C 1303.21 1661.61 1305.72 1701.31 1301.35 1725.56 L 1300.72 1729.1 C 1293.89 1748.98 1282.28 1764.35 1263.05 1773.7 C 1244.51 1782.71 1222.65 1783.36 1203.29 1776.55 C 1183.69 1769.65 1170 1756.64 1161.23 1737.99 A 104.754 104.754 0 0 1 1159.54 1734.23 C 1152.53 1705.84 1155.24 1675.11 1155.36 1646.06 A 6668.24 6668.24 0 0 0 1087.64 1645.35 A 9223.9 9223.9 0 0 1 1087.91 1776.16 L 1043.54 1775.95 L 1043.94 1458.88 z"/>
<path transform="translate(0,0)" fill="rgb(1,1,1)" d="M 1087.64 1645.35 C 1087.59 1642.22 1087.16 1640.18 1088.66 1637.39 C 1098.86 1637.51 1148.75 1636.58 1154.31 1638.63 C 1155.27 1641.22 1155.33 1643.35 1155.36 1646.06 A 6668.24 6668.24 0 0 0 1087.64 1645.35 z"/>
<path transform="translate(0,0)" fill="rgb(51,155,89)" d="M 1529.16 673.158 C 1567.05 672.849 1605.19 671.831 1643.06 672.936 L 1641.5 1185.76 C 1641.45 1238.8 1642.4 1291.97 1641.75 1344.99 C 1641.72 1347.82 1642.01 1351.5 1640.14 1353.77 L 1637.81 1354.53 C 1628.42 1350.91 1538.73 1353.22 1521.51 1353.26 L 1521.51 1146.23 C 1521.65 1085.38 1522.44 1024.5 1521.85 963.654 C 1522.93 953.003 1522.09 941.403 1522.09 930.65 L 1522.12 866.495 C 1522.15 809.049 1523.75 751.194 1521.87 693.812 C 1521.84 684.687 1523.11 680.268 1529.16 673.158 z"/>
<path transform="translate(0,0)" fill="rgb(24,34,42)" d="M 1397.29 417.988 C 1400.92 433.661 1405.4 447.564 1419.89 456.609 C 1431.89 464.101 1449 471.096 1462.7 474.762 C 1466.79 474.912 1471.33 474.636 1475.26 475.75 C 1480.13 480.746 1498.85 479.92 1506.47 481.81 L 1507.09 481.252 C 1522.88 482.711 1539.15 482.052 1555.01 482.054 A 4084.84 4084.84 0 0 0 1631.95 481.609 L 1631.55 556.457 C 1631.33 572.169 1630.22 588.377 1631.22 604.05 C 1631.73 599.3 1630.32 592.094 1632.64 588 L 1634.56 590.188 C 1648.77 603.887 1663.57 617.108 1676.49 632.059 C 1672.43 643.906 1674.69 678.285 1674.57 692.489 A 7065.21 7065.21 0 0 0 1673.9 809.458 L 1673.96 1354.8 C 1664.32 1354.77 1654.64 1354.92 1645 1354.66 L 1646.07 866.831 L 1646.14 722.243 C 1646.22 704.456 1647.57 686.514 1647.15 668.758 L 1572.09 668.296 C 1559.17 668.264 1544.76 667.07 1532.01 668.998 C 1529.35 669.401 1527.71 669.91 1525.63 671.764 C 1522.14 674.861 1519.65 682.498 1519.65 687.007 C 1519.64 689.765 1520.41 691.547 1521.87 693.812 C 1523.75 751.194 1522.15 809.049 1522.12 866.495 L 1522.09 930.65 C 1522.09 941.403 1522.93 953.003 1521.85 963.654 L 1521.02 959.395 L 1519.86 959.14 C 1516.7 967.407 1518.68 1154.49 1518.69 1174.55 L 1517.85 1352.84 C 1505.65 1352.89 1493.28 1352.5 1481.1 1353.08 C 1467.63 1353.76 1367.84 1354.92 1362.95 1352.72 C 1350.37 1354.57 1336.65 1353.69 1323.92 1353.7 A 3785.44 3785.44 0 0 0 1248.53 1352.97 C 1235.43 1352.92 1220.77 1351.62 1207.86 1353.73 C 1210.25 1354.14 1212.52 1354.5 1214.95 1354.62 C 1214.41 1355.04 1188.05 1355.24 1184.54 1355.69 A 1078.54 1078.54 0 0 0 1209.21 1356.21 C 1196.73 1357.47 1184.05 1356.73 1171.52 1356.45 C 1173.02 1356.01 1174.1 1355.89 1175.64 1355.79 C 1173.74 1354.3 1171.73 1356.83 1171.38 1353.93 L 1168.73 1353.14 C 1149.19 1354.52 1128.84 1353.34 1109.21 1353.51 C 1090.53 1353.67 1068.52 1355.7 1050.33 1353.47 C 1037.49 1352.54 1024.34 1353.12 1011.47 1353.22 C 1011.44 1348.96 1011.2 1344.81 1010.76 1340.58 C 1009.99 1343.5 1009.58 1346.47 1009.1 1349.45 L 1008.64 1352.01 C 1004.64 1354.94 905.904 1353.04 892.098 1353.01 A 14459.7 14459.7 0 0 0 891.993 1207.52 C 894.165 1194.48 892.426 1175.99 892.415 1162.28 C 892.387 1125.01 891.468 1087.41 893.234 1050.19 C 895.425 1046.86 898.185 1042.87 901.782 1040.98 C 908.752 1037.31 992.536 1036.98 1000.44 1039.15 L 1000.87 1038.77 L 1002.82 1039.28 C 1008.05 1044.22 1010.23 1050.33 1012.07 1057.09 L 1032.15 1050.61 C 1033.69 980.859 1034.78 910.789 1033.84 841.037 C 1039.75 837.716 1043.65 831.49 1049.66 828.777 L 1049.34 828.059 C 1060.43 814.534 1071.16 800.612 1083.23 787.934 L 1083.7 787.989 C 1104.88 763.312 1123.8 736.397 1144.54 711.281 C 1187.76 658.948 1232.4 607.718 1275.37 555.198 A 4825.59 4825.59 0 0 1 1330.91 487.808 C 1342.33 473.966 1360.65 448.025 1375.27 438.3 L 1376.23 437.961 C 1382.74 432.348 1388.77 426.188 1394.89 420.163 L 1397.29 417.988 z"/>
<path transform="translate(0,0)" fill="rgb(1,1,1)" d="M 1214.48 991.399 C 1225.54 989.359 1311.6 988.026 1318.16 992.065 C 1322.63 994.823 1325.37 1000.03 1326.58 1005 C 1328.21 1011.72 1328.59 1027.25 1324.92 1033.17 C 1324.89 1023.09 1327.33 1004.1 1319.47 996.498 C 1317.6 994.697 1315.21 993.585 1312.67 993.156 C 1303.67 991.639 1292.33 992.82 1283.06 992.807 C 1264.28 992.781 1245.05 991.995 1226.32 993.06 C 1220.68 993.38 1216.29 994.054 1212.34 998.42 C 1209.21 1001.88 1208.25 1005.37 1207.8 1009.92 C 1206.59 1022.34 1207.42 1035.35 1207.49 1047.85 L 1207.8 1118.35 L 1207.86 1353.73 C 1210.25 1354.14 1212.52 1354.5 1214.95 1354.62 C 1214.41 1355.04 1188.05 1355.24 1184.54 1355.69 A 1078.54 1078.54 0 0 0 1209.21 1356.21 C 1196.73 1357.47 1184.05 1356.73 1171.52 1356.45 C 1173.02 1356.01 1174.1 1355.89 1175.64 1355.79 C 1173.74 1354.3 1171.73 1356.83 1171.38 1353.93 C 1182.59 1354.09 1193.83 1353.86 1205.04 1353.81 C 1206 1307.78 1204.78 1261.67 1204.6 1215.63 C 1204.45 1177.46 1205.3 1139.28 1205.35 1101.11 C 1205.39 1071.25 1202.81 1040.49 1204.79 1010.8 C 1205.41 1001.51 1207.42 997.533 1214.48 991.399 z"/>
<path transform="translate(0,0)" fill="rgb(1,1,1)" d="M 1579.83 564.374 C 1580.23 578.139 1576.01 607.073 1584.86 617.677 C 1589.2 622.878 1595.93 625.594 1602.58 626.093 C 1610.25 626.669 1618.45 624.401 1624.23 619.188 C 1628.82 615.043 1630.85 610.135 1631.22 604.05 C 1631.73 599.3 1630.32 592.094 1632.64 588 L 1634.56 590.188 C 1634.75 601.711 1635.2 613.1 1626.77 622.189 C 1621.41 627.972 1613.89 631.095 1606.04 631.289 C 1598.11 631.485 1589.96 628.902 1584.25 623.241 C 1573.04 612.127 1575.9 590.196 1575.95 575.598 C 1564.9 588.534 1551.94 600.195 1540.05 612.41 A 4159.32 4159.32 0 0 1 1455.31 698.122 C 1446.94 706.443 1438.59 714.758 1430.6 723.444 C 1422.38 732.38 1414.28 742.277 1405.03 750.139 C 1401.4 753.22 1396.74 755.587 1391.94 756.036 C 1383.88 756.789 1376.09 751.035 1370.39 745.946 C 1360.67 737.271 1352.54 727.058 1343.29 717.977 C 1333.86 708.724 1322.33 700.089 1314.36 689.532 C 1313.07 687.821 1312.58 686.755 1312.38 684.569 C 1322.82 695.457 1333.83 705.732 1344.54 716.345 C 1353.4 725.123 1361.97 734.393 1371.24 742.714 C 1377.12 747.981 1382.51 752.652 1390.87 751.991 C 1396.17 751.571 1400.15 749.687 1404.25 746.361 C 1413.33 738.987 1421.19 728.953 1429.12 720.347 A 1354.95 1354.95 0 0 1 1458.16 690.219 C 1498.77 648.583 1541.23 607.857 1579.83 564.374 z"/>
<path transform="translate(0,0)" fill="rgb(202,57,48)" d="M 1108.25 811.431 C 1121.23 797.003 1135.41 783.716 1149.18 770.065 A 5550 5550 0 0 0 1200.55 718.006 C 1232.19 685.544 1262.4 650.8 1295.53 619.895 C 1298.67 616.958 1301.81 614.891 1305.7 613.067 C 1304.6 623.405 1303.94 674.49 1309.49 680.934 C 1309.79 681.285 1310.14 681.588 1310.47 681.914 C 1303.45 691.168 1294.52 699.247 1286.34 707.468 A 2316.78 2316.78 0 0 0 1246.67 747.856 C 1214.26 781.843 1181.98 815.792 1148.59 848.839 C 1139.77 857.567 1131.71 868.068 1122.38 876.099 C 1118.84 879.146 1115.86 880.925 1111.19 881.601 C 1104.7 882.539 1101.73 881.28 1096.77 877.272 C 1081.08 864.603 1064.52 843.671 1049.66 828.777 L 1049.34 828.059 C 1060.43 814.534 1071.16 800.612 1083.23 787.934 L 1083.7 787.989 A 1754.12 1754.12 0 0 1 1108.25 811.431 z"/>
<path transform="translate(0,0)" fill="url(#Gradient2)" d="M 1507.09 481.252 C 1522.88 482.711 1539.15 482.052 1555.01 482.054 A 4084.84 4084.84 0 0 0 1631.95 481.609 L 1631.55 556.457 C 1631.33 572.169 1630.22 588.377 1631.22 604.05 C 1630.85 610.135 1628.82 615.043 1624.23 619.188 C 1618.45 624.401 1610.25 626.669 1602.58 626.093 C 1595.93 625.594 1589.2 622.878 1584.86 617.677 C 1576.01 607.073 1580.23 578.139 1579.83 564.374 C 1541.23 607.857 1498.77 648.583 1458.16 690.219 A 1354.95 1354.95 0 0 0 1429.12 720.347 C 1421.19 728.953 1413.33 738.987 1404.25 746.361 C 1400.15 749.687 1396.17 751.571 1390.87 751.991 C 1382.51 752.652 1377.12 747.981 1371.24 742.714 C 1361.97 734.393 1353.4 725.123 1344.54 716.345 C 1333.83 705.732 1322.82 695.457 1312.38 684.569 L 1310.47 681.914 C 1310.14 681.588 1309.79 681.285 1309.49 680.934 C 1303.94 674.49 1304.6 623.405 1305.7 613.067 C 1307.3 612.997 1308.89 612.945 1310.49 613 C 1325.51 613.517 1376.56 669.58 1388.97 682.741 C 1436.01 633.652 1484.63 586.024 1531.27 536.567 C 1516.74 535.022 1465.5 539.67 1457.5 532.129 C 1458.58 530.312 1458.77 530.655 1460.67 530.031 C 1470.23 516.661 1483.05 504.66 1494.83 493.247 C 1498.28 489.227 1502.66 485.521 1506.47 481.81 L 1507.09 481.252 z"/>
<path transform="translate(0,0)" fill="rgb(1,1,1)" d="M 1531.27 536.567 C 1516.74 535.022 1465.5 539.67 1457.5 532.129 C 1458.58 530.312 1458.77 530.655 1460.67 530.031 L 1537.41 529.867 C 1535.42 532.055 1533.44 534.591 1531.27 536.567 z"/>
<path transform="translate(0,0)" fill="rgb(145,213,144)" d="M 893.234 1050.19 C 895.425 1046.86 898.185 1042.87 901.782 1040.98 C 908.752 1037.31 992.536 1036.98 1000.44 1039.15 C 1003.62 1043.55 1007.49 1047.93 1008.43 1053.42 C 1011.23 1069.77 1009.01 1109 1008.96 1127.3 L 1008.78 1271.23 C 1008.75 1297.05 1007.37 1323.71 1009.1 1349.45 L 1008.64 1352.01 C 1004.64 1354.94 905.904 1353.04 892.098 1353.01 A 14459.7 14459.7 0 0 0 891.993 1207.52 C 894.165 1194.48 892.426 1175.99 892.415 1162.28 C 892.387 1125.01 891.468 1087.41 893.234 1050.19 z"/>
<path transform="translate(0,0)" fill="rgb(126,83,121)" d="M 1207.86 1353.73 L 1207.8 1118.35 L 1207.49 1047.85 C 1207.42 1035.35 1206.59 1022.34 1207.8 1009.92 C 1208.25 1005.37 1209.21 1001.88 1212.34 998.42 C 1216.29 994.054 1220.68 993.38 1226.32 993.06 C 1245.05 991.995 1264.28 992.781 1283.06 992.807 C 1292.33 992.82 1303.67 991.639 1312.67 993.156 C 1315.21 993.585 1317.6 994.697 1319.47 996.498 C 1327.33 1004.1 1324.89 1023.09 1324.92 1033.17 C 1322.21 1049.08 1324.57 1087.13 1324.49 1105.92 L 1324.14 1272.5 C 1324.12 1298.68 1325.8 1327.85 1323.92 1353.7 A 3785.44 3785.44 0 0 0 1248.53 1352.97 C 1235.43 1352.92 1220.77 1351.62 1207.86 1353.73 z"/>
<path transform="translate(0,0)" fill="rgb(24,34,42)" d="M 1397.29 417.988 C 1400.92 433.661 1405.4 447.564 1419.89 456.609 C 1431.89 464.101 1449 471.096 1462.7 474.762 C 1466.79 474.912 1471.33 474.636 1475.26 475.75 C 1480.13 480.746 1498.85 479.92 1506.47 481.81 C 1502.66 485.521 1498.28 489.227 1494.83 493.247 C 1483.05 504.66 1470.23 516.661 1460.67 530.031 C 1458.77 530.655 1458.58 530.312 1457.5 532.129 C 1465.5 539.67 1516.74 535.022 1531.27 536.567 C 1484.63 586.024 1436.01 633.652 1388.97 682.741 C 1376.56 669.58 1325.51 613.517 1310.49 613 C 1308.89 612.945 1307.3 612.997 1305.7 613.067 C 1301.81 614.891 1298.67 616.958 1295.53 619.895 C 1262.4 650.8 1232.19 685.544 1200.55 718.006 A 5550 5550 0 0 1 1149.18 770.065 C 1135.41 783.716 1121.23 797.003 1108.25 811.431 A 1754.12 1754.12 0 0 0 1083.7 787.989 C 1104.88 763.312 1123.8 736.397 1144.54 711.281 C 1187.76 658.948 1232.4 607.718 1275.37 555.198 A 4825.59 4825.59 0 0 1 1330.91 487.808 C 1342.33 473.966 1360.65 448.025 1375.27 438.3 L 1376.23 437.961 C 1382.74 432.348 1388.77 426.188 1394.89 420.163 L 1397.29 417.988 z"/>
<path transform="translate(0,0)" fill="rgb(202,57,48)" d="M 1462.7 474.762 C 1466.79 474.912 1471.33 474.636 1475.26 475.75 C 1480.13 480.746 1498.85 479.92 1506.47 481.81 C 1502.66 485.521 1498.28 489.227 1494.83 493.247 C 1487.4 485.655 1466.76 481.559 1462.7 474.762 z"/>
<path transform="translate(0,0)" fill="rgb(202,57,48)" d="M 1376.23 437.961 C 1382.74 432.348 1388.77 426.188 1394.89 420.163 C 1400.16 429.827 1402.19 440.854 1407.77 450.764 C 1397.51 446.669 1385.89 443.243 1376.23 437.961 z"/>
<path transform="translate(0,0)" fill="rgb(138,193,235)" d="M 1050.33 1353.47 L 1050.55 1072.36 C 1050.53 1024.8 1048.74 976.65 1050.7 929.163 C 1050.93 923.673 1051.77 917.465 1054.22 912.493 C 1054.75 911.405 1055.51 910.144 1056.5 909.421 C 1059.21 907.458 1063.99 907.102 1067.19 906.85 C 1077.6 906.027 1149.41 905.775 1156.57 908.252 C 1160.67 909.671 1164.74 912.362 1166.58 916.445 C 1168.32 920.295 1168.38 925.615 1168.55 929.825 C 1169.63 958.162 1168.12 986.91 1168.34 1015.31 C 1169.21 1127.89 1167.05 1240.6 1168.73 1353.14 C 1149.19 1354.52 1128.84 1353.34 1109.21 1353.51 C 1090.53 1353.67 1068.52 1355.7 1050.33 1353.47 z"/>
<path transform="translate(0,0)" fill="rgb(211,133,60)" d="M 1364.33 819.485 C 1371.42 811.523 1377.06 808.559 1387.85 807.938 C 1399.15 807.288 1410.71 808.29 1422.04 808.276 C 1435.19 808.26 1449.41 806.551 1462.4 808.076 C 1467.05 808.621 1472.02 809.889 1475.67 812.985 C 1480.3 816.91 1481.85 824.089 1482.08 829.842 C 1482.86 849.297 1482.1 869.066 1482.01 888.547 L 1481.73 994.206 L 1481.1 1353.08 C 1467.63 1353.76 1367.84 1354.92 1362.95 1352.72 C 1365.4 1303.95 1363.59 1254.34 1363.57 1205.49 L 1363.65 954.87 L 1363.36 867.738 C 1363.3 852.359 1361.53 834.566 1364.33 819.485 z"/>
</svg>