<svg version="1.1" xmlns="http://www.w3.org/2000/svg" style="display: block;" viewBox="0 0 2048 2048" width="1024" height="1024">
<path transform="translate(0,0)" fill="rgb(179,207,236)" d="M 0 0 L 2048 0 L 2048 2048 L 0 2048 L 0 0 z"/>
<path transform="translate(0,0)" fill="rgb(254,254,254)" d="M 1850.39 1128.28 C 1854.85 1128.51 1858.98 1128.99 1862.99 1131.11 C 1869.3 1134.43 1873.68 1140.14 1875.45 1147.02 C 1877 1153.07 1876.21 1159.82 1872.98 1165.2 C 1868.52 1172.6 1862.27 1175.16 1854.17 1176.99 C 1848.55 1177.02 1844.18 1176.34 1839.36 1173.26 A 23.8071 23.8071 0 0 1 1828.92 1158.01 A 25.1476 25.1476 0 0 1 1832.97 1138.15 C 1837.4 1131.97 1843.09 1129.49 1850.39 1128.28 z"/>
<path transform="translate(0,0)" fill="rgb(254,254,254)" d="M 196.168 999.19 C 200.856 998.87 205.225 998.574 209.744 1000.1 C 216.996 1002.55 223.133 1007.89 226.185 1014.96 C 228.616 1020.58 228.869 1027 226.52 1032.69 C 223.387 1040.29 217.157 1044 209.883 1046.95 C 204.572 1047.95 199.303 1048.11 194.135 1046.31 A 24.4873 24.4873 0 0 1 179.779 1033.28 C 177.094 1027.29 176.813 1020.22 179.334 1014.13 C 182.663 1006.09 188.574 1002.58 196.168 999.19 z"/>
<path transform="translate(0,0)" fill="rgb(254,254,254)" d="M 1835.37 266.345 C 1842.27 266.873 1848.15 267.943 1854.32 271.368 A 36.0174 36.0174 0 0 1 1871.93 293.785 A 37.1903 37.1903 0 0 1 1867.23 323.001 C 1860.4 333.591 1850.55 337.661 1838.74 340.102 C 1829.61 340.229 1821.97 338.997 1814.37 333.438 A 37.002 37.002 0 0 1 1799.82 308.991 C 1798.36 299.387 1800.57 289.328 1806.42 281.509 C 1813.58 271.914 1823.85 267.759 1835.37 266.345 z"/>
<path transform="translate(0,0)" fill="rgb(1,1,1)" d="M 1357.85 130.423 C 1409.42 125.904 1463.42 135.624 1511.25 154.87 A 360.152 360.152 0 0 1 1706.3 344.84 A 366.194 366.194 0 0 1 1721.43 592.43 C 1717.11 607.215 1711.35 621.373 1705.58 635.633 C 1714.44 655.876 1725.62 675.083 1734.16 695.516 C 1747.99 728.589 1756.75 763.745 1765.83 798.338 C 1775.14 800.972 1783.75 804.063 1792 809.197 C 1807.29 818.697 1818.64 833.31 1822.74 850.967 A 63.5806 63.5806 0 0 1 1814.94 899.355 C 1804.71 915.624 1789.87 924.229 1771.48 928.502 C 1769.8 986.632 1771.59 1044.88 1771.31 1103.04 L 1771.07 1588.15 L 1770.97 1752.24 C 1771 1775.91 1773.1 1811.11 1770.28 1833.18 C 1768.3 1848.67 1760.64 1864.44 1749.9 1875.74 C 1736.84 1889.49 1718.92 1897.37 1700.18 1899.18 C 1684.83 1900.65 1669.06 1899.97 1653.64 1899.94 L 1577.79 1899.83 L 1322.63 1899.77 L 931.073 1899.88 L 795.93 1899.4 C 771.637 1899.29 747.219 1898.57 722.939 1899.18 C 708.8 1899.53 697.982 1904.18 684.518 1907.17 C 674.025 1909.5 663.461 1910.03 652.75 1910.34 A 144.669 144.669 0 0 1 650.377 1910.44 C 622.632 1911.27 594.676 1910.69 566.912 1910.73 L 410.728 1910.91 L 325.031 1910.96 C 301.943 1910.96 277.167 1912.24 254.452 1907.63 C 233.305 1903.34 214.311 1892.56 198.79 1877.68 C 174.807 1854.69 165.747 1827.03 165.037 1794.4 C 163.311 1715.06 165.059 1634.02 164.996 1554.47 L 164.785 1490.77 C 164.606 1472.19 162.883 1451.51 166.525 1433.27 A 107.996 107.996 0 0 1 195.21 1379.45 C 218.808 1355.15 246.855 1346.8 279.96 1346.5 L 279.558 526.375 C 279.349 499.367 282.484 476.344 302.426 456.377 A 78.2074 78.2074 0 0 1 338.291 435.662 C 359.989 430.143 390.657 432.889 413.403 432.938 A 7444.98 7444.98 0 0 0 505.604 432.674 C 524.811 411.157 560.562 384.963 584.634 368.329 A 750.608 750.608 0 0 1 956.352 235.629 C 1012.16 231.178 1066.81 232.513 1121.94 242.614 C 1139.16 223.141 1159.45 206.582 1180.91 192.024 C 1234.87 155.398 1292.81 135.272 1357.85 130.423 z"/>
<path transform="translate(0,0)" fill="rgb(127,192,107)" d="M 1150.33 1051.23 C 1158.38 1050.52 1165.23 1050.35 1172.61 1054.08 A 32.5489 32.5489 0 0 1 1189.01 1074.15 C 1191.59 1083.02 1190.55 1093.15 1185.82 1101.15 C 1180.82 1109.59 1173.19 1114.45 1163.88 1116.94 C 1157.5 1117.49 1151.03 1117.51 1144.96 1115.27 A 30.6896 30.6896 0 0 1 1127 1098.2 C 1123.36 1089.54 1123.38 1079.16 1127.22 1070.57 C 1131.85 1060.26 1140.15 1054.98 1150.33 1051.23 z"/>
<path transform="translate(0,0)" fill="rgb(127,192,107)" d="M 1754.71 831.119 C 1762.1 830.672 1769.2 831.087 1775.9 834.538 C 1783.75 838.58 1789.18 845.764 1791.68 854.155 C 1794.37 863.177 1793.77 873.474 1789.03 881.73 C 1783.83 890.796 1775.94 895.083 1766.26 897.892 C 1758.76 898.485 1751.84 897.814 1745.08 894.244 A 31.9836 31.9836 0 0 1 1729.11 874.309 C 1726.62 865.351 1727.51 854.988 1732.26 846.903 C 1737.39 838.164 1745.19 833.738 1754.71 831.119 z"/>
<path transform="translate(0,0)" fill="rgb(238,141,154)" d="M 537.134 1089.19 C 544.071 1088.94 550.665 1089.98 556.998 1092.94 C 565.663 1096.98 572.653 1104.42 575.687 1113.54 C 578.649 1122.44 577.325 1132.41 572.775 1140.54 C 567.054 1150.76 558.127 1155.89 547.269 1159.12 C 538.699 1159.76 531.17 1159.06 523.543 1154.77 A 35.3764 35.3764 0 0 1 506.65 1132.4 A 34.9541 34.9541 0 0 1 511.198 1105.42 C 517.374 1095.72 526.314 1091.53 537.134 1089.19 z"/>
<path transform="translate(0,0)" fill="rgb(250,180,106)" d="M 855.917 757.291 C 863.131 756.973 871.438 759.309 877.473 763.247 C 885.743 768.643 890.949 777.456 892.671 787.091 C 894.35 796.486 892.646 806.222 886.974 814.002 C 880.367 823.064 871.388 826.22 860.85 828.105 C 852.612 828.118 844.939 826.565 838.017 821.908 A 36.121 36.121 0 0 1 822.806 798.352 A 35.2111 35.2111 0 0 1 828.855 771.735 C 835.638 762.323 844.987 759.093 855.917 757.291 z"/>
<path transform="translate(0,0)" fill="rgb(127,192,107)" d="M 1355.69 1249.2 C 1363.15 1248.85 1369.35 1248.61 1376.43 1251.56 C 1385.19 1255.22 1391.83 1262.57 1395.09 1271.44 C 1398.57 1280.91 1398.54 1292.38 1394.03 1301.51 C 1388.86 1311.97 1380.11 1316.71 1369.52 1320.13 C 1361.57 1321.45 1353.97 1321.08 1346.61 1317.5 C 1337.84 1313.22 1331.52 1305.02 1328.74 1295.75 A 38.5604 38.5604 0 0 1 1332.36 1265.5 C 1337.86 1256.16 1345.66 1252.04 1355.69 1249.2 z"/>
<path transform="translate(0,0)" fill="rgb(250,180,106)" d="M 263.711 1377.35 C 292.684 1376.2 321.989 1377.11 350.997 1377.1 L 508.505 1376.91 L 609.22 1376.83 C 627.586 1376.81 646.969 1375.6 665.206 1377.43 C 677.423 1378.66 687.397 1382.15 697.878 1388.55 C 718.164 1400.94 730.987 1421.05 736.429 1443.89 C 717.385 1424.88 699.821 1413.33 674.049 1405.56 L 672.903 1405.32 L 670.987 1404.96 C 666.747 1404.11 662.659 1403.43 658.333 1403.18 C 629.26 1401.54 599.382 1402.83 570.234 1402.83 L 405.899 1402.82 L 316.141 1402.66 C 297.515 1402.59 276.54 1400.57 258.291 1404.33 C 233.601 1409.43 215.199 1422.58 196.72 1438.93 C 200.96 1426.37 205.034 1415.11 213.395 1404.61 C 226.321 1388.37 243.269 1379.76 263.711 1377.35 z"/>
<path transform="translate(0,0)" fill="rgb(250,180,106)" d="M 195.851 1529.67 C 195.74 1502.05 200.912 1478.32 221.049 1458.11 C 233.185 1445.94 249.9 1436.41 266.907 1433.34 C 281.561 1430.68 298.053 1431.97 312.945 1431.98 L 386.432 1432.08 L 645.999 1432.17 C 670.058 1432.32 691.368 1440.85 708.451 1458.09 A 99.3818 99.3818 0 0 1 737.164 1528.3 L 737.144 1529.8 C 729.861 1525.94 721.404 1505.77 715.598 1498.03 C 702.462 1480.53 683.028 1464.72 660.653 1461.66 C 641.357 1459.02 620.331 1460.16 600.816 1460.03 A 10321.4 10321.4 0 0 0 490.241 1459.86 L 360.806 1460.32 C 334.282 1460.33 307.167 1459.21 280.716 1461.04 C 270.677 1461.73 260 1463.36 250.803 1467.54 C 211.148 1485.57 207.146 1522.43 197.373 1528.79 C 196.882 1529.11 196.359 1529.37 195.851 1529.67 z"/>
<path transform="translate(0,0)" fill="rgb(254,208,67)" d="M 1061.88 1499 A 17653.9 17653.9 0 0 1 1238.56 1498.99 L 1238.24 1757.7 C 1219.49 1759.4 1199.33 1757.99 1180.44 1758 L 1062.07 1758.03 L 1061.88 1499 z"/>
<path transform="translate(0,0)" fill="rgb(254,254,254)" d="M 354.978 464.223 C 370.649 462.907 386.857 463.747 402.592 463.852 A 2180.29 2180.29 0 0 1 472.015 464.835 C 454.112 486.375 394.064 550.104 387.043 572.699 C 383.582 583.836 385.881 621.155 385.903 634.725 L 386.016 752.911 L 386.156 1305.5 L 386.313 1346.67 C 361.292 1347.27 336.169 1346.8 311.137 1346.75 C 310.211 1277.74 311.363 1208.58 311.503 1139.56 L 311.136 840.531 L 311.257 631.515 C 311.284 592.541 309.867 552.686 312.056 513.808 C 312.533 505.342 313.694 496.94 318.03 489.485 C 325.962 475.843 340.066 467.84 354.978 464.223 z"/>
<path transform="translate(0,0)" fill="rgb(127,192,107)" d="M 856.014 1196.06 A 14436.5 14436.5 0 0 1 1031.08 1196 L 1031.03 1584.77 L 1031.04 1700.4 C 1031.06 1719.19 1032.59 1739.3 1030.72 1757.94 A 8998.34 8998.34 0 0 0 856.005 1757.56 L 856.014 1196.06 z"/>
<path transform="translate(0,0)" fill="rgb(225,224,224)" d="M 1740.16 1142.59 C 1741.34 1159.97 1740.84 1177.61 1740.85 1195.04 L 1740.84 1280.53 L 1740.63 1541.38 L 1740.37 1730.65 L 1740.4 1790.42 C 1740.41 1802.86 1740.97 1815.77 1739.75 1828.14 C 1738.83 1837.38 1734.46 1846.45 1728.37 1853.4 C 1718.56 1864.6 1705.98 1867.89 1691.74 1868.56 C 1672.06 1869.5 1652.17 1868.96 1632.47 1868.97 L 1530 1868.99 L 1213.65 1868.9 L 909.76 1868.52 L 806.913 1868.51 C 786.42 1868.51 765.764 1868.97 745.294 1868.08 C 761.808 1843.52 768.913 1818.15 769.112 1788.64 L 1364.91 1788.81 L 1552.46 1788.77 L 1611.42 1788.93 C 1621.67 1788.96 1632.3 1789.52 1642.51 1788.81 C 1649.17 1788.34 1657.04 1786.73 1661.78 1781.59 C 1663.63 1779.59 1664.52 1777.22 1664.32 1774.49 C 1664.02 1770.26 1660.75 1764.26 1657.4 1761.72 C 1653.99 1759.14 1648.91 1758.29 1644.76 1758.04 C 1634.78 1757.45 1624.56 1758.23 1614.55 1758.26 L 1550.13 1758.14 L 1361.84 1758.28 C 1330.96 1758.33 1299.82 1759.32 1268.97 1758.5 L 1268.96 1730.49 C 1276.34 1726.51 1285.08 1723.99 1292.88 1720.8 A 2243.44 2243.44 0 0 0 1346.19 1698.07 C 1404.59 1671.65 1461.44 1634.4 1510.26 1592.97 A 745.398 745.398 0 0 0 1694.08 1363.95 C 1702.17 1348.07 1709.13 1331.49 1716.2 1315.13 C 1722.71 1300.05 1728.32 1284.79 1734.28 1269.5 C 1735.95 1265.2 1738.7 1260.7 1739.51 1256.15 C 1741.01 1247.76 1739.78 1237.3 1739.75 1228.64 C 1739.64 1202.56 1737.77 1169.07 1740.04 1143.76 L 1740.16 1142.59 z"/>
<path transform="translate(0,0)" fill="rgb(239,162,92)" d="M 195.851 1529.67 C 196.359 1529.37 196.882 1529.11 197.373 1528.79 C 207.146 1522.43 211.148 1485.57 250.803 1467.54 C 260 1463.36 270.677 1461.73 280.716 1461.04 C 307.167 1459.21 334.282 1460.33 360.806 1460.32 L 490.241 1459.86 A 10321.4 10321.4 0 0 1 600.816 1460.03 C 620.331 1460.16 641.357 1459.02 660.653 1461.66 C 683.028 1464.72 702.462 1480.53 715.598 1498.03 C 721.404 1505.77 729.861 1525.94 737.144 1529.8 A 1109.15 1109.15 0 0 1 737.848 1562.39 C 738.411 1616.22 737.969 1670.1 737.907 1723.93 C 737.878 1748.83 740.156 1791.41 735.524 1814.11 C 732.102 1830.88 725.489 1844.32 713.377 1856.5 C 702.512 1867.43 687.929 1875.53 672.651 1878.13 C 657.185 1880.75 640.177 1879.5 624.482 1879.46 L 548.076 1879.25 L 291.044 1879.73 C 262.273 1879.71 241.607 1875.52 220.728 1854.32 C 209.886 1843.31 201.147 1829.92 197.918 1814.62 C 194.831 1799.99 195.79 1784.11 195.779 1769.24 L 195.769 1713.3 C 195.782 1652.11 195.02 1590.84 195.851 1529.67 z"/>
<path transform="translate(0,0)" fill="rgb(1,1,1)" d="M 629.961 1567.04 C 635.053 1567.24 639.13 1567.74 643.13 1571.19 C 646.035 1573.69 647.997 1577 648.231 1580.88 C 648.539 1585.97 646.466 1590.25 643.249 1594.05 C 634.235 1604.71 623.073 1614.49 613.162 1624.38 A 6782.51 6782.51 0 0 1 556.355 1680.97 L 499.91 1736.69 C 488.69 1747.86 477.734 1759.75 465.859 1770.21 C 462.625 1773.06 457.715 1777.7 453.339 1777.88 C 449.669 1778.03 445.792 1776.67 442.864 1774.51 C 433.415 1767.55 424.663 1756.8 416.25 1748.46 C 389.675 1722.09 364.431 1694.44 337.333 1668.62 C 332.069 1663.56 320.407 1653.56 318.816 1646.33 C 317.969 1642.48 319.781 1637.97 322.335 1635.14 C 325.428 1631.73 330.027 1630.3 334.552 1630.38 C 337.842 1630.44 340.596 1631.46 343.213 1633.41 C 357.502 1644.11 370.429 1659.89 383.071 1672.69 L 452.144 1741.82 C 465.518 1729.56 478.137 1716.15 491.006 1703.34 L 587.539 1606.53 C 599.212 1595.03 610.236 1581.7 622.722 1571.16 C 624.948 1569.29 627.263 1568.09 629.961 1567.04 z"/>
<path transform="translate(0,0)" fill="rgb(235,99,88)" d="M 1365.7 185.429 C 1366.01 185.398 1366.32 185.355 1366.63 185.335 C 1440.91 180.56 1517.99 209.478 1574.39 257.272 C 1635.91 309.412 1673.1 387.328 1679.42 467.264 A 287.055 287.055 0 0 1 1611.63 676.234 C 1554.34 743.59 1479.18 775.803 1392.21 782.784 C 1312.98 785.285 1237.2 762.594 1176.88 709.909 C 1120.72 660.867 1082.17 585.679 1077.16 511.022 A 297.973 297.973 0 0 1 1152.41 289.738 C 1208.28 226.4 1281.67 190.958 1365.7 185.429 z"/>
<path transform="translate(0,0)" fill="rgb(1,1,1)" d="M 1377.16 261.126 C 1381.34 261.186 1385.36 261.234 1388.71 264.094 C 1395.93 270.258 1393.25 287.972 1393.19 296.525 A 181.695 181.695 0 0 1 1478.1 325.201 C 1533.3 361.062 1554.14 402.445 1567.63 464.71 C 1576.28 464.576 1591.28 462.388 1598.35 468.29 C 1600.92 470.432 1602.42 473.466 1602.47 476.822 C 1602.52 481.175 1600.4 485.176 1597.15 487.986 C 1589.51 494.574 1576.22 491.68 1567.04 490.889 C 1565.7 529.065 1554.82 563.421 1531.28 593.795 C 1493.92 642.011 1453.83 662.226 1393.97 669.673 C 1393.93 675.382 1394.38 681.401 1393.91 687.064 C 1393.36 693.489 1391.32 696.942 1386.52 701.098 C 1385.18 701.349 1383.85 701.617 1382.49 701.719 C 1378.86 701.991 1374.93 701.251 1372.25 698.607 C 1366.05 692.482 1368.12 678.075 1368.29 669.915 C 1326.66 666.309 1289.02 651.113 1257.71 623.27 C 1218.68 588.568 1196.85 543.798 1193.86 491.642 C 1183.5 491.918 1172.3 493.361 1163.73 486.133 C 1161.47 484.225 1159.36 481.534 1159.38 478.427 C 1159.39 475.827 1160.94 473.47 1162.73 471.704 C 1171.2 463.357 1183.73 464.762 1194.59 464.987 C 1196.58 427.014 1213.7 390.325 1237.59 361.352 C 1260.58 333.478 1294.51 311.176 1329.65 302.252 C 1341.66 299.201 1353.86 297.979 1366.16 296.802 C 1365.96 288.634 1364.48 277.897 1367.3 270.201 C 1369.17 265.067 1372.41 263.344 1377.16 261.126 z"/>
<path transform="translate(0,0)" fill="rgb(254,254,254)" d="M 1364.81 554.343 A 68.2914 68.2914 0 0 1 1323.66 523.771 C 1313.85 507.91 1311 489.667 1315.4 471.579 A 66.4932 66.4932 0 0 1 1346.17 429.711 A 66.261 66.261 0 0 1 1396.14 422.663 C 1413.41 427.127 1428.4 437.375 1437.32 452.997 C 1446.77 469.551 1450.06 490.587 1444.75 509.014 C 1440 525.49 1429.33 538.626 1414.33 546.82 C 1405.43 554.849 1388.12 557.304 1376.42 556.675 C 1372.62 556.471 1368.32 555.896 1364.81 554.343 z"/>
<path transform="translate(0,0)" fill="rgb(235,99,88)" d="M 1364.81 554.343 C 1361.97 548.08 1347.46 545.668 1340.73 522.143 C 1338.4 514.002 1337.73 504.568 1342.21 497.006 C 1344.18 493.674 1347.31 490.55 1351.21 489.693 C 1353.89 489.104 1356.4 489.63 1358.68 491.14 C 1367.95 497.299 1365.35 506.577 1367.92 515.643 C 1368.89 519.065 1371.65 521.216 1374.72 522.679 C 1378.83 524.638 1384.61 526.316 1388.95 524.126 C 1397.32 519.897 1397.15 506.671 1400.04 499.004 C 1401.29 495.684 1403.79 492.541 1407.21 491.308 C 1410.63 490.074 1414.98 490.391 1418.18 492.103 C 1421.95 494.121 1424.91 498.322 1426.05 502.397 C 1430.43 518.028 1421.57 533.6 1414.33 546.82 C 1405.43 554.849 1388.12 557.304 1376.42 556.675 C 1372.62 556.471 1368.32 555.896 1364.81 554.343 z"/>
<path transform="translate(0,0)" fill="rgb(254,254,254)" d="M 1393.58 323.282 C 1420.93 326.712 1447.89 336.45 1470.45 352.425 C 1508.48 379.366 1531.78 418.531 1539.71 464.206 C 1529.86 464.407 1516.5 461.653 1507.96 467.238 C 1504.12 469.745 1501.11 473.654 1500.44 478.263 C 1500.03 481.043 1500.81 483.636 1502.76 485.684 C 1510.42 493.757 1530.55 491.173 1540.97 491.759 C 1538.96 528.762 1524.33 562.818 1500.05 590.699 C 1473.61 621.067 1434.08 639.689 1394.18 642.522 A 2008.6 2008.6 0 0 1 1394.05 583.327 C 1401.63 581.283 1409.06 579.482 1416.29 576.321 C 1439.55 566.144 1458.83 545.247 1467.75 521.524 C 1476.55 498.15 1474.94 470.264 1464.52 447.683 C 1453.76 424.353 1435.98 407.782 1411.81 399.016 C 1386.13 389.701 1361.7 392.197 1337.21 403.68 C 1314.87 417.311 1298.33 435.371 1291.11 461.024 A 96.6417 96.6417 0 0 0 1300.78 536.061 C 1315.2 561.009 1339.93 575.933 1367.27 583.071 A 3174.67 3174.67 0 0 1 1367.57 643.245 A 156.091 156.091 0 0 1 1277.57 604.945 C 1242.98 574.996 1223.53 536.629 1220.38 490.987 C 1229.5 491.068 1246.66 493.181 1254 486.8 C 1256.23 484.865 1257.32 482.236 1257.47 479.346 C 1257.67 475.228 1256.54 470.563 1253.27 467.807 C 1247.02 462.542 1228.72 464.985 1220.71 465.067 C 1225.95 432.609 1235.46 405.392 1257.16 380.137 C 1284.89 347.86 1323.36 327.6 1365.74 324.218 C 1365.61 334.358 1363.7 350.099 1369.68 358.804 C 1371.32 361.189 1373.69 362.837 1376.61 363.147 C 1380.2 363.529 1384.68 362.118 1387.47 359.837 C 1395.85 352.984 1392.86 333.178 1393.58 323.282 z"/>
<path transform="translate(0,0)" fill="rgb(254,254,254)" d="M 417.718 579.41 C 436.644 556.1 454.725 532.07 474.485 509.451 C 505.03 474.489 538.691 443.745 575.032 414.895 C 719.382 300.299 913.408 248.661 1095.88 269.462 C 1090.56 279.283 1083.32 288.271 1077.05 297.514 C 1025.96 372.787 1009.43 465.155 1026.51 553.951 A 353.683 353.683 0 0 0 1174.92 776.683 A 364.447 364.447 0 0 0 1450.26 830.359 C 1549.96 810.878 1630.43 754.11 1686.87 670.304 C 1708.04 703.871 1726.71 764.463 1734.61 803.864 C 1733.3 804.515 1732.03 805.213 1730.75 805.928 C 1715.32 814.58 1703.22 827.537 1698.67 844.988 C 1692.87 867.212 1699.28 886.431 1710.3 905.631 C 1658.06 962.077 1602.83 1016.02 1549 1070.94 L 1464.92 1155.66 C 1441.59 1179.56 1418.9 1204.1 1394.63 1227.07 C 1390.11 1224.33 1385.67 1221.57 1380.63 1219.89 C 1361.8 1213.64 1343.7 1217.84 1326.43 1226.2 C 1313.52 1215.47 1301.71 1201.93 1289.8 1190.02 L 1215.66 1115.36 C 1222.15 1095.53 1224.59 1076.48 1215.5 1056.98 C 1208.19 1041.28 1195.12 1028.49 1178.69 1022.7 C 1158.11 1015.44 1139.14 1021.37 1120.45 1030.67 C 1093.97 1008.87 1070.87 982.185 1046.31 958.196 L 982.434 895.16 C 959.466 872.719 936.253 850.692 914.551 826.992 C 917.753 820.737 920.644 814.48 922.314 807.631 C 926.479 790.556 923.223 770.815 914.03 755.84 C 905.412 741.799 891.122 732.651 875.212 729.038 C 857.11 724.926 836.313 727.696 820.566 737.775 C 806.542 746.75 795.382 761.861 791.994 778.287 C 787.966 797.82 793.88 814.689 804.495 830.897 C 783.406 854.795 760.037 876.743 737.405 899.168 L 665.238 971.689 L 606.294 1030.52 C 594.632 1042.27 583.421 1054.81 571.007 1065.77 C 553.616 1058.58 533.651 1056.9 515.966 1064.21 A 66.659 66.659 0 0 0 479.834 1101.01 C 473.415 1117.24 474.315 1136.39 481.627 1152.2 C 488.938 1168 502.481 1179.48 518.864 1185.04 A 68.6643 68.6643 0 0 0 572.098 1181 C 587.125 1173.39 599.432 1159.37 604.549 1143.28 C 611.466 1121.52 605.894 1103.33 595.715 1083.82 L 707.776 971.195 C 747.679 931.642 788.186 892.709 827.128 852.185 A 160.262 160.262 0 0 0 830.893 853.463 C 855.157 861.417 869.721 860.253 892.792 848.573 C 928.979 883.027 963.888 918.769 999.119 954.189 L 1099.72 1055.1 A 114.534 114.534 0 0 0 1095.39 1066.84 C 1090.58 1082.57 1093.1 1101.26 1100.81 1115.67 C 1108.65 1130.31 1123.04 1141.87 1138.97 1146.54 C 1158.94 1152.39 1177.04 1148.66 1194.94 1138.8 C 1233.66 1173.86 1269.28 1212.63 1307.04 1248.79 C 1304.18 1253.71 1301.37 1258.97 1299.41 1264.32 C 1293.34 1280.85 1294.57 1297.96 1302.04 1313.75 A 68.1412 68.1412 0 0 0 1341.69 1348.99 A 66.8217 66.8217 0 0 0 1392.44 1345.42 C 1408.48 1337.33 1419.52 1322.78 1425.01 1305.88 C 1431.92 1284.63 1427.74 1266.51 1417.87 1247.11 C 1449.5 1218.57 1480.75 1184.68 1510.76 1154.07 L 1635.41 1028.15 C 1669.59 993.327 1703.16 957.622 1738.73 924.213 C 1741.81 953.325 1739.88 984.401 1739.95 1013.73 C 1740.06 1056.58 1741.33 1099.77 1740.16 1142.59 L 1740.04 1143.76 C 1737.77 1169.07 1739.64 1202.56 1739.75 1228.64 C 1739.78 1237.3 1741.01 1247.76 1739.51 1256.15 C 1738.7 1260.7 1735.95 1265.2 1734.28 1269.5 C 1728.32 1284.79 1722.71 1300.05 1716.2 1315.13 C 1709.13 1331.49 1702.17 1348.07 1694.08 1363.95 A 745.398 745.398 0 0 1 1510.26 1592.97 C 1461.44 1634.4 1404.59 1671.65 1346.19 1698.07 A 2243.44 2243.44 0 0 1 1292.88 1720.8 C 1285.08 1723.99 1276.34 1726.51 1268.96 1730.49 A 14998.7 14998.7 0 0 0 1268.96 1562.14 C 1268.94 1539.38 1271 1504.64 1268.54 1483.57 C 1268.1 1479.8 1266.61 1476.71 1263.94 1474 C 1260.38 1470.38 1255.76 1470.08 1250.95 1469.6 C 1230.29 1467.53 1207.98 1469.05 1187.14 1469.03 L 1062.08 1468.94 A 17026.8 17026.8 0 0 1 1061.74 1276.62 L 1061.63 1216.45 C 1061.62 1204.63 1062.31 1192.28 1061 1180.53 C 1060.56 1176.62 1059.31 1172.93 1056.46 1170.08 C 1052.6 1166.22 1044.39 1165.86 1039.16 1165.71 C 999.073 1164.56 958.607 1165.85 918.484 1165.9 L 869.282 1165.99 C 860.514 1166.02 851.254 1165.52 842.562 1166.48 C 837.894 1167 833.231 1167.54 829.797 1171.02 C 826.729 1174.13 825.624 1177.93 825.315 1182.17 C 823.812 1202.75 825.147 1224.33 825.237 1245.04 L 825.365 1355.71 L 825.338 1617.99 A 7617.78 7617.78 0 0 1 825.357 1757.42 L 769.012 1757.31 L 769.071 1539.02 L 769.123 1481.57 C 769.132 1467.66 770.109 1452.74 767.386 1439.06 C 763.215 1418.11 753.626 1398.68 738.645 1383.38 C 722.436 1366.83 703.112 1355.17 680.488 1349.91 C 658.106 1344.7 612.804 1347.27 587.618 1347.26 A 9706.89 9706.89 0 0 1 418.056 1346.9 L 417.759 839.213 L 417.375 681.348 C 417.23 647.41 416.589 613.332 417.718 579.41 z"/>
</svg>