<svg version="1.1" xmlns="http://www.w3.org/2000/svg" style="display: block;" viewBox="0 0 2048 2048" width="1024" height="1024">
<path transform="translate(0,0)" fill="rgb(134,198,230)" d="M 0 0 L 2048 0 L 2048 2048 L 0 2048 L 0 0 z"/>
<path transform="translate(0,0)" fill="rgb(37,139,105)" d="M 1738.82 1330.8 C 1739.01 1334.64 1738.56 1337.73 1740.8 1340.97 C 1747.76 1344.45 1759.09 1341.89 1767.02 1341.97 L 1766.9 1388.11 C 1757.9 1382.34 1748.45 1375.28 1737.97 1372.67 C 1738.11 1358.78 1737.77 1344.65 1738.82 1330.8 z"/>
<path transform="translate(0,0)" fill="rgb(90,178,133)" d="M 1738.83 1263.88 C 1748.07 1262.84 1757.72 1263.19 1767.02 1263.02 L 1767.02 1341.97 C 1759.09 1341.89 1747.76 1344.45 1740.8 1340.97 C 1738.56 1337.73 1739.01 1334.64 1738.82 1330.8 A 6158.58 6158.58 0 0 0 1738.83 1263.88 z"/>
<path transform="translate(0,0)" fill="rgb(49,152,122)" d="M 1492.84 754.254 L 1570.84 753.965 L 1570.99 849.961 L 1478.66 850.099 C 1489.47 820.003 1491.14 785.902 1492.84 754.254 z"/>
<path transform="translate(0,0)" fill="rgb(90,178,133)" d="M 262.931 1025.78 C 301.084 1024.92 339.806 1023.69 377.953 1024.81 L 377.99 1117.33 L 378.116 1117.85 A 1950.7 1950.7 0 0 0 378.279 1187.23 C 369.239 1197.71 362.803 1210.23 353.792 1220.41 C 346.115 1229.08 319.55 1249.07 309.237 1256.7 C 295.044 1269.22 284.172 1287.43 273.775 1303.14 C 270.451 1308.16 267.294 1314.09 263.25 1318.5 C 261.952 1251.6 262.819 1184.57 262.927 1117.65 L 262.931 1025.78 z"/>
<path transform="translate(0,0)" fill="rgb(51,55,79)" d="M 262.931 1025.78 C 301.084 1024.92 339.806 1023.69 377.953 1024.81 L 377.99 1117.33 C 365.417 1118.29 352.143 1117.42 339.504 1117.42 L 262.927 1117.65 L 262.931 1025.78 z"/>
<path transform="translate(0,0)" fill="rgb(51,55,79)" d="M 262.791 835.025 L 480.969 835.894 L 481.026 931.123 L 481.019 1025.51 C 469.273 1024.35 456.908 1025.03 445.096 1025 L 377.953 1024.81 C 339.806 1023.69 301.084 1024.92 262.931 1025.78 L 262.774 931.99 L 262.791 835.025 z"/>
<path transform="translate(0,0)" fill="rgb(30,33,40)" d="M 262.774 931.99 L 400.335 931.677 C 427.159 931.52 454.224 930.343 481.026 931.123 L 481.019 1025.51 C 469.273 1024.35 456.908 1025.03 445.096 1025 L 377.953 1024.81 C 339.806 1023.69 301.084 1024.92 262.931 1025.78 L 262.774 931.99 z"/>
<path transform="translate(0,0)" fill="rgb(146,147,198)" d="M 481.019 1025.51 C 491.989 1026.66 503.438 1026.01 514.48 1026 L 575.969 1025.92 C 574.526 1089.53 575.969 1153.43 575.81 1217.08 C 575.587 1240.09 574.106 1264.08 576.354 1286.99 C 548.036 1309.07 519.566 1330.54 492.123 1353.75 C 486.142 1358.9 479.973 1363.93 474.197 1369.3 C 464.045 1362.04 452.904 1355.92 442.446 1349.07 C 412.471 1329.44 382.438 1309.69 352.904 1289.4 C 338.215 1279.31 321.895 1269.32 309.237 1256.7 C 319.55 1249.07 346.115 1229.08 353.792 1220.41 C 362.803 1210.23 369.239 1197.71 378.279 1187.23 A 1950.7 1950.7 0 0 1 378.116 1117.85 L 377.99 1117.33 L 377.953 1024.81 L 445.096 1025 C 456.908 1025.03 469.273 1024.35 481.019 1025.51 z"/>
<path transform="translate(0,0)" fill="rgb(122,101,175)" d="M 378.116 1117.85 C 443.656 1118.54 509.542 1119.43 575.065 1118.12 L 574.93 1216.07 L 511.616 1215.88 C 485.747 1196.81 464.563 1172.67 430.826 1168.89 C 409.517 1166.5 394.473 1174.38 378.279 1187.23 A 1950.7 1950.7 0 0 1 378.116 1117.85 z"/>
<path transform="translate(0,0)" fill="rgb(28,115,180)" d="M 378.279 1187.23 C 394.473 1174.38 409.517 1166.5 430.826 1168.89 C 464.563 1172.67 485.747 1196.81 511.616 1215.88 L 574.93 1216.07 L 575.81 1217.08 C 575.587 1240.09 574.106 1264.08 576.354 1286.99 C 548.036 1309.07 519.566 1330.54 492.123 1353.75 C 486.142 1358.9 479.973 1363.93 474.197 1369.3 C 464.045 1362.04 452.904 1355.92 442.446 1349.07 C 412.471 1329.44 382.438 1309.69 352.904 1289.4 C 338.215 1279.31 321.895 1269.32 309.237 1256.7 C 319.55 1249.07 346.115 1229.08 353.792 1220.41 C 362.803 1210.23 369.239 1197.71 378.279 1187.23 z"/>
<path transform="translate(0,0)" fill="rgb(31,164,224)" d="M 417.018 1206.3 C 425.494 1205.32 435.561 1207.76 442.986 1211.77 A 42.3216 42.3216 0 0 1 463.449 1237.9 A 42.9604 42.9604 0 0 1 459.307 1271.19 C 451.647 1284.34 439.776 1289.55 425.708 1292.99 C 415.238 1294.1 405.143 1293.11 396.007 1287.48 C 386.124 1281.4 379.517 1271.32 377.252 1260 C 374.804 1247.75 377.074 1234.72 384.483 1224.55 C 392.582 1213.43 403.84 1208.45 417.018 1206.3 z"/>
<path transform="translate(0,0)" fill="rgb(28,115,180)" d="M 413.077 1221.11 C 420.003 1220.65 426.462 1220.54 432.972 1223.31 C 440.455 1226.49 446.442 1232.31 449.34 1239.96 A 29.0083 29.0083 0 0 1 448.455 1262.37 C 444.406 1271.07 436.723 1276.19 427.883 1279.17 A 32.6393 32.6393 0 0 1 410.114 1278.19 A 28.5349 28.5349 0 0 1 393.517 1262.79 A 30.2598 30.2598 0 0 1 392.814 1239.62 C 396.649 1229.75 403.894 1225.2 413.077 1221.11 z"/>
<path transform="translate(0,0)" fill="rgb(31,164,224)" d="M 511.616 1215.88 L 574.93 1216.07 L 575.81 1217.08 C 575.587 1240.09 574.106 1264.08 576.354 1286.99 C 548.036 1309.07 519.566 1330.54 492.123 1353.75 C 489.369 1348.56 491.214 1338.01 491.583 1332.13 C 492.595 1315.95 492.443 1296.42 498.316 1281.2 C 506.855 1259.08 518.244 1254.53 521.408 1227.61 C 518.44 1223.44 515.017 1219.7 511.616 1215.88 z"/>
<path transform="translate(0,0)" fill="rgb(37,139,105)" d="M 1478.66 850.099 L 1570.99 849.961 C 1570.95 869.056 1571.61 888.426 1570.82 907.487 A 690.432 690.432 0 0 1 1570.89 931.709 L 1766.36 931.097 A 3248.17 3248.17 0 0 1 1766.98 1022.12 C 1766.99 1053.08 1766.48 1084.14 1767.16 1115.09 L 1767.14 1205.99 L 1737.21 1206 C 1732.79 1193.67 1727.96 1182 1718.21 1172.83 C 1709.39 1164.53 1695.66 1158.79 1683.67 1156.81 C 1671.26 1154.76 1657.35 1155.86 1644.76 1155.88 L 1577.7 1156.04 C 1514.49 1156.19 1450.99 1154.55 1387.82 1155.83 L 1388.12 1155.3 C 1388.01 1110.93 1387.39 1066.38 1388.93 1022.05 C 1389.43 1015.41 1390.68 1007.52 1387.94 1001.29 C 1393.24 993.88 1401.52 987.55 1407.71 980.707 C 1421.19 965.811 1432.54 949.649 1442.95 932.527 C 1458.69 904.612 1469.8 881.102 1478.66 850.099 z"/>
<path transform="translate(0,0)" fill="rgb(90,178,133)" d="M 1388.93 1022.05 C 1414.24 1022.13 1439.63 1022.62 1464.94 1022.19 C 1489.83 1023.87 1515.5 1022.71 1540.47 1022.7 C 1549.68 1022.7 1561.07 1021.58 1569.98 1023.58 L 1570 1115.12 C 1561.49 1118.87 1414.76 1117.97 1389.03 1118.01 C 1389.14 1126.99 1391.32 1147.59 1388.12 1155.3 C 1388.01 1110.93 1387.39 1066.38 1388.93 1022.05 z"/>
<path transform="translate(0,0)" fill="rgb(19,94,74)" d="M 1569.98 1023.58 C 1594.2 1025.11 1619.14 1023.95 1643.42 1023.69 L 1766.98 1022.12 C 1766.99 1053.08 1766.48 1084.14 1767.16 1115.09 L 1645.52 1114.36 C 1620.4 1114.29 1595.09 1113.66 1570 1115.12 L 1569.98 1023.58 z"/>
<path transform="translate(0,0)" fill="rgb(49,152,122)" d="M 1570.89 931.709 L 1766.36 931.097 A 3248.17 3248.17 0 0 1 1766.98 1022.12 L 1643.42 1023.69 C 1619.14 1023.95 1594.2 1025.11 1569.98 1023.58 C 1561.07 1021.58 1549.68 1022.7 1540.47 1022.7 C 1515.5 1022.71 1489.83 1023.87 1464.94 1022.19 C 1479.5 1020.64 1495.28 1021.75 1509.98 1021.77 C 1529.77 1021.79 1550.12 1020.87 1569.84 1022.44 C 1570.31 992.266 1568.9 961.825 1570.89 931.709 z"/>
<path transform="translate(0,0)" fill="rgb(37,139,105)" d="M 1478.66 850.099 L 1570.99 849.961 C 1570.95 869.056 1571.61 888.426 1570.82 907.487 A 690.432 690.432 0 0 1 1570.89 931.709 C 1568.9 961.825 1570.31 992.266 1569.84 1022.44 C 1550.12 1020.87 1529.77 1021.79 1509.98 1021.77 C 1495.28 1021.75 1479.5 1020.64 1464.94 1022.19 C 1439.63 1022.62 1414.24 1022.13 1388.93 1022.05 C 1389.43 1015.41 1390.68 1007.52 1387.94 1001.29 C 1393.24 993.88 1401.52 987.55 1407.71 980.707 C 1421.19 965.811 1432.54 949.649 1442.95 932.527 C 1458.69 904.612 1469.8 881.102 1478.66 850.099 z"/>
<path transform="translate(0,0)" fill="rgb(19,94,74)" d="M 1478.66 850.099 L 1570.99 849.961 C 1570.95 869.056 1571.61 888.426 1570.82 907.487 C 1570.05 915.657 1570.19 923.761 1570.3 931.953 C 1527.88 932.189 1485.35 931.71 1442.95 932.527 C 1458.69 904.612 1469.8 881.102 1478.66 850.099 z"/>
<path transform="translate(0,0)" fill="rgb(31,164,224)" d="M 263.25 1318.5 C 267.294 1314.09 270.451 1308.16 273.775 1303.14 C 284.172 1287.43 295.044 1269.22 309.237 1256.7 C 321.895 1269.32 338.215 1279.31 352.904 1289.4 C 382.438 1309.69 412.471 1329.44 442.446 1349.07 C 452.904 1355.92 464.045 1362.04 474.197 1369.3 C 450.195 1393.67 432.333 1414.2 432.86 1450.61 C 432.932 1455.62 433.648 1460.29 434.779 1465.16 C 437.78 1473.06 440.824 1480.19 445.884 1487.04 C 455.728 1500.36 469.422 1511.9 481.172 1523.65 A 3600.51 3600.51 0 0 1 539.558 1582.95 C 549.058 1592.65 559.347 1601.87 568.307 1612.05 A 1530.5 1530.5 0 0 1 598.471 1643.69 C 608.591 1654.68 618.483 1667.33 630.731 1675.95 C 635.493 1679.3 640.426 1681.12 645.919 1682.84 C 610.971 1710.73 597.951 1716.87 554.9 1729.66 C 523.906 1738.07 496.204 1738.68 464.444 1736.19 C 437.578 1732.43 409.19 1724.63 384.741 1712.69 A 276.775 276.775 0 0 1 243.463 1554.76 C 225.85 1503.39 222.73 1433.54 237.419 1380.9 C 243.505 1359.08 253.39 1338.8 263.25 1318.5 z"/>
<path transform="translate(0,0)" fill="rgb(28,115,180)" d="M 434.779 1465.16 C 437.78 1473.06 440.824 1480.19 445.884 1487.04 C 455.728 1500.36 469.422 1511.9 481.172 1523.65 A 3600.51 3600.51 0 0 1 539.558 1582.95 C 549.058 1592.65 559.347 1601.87 568.307 1612.05 A 1530.5 1530.5 0 0 1 598.471 1643.69 C 608.591 1654.68 618.483 1667.33 630.731 1675.95 C 635.493 1679.3 640.426 1681.12 645.919 1682.84 C 610.971 1710.73 597.951 1716.87 554.9 1729.66 C 523.906 1738.07 496.204 1738.68 464.444 1736.19 C 455.108 1677.7 441.925 1619.12 429.044 1561.31 C 395.617 1559.92 362.151 1560.64 328.68 1558.78 C 347.172 1546.61 412.428 1501.73 423.957 1486.85 C 428.567 1480.9 430.491 1472.52 434.321 1465.93 C 434.471 1465.67 434.626 1465.42 434.779 1465.16 z"/>
<path transform="translate(0,0)" fill="rgb(31,164,224)" d="M 568.307 1612.05 A 1530.5 1530.5 0 0 1 598.471 1643.69 C 608.591 1654.68 618.483 1667.33 630.731 1675.95 C 635.493 1679.3 640.426 1681.12 645.919 1682.84 C 610.971 1710.73 597.951 1716.87 554.9 1729.66 C 556.04 1718.6 566.229 1616.7 568.307 1612.05 z"/>
<path transform="translate(0,0)" fill="rgb(254,254,254)" d="M 1142.1 1154.75 C 1148.22 1157.19 1235.86 1157.34 1244.25 1155.34 C 1264.11 1157.23 1284.9 1155.92 1304.87 1155.9 C 1332.46 1155.88 1360.25 1156.66 1387.82 1155.83 C 1450.99 1154.55 1514.49 1156.19 1577.7 1156.04 L 1644.76 1155.88 C 1657.35 1155.86 1671.26 1154.76 1683.67 1156.81 C 1695.66 1158.79 1709.39 1164.53 1718.21 1172.83 C 1727.96 1182 1732.79 1193.67 1737.21 1206 L 1767.14 1205.99 A 5220.44 5220.44 0 0 0 1767.02 1263.02 C 1757.72 1263.19 1748.07 1262.84 1738.83 1263.88 A 6158.58 6158.58 0 0 1 1738.82 1330.8 C 1737.77 1344.65 1738.11 1358.78 1737.97 1372.67 C 1748.45 1375.28 1757.9 1382.34 1766.9 1388.11 C 1796.47 1413.05 1816.98 1441.01 1820.59 1480.74 A 116.101 116.101 0 0 1 1793.22 1566.74 C 1777.72 1585.07 1761.4 1592.25 1737.91 1595.31 A 3912.44 3912.44 0 0 1 1738.41 1664.7 C 1738.43 1678.9 1739.84 1694.53 1736.82 1708.45 C 1734.52 1719.02 1729.42 1729.64 1721.86 1737.4 C 1706.17 1753.5 1687.48 1754.31 1666.54 1754.21 A 25583.3 25583.3 0 0 0 1391.73 1754 C 1372.42 1753.98 1310.61 1750.85 1296.8 1754.38 C 1296.61 1754.37 1296.41 1754.42 1296.24 1754.35 C 1291.55 1752.23 1287.47 1751.1 1282.24 1750.82 C 1259.63 1749.62 1236.23 1750.87 1213.51 1750.7 L 1062.67 1749.73 C 1042.21 1749.69 1014.23 1752.43 994.885 1747.59 C 986.693 1745.53 978.742 1740.47 972.678 1734.62 C 964.491 1726.72 960.05 1717.4 958.432 1706.23 C 956.027 1689.63 957.221 1672.04 957.409 1655.27 A 4261.93 4261.93 0 0 0 957.986 1581.31 L 958.99 1342.27 C 959.108 1304.84 960.056 1267.51 959.048 1230.09 C 955.164 1230.28 947.46 1231.38 944.272 1229.33 L 958.618 1229 C 958.881 1212.15 957.051 1192.74 967.038 1178.11 C 974.429 1167.29 987.165 1160.4 999.711 1157.34 C 1015.05 1153.59 1033.23 1155.69 1049 1155.76 L 1112.34 1155.93 C 1121.18 1155.99 1131.98 1157 1140.59 1155.11 C 1141.09 1154.99 1141.59 1154.87 1142.1 1154.75 z"/>
<path transform="translate(0,0)" fill="rgb(134,198,230)" d="M 1403.35 1425.08 C 1424.84 1424.37 1446.64 1425.32 1468.19 1425.14 C 1485.25 1425.01 1504.29 1423.15 1521.18 1425.13 C 1523.77 1425.44 1525.29 1426.25 1527.26 1427.9 C 1528.36 1430.46 1529 1432.21 1528.13 1435.01 C 1527.25 1437.86 1525.76 1438.68 1523.36 1440.04 L 1445.14 1440.66 C 1432.59 1440.76 1418.88 1441.93 1406.41 1440.57 C 1402.79 1440.17 1401.06 1440 1398.24 1437.76 C 1397.47 1435.42 1397.44 1433.94 1398.08 1431.61 C 1399.04 1428.09 1400.4 1426.85 1403.35 1425.08 z"/>
<path transform="translate(0,0)" fill="rgb(134,198,230)" d="M 1512.07 1281.54 C 1516.34 1281.24 1522.26 1280.52 1526.04 1282.91 C 1528.13 1284.23 1529.3 1286.67 1529.52 1289.08 C 1529.75 1291.56 1529.18 1293.74 1527.33 1295.49 C 1525.77 1296.96 1523.47 1297.62 1521.4 1297.85 C 1510.11 1299.14 1497.42 1298.03 1485.98 1298.04 L 1415.25 1298.38 C 1411.67 1298.52 1405.6 1299.34 1402.39 1297.69 C 1399.08 1295.99 1396.95 1293.87 1395.51 1290.43 C 1395.75 1287.74 1395.75 1286.96 1397.82 1284.97 C 1399.59 1283.26 1403.2 1282.32 1405.57 1282.06 C 1415.27 1281.01 1426.24 1282.11 1436.07 1282.1 A 3504.99 3504.99 0 0 0 1512.07 1281.54 z"/>
<path transform="translate(0,0)" fill="rgb(134,198,230)" d="M 1405.22 1564.42 C 1433.18 1563.79 1461.28 1564.23 1489.24 1564.35 C 1498.53 1564.39 1508.04 1563.01 1517.26 1563.65 C 1520.89 1563.9 1525.01 1564.92 1527.11 1568.2 C 1529.18 1571.42 1528.35 1574.96 1527.57 1578.39 C 1525.87 1580.33 1524.71 1580.7 1522.25 1581.39 C 1506.4 1581.43 1410.59 1583.09 1402.83 1580.46 C 1400.57 1579.7 1398.9 1577.94 1398.18 1575.66 C 1397.45 1573.36 1397.95 1570.13 1399.18 1568.09 C 1400.74 1565.48 1402.53 1565.29 1405.22 1564.42 z"/>
<path transform="translate(0,0)" fill="rgb(134,198,230)" d="M 1400.3 1464.69 C 1420.99 1464.14 1590.56 1463.68 1596.32 1465.89 C 1598.32 1467.98 1599.15 1468.53 1599.28 1471.59 C 1599.42 1474.85 1597.24 1477.36 1595.1 1479.48 C 1574.53 1481.98 1542.24 1480.12 1520.81 1480.13 C 1497.54 1480.13 1474.25 1479.93 1450.98 1480.24 C 1437.78 1480.41 1424.54 1481.22 1411.34 1481.11 C 1408.57 1481.08 1404.67 1481.47 1402.24 1480.1 C 1399.82 1478.73 1398.54 1477.09 1397.83 1474.42 C 1396.9 1470.92 1398.75 1467.69 1400.3 1464.69 z"/>
<path transform="translate(0,0)" fill="rgb(134,198,230)" d="M 1401.84 1604.25 L 1532.31 1604.67 C 1554.81 1604.6 1578.3 1602.98 1600.68 1604.41 C 1605.3 1604.71 1612.38 1605.28 1616.09 1608.38 C 1617.94 1609.94 1618.07 1610.77 1618.23 1612.97 C 1616.73 1615.81 1615.66 1617.07 1613.13 1619.04 C 1610.03 1619.72 1607.02 1619.94 1603.86 1620.07 C 1572.12 1621.36 1539.86 1620.1 1508.06 1620.32 C 1474.69 1620.55 1440.95 1622.2 1407.62 1621.23 C 1405.5 1621.17 1402.57 1621.08 1400.87 1619.71 C 1400.42 1619.35 1399.94 1618.99 1399.58 1618.52 C 1398.1 1616.63 1397.74 1613.91 1397.88 1611.57 C 1398.09 1608.05 1399.29 1606.55 1401.84 1604.25 z"/>
<path transform="translate(0,0)" fill="rgb(134,198,230)" d="M 1399.65 1322.96 C 1440.57 1322.34 1481.59 1322.93 1522.51 1322.98 C 1547.8 1323.01 1573.81 1321.81 1599.02 1323.38 C 1602.04 1323.57 1606.21 1323.67 1608.72 1325.56 C 1610.6 1326.97 1611.6 1328.88 1611.55 1331.26 C 1611.48 1334.62 1609.81 1335.71 1607.68 1337.84 C 1605.98 1338.59 1604.33 1339.05 1602.47 1339.21 C 1586.24 1340.68 1409.01 1341.1 1402.84 1338.83 C 1401.05 1338.18 1399.9 1337.01 1399.02 1335.35 C 1396.87 1331.29 1398.41 1327.06 1399.65 1322.96 z"/>
<path transform="translate(0,0)" fill="rgb(222,96,152)" d="M 1051.22 1447.97 L 1115.14 1447.92 L 1115.04 1672.04 L 1052.04 1672.01 A 17406.9 17406.9 0 0 0 1051.22 1447.97 z"/>
<path transform="translate(0,0)" fill="rgb(28,115,180)" d="M 1130.53 1396.79 C 1151.7 1397.45 1172.86 1396.47 1194.03 1397.79 L 1193.91 1673 L 1130.37 1673.06 L 1130.53 1396.79 z"/>
<path transform="translate(0,0)" fill="rgb(90,178,133)" d="M 1207.48 1338.26 C 1227.78 1338.46 1248.12 1338.23 1268.42 1338.21 C 1270.22 1449.69 1268.64 1561.42 1268.2 1672.92 L 1208.05 1673.03 C 1208.92 1561.57 1209.18 1449.7 1207.48 1338.26 z"/>
<path transform="translate(0,0)" fill="rgb(248,145,56)" d="M 1283.59 1274.5 L 1343.97 1274.73 A 24341.6 24341.6 0 0 1 1344.75 1550.45 L 1344.91 1628.71 C 1344.96 1643.14 1345.84 1658.21 1344.49 1672.54 L 1283.01 1672.54 L 1283 1387.87 L 1282.92 1312.22 C 1282.92 1300.15 1281.52 1286.3 1283.59 1274.5 z"/>
<path transform="translate(0,0)" fill="rgb(0,0,0)" d="M 1705.12 1367.98 C 1716.39 1366.87 1727.18 1369.71 1737.97 1372.67 C 1748.45 1375.28 1757.9 1382.34 1766.9 1388.11 C 1796.47 1413.05 1816.98 1441.01 1820.59 1480.74 A 116.101 116.101 0 0 1 1793.22 1566.74 C 1777.72 1585.07 1761.4 1592.25 1737.91 1595.31 C 1726.79 1596.9 1715.65 1595.76 1704.53 1594.78 C 1697.46 1592.63 1690.31 1590.49 1683.49 1587.66 C 1667.76 1581.13 1647.25 1569.71 1640.81 1552.93 C 1638.4 1546.64 1637.99 1539.19 1640.82 1532.97 C 1644.47 1524.94 1652.07 1520.13 1659.94 1516.96 C 1656.24 1515.84 1652.6 1514.61 1649.14 1512.85 C 1637.78 1507.07 1628.5 1495.81 1624.62 1483.71 C 1621.65 1474.45 1621.78 1464.4 1626.37 1455.67 C 1633.3 1442.51 1644.76 1438.08 1658.13 1434.14 C 1655.8 1432.3 1653.37 1430.45 1651.21 1428.41 C 1645.62 1423.09 1641.01 1416.19 1640.92 1408.24 C 1640.83 1400.1 1645.4 1392.5 1650.9 1386.81 C 1665.47 1371.74 1685.15 1368.59 1705.12 1367.98 z"/>
<path transform="translate(0,0)" fill="rgb(30,33,40)" d="M 1142.1 1154.75 C 1148.22 1157.19 1235.86 1157.34 1244.25 1155.34 C 1264.11 1157.23 1284.9 1155.92 1304.87 1155.9 C 1332.46 1155.88 1360.25 1156.66 1387.82 1155.83 C 1450.99 1154.55 1514.49 1156.19 1577.7 1156.04 L 1644.76 1155.88 C 1657.35 1155.86 1671.26 1154.76 1683.67 1156.81 C 1695.66 1158.79 1709.39 1164.53 1718.21 1172.83 C 1727.96 1182 1732.79 1193.67 1737.21 1206 L 1767.14 1205.99 A 5220.44 5220.44 0 0 0 1767.02 1263.02 C 1757.72 1263.19 1748.07 1262.84 1738.83 1263.88 A 6158.58 6158.58 0 0 1 1738.82 1330.8 C 1737.77 1344.65 1738.11 1358.78 1737.97 1372.67 C 1727.18 1369.71 1716.39 1366.87 1705.12 1367.98 L 1705.66 1266.66 C 1705.74 1249.05 1707.44 1229.74 1704.75 1212.38 C 1703.81 1206.36 1702.69 1202.86 1698.42 1198.48 C 1692.97 1192.9 1686.62 1190.25 1678.93 1189.49 C 1654.8 1187.1 1628.85 1188.95 1604.56 1188.99 L 1458.33 1189.12 L 1177.58 1189.39 C 1124.72 1189.36 1071.73 1188.39 1018.88 1189.13 C 1011.62 1189.23 1002.98 1189.17 997.589 1194.59 C 993.268 1198.94 991.702 1203.62 991.206 1209.63 C 989.192 1234.03 990.858 1259.79 990.739 1284.35 A 8965.64 8965.64 0 0 0 990.041 1429.47 L 989.012 1632.72 C 988.991 1652.04 987.753 1671.48 988.198 1690.76 C 988.428 1700.74 989.577 1709.28 997.343 1716.39 C 1002.29 1720.93 1007.4 1723.1 1014.04 1723.61 C 1026 1724.53 1038.25 1723.96 1050.25 1723.9 L 1109.49 1723.65 L 1302.89 1723.69 L 1552.64 1723.87 L 1631.61 1723.92 C 1646 1723.92 1660.73 1724.55 1675.08 1723.6 C 1683.48 1723.05 1692.13 1721.02 1697.97 1714.49 C 1702.12 1709.86 1703.45 1702.64 1704.17 1696.64 C 1705.6 1684.8 1704.67 1672.13 1704.63 1660.18 L 1704.53 1594.78 C 1715.65 1595.76 1726.79 1596.9 1737.91 1595.31 A 3912.44 3912.44 0 0 1 1738.41 1664.7 C 1738.43 1678.9 1739.84 1694.53 1736.82 1708.45 C 1734.52 1719.02 1729.42 1729.64 1721.86 1737.4 C 1706.17 1753.5 1687.48 1754.31 1666.54 1754.21 A 25583.3 25583.3 0 0 0 1391.73 1754 C 1372.42 1753.98 1310.61 1750.85 1296.8 1754.38 C 1296.61 1754.37 1296.41 1754.42 1296.24 1754.35 C 1291.55 1752.23 1287.47 1751.1 1282.24 1750.82 C 1259.63 1749.62 1236.23 1750.87 1213.51 1750.7 L 1062.67 1749.73 C 1042.21 1749.69 1014.23 1752.43 994.885 1747.59 C 986.693 1745.53 978.742 1740.47 972.678 1734.62 C 964.491 1726.72 960.05 1717.4 958.432 1706.23 C 956.027 1689.63 957.221 1672.04 957.409 1655.27 A 4261.93 4261.93 0 0 0 957.986 1581.31 L 958.99 1342.27 C 959.108 1304.84 960.056 1267.51 959.048 1230.09 C 955.164 1230.28 947.46 1231.38 944.272 1229.33 L 958.618 1229 C 958.881 1212.15 957.051 1192.74 967.038 1178.11 C 974.429 1167.29 987.165 1160.4 999.711 1157.34 C 1015.05 1153.59 1033.23 1155.69 1049 1155.76 L 1112.34 1155.93 C 1121.18 1155.99 1131.98 1157 1140.59 1155.11 C 1141.09 1154.99 1141.59 1154.87 1142.1 1154.75 z"/>
<path transform="translate(0,0)" fill="rgb(19,94,74)" d="M 1737.21 1206 L 1767.14 1205.99 A 5220.44 5220.44 0 0 0 1767.02 1263.02 C 1757.72 1263.19 1748.07 1262.84 1738.83 1263.88 C 1738.26 1244.57 1740.07 1225.2 1737.21 1206 z"/>
<path transform="translate(0,0)" fill="rgb(0,0,0)" d="M 562.862 539.061 C 561.162 536.11 559.696 533.066 558.292 529.967 C 521.143 447.964 517.073 339.851 533.658 252.461 C 536.558 237.179 539.44 220.865 544.912 206.278 C 571.839 211.257 598.805 216.398 625.074 224.243 C 690.032 243.642 747.042 279.448 801.164 319.367 C 821.636 309.727 841.924 301.451 863.415 294.338 C 978.762 256.166 1094.61 263.782 1203.12 318.35 C 1218.38 303.871 1235.5 291.237 1252.91 279.506 C 1314.57 237.977 1381.88 214.461 1455.89 207.241 C 1487.34 316.027 1477.24 432.08 1434.05 536.046 C 1475.74 609.239 1493.74 669.231 1492.84 754.254 C 1491.14 785.902 1489.47 820.003 1478.66 850.099 C 1469.8 881.102 1458.69 904.612 1442.95 932.527 C 1432.54 949.649 1421.19 965.811 1407.71 980.707 C 1401.52 987.55 1393.24 993.88 1387.94 1001.29 C 1390.68 1007.52 1389.43 1015.41 1388.93 1022.05 C 1387.39 1066.38 1388.01 1110.93 1388.12 1155.3 L 1387.82 1155.83 C 1360.25 1156.66 1332.46 1155.88 1304.87 1155.9 C 1284.9 1155.92 1264.11 1157.23 1244.25 1155.34 C 1235.86 1157.34 1148.22 1157.19 1142.1 1154.75 C 1141.59 1154.87 1141.09 1154.99 1140.59 1155.11 C 1131.98 1157 1121.18 1155.99 1112.34 1155.93 L 1049 1155.76 C 1033.23 1155.69 1015.05 1153.59 999.711 1157.34 C 987.165 1160.4 974.429 1167.29 967.038 1178.11 C 957.051 1192.74 958.881 1212.15 958.618 1229 L 944.272 1229.33 C 947.46 1231.38 955.164 1230.28 959.048 1230.09 C 960.056 1267.51 959.108 1304.84 958.99 1342.27 L 957.986 1581.31 A 4261.93 4261.93 0 0 1 957.409 1655.27 C 957.221 1672.04 956.027 1689.63 958.432 1706.23 C 960.05 1717.4 964.491 1726.72 972.678 1734.62 C 978.742 1740.47 986.693 1745.53 994.885 1747.59 C 1014.23 1752.43 1042.21 1749.69 1062.67 1749.73 L 1213.51 1750.7 C 1236.23 1750.87 1259.63 1749.62 1282.24 1750.82 C 1287.47 1751.1 1291.55 1752.23 1296.24 1754.35 C 1296.41 1754.42 1296.61 1754.37 1296.8 1754.38 A 144.246 144.246 0 0 1 1334.02 1771.92 C 1361.24 1790.09 1377.73 1814.9 1384.06 1846.87 L 602.213 1846.77 C 619.388 1806.78 641.954 1779.24 679.458 1756.81 C 676.382 1730.52 675.062 1704.64 674.36 1678.2 C 664.524 1682.17 656.482 1683.32 645.919 1682.84 C 640.426 1681.12 635.493 1679.3 630.731 1675.95 C 618.483 1667.33 608.591 1654.68 598.471 1643.69 A 1530.5 1530.5 0 0 0 568.307 1612.05 C 559.347 1601.87 549.058 1592.65 539.558 1582.95 A 3600.51 3600.51 0 0 0 481.172 1523.65 C 469.422 1511.9 455.728 1500.36 445.884 1487.04 C 440.824 1480.19 437.78 1473.06 434.779 1465.16 C 433.648 1460.29 432.932 1455.62 432.86 1450.61 C 432.333 1414.2 450.195 1393.67 474.197 1369.3 C 479.973 1363.93 486.142 1358.9 492.123 1353.75 C 519.566 1330.54 548.036 1309.07 576.354 1286.99 C 619.816 1254.36 664.576 1223.5 709.242 1192.55 C 746.403 1166.8 783.143 1139.4 824.092 1119.88 C 792.172 1111.06 762.367 1099.81 732.712 1085.03 C 635.671 1036.65 562.841 966.829 527.973 862.291 C 498.409 773.657 506.679 674.088 540.174 587.803 C 546.68 571.044 554.829 555.119 562.862 539.061 z"/>
<path transform="translate(0,0)" fill="rgb(254,254,254)" d="M 943.881 895.44 C 944.927 895.736 946.534 896.266 947.401 896.895 C 949.443 898.376 960.672 919.107 965.766 924.635 C 976.024 935.769 990.304 943.715 1005.7 943.956 C 1022.96 944.226 1035.49 934.413 1047.2 923.119 C 1053.98 916.581 1057.88 899.087 1065.65 895.711 L 1067.16 896.419 C 1068.14 899.134 1068.05 901.278 1067.92 904.092 C 1059.15 923.685 1047.54 939.578 1026.81 947.609 C 1012.48 953.16 997.108 952.695 983.082 946.496 C 966.753 939.279 950.467 923.94 944.335 906.979 C 942.704 902.468 941.821 899.937 943.881 895.44 z"/>
<path transform="translate(0,0)" fill="rgb(254,254,254)" d="M 702.768 1393 C 706.452 1378.71 712.045 1364.65 716.929 1350.73 C 738.354 1289.65 765.596 1229.17 801.699 1175.22 C 808.327 1165.31 815.789 1153.56 824.707 1145.65 L 827.025 1145.07 L 828.08 1146.43 C 826.174 1157.13 812.548 1170.8 806.802 1180.38 C 787.18 1213.1 767.842 1246.18 751.883 1280.89 C 720.229 1349.74 697.321 1425.3 681.501 1499.33 C 678.472 1477.63 697.724 1418.45 702.768 1393 z"/>
<path transform="translate(0,0)" fill="rgb(222,96,152)" d="M 971.668 819.189 C 984.042 819.03 1027.91 815.549 1035.86 822.896 C 1037.82 824.703 1038.57 826.951 1038.68 829.549 C 1039.11 839.544 1025.57 852.942 1019.08 859.608 C 1015.68 862.728 1012.27 865.85 1008.46 868.472 C 1005.8 870.306 1002.77 871.925 999.45 871.136 C 990.219 868.944 970.966 846.069 966.775 837.416 C 964.838 833.416 963.227 828.466 965.138 824.147 C 966.394 821.309 969.029 820.348 971.668 819.189 z"/>
<path transform="translate(0,0)" fill="rgb(31,164,224)" d="M 702.768 1393 C 697.724 1418.45 678.472 1477.63 681.501 1499.33 C 681.398 1505.56 679.418 1512.68 678.359 1518.88 C 659.245 1499.95 641.484 1478.52 621.297 1460.87 C 647.483 1437.28 676.088 1416.06 702.768 1393 z"/>
<path transform="translate(0,0)" fill="rgb(247,142,162)" d="M 1304.88 885.381 C 1326.56 882.761 1354.13 887.794 1372.05 900.724 C 1379.19 905.875 1385.87 913.517 1387.06 922.552 C 1387.99 929.59 1385.53 936.264 1381.13 941.719 C 1369.47 956.184 1346.9 962.063 1329.24 963.924 C 1306.12 966.213 1280.3 963.711 1260.67 950.158 C 1252.77 944.704 1245.52 936.902 1244.04 927.07 C 1243.05 920.476 1245.09 913.969 1249.11 908.731 C 1261.02 893.242 1286.61 887.681 1304.88 885.381 z"/>
<path transform="translate(0,0)" fill="rgb(247,142,162)" d="M 682.772 881.406 C 705.091 880.582 732.684 884.274 750.865 898.393 C 758.546 904.358 765.358 912.488 766.446 922.497 C 767.227 929.678 764.592 936.468 759.976 941.903 C 746.327 957.974 721.41 962.823 701.598 964.869 C 676.785 965.551 649.494 961.099 629.459 945.328 C 622.491 939.844 616.149 932.203 615.38 923.032 C 614.792 916.035 617.631 909.481 622.171 904.275 C 636.81 887.491 661.788 882.965 682.772 881.406 z"/>
<path transform="translate(0,0)" fill="rgb(254,254,254)" d="M 944.272 1229.33 A 101.356 101.356 0 0 1 907.644 1220.9 C 875.998 1207.17 848.244 1177.46 835.894 1145.39 C 833.559 1139.33 829.718 1128.68 832.439 1122.6 C 840.03 1122.55 850.036 1125.94 857.615 1127.54 C 874.394 1131.07 891.347 1134.73 908.336 1137.09 C 992.752 1148.78 1082.49 1145.29 1164.95 1123.59 C 1159.08 1135.24 1150.67 1145.05 1142.1 1154.75 C 1141.59 1154.87 1141.09 1154.99 1140.59 1155.11 C 1131.98 1157 1121.18 1155.99 1112.34 1155.93 L 1049 1155.76 C 1033.23 1155.69 1015.05 1153.59 999.711 1157.34 C 987.165 1160.4 974.429 1167.29 967.038 1178.11 C 957.051 1192.74 958.881 1212.15 958.618 1229 L 944.272 1229.33 z"/>
<path transform="translate(0,0)" fill="rgb(134,198,230)" d="M 1387.94 1001.29 C 1390.68 1007.52 1389.43 1015.41 1388.93 1022.05 C 1387.39 1066.38 1388.01 1110.93 1388.12 1155.3 L 1387.82 1155.83 C 1360.25 1156.66 1332.46 1155.88 1304.87 1155.9 C 1284.9 1155.92 1264.11 1157.23 1244.25 1155.34 C 1220.01 1144.62 1198.91 1130.17 1173.37 1121.45 C 1256.63 1097.57 1324.86 1060.86 1387.94 1001.29 z"/>
<path transform="translate(0,0)" fill="rgb(172,55,78)" d="M 1425.99 253.538 L 1426.61 254.271 C 1439.99 314.177 1438.27 380.892 1424.32 440.487 C 1419.98 459.027 1413.71 477.139 1408.33 495.403 C 1388.27 464.105 1364.07 435.582 1337.94 409.186 C 1309.63 380.956 1275.15 355.7 1240.17 336.397 C 1274.13 304.816 1332.41 275.739 1376.52 263.088 C 1392.89 258.395 1409.17 255.747 1425.99 253.538 z"/>
<path transform="translate(0,0)" fill="rgb(172,55,78)" d="M 573.497 251.524 C 637.807 264.856 712.149 295.966 760.017 341.533 C 724.211 360.39 692.243 387.862 662.721 415.183 A 550.118 550.118 0 0 0 589.613 498.916 C 562.428 451.853 560.298 365.306 564.883 311.553 C 566.605 291.361 570.076 271.48 573.497 251.524 z"/>
<path transform="translate(0,0)" fill="rgb(30,33,40)" d="M 976.601 284.426 C 977.089 284.344 977.574 284.235 978.066 284.179 C 1025.64 278.831 1100.75 292.919 1137.75 322.693 C 1153.57 335.433 1172.78 355.927 1174.51 377.279 C 1175.57 390.259 1169.35 402.539 1161.13 412.186 C 1136.33 441.274 1090.02 451.197 1053.83 454.325 C 999.297 458.918 937.308 453.748 892.955 418.526 C 876.508 405.465 859.144 386.432 857.072 364.534 C 855.67 349.715 860.71 335.855 870.341 324.67 C 893.582 297.678 942.793 286.632 976.601 284.426 z"/>
<path transform="translate(0,0)" fill="rgb(134,198,230)" d="M 1010.03 301.195 C 1017.44 300.698 1024.33 300.074 1031.45 302.744 A 30.8249 30.8249 0 0 1 1049.05 319.572 A 31.5046 31.5046 0 0 1 1048.99 344.65 C 1044.94 353.862 1037.4 359.515 1028.27 363.091 C 1021.67 364.322 1014.76 364.463 1008.33 362.276 A 28.7852 28.7852 0 0 1 991.457 347.4 C 987.467 339.11 986.954 328.506 990.188 319.888 C 993.822 310.204 1000.9 305.065 1010.03 301.195 z"/>
<path transform="translate(0,0)" fill="rgb(254,254,254)" d="M 763.892 534.414 C 804.896 532.177 846.137 546.436 878.052 572.081 A 167.914 167.914 0 0 1 940.845 687.52 A 153.282 153.282 0 0 1 906.121 803.373 C 886.732 826.887 852.982 862.799 824.706 873.952 C 813.538 878.357 802.171 879.677 790.3 880.788 C 750.053 881.714 705.846 864.428 675.534 838.328 C 638.298 806.266 614.954 764.062 611.448 714.619 C 608.346 670.88 623.469 624.44 652.349 591.357 C 681.405 558.071 719.655 537.347 763.892 534.414 z"/>
<path transform="translate(0,0)" fill="rgb(31,164,224)" d="M 794.585 590.271 C 819.256 587.898 842.579 594.464 862.432 609.36 C 888.885 629.209 904.285 663.101 908.864 695.207 C 914.264 733.078 907.469 777.914 883.871 808.991 C 866.309 832.119 844.203 847.765 815.239 851.681 C 792.199 854.08 770.67 848.755 751.872 835.174 C 723.126 814.406 705.506 778.663 700.114 744.133 C 694.1 705.609 702.653 663.524 725.988 631.983 C 742.913 609.108 766.421 594.647 794.585 590.271 z"/>
<path transform="translate(0,0)" fill="rgb(0,0,0)" d="M 862.641 688.625 C 870.683 713.529 870.739 742.303 858.989 766.073 C 850.915 782.405 835.818 799.672 817.974 805.193 C 805.097 809.177 791.91 807.206 780.266 800.677 C 761.71 790.272 749.2 770.025 743.762 749.881 C 736.429 722.719 738.721 691.2 753.033 666.644 C 761.513 652.095 775.679 638.66 792.429 634.558 C 808.554 630.608 822.634 636.388 836.203 644.389 C 843.322 644.096 851.512 647.162 856.821 651.98 A 29.0487 29.0487 0 0 1 866.423 673.425 C 866.473 678.844 864.556 683.664 862.641 688.625 z"/>
<path transform="translate(0,0)" fill="rgb(254,254,254)" d="M 836.203 644.389 C 843.322 644.096 851.512 647.162 856.821 651.98 A 29.0487 29.0487 0 0 1 866.423 673.425 C 866.473 678.844 864.556 683.664 862.641 688.625 C 858.524 693.374 853.738 697.276 847.801 699.523 A 26.2407 26.2407 0 0 1 827.148 698.707 A 29.7685 29.7685 0 0 1 811.952 681.479 A 26.8213 26.8213 0 0 1 813.452 660.849 C 818.304 651.222 826.473 647.388 836.203 644.389 z"/>
<path transform="translate(0,0)" fill="rgb(254,254,254)" d="M 1216.38 534.389 A 158.457 158.457 0 0 1 1330.31 565.893 C 1367.08 593.624 1392.1 633.866 1398.33 679.736 C 1404.66 726.399 1390.62 771.796 1361.93 808.767 C 1333.06 845.974 1290.34 867.828 1244.24 873.73 A 171.85 171.85 0 0 1 1122.95 837.51 C 1088.53 810.073 1066.59 768.065 1061.79 724.449 C 1057.11 682.018 1069.42 633.932 1096.47 600.607 C 1127.25 562.691 1167.71 539.234 1216.38 534.389 z"/>
<path transform="translate(0,0)" fill="rgb(31,164,224)" d="M 1192.47 589.323 C 1213.94 587.151 1235.17 591.389 1253.86 602.431 C 1284.25 620.388 1305.43 651.807 1313.77 685.764 A 151.091 151.091 0 0 1 1295.16 801.193 C 1277.28 830.108 1252.42 846.733 1219.65 854.452 C 1194.71 857.958 1170.1 850.931 1149.93 836.006 C 1120.17 813.989 1100.42 776.022 1095.33 739.75 C 1090.03 701.978 1098.27 662.106 1121.44 631.395 C 1139.13 607.961 1163.49 593.482 1192.47 589.323 z"/>
<path transform="translate(0,0)" fill="rgb(0,0,0)" d="M 1266.88 676.331 C 1267.01 676.641 1267.17 676.943 1267.28 677.26 C 1277.4 705.348 1278.21 738.232 1266.19 765.807 C 1258.51 783.407 1245.09 799.032 1226.91 806.123 C 1212.09 811.898 1195.95 811.017 1181.5 804.682 C 1162.86 796.502 1149.43 780.02 1142.26 761.238 C 1131.66 733.443 1133.45 698.945 1145.78 672.003 C 1153.41 655.32 1166.74 640.865 1184.38 634.769 C 1203.51 628.158 1221.57 633.836 1238.78 642.517 C 1247.96 644.469 1257.95 647.021 1263.28 655.597 C 1267.38 662.2 1267.28 668.859 1266.88 676.331 z"/>
<path transform="translate(0,0)" fill="rgb(254,254,254)" d="M 1238.78 642.517 C 1247.96 644.469 1257.95 647.021 1263.28 655.597 C 1267.38 662.2 1267.28 668.859 1266.88 676.331 C 1265.86 679.069 1264.92 682.042 1263.51 684.613 C 1259.84 691.31 1253.43 697.699 1245.89 699.69 C 1238.96 701.519 1231.54 700.028 1225.44 696.434 C 1218.71 692.472 1213.55 685.876 1211.82 678.222 C 1210.19 671.013 1211.43 662.633 1215.46 656.388 C 1220.68 648.289 1229.68 644.386 1238.78 642.517 z"/>
</svg>