<svg version="1.1" xmlns="http://www.w3.org/2000/svg" style="display: block;" viewBox="0 0 2048 2048" width="1024" height="1024">
<defs>
	<linearGradient id="Gradient1" gradientUnits="userSpaceOnUse" x1="1652.61" y1="1277.42" x2="1657.48" y2="1378.53">
		<stop class="stop0" offset="0" stop-opacity="1" stop-color="rgb(0,7,10)"/>
		<stop class="stop1" offset="1" stop-opacity="1" stop-color="rgb(7,40,51)"/>
	</linearGradient>
	<linearGradient id="Gradient2" gradientUnits="userSpaceOnUse" x1="248.727" y1="1282.21" x2="1745.88" y2="788.343">
		<stop class="stop0" offset="0" stop-opacity="1" stop-color="rgb(3,5,20)"/>
		<stop class="stop1" offset="1" stop-opacity="1" stop-color="rgb(10,15,46)"/>
	</linearGradient>
	<linearGradient id="Gradient3" gradientUnits="userSpaceOnUse" x1="1533.03" y1="1447.76" x2="1537.64" y2="1500.09">
		<stop class="stop0" offset="0" stop-opacity="1" stop-color="rgb(5,72,130)"/>
		<stop class="stop1" offset="1" stop-opacity="1" stop-color="rgb(8,97,179)"/>
	</linearGradient>
</defs>
<path transform="translate(0,0)" fill="rgb(104,191,223)" d="M 0 0 L 2048 0 L 2048 2048 L 0 2048 L 0 0 z"/>
<path transform="translate(0,0)" fill="rgb(252,252,251)" d="M 1660.13 932.957 C 1668.19 932.774 1676.28 932.956 1684.34 933.005 L 1686 935.128 L 1663.94 935.156 C 1663.97 951.879 1664.36 968.697 1663.81 985.408 C 1662.2 991.655 1664.87 1005.51 1660.21 1009.07 L 1660.03 997.486 C 1659.28 976.1 1660.07 954.375 1660.13 932.957 z"/>
<path transform="translate(0,0)" fill="rgb(236,231,231)" d="M 1570.99 1285 C 1569.9 1284.85 1569.14 1284.53 1568.13 1284.11 C 1566.24 1277.01 1567.17 1267.94 1566.99 1260.49 A 1568.94 1568.94 0 0 1 1566.19 1193.51 L 1566.02 1116.99 C 1566.05 1098.88 1565.71 1080.65 1567.86 1062.64 C 1568.06 1066.4 1567.58 1072.29 1569.85 1075.36 L 1570.86 1074.96 C 1571.64 1120.43 1571.2 1165.98 1571.27 1211.46 C 1571.31 1234.72 1573.13 1262.2 1570.99 1285 z"/>
<path transform="translate(0,0)" fill="rgb(145,115,161)" d="M 1503.66 1052.11 C 1515.3 1052.09 1549.51 1050.19 1559.5 1052.38 C 1561.2 1052.75 1561.84 1053.63 1563.06 1054.84 C 1564.94 1079.91 1564.4 1104.98 1564.38 1130.1 C 1564.35 1181.69 1562.98 1233.34 1563.09 1284.9 C 1537.64 1284.02 1511.49 1283.75 1486.06 1284.79 L 1486.05 1284.49 C 1482.73 1278.77 1484.59 1149.32 1484.51 1131.1 C 1484.45 1118.51 1485.87 1103.68 1483.3 1091.42 C 1485.16 1087.05 1488.16 1083 1490.42 1078.8 A 423.386 423.386 0 0 0 1503.66 1052.11 z"/>
<path transform="translate(0,0)" fill="rgb(155,142,200)" d="M 1503.66 1052.11 C 1515.3 1052.09 1549.51 1050.19 1559.5 1052.38 C 1561.2 1052.75 1561.84 1053.63 1563.06 1054.84 C 1560.55 1057 1560.84 1057.14 1560.6 1060.42 C 1559.33 1077.61 1561.31 1095.53 1560.97 1112.85 A 3127.83 3127.83 0 0 1 1487.34 1112.95 C 1487.35 1133.8 1489.51 1277.15 1486.05 1284.49 C 1482.73 1278.77 1484.59 1149.32 1484.51 1131.1 C 1484.45 1118.51 1485.87 1103.68 1483.3 1091.42 C 1485.16 1087.05 1488.16 1083 1490.42 1078.8 A 423.386 423.386 0 0 0 1503.66 1052.11 z"/>
<path transform="translate(0,0)" fill="rgb(80,117,197)" d="M 1568.08 995.663 C 1578.82 995.88 1589.53 996.069 1600.27 995.834 C 1611.1 995.644 1652.31 994.173 1660.03 997.486 L 1660.21 1009.07 C 1659 1074.06 1659.86 1139.31 1659.99 1204.32 L 1659.99 1257.17 C 1659.99 1266.03 1659.07 1276.13 1660.53 1284.88 L 1651.87 1285.19 L 1648.16 1285.16 L 1590.17 1285.32 C 1584.26 1285.32 1576.68 1284.24 1570.99 1285 C 1573.13 1262.2 1571.31 1234.72 1571.27 1211.46 C 1571.2 1165.98 1571.64 1120.43 1570.86 1074.96 L 1569.85 1075.36 C 1567.58 1072.29 1568.06 1066.4 1567.86 1062.64 C 1567.4 1040.36 1567.97 1017.95 1568.08 995.663 z"/>
<path transform="translate(0,0)" fill="rgb(252,252,251)" d="M 1568.08 995.663 C 1578.82 995.88 1589.53 996.069 1600.27 995.834 L 1601 998.165 L 1571.16 997.937 C 1571.08 1023.58 1571.51 1049.33 1570.86 1074.96 L 1569.85 1075.36 C 1567.58 1072.29 1568.06 1066.4 1567.86 1062.64 C 1567.4 1040.36 1567.97 1017.95 1568.08 995.663 z"/>
<path transform="translate(0,0)" fill="rgb(12,85,150)" d="M 1648.27 1265.73 C 1647.42 1230.52 1647.41 1195.2 1646.94 1159.97 C 1646.64 1136.58 1644.94 1111.99 1647.39 1088.71 C 1648.88 1094.93 1646.57 1118.02 1648.64 1121.22 L 1647.74 1119.34 L 1649.62 1120.54 C 1650.22 1118.51 1650.51 1116.88 1650.45 1114.78 L 1650.37 1112.74 L 1650.68 1113.9 C 1650.47 1104.39 1648.76 1090.9 1651.32 1081.98 C 1652.41 1111.7 1650.78 1141.53 1652.16 1171.2 C 1652.11 1191.3 1652.68 1211.66 1651.98 1231.73 A 4645.05 4645.05 0 0 1 1651.87 1285.19 L 1648.16 1285.16 L 1648.27 1265.73 z"/>
<path transform="translate(0,0)" fill="rgb(172,212,225)" d="M 1600.27 995.834 C 1611.1 995.644 1652.31 994.173 1660.03 997.486 L 1660.21 1009.07 C 1659 1074.06 1659.86 1139.31 1659.99 1204.32 L 1659.99 1257.17 C 1659.99 1266.03 1659.07 1276.13 1660.53 1284.88 L 1651.87 1285.19 A 4645.05 4645.05 0 0 0 1651.98 1231.73 C 1652.68 1211.66 1652.11 1191.3 1652.16 1171.2 C 1654.58 1153.01 1652.91 1132.46 1652.91 1114.03 L 1652.75 997.928 C 1635.64 999.356 1618.14 998.498 1601 998.165 L 1600.27 995.834 z"/>
<path transform="translate(0,0)" fill="url(#Gradient1)" d="M 1486.06 1284.79 C 1511.49 1283.75 1537.64 1284.02 1563.09 1284.9 C 1565.88 1285.91 1568.14 1285.82 1570.99 1285 C 1576.68 1284.24 1584.26 1285.32 1590.17 1285.32 L 1648.16 1285.16 L 1651.87 1285.19 L 1660.53 1284.88 L 1662.48 1285 C 1689.36 1285.4 1716.22 1284.75 1743.09 1284.91 L 1746.86 1285.62 C 1765.32 1283.97 1784.57 1284.98 1803.12 1285.07 L 1818.13 1285.02 C 1829.77 1285.32 1853.01 1281.1 1862.6 1287.49 C 1865.11 1289.17 1866.94 1291.9 1867.38 1294.91 C 1868.3 1301.23 1867.81 1349.11 1866.79 1356.91 C 1866.33 1360.46 1865.47 1364.37 1863.21 1367.25 C 1860.33 1370.91 1853.58 1371.16 1849.18 1371.58 C 1831.66 1373.23 1812.89 1371.72 1795.26 1371.57 L 1696.03 1371.16 L 1534.08 1371.29 C 1509.33 1371.25 1484.21 1372.08 1459.5 1370.99 C 1454.54 1370.77 1450.27 1370.55 1446.35 1367.08 C 1443.67 1364.72 1443.83 1361.38 1443.73 1358.03 C 1443.44 1347.8 1442.06 1293.57 1448.06 1288.42 C 1455.17 1282.32 1476.88 1284.97 1486.06 1284.79 z"/>
<path transform="translate(0,0)" fill="rgb(38,64,74)" d="M 1455.41 1291.65 C 1495.03 1290.05 1535.4 1291.5 1575.11 1291.51 L 1817.06 1291.7 C 1817.18 1304.23 1818.74 1318.83 1816.5 1331.07 C 1815.23 1338.01 1813.26 1341.69 1807.44 1345.7 C 1795.77 1349.3 1769.24 1347.27 1755.89 1347.44 A 12924.7 12924.7 0 0 1 1552.57 1347.38 C 1518.71 1347.2 1484.51 1348.86 1450.71 1346.96 C 1450.52 1334.33 1448.35 1308.52 1451.03 1296.92 C 1451.8 1293.6 1452.68 1293.47 1455.41 1291.65 z"/>
<path transform="translate(0,0)" fill="rgb(38,64,74)" d="M 1745.94 880.292 C 1756.87 880.065 1813.28 877.66 1819 883.064 L 1820.48 882.842 C 1822.75 892.446 1821.03 905.306 1821 915.388 L 1820.37 1001.26 A 13730.3 13730.3 0 0 1 1819.06 1159.53 A 6694.67 6694.67 0 0 1 1818.13 1285.02 L 1803.12 1285.07 C 1784.57 1284.98 1765.32 1283.97 1746.86 1285.62 L 1743.09 1284.91 C 1716.22 1284.75 1689.36 1285.4 1662.48 1285 L 1660.53 1284.88 C 1659.07 1276.13 1659.99 1266.03 1659.99 1257.17 L 1659.99 1204.32 C 1659.86 1139.31 1659 1074.06 1660.21 1009.07 C 1664.87 1005.51 1662.2 991.655 1663.81 985.408 C 1664.36 968.697 1663.97 951.879 1663.94 935.156 L 1686 935.128 L 1684.34 933.005 C 1704.49 933.047 1725.27 932.536 1745.32 934.644 C 1746.63 916.695 1745.94 898.283 1745.94 880.292 z"/>
<path transform="translate(0,0)" fill="rgb(252,252,251)" d="M 1745.94 880.292 C 1756.87 880.065 1813.28 877.66 1819 883.064 L 1749.74 882.929 L 1747.74 1147.85 L 1747.1 1238.57 C 1747.03 1254.15 1747.7 1270.08 1746.86 1285.62 L 1743.09 1284.91 C 1741.97 1168.59 1744.59 1052.19 1743.25 935.881 C 1724.21 935.223 1705.06 935.344 1686 935.128 L 1684.34 933.005 C 1704.49 933.047 1725.27 932.536 1745.32 934.644 C 1746.63 916.695 1745.94 898.283 1745.94 880.292 z"/>
<path transform="translate(0,0)" fill="rgb(10,16,22)" d="M 1819 883.064 L 1820.48 882.842 C 1822.75 892.446 1821.03 905.306 1821 915.388 L 1820.37 1001.26 A 13730.3 13730.3 0 0 1 1819.06 1159.53 A 6694.67 6694.67 0 0 1 1818.13 1285.02 L 1803.12 1285.07 A 13337.5 13337.5 0 0 1 1805.52 973.045 C 1806.15 943.482 1805.21 913.793 1806.62 884.265 C 1810.93 884.311 1814.88 884.575 1819 883.064 z"/>
<path transform="translate(0,0)" fill="rgb(80,117,197)" d="M 1686 935.128 C 1705.06 935.344 1724.21 935.223 1743.25 935.881 C 1744.59 1052.19 1741.97 1168.59 1743.09 1284.91 C 1716.22 1284.75 1689.36 1285.4 1662.48 1285 L 1660.53 1284.88 C 1659.07 1276.13 1659.99 1266.03 1659.99 1257.17 L 1659.99 1204.32 C 1659.86 1139.31 1659 1074.06 1660.21 1009.07 C 1664.87 1005.51 1662.2 991.655 1663.81 985.408 C 1664.36 968.697 1663.97 951.879 1663.94 935.156 L 1686 935.128 z"/>
<path transform="translate(0,0)" fill="rgb(236,231,231)" d="M 1660.21 1009.07 C 1664.87 1005.51 1662.2 991.655 1663.81 985.408 C 1664.68 1054.18 1662.93 1123.12 1662.9 1191.91 L 1663.05 1253.83 C 1663.08 1263.49 1664.37 1275.58 1662.48 1285 L 1660.53 1284.88 C 1659.07 1276.13 1659.99 1266.03 1659.99 1257.17 L 1659.99 1204.32 C 1659.86 1139.31 1659 1074.06 1660.21 1009.07 z"/>
<path transform="translate(0,0)" fill="url(#Gradient2)" d="M 1298.07 204.796 C 1318.41 211.281 1338.37 222.221 1355.47 234.884 C 1395.32 264.392 1425.87 311.296 1432.86 360.767 A 201.563 201.563 0 0 1 1408.25 488.356 C 1399.59 503.391 1388.99 517.257 1378.64 531.148 C 1423.58 614.192 1434.38 715.859 1411.84 807.131 C 1386.44 909.941 1321.75 983.06 1232.78 1036.67 C 1244.62 1050.73 1253.71 1068.14 1262.86 1084.01 C 1352.87 1063.56 1381.9 985.086 1420.05 912.459 C 1440.42 873.671 1464.41 835.334 1499.32 807.99 C 1531.84 782.521 1564.11 773.114 1604.52 769.332 C 1616.41 768.221 1630.08 768.077 1640.83 762.397 C 1646.72 759.279 1650.46 754.534 1652.35 748.14 C 1653.94 742.748 1653.87 736.196 1650.9 731.268 C 1643.26 718.614 1623.12 724.751 1611 721.565 C 1605.18 720.036 1599.43 716.936 1596.55 711.43 C 1593.02 704.656 1593.31 695.363 1595.82 688.305 C 1599.49 677.95 1608.05 670.462 1617.82 665.944 C 1635.2 657.911 1657.59 657.636 1675.41 664.357 C 1696.42 672.286 1713.06 690.662 1721.92 710.925 A 112.341 112.341 0 0 1 1723.48 795.792 C 1700.22 854.339 1646.59 850.965 1598.3 871.888 C 1534.49 899.537 1526.74 994.141 1503.66 1052.11 A 423.386 423.386 0 0 1 1490.42 1078.8 C 1488.16 1083 1485.16 1087.05 1483.3 1091.42 C 1483.03 1092.09 1482.74 1092.75 1482.41 1093.4 C 1475.8 1106.65 1466.24 1118.12 1456.98 1129.57 C 1416.15 1180.06 1371.46 1208.12 1310.72 1229.36 C 1311.72 1250.75 1312.1 1271.05 1308.41 1292.28 C 1330.8 1323.76 1347.75 1355.37 1349.59 1394.83 C 1350.36 1411.32 1349.58 1427.65 1351.37 1444.12 C 1353.09 1459.91 1356.34 1475.69 1362.82 1490.26 C 1374.99 1517.63 1400.2 1535.37 1427.48 1545.89 C 1461.23 1558.92 1502.93 1562.25 1536.56 1546.88 C 1548.99 1541.2 1560.17 1532.82 1564.94 1519.45 C 1567.67 1511.79 1567.58 1501.55 1563.76 1494.27 C 1558.97 1485.16 1549.97 1477.04 1540.01 1474.07 C 1524.85 1469.53 1517.77 1484.21 1506.15 1490.5 C 1499.02 1494.37 1491.8 1494.81 1484.09 1492.47 C 1475.48 1489.86 1468.71 1485.59 1464.55 1477.44 C 1459.09 1466.77 1460.5 1452.49 1464.42 1441.44 C 1470.54 1424.19 1484.98 1410.55 1501.29 1402.82 C 1526.18 1391.02 1554.41 1393.74 1579.66 1402.98 C 1610.33 1414.21 1635.97 1442.01 1649.19 1471.32 C 1664.61 1505.49 1663.87 1543.49 1650.71 1578.19 C 1634.18 1621.8 1597.52 1654.24 1555.48 1672.94 C 1495.16 1699.77 1417.67 1695.39 1356.86 1672 C 1285.75 1644.65 1230.95 1591.64 1200.02 1522.22 C 1194.56 1546.5 1191.98 1570.44 1195.17 1595.22 C 1202.16 1649.56 1231 1685.49 1281.24 1706.47 C 1302.46 1715.34 1323.85 1721.89 1342.23 1736.28 C 1357.32 1748.1 1371.01 1764.79 1373.14 1784.51 C 1374.48 1797.02 1371.46 1810.09 1363.37 1819.91 C 1350.84 1835.11 1328.36 1839.93 1309.77 1842.03 C 1241.38 1849.73 1172.88 1822.13 1120.22 1779.53 C 1058.33 1729.46 1035.44 1654.16 1028.29 1577.91 C 1026.17 1555.25 1026.3 1532.42 1023.86 1509.79 C 1015.16 1588.38 1020.46 1653.12 976.002 1724.01 C 938.649 1783.56 874.525 1823.84 806.617 1839.16 C 774.43 1846.42 730.851 1851.35 701.461 1832.47 A 52.6502 52.6502 0 0 1 678.442 1798.84 C 676.793 1790.73 677.3 1782.48 679.044 1774.45 C 689.563 1726 759.328 1714.59 796.297 1691.34 A 123.894 123.894 0 0 0 834.526 1653.5 C 861.265 1612.79 861.03 1565.35 851.489 1519.19 C 832.718 1555.89 809.062 1590.18 778.585 1618.18 C 731.849 1661.12 674.457 1682.77 611.921 1687.57 C 600.18 1688.48 588.289 1689.37 576.515 1688.83 C 522.439 1686.36 468.734 1670.4 431.446 1629.02 C 403.651 1598.18 390.516 1558.15 393 1516.87 C 395.038 1482.99 409.766 1447.5 435.684 1424.98 C 457.047 1406.42 486.003 1396.22 514.31 1398.42 C 535.79 1400.09 560.762 1408.75 574.779 1425.9 C 583.582 1436.68 586.883 1450.3 585.12 1464.02 C 583.506 1476.58 577.301 1488.66 567.071 1496.32 C 561.686 1500.36 554.175 1502.32 547.497 1501.06 C 536.799 1499.05 537.221 1484.94 532.107 1477.48 C 529.01 1472.96 524.239 1470.23 518.876 1469.35 C 510.264 1467.94 498.88 1470.27 491.956 1475.68 C 485.081 1481.05 481.385 1489.46 480.528 1498.01 C 479.349 1509.78 483.796 1521.85 491.321 1530.83 C 506.65 1549.12 530.061 1558.38 553.416 1560.48 C 588.099 1563.61 630.475 1549.94 656.991 1527.4 C 683.092 1505.21 694.436 1471.83 695.541 1438.34 C 696.043 1423.12 694.937 1408.01 696.124 1392.79 C 673.751 1399.94 651.462 1406.37 627.802 1407.08 C 556.001 1409.22 505.116 1376.92 454.844 1329.23 C 392.907 1340.59 314.798 1336.58 261.867 1299.84 C 255.247 1295.25 249.293 1290.03 246.998 1282 C 242.937 1267.79 242.502 1251.06 240.7 1236.37 C 237.746 1212.29 234.141 1188.1 230.337 1164.14 C 219.729 1097.31 204.725 1031.12 193.126 964.441 C 190.483 949.248 184.12 924.739 194.171 911.528 C 218.04 880.154 382.68 854.651 422.074 849.981 C 446.225 847.119 546.395 836.409 563.353 851.361 C 567.92 855.387 570.788 864.653 572.563 870.428 C 578.089 888.409 581.391 907.529 585.1 925.962 A 3045.74 3045.74 0 0 1 599.145 997.049 C 607.092 1039.97 617.008 1083.69 620.147 1127.26 C 632.589 1134.8 645.09 1140.27 659.494 1142.82 C 703.782 1150.64 737.495 1137.88 773.312 1112.95 C 785.199 1081.49 793.968 1060.78 812.897 1032.5 C 753.95 1000.15 700.031 943.868 667.873 884.831 C 657.385 865.578 649.096 844.719 641.988 824.006 C 616.986 751.149 620.428 666.704 645.038 594.104 C 652.424 572.316 662.299 551.477 672.403 530.849 C 644.914 505.175 627.52 466.081 620.96 429.437 C 610.562 371.346 624.491 318.118 657.926 270.275 C 682 235.825 712.076 213.379 753.828 205.916 A 87.277 87.277 0 0 0 752.768 209.671 C 745.855 236.515 749.108 264.623 763.2 288.645 C 784.627 325.171 817.914 340.315 857.033 350.389 C 862.367 347.689 867.822 345.343 873.364 343.11 A 407.459 407.459 0 0 1 1136.11 328.554 C 1157.11 334.657 1176.97 343.427 1197.06 351.96 C 1234.6 341.247 1266.6 324.384 1286.93 289.63 C 1302.82 262.463 1306.07 235.038 1298.07 204.796 z"/>
<path transform="translate(0,0)" fill="rgb(33,169,155)" d="M 622.647 1202.29 C 627.987 1203.1 632.524 1204.81 635.773 1209.37 C 638.087 1212.63 638.668 1216.7 637.911 1220.57 C 636.963 1225.42 634.129 1229.91 629.938 1232.56 C 628.636 1233.38 627.282 1234.11 625.928 1234.84 C 626.282 1221.5 630.661 1214.61 622.647 1202.29 z"/>
<path transform="translate(0,0)" fill="rgb(172,212,225)" d="M 627.046 1248.16 C 626.047 1259.69 623.299 1271.13 621.709 1282.6 C 613.188 1280.22 604.81 1278.21 596.724 1274.54 C 606.497 1265.14 617.746 1258.37 627.046 1248.16 z"/>
<path transform="translate(0,0)" fill="rgb(152,239,246)" d="M 625.928 1234.84 C 622.512 1235.27 619.815 1234.86 616.889 1233.04 C 612.366 1230.23 609.457 1225.84 608.512 1220.61 C 607.69 1216.07 608.632 1211.17 611.462 1207.46 C 614.603 1203.35 617.792 1202.94 622.647 1202.29 C 630.661 1214.61 626.282 1221.5 625.928 1234.84 z"/>
<path transform="translate(0,0)" fill="rgb(12,85,150)" d="M 1196.33 1417.09 C 1203.88 1454.73 1195.8 1479.46 1182.43 1514.41 C 1178.78 1523.95 1174.33 1533.91 1172.33 1543.96 C 1170.41 1510.73 1185.41 1480.56 1192.7 1449.03 C 1195.14 1438.44 1194.26 1427.69 1196.33 1417.09 z"/>
<path transform="translate(0,0)" fill="rgb(12,85,150)" d="M 462.328 1509.12 C 462.042 1508.33 461.751 1507.54 461.503 1506.73 C 457.187 1492.74 458.072 1479.2 465.192 1466.28 C 482.627 1434.63 514.406 1435.09 545.159 1439.92 C 549.003 1440.53 557 1442.58 560.521 1441.2 C 561.824 1440.68 562.199 1439.15 562.816 1437.99 C 568.31 1446.47 571.806 1455.99 569.402 1466.19 C 567.738 1473.25 563.773 1478.47 557.593 1482.15 A 66.4826 66.4826 0 0 1 553.255 1484.49 C 549.264 1472.97 546.131 1463.38 534.36 1457.67 C 522.485 1451.92 506.144 1451.62 493.727 1456.08 C 481.854 1460.35 473.754 1468.87 468.705 1480.23 C 464.633 1489.41 463.616 1499.27 462.328 1509.12 z"/>
<path transform="translate(0,0)" fill="rgb(12,85,150)" d="M 758.282 1197.71 C 756.898 1213.38 757.003 1229.46 754.872 1245 C 711.471 1273.15 674.322 1289.14 621.709 1282.6 C 623.299 1271.13 626.047 1259.69 627.046 1248.16 L 629.38 1243.65 C 632.429 1241.71 635.542 1239.63 638.263 1237.25 C 645.361 1231.05 646.625 1222.46 647.345 1213.57 A 191.987 191.987 0 0 0 672.274 1219.33 C 705.959 1224.78 730.747 1217.53 758.282 1197.71 z"/>
<path transform="translate(0,0)" fill="rgb(53,137,219)" d="M 621.058 1153.58 A 133.879 133.879 0 0 0 648.043 1162.5 A 158.784 158.784 0 0 0 767.823 1141.83 C 763.492 1160.18 761.081 1179.07 758.282 1197.71 C 730.747 1217.53 705.959 1224.78 672.274 1219.33 A 191.987 191.987 0 0 1 647.345 1213.57 C 645.503 1208.86 643.216 1204.83 639.337 1201.47 C 633.93 1196.79 627.597 1195.3 620.605 1195.64 C 620.55 1181.63 620.891 1167.59 621.058 1153.58 z"/>
<path transform="translate(0,0)" fill="rgb(12,85,150)" d="M 712.863 1293.51 C 721.444 1287.74 745.113 1276.36 755.273 1271.8 C 719.704 1308.96 710.1 1325.93 698.991 1375.97 C 685.613 1380.84 672.162 1385.09 658.124 1387.6 C 606.051 1396.9 554.722 1382.9 510.034 1355.77 C 495.5 1346.95 481.679 1336.58 467.766 1326.81 C 504.504 1319.4 541.395 1303.24 575.295 1287.62 L 577.231 1288.18 C 586.168 1290.83 594.281 1296.02 603.29 1298.69 C 638.982 1309.28 678.27 1306.87 712.863 1293.51 z"/>
<path transform="translate(0,0)" fill="rgb(80,117,197)" d="M 575.295 1287.62 L 577.231 1288.18 C 586.168 1290.83 594.281 1296.02 603.29 1298.69 C 638.982 1309.28 678.27 1306.87 712.863 1293.51 C 712.675 1294.8 712.793 1294.88 712.137 1295.99 C 704.768 1308.46 685.293 1316.11 671.667 1318.61 C 647.163 1323.12 603.399 1310.45 583.162 1296.65 C 579.722 1294.31 576.092 1291.97 575.295 1287.62 z"/>
<path transform="translate(0,0)" fill="rgb(185,185,184)" d="M 258.484 1228.71 C 259.095 1226.6 258.551 1227.51 260.108 1225.97 C 271.901 1233.16 285.597 1238.81 298.514 1243.57 C 318.453 1250.91 338.556 1256.36 359.74 1258.63 C 417.729 1264.83 482.489 1250.23 536.594 1229.76 C 552.242 1223.85 587.911 1205.61 602.568 1204.9 C 599.807 1213.13 598.168 1221.27 602.094 1229.43 C 604.418 1234.26 608.235 1237.68 612.479 1240.81 C 597.296 1252.08 580.218 1261.19 563.392 1269.75 C 497.281 1303.41 421.985 1324.22 347.51 1313.2 C 321.495 1309.35 287.037 1299.43 267.749 1280.47 C 262.611 1263.76 260.899 1245.97 258.484 1228.71 z"/>
<path transform="translate(0,0)" fill="rgb(12,85,150)" d="M 419.14 1481.88 C 419.859 1486.44 419.338 1491.34 419.347 1495.97 C 419.371 1507.43 420.143 1518.44 423.313 1529.5 C 433.377 1564.63 457.613 1587.19 489.067 1604.27 C 537.356 1630.5 599.109 1629.79 650.709 1614.42 C 719.063 1594.06 773.965 1543.52 806.972 1481.14 C 818.238 1459.85 826.166 1436.71 837.68 1415.71 L 838.145 1414.88 C 835.915 1443.57 836.146 1457.74 843.957 1485.62 C 835.354 1504.76 826.873 1523.79 815.836 1541.69 C 786.232 1589.71 739.478 1631.02 686.444 1651.27 C 626.07 1674.33 554.718 1678.59 494.815 1651.77 C 461.862 1637.02 432.85 1610.24 419.854 1576.07 C 408.782 1546.96 406.3 1510.85 419.14 1481.88 z"/>
<path transform="translate(0,0)" fill="rgb(12,85,150)" d="M 1174.93 1352.51 C 1175.21 1352.62 1175.48 1352.72 1175.76 1352.83 C 1198.08 1361.95 1214.12 1389.09 1222.74 1410.3 C 1231.13 1430.95 1237.78 1452.36 1246.82 1472.73 C 1274.71 1535.6 1321.45 1586.84 1385.5 1614.02 A 210.908 210.908 0 0 0 1545.66 1615.91 C 1576 1603.58 1610.2 1575.9 1623.2 1545.17 C 1630.68 1527.52 1633.06 1509.84 1632.91 1490.84 C 1639.53 1507.88 1640.86 1526.56 1638.2 1544.59 C 1632.77 1581.37 1608.55 1613.02 1579.12 1634.49 C 1533.14 1668.04 1471.95 1675.78 1417.02 1666.7 A 268.448 268.448 0 0 1 1229.43 1535.39 C 1222.57 1523.25 1214.51 1509.63 1211.44 1496 C 1208.99 1485.08 1212.92 1473.17 1213.07 1462.1 C 1213.62 1421.34 1198.29 1385 1174.93 1352.51 z"/>
<path transform="translate(0,0)" fill="rgb(13,27,84)" d="M 1225.97 368.475 C 1223.95 367.7 1222.45 367.331 1221.15 365.524 C 1230.85 359.972 1242.35 357.9 1252.4 352.767 C 1285.17 336.036 1305.63 302.055 1314.98 267.638 A 229.329 229.329 0 0 0 1320.32 242.098 C 1363.41 263.76 1384.9 290.834 1399.97 336.524 C 1414.27 379.869 1408.61 431.472 1388.04 472.02 C 1381.74 484.445 1374.41 496.079 1365.29 506.616 C 1347.46 481.371 1329.71 455.048 1308.01 432.919 A 479.794 479.794 0 0 0 1282.48 409.027 C 1277.27 404.503 1271.3 400.174 1266.6 395.147 C 1252.77 386.942 1239.57 377.163 1225.97 368.475 z"/>
<path transform="translate(0,0)" fill="rgb(59,44,130)" d="M 1322.25 264.555 C 1341.28 287.433 1358.14 299.333 1354.86 332.727 C 1353.11 350.466 1343.9 365.232 1330.29 376.358 C 1311.67 391.577 1290.08 395.02 1266.6 395.147 C 1252.77 386.942 1239.57 377.163 1225.97 368.475 C 1260.46 356.762 1294.84 343.037 1311.67 308.279 C 1318.47 294.211 1319.67 279.719 1322.25 264.555 z"/>
<path transform="translate(0,0)" fill="rgb(12,85,150)" d="M 1625.14 685.414 C 1634.19 679.531 1646.03 676.236 1656.76 678.635 C 1674.55 682.613 1690.42 694.442 1699.81 710.018 C 1711.01 728.609 1712.86 753.665 1707.56 774.422 C 1702.13 795.676 1689.21 812.591 1670.36 823.665 C 1633.35 845.404 1593.92 840.436 1558.36 871.602 C 1528.31 897.938 1515.31 938.773 1504.53 975.966 C 1470 1095.03 1426.71 1160.8 1307.65 1207.66 C 1302.14 1183.85 1297.08 1157.57 1286.87 1135.21 C 1299.47 1134.04 1312.1 1132.92 1324.4 1129.81 C 1380.74 1115.57 1422.32 1071.83 1449.05 1022.11 C 1461.37 999.191 1470.92 974.731 1481.37 950.929 C 1495.66 918.374 1512.91 881.682 1539.13 857.101 C 1580.08 818.71 1639.62 825.001 1670.95 794.36 A 64.8782 64.8782 0 0 0 1690.09 748.866 C 1690.18 730.209 1681.76 713.226 1668.78 700.151 C 1656 687.278 1642.38 685.6 1625.14 685.414 z"/>
<path transform="translate(0,0)" fill="rgb(13,27,84)" d="M 681.849 510.682 C 665.627 492.692 653.575 472.093 646.988 448.765 C 633.292 400.257 635.934 352.034 660.848 307.811 C 678.644 276.225 697.999 250.168 733.941 240.17 C 734.072 250.946 734.275 261.779 736.365 272.389 C 743.593 309.087 770.592 336.979 803.84 352.193 C 812.579 356.192 824.188 358.338 832.01 363.597 C 830.633 366.119 828.651 366.414 826.114 367.595 L 809.716 376.946 C 756.473 418.442 716.508 450.772 681.849 510.682 z"/>
<path transform="translate(0,0)" fill="rgb(59,44,130)" d="M 809.716 376.946 C 804.481 377.033 799.075 379.184 794.045 380.578 C 781.641 384.015 769.252 387.475 756.251 386.957 C 738.526 386.25 720.465 379.053 708.453 365.76 C 695.885 351.851 691.451 334.117 692.699 315.72 C 694.101 295.036 701.954 279.075 717.493 265.412 C 721.354 281 720.902 297.519 728.969 311.97 C 746.697 343.73 793.383 357.852 826.114 367.595 L 809.716 376.946 z"/>
<path transform="translate(0,0)" fill="rgb(53,137,219)" d="M 1625.14 685.414 C 1642.38 685.6 1656 687.278 1668.78 700.151 C 1681.76 713.226 1690.18 730.209 1690.09 748.866 A 64.8782 64.8782 0 0 1 1670.95 794.36 C 1639.62 825.001 1580.08 818.71 1539.13 857.101 C 1512.91 881.682 1495.66 918.374 1481.37 950.929 C 1470.92 974.731 1461.37 999.191 1449.05 1022.11 C 1422.32 1071.83 1380.74 1115.57 1324.4 1129.81 C 1312.1 1132.92 1299.47 1134.04 1286.87 1135.21 C 1282.65 1124.12 1277.59 1113.34 1272.77 1102.51 A 250.173 250.173 0 0 0 1279.3 1100.97 C 1301.57 1095.4 1322.66 1083.69 1340.41 1069.29 C 1417.45 1006.85 1429.98 901.183 1501.85 834.809 C 1521.52 816.642 1542.99 803.596 1569.09 796.951 C 1595.64 790.192 1638 794.336 1659.06 776.228 C 1667.56 768.918 1674.04 756.654 1674.71 745.36 A 41.7576 41.7576 0 0 0 1663.03 713.954 C 1651.78 702.242 1640.12 703.557 1625.34 703.19 C 1620.88 703.079 1616.06 703.179 1612.85 699.793 L 1612.96 697.17 C 1615.95 691.711 1619.9 688.631 1625.14 685.414 z"/>
<path transform="translate(0,0)" fill="rgb(12,85,150)" d="M 830.071 1041.51 C 920.819 1093.95 1041.57 1100.39 1141.49 1074.03 C 1166.92 1067.33 1192.62 1057.81 1215.72 1045.22 C 1263.79 1123.83 1290.44 1186.01 1291.03 1279.95 C 1279.12 1271.35 1246.67 1245.19 1231.68 1246.59 C 1221.67 1244.33 1173.24 1212.71 1159.69 1205.04 C 1144.49 1196.43 1128.66 1188.72 1112.83 1181.35 C 1043.64 1149.12 970.659 1129.19 897.834 1107.44 C 868.665 1098.73 839.665 1087.36 809.784 1081.48 C 815.953 1067.83 822.257 1054.32 830.071 1041.51 z"/>
<path transform="translate(0,0)" fill="rgb(12,85,150)" d="M 703.036 1767.73 C 736.35 1782.77 791.25 1771.81 824.417 1759.41 C 872.591 1741.4 909.318 1705.92 930.307 1659.11 A 207.323 207.323 0 0 0 946.79 1597.8 C 952.626 1541.16 934.796 1407 999.995 1382.18 C 1015.35 1376.33 1034.25 1376.49 1049.16 1383.46 C 1069.23 1392.84 1078.56 1412.09 1085.58 1431.96 C 1100.32 1473.68 1098.16 1514.49 1099.24 1557.78 C 1100.56 1610.62 1109.56 1665.45 1145.54 1706.38 A 197.041 197.041 0 0 0 1206.67 1753.49 A 198.082 198.082 0 0 0 1297.66 1772.83 C 1312.87 1772.48 1327.49 1770.86 1342.74 1771.67 C 1344.26 1771.75 1343.85 1771.66 1345.68 1771.05 C 1348.38 1774.77 1350.11 1779.54 1351.14 1783.98 C 1352.73 1790.89 1352.37 1797.9 1348.47 1803.96 C 1341.78 1814.38 1328.49 1818.63 1316.96 1821.09 C 1262.77 1832.66 1199.99 1810.57 1154.96 1781.22 C 1083.17 1734.42 1055.09 1659.18 1046.89 1577.34 C 1044.26 1551.15 1045.15 1523.61 1039.49 1497.84 C 1037.5 1488.75 1029.97 1452.15 1022.55 1447.45 C 1018.4 1453.76 1016.36 1461.76 1014.11 1468.93 C 1010.99 1478.84 1007.66 1488.76 1005.94 1499.03 C 1003.17 1515.56 1003.29 1532.44 1002.48 1549.15 C 1001.78 1563.61 1000.21 1578.17 998.311 1592.52 C 993.878 1626.02 985.742 1660.16 971.684 1690.97 C 947.543 1743.88 895.636 1787.76 841.555 1807.77 C 809.219 1819.74 749.554 1834.09 717.504 1818.49 C 709.312 1814.5 703.278 1808.3 700.317 1799.62 C 696.586 1788.68 697.849 1777.93 703.036 1767.73 z"/>
<path transform="translate(0,0)" fill="rgb(12,85,150)" d="M 1127.68 349.746 C 1141.8 353.037 1155.78 358.806 1169.14 364.397 C 1243.18 395.385 1304.24 450.237 1346.4 518.212 A 369.953 369.953 0 0 1 1391.7 800.321 C 1387.13 819.705 1381.2 839.167 1373.02 857.336 C 1343.84 922.166 1289.4 978.353 1229.39 1015.28 C 1147.99 1065.38 1032.12 1086.16 938.596 1064.1 A 389.218 389.218 0 0 1 692.682 887.17 C 685.496 875.448 677.2 862.101 673.555 848.788 C 689.11 862.2 702.67 879.548 717.137 894.261 C 758.731 936.561 807.156 971.152 862.353 993.499 C 955.266 1031.12 1047.19 1029.74 1139.26 990.447 C 1203.81 962.897 1261.93 911.054 1298.07 851.236 C 1304 841.417 1310.3 831.404 1314.54 820.715 C 1315.82 817.487 1317.78 813.318 1316.4 810.101 C 1321.62 799.522 1327.82 788.718 1331.3 777.427 C 1333.71 769.594 1334.28 761.295 1336.41 753.41 L 1336.74 752.194 L 1337.81 752.445 C 1342.81 746.647 1343.98 727.965 1345.04 719.913 C 1356.15 635.268 1328.12 538.209 1277.41 470.167 C 1254.62 439.597 1225.92 413.154 1194.82 391.182 A 431.576 431.576 0 0 0 1149.27 363.266 C 1143.97 360.478 1131.61 355.82 1128.47 351.071 C 1128.18 350.643 1127.94 350.187 1127.68 349.746 z"/>
<path transform="translate(0,0)" fill="rgb(252,252,251)" d="M 256.896 1214.18 C 253.992 1193.97 251.18 1173.69 247.338 1153.63 L 229.203 1060.78 C 224.136 1035.69 203.405 943.399 207.096 922.439 C 210.048 919.131 214.484 917.089 218.541 915.402 C 247.059 903.546 284.252 893.88 314.699 887.228 C 352.68 878.929 523.019 852.148 551.123 863.558 C 561.97 875.678 587.823 1047.1 591.97 1076.69 C 597.364 1115.17 599.99 1155.42 608.591 1193.26 C 609.207 1195.76 609.802 1196.37 608.335 1198.64 C 606.835 1200.96 604.521 1202.95 602.568 1204.9 C 587.911 1205.61 552.242 1223.85 536.594 1229.76 C 482.489 1250.23 417.729 1264.83 359.74 1258.63 C 338.556 1256.36 318.453 1250.91 298.514 1243.57 C 285.597 1238.81 271.901 1233.16 260.108 1225.97 C 258.551 1227.51 259.095 1226.6 258.484 1228.71 C 257.602 1223.85 257.203 1219.1 256.896 1214.18 z"/>
<path transform="translate(0,0)" fill="rgb(53,137,219)" d="M 478.432 1167.99 C 493.278 1166.44 508.128 1164.13 522.873 1161.81 C 524.759 1173.31 526.014 1184.88 527.327 1196.46 C 513.137 1198.83 498.913 1201.09 484.757 1203.66 A 673.515 673.515 0 0 0 478.432 1167.99 z"/>
<path transform="translate(0,0)" fill="rgb(71,250,203)" d="M 396.23 1079.67 A 402.375 402.375 0 0 0 440.904 1070.8 L 450.46 1125.39 A 434.693 434.693 0 0 1 406.034 1132.25 C 405.556 1117.7 400.082 1093.98 396.23 1079.67 z"/>
<path transform="translate(0,0)" fill="rgb(53,137,219)" d="M 320.294 1152.92 A 1213.31 1213.31 0 0 0 330.635 1214.69 C 315.076 1213.48 299.423 1213.2 283.823 1212.94 A 1763.7 1763.7 0 0 0 274.472 1159.2 C 289.518 1158.13 305.583 1156.21 320.294 1152.92 z"/>
<path transform="translate(0,0)" fill="rgb(223,97,121)" d="M 468.061 1110.79 C 483.334 1109.2 498.49 1106.27 513.613 1103.63 C 516.104 1123.09 519.662 1142.46 522.873 1161.81 C 508.128 1164.13 493.278 1166.44 478.432 1167.99 C 474.317 1149.07 471.295 1129.87 468.061 1110.79 z"/>
<path transform="translate(0,0)" fill="rgb(10,16,22)" d="M 262.799 930.239 C 267.785 930.495 272.679 931.259 277.179 933.517 C 284.394 937.137 289.654 943.151 292.026 950.9 C 294.496 958.967 293.358 967.411 289.086 974.648 C 283.682 983.8 275.727 987.707 265.913 990.372 C 260.044 990.337 254.588 989.44 249.426 986.49 A 29.3639 29.3639 0 0 1 235.268 967.998 A 30.2553 30.2553 0 0 1 239.382 943.99 C 244.964 935.63 253.21 932.006 262.799 930.239 z"/>
<path transform="translate(0,0)" fill="rgb(252,252,251)" d="M 265.62 938.587 C 269.713 938.667 273.207 939.568 276.739 941.733 C 281.234 944.487 283.799 948.754 284.782 953.878 C 285.993 960.198 284.778 966.381 281.132 971.699 C 276.699 978.165 271.034 980.419 263.59 981.871 C 258.068 981.536 252.946 980.375 248.575 976.764 A 19.2365 19.2365 0 0 1 241.653 963.16 A 22.9762 22.9762 0 0 1 247.489 946.141 C 252.613 940.419 258.19 938.974 265.62 938.587 z"/>
<path transform="translate(0,0)" fill="rgb(10,16,22)" d="M 263.51 940.1 L 266.35 947.253 C 268.826 947.661 270.033 948.164 272.05 949.658 C 270.797 951.636 265.659 952.982 263.318 954.188 C 265.019 958.086 271.372 959.833 274.442 963.145 C 276.254 965.1 276.347 966.517 276.334 969.058 C 274.014 974.083 269.236 977.387 264.38 979.716 C 263.113 979.134 261.716 978.565 260.566 977.754 C 258.819 976.521 256.862 975.032 256.401 972.939 C 260.127 972.392 263.531 972.559 266.343 969.906 C 266.447 967.581 266.441 967.35 265.247 965.366 C 260.436 963.255 255.832 961.005 252.91 956.48 C 251.542 946.932 259.477 947.605 262.735 941.629 C 263.008 941.127 263.252 940.61 263.51 940.1 z"/>
<path transform="translate(0,0)" fill="rgb(185,185,184)" d="M 544.886 940.418 C 546.411 940.221 548.031 940.262 549.571 940.201 C 552.846 942.892 552.879 947.757 553.579 951.801 C 513.318 953.756 472.976 960.408 433.265 967.054 C 400.15 972.596 366.847 978.128 334.211 986.088 C 332.469 986.697 331.567 986.805 329.744 986.501 C 327.232 983.65 327.467 978.452 327.113 974.786 C 357.009 969.685 386.598 962.455 416.465 957.056 A 1430.73 1430.73 0 0 1 544.886 940.418 z"/>
<path transform="translate(0,0)" fill="rgb(185,185,184)" d="M 538.235 904.409 C 540.916 904.07 542.774 903.833 545.449 904.465 C 548.031 907.179 547.855 912.006 548.248 915.591 C 474.48 922.436 399.348 933.638 327.242 950.531 C 325.927 950.969 324.34 951.17 322.975 951.445 C 319.445 948.759 319.207 943.901 318.284 939.727 C 345.131 932.291 372.78 927.874 400.196 923.142 C 445.834 915.264 492.066 908.266 538.235 904.409 z"/>
<path transform="translate(0,0)" fill="rgb(53,137,219)" d="M 379.757 1141.37 C 382.133 1140.92 383.47 1140.86 385.808 1141.5 C 389.447 1150.08 396.066 1201.61 398.395 1214.86 C 384.849 1215.78 371.321 1216.07 357.75 1216.33 C 355.187 1216.41 353.021 1216.68 350.675 1215.43 C 345.465 1199.01 342.043 1166.99 338.569 1148.44 A 1255.34 1255.34 0 0 1 379.757 1141.37 z"/>
<path transform="translate(0,0)" fill="rgb(53,137,219)" d="M 450.46 1125.39 C 455.378 1151.92 460.622 1178.61 464.544 1205.31 C 449.682 1208.93 434.481 1211.25 419.347 1213.43 C 414.687 1186.57 408.625 1159.36 406.034 1132.25 A 434.693 434.693 0 0 0 450.46 1125.39 z"/>
<path transform="translate(0,0)" fill="rgb(71,250,203)" d="M 508.377 997.387 C 524.61 996.111 540.578 994.383 556.62 991.558 C 556.959 1002.3 559.581 1013.46 561.341 1024.06 C 564.125 1040.86 566.633 1057.8 570.077 1074.46 C 563.285 1075.91 526.085 1081.21 524.384 1083.7 C 517.437 1055.31 515.338 1025.79 508.377 997.387 z"/>
<path transform="translate(0,0)" fill="rgb(133,133,133)" d="M 608.591 1193.26 C 609.207 1195.76 609.802 1196.37 608.335 1198.64 C 606.835 1200.96 604.521 1202.95 602.568 1204.9 C 587.911 1205.61 552.242 1223.85 536.594 1229.76 C 482.489 1250.23 417.729 1264.83 359.74 1258.63 C 338.556 1256.36 318.453 1250.91 298.514 1243.57 C 285.597 1238.81 271.901 1233.16 260.108 1225.97 C 258.551 1227.51 259.095 1226.6 258.484 1228.71 C 257.602 1223.85 257.203 1219.1 256.896 1214.18 A 290.795 290.795 0 0 0 377.808 1245.28 C 428.216 1246.91 480.418 1236.01 528.292 1220.96 C 544.215 1215.96 559.724 1209.79 575.579 1204.62 C 582.679 1202.3 604.26 1197.31 608.591 1193.26 z"/>
<path transform="translate(0,0)" fill="rgb(53,137,219)" d="M 524.384 1083.7 C 526.085 1081.21 563.285 1075.91 570.077 1074.46 C 576.834 1111.85 583.128 1149.65 591.057 1186.79 C 575.155 1189.92 558.967 1192.8 542.846 1194.49 C 536.594 1157.6 531.128 1120.48 524.384 1083.7 z"/>
<path transform="translate(0,0)" fill="rgb(223,97,121)" d="M 252.303 1026.25 A 456.802 456.802 0 0 0 298.701 1019.76 C 304.43 1064.37 312.945 1108.56 320.294 1152.92 C 305.583 1156.21 289.518 1158.13 274.472 1159.2 C 264.583 1115.67 257.859 1070.52 252.303 1026.25 z"/>
<path transform="translate(0,0)" fill="rgb(53,137,219)" d="M 809.784 1081.48 C 839.665 1087.36 868.665 1098.73 897.834 1107.44 C 970.659 1129.19 1043.64 1149.12 1112.83 1181.35 C 1128.66 1188.72 1144.49 1196.43 1159.69 1205.04 C 1173.24 1212.71 1221.67 1244.33 1231.68 1246.59 C 1278.64 1274.12 1307.77 1302.96 1321.91 1356.98 C 1329.08 1384.36 1327.23 1409.79 1328.87 1437.49 C 1331.64 1484.48 1350.38 1526.6 1391.82 1551.07 C 1430.75 1574.05 1480.15 1583.56 1524.24 1571.92 C 1545.12 1566.41 1565.24 1555.07 1576.28 1535.86 C 1581.72 1526.39 1583.63 1516.44 1584.23 1505.67 C 1582.59 1491.5 1576.88 1479.46 1566.14 1469.95 C 1553.1 1458.41 1532.03 1449.56 1515.57 1459.08 C 1502.54 1466.62 1502.06 1471.83 1485.44 1472.84 C 1481.96 1469.49 1480.3 1466.37 1480.34 1461.44 C 1480.45 1449.5 1487.95 1436.17 1496.64 1428.43 C 1509.29 1417.16 1526.46 1413.61 1542.95 1414.96 C 1569.49 1417.14 1595.65 1432.91 1612.62 1453 C 1621.88 1463.94 1629.09 1476.99 1632.91 1490.84 C 1633.06 1509.84 1630.68 1527.52 1623.2 1545.17 C 1610.2 1575.9 1576 1603.58 1545.66 1615.91 A 210.908 210.908 0 0 1 1385.5 1614.02 C 1321.45 1586.84 1274.71 1535.6 1246.82 1472.73 C 1237.78 1452.36 1231.13 1430.95 1222.74 1410.3 C 1214.12 1389.09 1198.08 1361.95 1175.76 1352.83 C 1175.48 1352.72 1175.21 1352.62 1174.93 1352.51 C 1170.08 1348.37 1165.33 1344.19 1160 1340.66 C 1180.74 1365.28 1190.61 1385.08 1196.33 1417.09 C 1194.26 1427.69 1195.14 1438.44 1192.7 1449.03 C 1185.41 1480.56 1170.41 1510.73 1172.33 1543.96 C 1165.1 1587.09 1173.49 1631.63 1199.07 1667.58 C 1216.97 1692.73 1240.2 1709.19 1267.84 1722.34 C 1295.7 1735.61 1328.74 1742.64 1345.68 1771.05 C 1343.85 1771.66 1344.26 1771.75 1342.74 1771.67 C 1327.49 1770.86 1312.87 1772.48 1297.66 1772.83 A 198.082 198.082 0 0 1 1206.67 1753.49 A 197.041 197.041 0 0 1 1145.54 1706.38 C 1109.56 1665.45 1100.56 1610.62 1099.24 1557.78 C 1098.16 1514.49 1100.32 1473.68 1085.58 1431.96 C 1078.56 1412.09 1069.23 1392.84 1049.16 1383.46 C 1034.25 1376.49 1015.35 1376.33 999.995 1382.18 C 934.796 1407 952.626 1541.16 946.79 1597.8 A 207.323 207.323 0 0 1 930.307 1659.11 C 909.318 1705.92 872.591 1741.4 824.417 1759.41 C 791.25 1771.81 736.35 1782.77 703.036 1767.73 C 719.337 1741.81 747.805 1736.52 774.104 1725.03 C 799.605 1713.89 823.032 1699.78 841.231 1678.42 C 877.672 1635.66 887.967 1572.93 873.725 1519.26 C 867.123 1494.38 856.35 1470.73 854.341 1444.79 C 851.105 1403.03 864.517 1368.83 891.085 1337.52 C 864.546 1356.97 848.031 1383.97 838.145 1414.88 L 837.68 1415.71 C 826.166 1436.71 818.238 1459.85 806.972 1481.14 C 773.965 1543.52 719.063 1594.06 650.709 1614.42 C 599.109 1629.79 537.356 1630.5 489.067 1604.27 C 457.613 1587.19 433.377 1564.63 423.313 1529.5 C 420.143 1518.44 419.371 1507.43 419.347 1495.97 C 419.338 1491.34 419.859 1486.44 419.14 1481.88 C 426.302 1463.48 435.352 1446.55 451.034 1434.03 C 469.642 1419.18 496.17 1410.42 519.994 1413.33 C 537.746 1415.5 551.936 1423.91 562.816 1437.99 C 562.199 1439.15 561.824 1440.68 560.521 1441.2 C 557 1442.58 549.003 1440.53 545.159 1439.92 C 514.406 1435.09 482.627 1434.63 465.192 1466.28 C 458.072 1479.2 457.187 1492.74 461.503 1506.73 C 461.751 1507.54 462.042 1508.33 462.328 1509.12 C 464.642 1517.92 467.349 1526.15 472.061 1533.99 C 485.527 1556.42 508.945 1568.79 533.661 1574.95 C 573.133 1584.78 616.553 1575.88 651.109 1554.98 C 689.392 1531.83 713.285 1494.85 716.09 1449.9 C 716.902 1436.91 715.932 1423.77 715.936 1410.76 C 715.941 1392.51 718.459 1373.63 722.969 1355.96 C 738.366 1295.65 785.247 1259.12 836.203 1228.66 C 809.923 1236.53 787.99 1250.23 765.939 1266.03 C 764.019 1252.24 764.903 1237.62 766.25 1223.81 C 771.251 1172.49 788.803 1128.09 809.784 1081.48 z"/>
<path transform="translate(0,0)" fill="url(#Gradient3)" d="M 1485.44 1472.84 C 1490.38 1462.01 1496.01 1454.58 1507.71 1450.42 C 1523.15 1444.94 1541.19 1447.25 1555.65 1454.53 C 1568.11 1460.8 1580.3 1472.17 1584.74 1485.67 C 1586.55 1491.2 1587.97 1499.27 1584.96 1504.51 C 1584.74 1504.91 1584.47 1505.28 1584.23 1505.67 C 1582.59 1491.5 1576.88 1479.46 1566.14 1469.95 C 1553.1 1458.41 1532.03 1449.56 1515.57 1459.08 C 1502.54 1466.62 1502.06 1471.83 1485.44 1472.84 z"/>
<path transform="translate(0,0)" fill="rgb(53,137,219)" d="M 673.555 848.788 C 643.831 782.434 638.059 700.549 656.46 630.257 C 681.926 532.975 748.893 436.257 836.57 385.212 C 925.147 333.644 1029.3 323.812 1127.68 349.746 C 1127.94 350.187 1128.18 350.643 1128.47 351.071 C 1131.61 355.82 1143.97 360.478 1149.27 363.266 A 431.576 431.576 0 0 1 1194.82 391.182 C 1225.92 413.154 1254.62 439.597 1277.41 470.167 C 1328.12 538.209 1356.15 635.268 1345.04 719.913 C 1343.98 727.965 1342.81 746.647 1337.81 752.445 L 1336.74 752.194 L 1336.41 753.41 C 1334.28 761.295 1333.71 769.594 1331.3 777.427 C 1327.82 788.718 1321.62 799.522 1316.4 810.101 C 1317.78 813.318 1315.82 817.487 1314.54 820.715 C 1310.3 831.404 1304 841.417 1298.07 851.236 C 1261.93 911.054 1203.81 962.897 1139.26 990.447 C 1047.19 1029.74 955.266 1031.12 862.353 993.499 C 807.156 971.152 758.731 936.561 717.137 894.261 C 702.67 879.548 689.11 862.2 673.555 848.788 z"/>
<path transform="translate(0,0)" fill="rgb(104,191,223)" d="M 860.063 516.172 C 864.691 515.773 869.789 515.222 874.296 516.569 A 26.9322 26.9322 0 0 1 890.787 530.648 A 25.8591 25.8591 0 0 1 891.467 550.996 C 888.368 558.923 882.028 563.615 874.439 566.827 C 869.616 567.647 864.48 567.874 859.769 566.361 A 24.8681 24.8681 0 0 1 844.915 553.361 C 841.661 546.575 841.266 538.329 844.045 531.316 C 847.122 523.547 852.688 519.506 860.063 516.172 z"/>
<path transform="translate(0,0)" fill="rgb(104,191,223)" d="M 811.864 428.326 C 820.299 427.852 828.56 429.142 835.989 433.315 C 844.5 438.095 850.895 446.016 853.304 455.517 C 855.749 465.162 854.403 476.843 849.158 485.374 C 843.392 494.754 835.046 498.198 824.9 500.771 C 815.19 502.099 806.852 502.007 798.168 496.661 C 789.932 491.591 783.879 483.38 782.016 473.842 A 39.8012 39.8012 0 0 1 789.068 442.516 C 794.798 434.738 802.344 429.748 811.864 428.326 z"/>
<path transform="translate(0,0)" fill="rgb(10,16,22)" d="M 1016.54 833.423 C 1035.67 832.053 1060.94 836.711 1077.45 846.91 C 1086.47 852.485 1092.96 860.115 1095.26 870.615 C 1100.06 892.493 1092.09 919.849 1080.04 938.19 C 1067.95 956.605 1051.63 967.564 1030.22 972.049 C 1011.74 972.895 996.97 968.958 982.687 957.006 C 962.443 940.066 950.223 913.781 948.078 887.677 C 947.138 876.245 947.857 863.447 955.816 854.444 C 969.724 838.711 996.871 834.861 1016.54 833.423 z"/>
<path transform="translate(0,0)" fill="rgb(228,119,99)" d="M 1016.88 907.31 C 1024.76 906.746 1031.98 906.722 1039.69 908.864 C 1054.01 912.839 1064.65 921.653 1071.88 934.519 C 1061.23 949.837 1048.24 959.236 1029.97 963.418 A 56.1204 56.1204 0 0 1 1009.51 961.598 C 995.056 957.459 982.069 947.551 974.762 934.367 A 49.2332 49.2332 0 0 1 977.132 930.834 C 986.815 917.46 1000.82 909.981 1016.88 907.31 z"/>
<path transform="translate(0,0)" fill="rgb(218,243,249)" d="M 956.156 369.371 C 974.514 367.377 993.544 373.759 1008.19 384.642 C 1024.53 396.782 1035.51 414.147 1038.37 434.396 A 79.359 79.359 0 0 1 1022.59 493.074 C 1009.05 510.6 989.163 518.935 967.693 521.647 C 949.151 524.216 928.719 517.304 913.964 506.257 C 898.212 494.463 888.235 476.406 885.506 457.002 A 78.5271 78.5271 0 0 1 900.344 398.792 C 914.261 380.454 933.832 372.283 956.156 369.371 z"/>
<path transform="translate(0,0)" fill="rgb(10,16,22)" d="M 824.512 602.386 C 852.155 598.78 882.716 608.753 904.521 625.541 C 932.332 646.953 950.736 680.831 954.999 715.521 C 959.588 752.87 951.06 789.663 927.507 819.367 C 907.072 845.138 879.177 861.673 846.343 865.373 C 818.039 868.117 787.125 859.928 764.686 842.335 A 130.501 130.501 0 0 1 714.671 753.066 A 144.886 144.886 0 0 1 746.301 644.251 C 766.109 620.032 793.434 605.579 824.512 602.386 z"/>
<path transform="translate(0,0)" fill="rgb(252,252,251)" d="M 826.865 611.402 C 852.37 609.534 878.333 617.972 898.412 633.676 C 925.034 654.496 941.979 687.849 945.913 721.144 A 126.385 126.385 0 0 1 920.035 814.033 C 899.656 839.748 874.561 852.972 842.246 856.582 C 817.227 859.429 789.126 850.033 769.644 834.446 C 743.258 813.337 727.328 782.842 723.658 749.353 C 719.939 715.416 729.878 678.991 751.509 652.398 C 770.973 628.468 796.264 614.55 826.865 611.402 z"/>
<path transform="translate(0,0)" fill="rgb(10,16,22)" d="M 837.424 664.393 C 855.916 663.181 873.7 667.372 888.977 678.086 C 907.698 691.217 919.178 710.348 923.096 732.765 A 86.9807 86.9807 0 0 1 909.098 797.851 C 894.583 818.491 875.647 828.691 851.239 832.876 C 829.812 834.483 811.197 830.062 794.096 816.582 A 85.3805 85.3805 0 0 1 761.541 757.769 C 759.032 734.653 766.615 710.685 781.34 692.731 C 795.582 675.368 815.41 666.467 837.424 664.393 z"/>
<path transform="translate(0,0)" fill="rgb(252,252,251)" d="M 854.576 685.107 C 860.286 684.781 865.301 684.88 870.473 687.654 C 876.83 691.063 881.243 696.952 883.062 703.895 A 27.923 27.923 0 0 1 879.937 725.645 C 875.499 732.788 869.332 736.036 861.348 737.786 C 856.879 737.729 852.509 737.31 848.373 735.518 C 841.765 732.655 836.484 727.479 833.932 720.693 A 25.5039 25.5039 0 0 1 834.925 700.545 C 839.146 691.992 845.821 688.035 854.576 685.107 z"/>
<path transform="translate(0,0)" fill="rgb(10,16,22)" d="M 1316.4 810.101 C 1310.71 818.186 1304.62 825.512 1297.46 832.34 C 1274.21 854.494 1244.57 867.775 1212.12 866.753 C 1178.63 865.699 1148.72 852.659 1125.81 828.109 C 1099.55 799.974 1089.48 764.826 1091.07 726.857 A 138.457 138.457 0 0 1 1135.78 630.041 C 1157.6 610.312 1186.22 598.72 1215.77 600.489 C 1251.02 602.6 1280.07 619.325 1303.2 645.486 C 1330.75 676.654 1339.19 711.452 1336.74 752.194 L 1336.41 753.41 C 1334.28 761.295 1333.71 769.594 1331.3 777.427 C 1327.82 788.718 1321.62 799.522 1316.4 810.101 z"/>
<path transform="translate(0,0)" fill="rgb(252,252,251)" d="M 1200.64 610.37 C 1223.64 606.973 1250.01 615.554 1269.05 628.16 C 1297.33 646.884 1318.65 676.471 1325.35 709.888 A 129.321 129.321 0 0 1 1306.13 808.085 C 1287.72 835.152 1261.54 850.194 1229.77 856.149 C 1229.43 856.202 1229.1 856.263 1228.76 856.308 A 106.919 106.919 0 0 1 1147.57 834.647 C 1122.3 815.175 1105.02 784.012 1101.2 752.413 A 135.804 135.804 0 0 1 1129.09 651.597 C 1147.39 628.488 1171.29 613.852 1200.64 610.37 z"/>
<path transform="translate(0,0)" fill="rgb(10,16,22)" d="M 1194.67 660.36 A 80.1187 80.1187 0 0 1 1245.45 672.551 A 85.2312 85.2312 0 0 1 1281.95 727.366 A 93.5789 93.5789 0 0 1 1267.81 798.392 C 1254.42 818.214 1235.79 827.712 1212.77 832.2 C 1192.48 834.377 1171.92 830.189 1155.44 817.698 C 1136.18 803.107 1124.88 781.052 1121.82 757.336 C 1118.7 733.108 1124.95 710.124 1140.14 690.909 C 1153.92 673.473 1172.66 662.97 1194.67 660.36 z"/>
<path transform="translate(0,0)" fill="rgb(252,252,251)" d="M 1220.49 686.059 C 1224.82 685.849 1228.65 685.87 1232.71 687.596 C 1239.8 690.608 1245.42 696.052 1248.01 703.39 A 24.7792 24.7792 0 0 1 1246.67 723.348 C 1242.94 730.516 1236.87 734.588 1229.38 737.083 C 1224.61 737.12 1220.13 737.323 1215.62 735.468 C 1209.01 732.753 1203.52 728.027 1200.81 721.301 C 1198.3 715.048 1198.77 708.097 1201.52 702.003 C 1205.34 693.512 1211.97 689.03 1220.49 686.059 z"/>
</svg>