<svg version="1.1" xmlns="http://www.w3.org/2000/svg" style="display: block;" viewBox="0 0 2048 2048" width="1024" height="1024">
<path transform="translate(0,0)" fill="rgb(254,254,254)" d="M 0 0 L 2048 0 L 2048 2048 L 0 2048 L 0 0 z"/>
<path transform="translate(0,0)" fill="rgb(168,13,17)" d="M 721.219 1550.88 C 730.043 1556.85 738.362 1563.99 746.221 1571.16 C 750.671 1574.44 754.612 1577.61 758.432 1581.64 C 757.774 1583.04 757.073 1583.57 757.639 1585.15 C 761.284 1595.33 775.211 1603.79 778.916 1614.73 C 765.244 1604.77 752.875 1588.04 741.432 1575.39 C 734.256 1567.55 727.765 1559.24 721.219 1550.88 z"/>
<path transform="translate(0,0)" fill="rgb(168,13,17)" d="M 1582.24 810.469 C 1582.24 807.05 1581.63 805.578 1583.87 802.897 C 1589.9 800.803 1611.03 802.524 1618.68 802.47 C 1685.64 801.996 1752.74 803.905 1819.67 802.139 C 1787.33 858.185 1752.67 912.885 1719.55 968.467 A 2690 2690 0 0 1 1698.37 1003.74 C 1693.66 1011.39 1688.32 1018.94 1684.39 1027.02 C 1710.27 1069.02 1736.3 1110.99 1761.5 1153.4 C 1778.79 1182.49 1795.13 1212.21 1813.14 1240.87 C 1736.02 1240.62 1658.78 1242.32 1581.69 1240.74 L 1581.84 1200.68 L 1581.81 1164.52 L 1581.84 1131.95 C 1582.45 1127.89 1582.83 1123.8 1583.27 1119.71 C 1576.27 1119.96 1569.01 1121.09 1563.17 1116.49 C 1563.63 1102.93 1550.79 1087.99 1543.47 1077.1 C 1536.75 1068.41 1531.01 1058.74 1524.99 1049.55 A 1902.84 1902.84 0 0 0 1507.94 1024.93 C 1496.79 1008.27 1485.55 991.964 1473.24 976.139 C 1474.77 970.454 1498.92 937.619 1504.13 931.563 C 1529.93 930.57 1556.02 931.269 1581.82 932.142 L 1581.92 915.833 L 1581.98 881.029 C 1582.56 857.536 1582.07 833.973 1582.24 810.469 z"/>
<path transform="translate(0,0)" fill="rgb(242,42,41)" d="M 1524.99 1049.55 L 1647.27 1049.09 C 1681.02 1098.3 1709.36 1151.02 1742.11 1200.87 L 1581.84 1200.68 L 1581.81 1164.52 L 1581.84 1131.95 C 1582.45 1127.89 1582.83 1123.8 1583.27 1119.71 C 1576.27 1119.96 1569.01 1121.09 1563.17 1116.49 C 1563.63 1102.93 1550.79 1087.99 1543.47 1077.1 C 1536.75 1068.41 1531.01 1058.74 1524.99 1049.55 z"/>
<path transform="translate(0,0)" fill="rgb(168,13,17)" d="M 1543.47 1077.1 A 4440.52 4440.52 0 0 1 1614.62 1076.44 C 1634.68 1105.22 1652.51 1135.54 1672.79 1164.15 C 1642.69 1164.88 1611.86 1166.04 1581.81 1164.52 L 1581.84 1131.95 C 1582.45 1127.89 1582.83 1123.8 1583.27 1119.71 C 1576.27 1119.96 1569.01 1121.09 1563.17 1116.49 C 1563.63 1102.93 1550.79 1087.99 1543.47 1077.1 z"/>
<path transform="translate(0,0)" fill="rgb(242,42,41)" d="M 1583.27 1119.71 C 1586.09 1119.3 1587.67 1118.55 1590.21 1120.35 C 1594 1123.05 1596.44 1129.05 1599.39 1132.68 L 1581.84 1131.95 C 1582.45 1127.89 1582.83 1123.8 1583.27 1119.71 z"/>
<path transform="translate(0,0)" fill="rgb(242,42,41)" d="M 1582.24 810.469 C 1583.74 820.746 1583.01 831.712 1583.02 842.095 C 1638.09 842.354 1693.2 841.412 1748.26 841.983 A 4364.82 4364.82 0 0 0 1683.97 944 A 4737.42 4737.42 0 0 1 1652.66 994.793 C 1646.57 1004.55 1640.72 1015.55 1632.96 1024.05 L 1555.75 1024.22 C 1539.91 1024.26 1523.74 1023.77 1507.94 1024.93 C 1496.79 1008.27 1485.55 991.964 1473.24 976.139 C 1474.77 970.454 1498.92 937.619 1504.13 931.563 C 1529.93 930.57 1556.02 931.269 1581.82 932.142 L 1581.92 915.833 L 1581.98 881.029 C 1582.56 857.536 1582.07 833.973 1582.24 810.469 z"/>
<path transform="translate(0,0)" fill="rgb(168,13,17)" d="M 1581.98 881.029 L 1676.88 881.036 A 2512.63 2512.63 0 0 0 1635.16 943.995 C 1628.2 954.7 1621.71 965.84 1613.99 976.015 C 1580.09 977.665 1545.57 976.458 1511.61 976.241 C 1499.1 976.161 1485.67 975.027 1473.24 976.139 C 1474.77 970.454 1498.92 937.619 1504.13 931.563 C 1529.93 930.57 1556.02 931.269 1581.82 932.142 L 1581.92 915.833 L 1581.98 881.029 z"/>
<path transform="translate(0,0)" fill="rgb(242,42,41)" d="M 1581.92 915.833 L 1600.3 915.978 C 1597.7 920.23 1592.88 930.743 1588.02 932.231 C 1586.21 932.787 1583.69 932.331 1581.82 932.142 L 1581.92 915.833 z"/>
<path transform="translate(0,0)" fill="rgb(21,23,26)" d="M 776.38 417.969 C 859.317 383.32 943.242 351.009 1025.76 315.365 C 1047.61 322.961 1069.01 332.013 1090.53 340.486 L 1210.18 387.999 C 1227.25 394.837 1273.8 410.939 1286.45 419.697 C 1289.41 440.069 1290.96 460.653 1294.32 480.954 C 1294.82 472.656 1298.36 430.122 1295.28 425.361 L 1296.64 423.151 L 1296.05 423.464 C 1296.45 423.555 1296.84 423.64 1297.24 423.737 C 1316.96 428.575 1338.17 439.48 1357.28 447.198 A 4572.92 4572.92 0 0 1 1500.33 506.887 C 1512.37 512.081 1546.35 528.352 1556.64 530.683 C 1558.89 531.192 1561.74 530.015 1563.91 529.365 C 1564.94 536.971 1563.15 546.319 1563.02 554.167 A 4407.12 4407.12 0 0 0 1562.97 610.403 L 1563.2 843.56 C 1545.2 874.288 1523.63 901.944 1504.13 931.563 C 1498.92 937.619 1474.77 970.454 1473.24 976.139 C 1485.55 991.964 1496.79 1008.27 1507.94 1024.93 A 1902.84 1902.84 0 0 1 1524.99 1049.55 C 1531.01 1058.74 1536.75 1068.41 1543.47 1077.1 C 1550.79 1087.99 1563.63 1102.93 1563.17 1116.49 C 1561.97 1148.53 1562.73 1180.76 1562.71 1212.82 L 1561.86 1305.08 C 1561.84 1330.87 1563.04 1356.96 1561.45 1382.69 C 1561.12 1387.96 1552.89 1395.33 1549.34 1399.04 C 1529.47 1419.8 1508.3 1439.56 1487.82 1459.75 A 10145.1 10145.1 0 0 0 1394.75 1553.1 C 1374.85 1573.23 1354.62 1593.17 1335.1 1613.66 C 1313.7 1636.13 1292.78 1659.47 1270.34 1680.89 A 3276.41 3276.41 0 0 0 1349.02 1551.5 C 1362.6 1528.16 1377.73 1504.43 1388.06 1479.43 C 1361.51 1494.43 1333.4 1506.44 1306.58 1520.94 C 1305.97 1544.19 1307.07 1567.44 1306.79 1590.69 A 5906.82 5906.82 0 0 1 1126.91 1683.82 L 1061.15 1716.35 C 1049.08 1722.31 1037.1 1728.95 1024.8 1734.37 C 995.846 1722.01 967.659 1706.97 939.306 1693.27 C 897.542 1673.1 855.666 1653.57 814.354 1632.45 C 805.816 1628.09 785.224 1619.89 778.916 1614.73 C 775.211 1603.79 761.284 1595.33 757.639 1585.15 C 757.073 1583.57 757.774 1583.04 758.432 1581.64 C 761.128 1568.29 759.09 1544 759.004 1529.52 C 742.465 1521.71 726.113 1513.45 709.627 1505.52 C 692.716 1497.39 675.349 1489.7 659.558 1479.5 C 676.121 1506.46 691.525 1534.13 707.589 1561.39 L 775.562 1674.85 C 745.242 1646.75 716.814 1616.67 687.712 1587.32 L 588.138 1488.63 C 566.456 1467.1 544.31 1445.83 522.153 1424.79 C 509.666 1412.93 496.57 1401.62 484.989 1388.85 L 483.624 1119.96 C 476.245 1119.83 468.878 1119.68 461.499 1119.87 C 461.437 1134.89 461.727 1150 461.266 1165 L 461.1 1201.63 L 461.124 1241.59 C 434.563 1239.87 407.287 1240.99 380.644 1241 L 235.879 1241.07 C 258.499 1195.8 286.859 1152.66 312.549 1109 A 5238.45 5238.45 0 0 0 340.956 1060.41 C 347.38 1049.2 353.252 1037.44 360.838 1026.97 L 278.549 885.639 C 262.872 858.612 247.858 831.349 231.669 804.601 C 263.102 803.359 294.816 804.263 326.277 804.477 A 7723.26 7723.26 0 0 0 462.83 804.761 L 462.671 838.231 L 462.403 883.937 C 462.379 897.999 462.019 912.172 462.713 926.215 L 484.116 926.577 C 484.094 916.403 484.353 906.146 483.969 895.983 A 16772.1 16772.1 0 0 1 483.325 649.146 L 482.951 578.51 C 482.874 566.489 483.604 553.738 482.263 541.812 C 481.787 537.577 480.478 533.793 478.92 529.857 L 490.199 533.758 C 517.525 523.945 544.211 511.402 571.021 500.205 L 664.973 461.822 C 697.532 448.342 729.915 434.286 762.815 421.659 A 1249.1 1249.1 0 0 1 763.922 474.881 C 763.968 485.394 763.075 496.876 764.513 507.264 C 766.127 503.951 774.246 430.973 776.38 417.969 z"/>
<path transform="translate(0,0)" fill="rgb(254,254,254)" d="M 673.188 1058.9 C 687.079 1070.01 707.239 1084.4 718.204 1097.99 C 714.804 1115.95 716.995 1146.06 717.003 1165.13 L 716.97 1342.24 L 717.13 1393.56 C 717.159 1404 717.988 1415.57 716.215 1425.85 C 701.843 1405.15 686.942 1384.66 674.054 1363 C 672.518 1322.17 674.127 1280.84 674.118 1239.94 L 673.188 1058.9 z"/>
<path transform="translate(0,0)" fill="rgb(168,13,17)" d="M 1311.39 806.562 C 1317.11 798.021 1326.32 787.162 1328.5 777.109 C 1331.91 761.433 1329.75 723.881 1329.78 706.088 L 1330.03 544 C 1330.02 529.355 1328.04 502.454 1330.64 489.114 L 1332.2 488.404 C 1349.41 512.835 1367.76 536.391 1384.83 560.954 C 1387.35 587.166 1385.65 614.675 1385.77 641.036 C 1385.99 690.533 1386.56 740.161 1385.43 789.644 C 1382.28 794.14 1375.98 804.106 1370.9 806.202 C 1351.07 806.158 1331.2 805.861 1311.39 806.562 z"/>
<path transform="translate(0,0)" fill="rgb(168,13,17)" d="M 827.319 455.41 C 845.999 464.988 864.593 475.318 883.66 484.064 C 885.736 487.216 885.885 489.768 885.977 493.493 C 886.823 527.757 886.093 562.214 886.112 596.493 L 886.642 772.393 L 886.917 855.38 C 886.95 868.507 888.898 885.234 885.915 897.979 C 884.391 904.487 879.885 910.076 874.007 913.172 C 871.18 914.661 868.464 915.103 865.321 915.376 A 1268.71 1268.71 0 0 0 827.823 915.773 C 829.045 887.812 828.092 859.434 828.056 831.425 L 827.898 674.203 L 827.889 534.484 C 827.887 508.252 828.853 481.582 827.319 455.41 z"/>
<path transform="translate(0,0)" fill="rgb(254,254,254)" d="M 1332.2 488.404 C 1362.99 500.617 1393.14 514.952 1423.49 528.221 C 1453.5 541.338 1483.87 553.614 1513.96 566.511 L 1514.19 726.091 C 1514.16 759.589 1513.41 793.422 1514.98 826.872 C 1492.27 862.163 1467.14 896.239 1443.37 930.876 C 1433.74 944.92 1421.03 960.102 1414.46 975.754 C 1446.99 1022.62 1482.23 1070.28 1512.12 1118.58 C 1512.77 1174.17 1512.13 1229.82 1512.02 1285.42 L 1511.9 1337.21 C 1511.88 1344.56 1512.68 1352.98 1511.68 1360.21 C 1511.55 1361.14 1511.24 1362.04 1510.59 1362.72 C 1500 1358.28 1481.57 1334.61 1468.64 1326.43 C 1466.61 1318.54 1468.73 1289.04 1468.77 1278.6 L 1469.08 1132.42 C 1459.62 1115.76 1447.5 1100.06 1436.51 1084.35 C 1422.12 1063.77 1408.3 1042.8 1393.86 1022.27 C 1382.38 1005.96 1370.16 990.239 1359.35 973.454 C 1370.87 956.72 1383.33 940.617 1395.03 924.001 A 2964.88 2964.88 0 0 0 1446.51 847.64 C 1454.67 835.291 1464.45 823.005 1471.68 810.18 C 1470.03 740.556 1472.12 670.65 1471.88 600.987 C 1456.53 594.858 1394.25 568.282 1384.83 560.954 C 1367.76 536.391 1349.41 512.835 1332.2 488.404 z"/>
<path transform="translate(0,0)" fill="rgb(168,13,17)" d="M 1015.98 490.997 L 1081.98 521.11 C 1096.61 527.656 1111.96 533.616 1126.13 541.092 L 1126.37 1057.04 L 1126.75 1353.99 C 1126.83 1416.74 1127.73 1479.61 1126.73 1542.34 C 1153.12 1528.33 1180.78 1511.79 1208.8 1501.4 C 1224.98 1514.86 1234.17 1538.07 1251.8 1550.05 C 1251.99 1552.53 1252.44 1555.26 1251.77 1557.69 C 1251.44 1558.87 1251.49 1558.6 1250.42 1559.22 C 1226.93 1572.93 1200.94 1583.9 1176.52 1596.01 C 1141.02 1613.6 1105.8 1632.39 1069.79 1648.88 C 1067.97 1607.44 1069.73 1565.27 1069.73 1523.74 L 1069.39 1285.68 L 1069.43 584.336 C 1054.95 575.457 1032.38 562.764 1016.04 559.501 C 1015.59 536.7 1015.99 513.807 1015.98 490.997 z"/>
<path transform="translate(0,0)" fill="rgb(254,254,254)" d="M 1028 367.506 C 1061.35 380.652 1093.73 396.15 1126.84 409.882 C 1151.23 420.001 1175.36 430.631 1199.66 440.949 C 1216.74 448.2 1234.49 454.846 1250.9 463.497 A 36543.5 36543.5 0 0 1 1251.05 897.59 C 1271.23 867.393 1289.73 835.729 1311.39 806.562 C 1331.2 805.861 1351.07 806.158 1370.9 806.202 C 1369.19 812.694 1274.74 949.043 1264.64 960.127 L 1207.68 960.246 C 1206.81 909.839 1207.63 859.263 1207.6 808.841 L 1207.36 490.513 C 1156.94 466.132 1104.15 445.769 1052.36 424.462 C 1044.11 421.065 1032.31 413.177 1024.11 411.25 C 1021.75 410.697 1018.08 412.045 1015.76 412.629 L 1015.98 490.997 C 1015.99 513.807 1015.59 536.7 1016.04 559.501 C 1017.24 646.302 1016.07 733.243 1016.13 820.061 A 38756.2 38756.2 0 0 1 1016.36 1263.36 L 1016.34 1519.46 C 1016.27 1556.05 1017.72 1593.26 1016.24 1629.78 C 1000.09 1608.16 987.015 1584.01 971.829 1561.68 C 968.605 1550.55 970.957 1509.95 970.92 1495.88 L 970.914 1293.31 L 970.251 436.648 C 945.124 448.58 904.122 466.357 883.66 484.064 C 864.593 475.318 845.999 464.988 827.319 455.41 C 827.399 453.919 827.049 452.608 828.175 451.48 C 833.706 445.942 1008.98 374.369 1028 367.506 z"/>
<path transform="translate(0,0)" fill="rgb(168,13,17)" d="M 231.669 804.601 C 263.102 803.359 294.816 804.263 326.277 804.477 A 7723.26 7723.26 0 0 0 462.83 804.761 L 462.671 838.231 C 462.543 838.509 462.387 838.776 462.285 839.064 C 461.392 841.59 462.413 844.931 460.872 846.934 C 441.443 847.755 421.839 847.228 402.39 847.204 L 304.651 847.321 C 337.644 907.542 373.726 966.139 407.065 1026.21 L 731.039 1026.06 L 833.174 1026.18 C 851.386 1026.21 869.851 1025.6 888.03 1026.48 C 888.073 1191.59 886.318 1356.87 888.112 1521.95 A 3103.34 3103.34 0 0 1 934.324 1543.8 C 945.822 1549.48 959.596 1558.77 971.829 1561.68 C 987.015 1584.01 1000.09 1608.16 1016.24 1629.78 L 1016.04 1656.54 C 997.581 1647.4 978.513 1639.45 959.733 1630.98 C 941.558 1622.79 923.639 1614.05 905.56 1605.65 C 880.042 1593.79 854.794 1579.61 828.284 1570.18 C 826.866 1513.51 828.394 1456.52 828.446 1399.83 L 827.985 1086.69 C 795.105 1084.86 761.605 1087.02 728.585 1086.06 C 725.282 1090.21 722.085 1094.36 718.204 1097.99 C 707.239 1084.4 687.079 1070.01 673.188 1058.9 L 674.118 1239.94 C 674.127 1280.84 672.518 1322.17 674.054 1363 C 686.942 1384.66 701.843 1405.15 716.215 1425.85 L 716.01 1448.1 C 689.215 1430.21 656.99 1418.8 627.946 1404.98 C 595.648 1389.62 564.502 1372.21 531.53 1358.25 C 530.233 1332.11 531.161 1305.47 531.074 1279.28 L 530.318 1119.99 L 483.624 1119.96 C 476.245 1119.83 468.878 1119.68 461.499 1119.87 C 461.437 1134.89 461.727 1150 461.266 1165 L 461.1 1201.63 L 461.124 1241.59 C 434.563 1239.87 407.287 1240.99 380.644 1241 L 235.879 1241.07 C 258.499 1195.8 286.859 1152.66 312.549 1109 A 5238.45 5238.45 0 0 0 340.956 1060.41 C 347.38 1049.2 353.252 1037.44 360.838 1026.97 L 278.549 885.639 C 262.872 858.612 247.858 831.349 231.669 804.601 z"/>
<path transform="translate(0,0)" fill="rgb(242,42,41)" d="M 394.169 1050.89 C 446.846 1049.4 499.786 1050.43 552.5 1050 C 541.115 1056.49 530.648 1065.42 518.524 1070.48 C 505.978 1075.72 452.674 1073.1 435.653 1073.02 C 415.053 1103.73 393.773 1134.25 372.507 1164.5 C 401.905 1166.02 431.81 1165 461.266 1165 L 461.1 1201.63 C 443.01 1200.45 424.526 1201.1 406.391 1201.07 L 305.438 1201.16 C 313.742 1185.32 324.084 1170.37 333.21 1154.98 L 394.169 1050.89 z"/>
<path transform="translate(0,0)" fill="rgb(242,42,41)" d="M 587.899 1053.49 C 611.267 1052.83 640.73 1051.76 663.7 1053.93 C 668.554 1054.39 670.062 1055.12 673.188 1058.9 L 674.118 1239.94 C 674.127 1280.84 672.518 1322.17 674.054 1363 C 666.769 1358.45 657.423 1355.54 649.514 1352.02 C 628.844 1342.8 607.945 1333.83 587.677 1323.75 C 585.96 1294.29 587.973 1263.86 587.999 1234.27 L 587.899 1053.49 z"/>
<path transform="translate(0,0)" fill="rgb(242,42,41)" d="M 1015.76 412.629 C 1018.08 412.045 1021.75 410.697 1024.11 411.25 C 1032.31 413.177 1044.11 421.065 1052.36 424.462 C 1104.15 445.769 1156.94 466.132 1207.36 490.513 L 1207.6 808.841 C 1207.63 859.263 1206.81 909.839 1207.68 960.246 L 1264.64 960.127 C 1274.74 949.043 1369.19 812.694 1370.9 806.202 C 1375.98 804.106 1382.28 794.14 1385.43 789.644 C 1386.56 740.161 1385.99 690.533 1385.77 641.036 C 1385.65 614.675 1387.35 587.166 1384.83 560.954 C 1394.25 568.282 1456.53 594.858 1471.88 600.987 C 1472.12 670.65 1470.03 740.556 1471.68 810.18 C 1464.45 823.005 1454.67 835.291 1446.51 847.64 A 2964.88 2964.88 0 0 1 1395.03 924.001 C 1383.33 940.617 1370.87 956.72 1359.35 973.454 C 1370.16 990.239 1382.38 1005.96 1393.86 1022.27 C 1408.3 1042.8 1422.12 1063.77 1436.51 1084.35 C 1447.5 1100.06 1459.62 1115.76 1469.08 1132.42 L 1468.77 1278.6 C 1468.73 1289.04 1466.61 1318.54 1468.64 1326.43 C 1481.57 1334.61 1500 1358.28 1510.59 1362.72 C 1498.8 1364.97 1474.82 1378.9 1462.79 1384.63 C 1446.46 1392.41 1429.82 1399.55 1413.53 1407.41 C 1389.14 1419.19 1364.97 1431.61 1339.92 1441.97 C 1338.69 1361.41 1339.47 1280.74 1338.96 1200.16 C 1330.37 1185.45 1317.37 1172.24 1306.87 1158.79 C 1289.22 1136.19 1272.74 1110.44 1251.88 1090.72 C 1251.47 1124.73 1252.33 1158.74 1252.35 1192.75 L 1252.2 1412.57 L 1252.06 1501.92 C 1252.02 1517.89 1252.52 1534.1 1251.8 1550.05 C 1234.17 1538.07 1224.98 1514.86 1208.8 1501.4 C 1180.78 1511.79 1153.12 1528.33 1126.73 1542.34 C 1127.73 1479.61 1126.83 1416.74 1126.75 1353.99 L 1126.37 1057.04 L 1126.13 541.092 C 1111.96 533.616 1096.61 527.656 1081.98 521.11 L 1015.98 490.997 L 1015.76 412.629 z"/>
<path transform="translate(0,0)" fill="rgb(254,254,254)" d="M 1206.99 1031.06 C 1222.91 1050.29 1238.25 1069.77 1251.88 1090.72 C 1251.47 1124.73 1252.33 1158.74 1252.35 1192.75 L 1252.2 1412.57 L 1252.06 1501.92 C 1252.02 1517.89 1252.52 1534.1 1251.8 1550.05 C 1234.17 1538.07 1224.98 1514.86 1208.8 1501.4 C 1206.46 1489.03 1208.03 1473.39 1208.01 1460.63 L 1208.02 1373.45 A 13609 13609 0 0 0 1206.99 1031.06 z"/>
<path transform="translate(0,0)" fill="rgb(168,13,17)" d="M 1206.99 1031.06 L 1206.1 1028.48 L 1207.05 1027.32 C 1233.68 1025.22 1261.92 1026.58 1288.69 1026.93 C 1325.67 1073.94 1357.84 1124.81 1393.99 1172.46 L 1393.9 1360.75 C 1409.41 1354.81 1456.28 1335.22 1468.64 1326.43 C 1481.57 1334.61 1500 1358.28 1510.59 1362.72 C 1498.8 1364.97 1474.82 1378.9 1462.79 1384.63 C 1446.46 1392.41 1429.82 1399.55 1413.53 1407.41 C 1389.14 1419.19 1364.97 1431.61 1339.92 1441.97 C 1338.69 1361.41 1339.47 1280.74 1338.96 1200.16 C 1330.37 1185.45 1317.37 1172.24 1306.87 1158.79 C 1289.22 1136.19 1272.74 1110.44 1251.88 1090.72 C 1238.25 1069.77 1222.91 1050.29 1206.99 1031.06 z"/>
<path transform="translate(0,0)" fill="rgb(242,42,41)" d="M 883.66 484.064 C 904.122 466.357 945.124 448.58 970.251 436.648 L 970.914 1293.31 L 970.92 1495.88 C 970.957 1509.95 968.605 1550.55 971.829 1561.68 C 959.596 1558.77 945.822 1549.48 934.324 1543.8 A 3103.34 3103.34 0 0 0 888.112 1521.95 C 886.318 1356.87 888.073 1191.59 888.03 1026.48 C 869.851 1025.6 851.386 1026.21 833.174 1026.18 L 731.039 1026.06 L 407.065 1026.21 C 373.726 966.139 337.644 907.542 304.651 847.321 L 402.39 847.204 C 421.839 847.228 441.443 847.755 460.872 846.934 C 462.413 844.931 461.392 841.59 462.285 839.064 C 462.387 838.776 462.543 838.509 462.671 838.231 L 462.403 883.937 C 462.379 897.999 462.019 912.172 462.713 926.215 L 484.116 926.577 C 484.094 916.403 484.353 906.146 483.969 895.983 L 531.905 896.077 C 531.696 788.385 533.465 680.464 531.612 572.801 C 546.08 563.796 567.955 556.146 583.946 549.17 C 626.876 530.441 671.87 509.851 715.948 494.382 A 13812.8 13812.8 0 0 1 716.666 769.119 A 6544.56 6544.56 0 0 0 716.816 915.921 A 5813.48 5813.48 0 0 1 827.823 915.773 A 1268.71 1268.71 0 0 1 865.321 915.376 C 868.464 915.103 871.18 914.661 874.007 913.172 C 879.885 910.076 884.391 904.487 885.915 897.979 C 888.898 885.234 886.95 868.507 886.917 855.38 L 886.642 772.393 L 886.112 596.493 C 886.093 562.214 886.823 527.757 885.977 493.493 C 885.885 489.768 885.736 487.216 883.66 484.064 z"/>
<path transform="translate(0,0)" fill="rgb(168,13,17)" d="M 531.612 572.801 C 549.275 581.073 566.539 590.141 584.641 597.45 C 587.4 599.726 587.662 600.399 587.937 603.949 C 589.141 619.495 588.001 635.776 588.005 651.404 A 8790.45 8790.45 0 0 1 588.08 740.697 A 24849.8 24849.8 0 0 0 588.128 995.583 C 575.932 987.883 558.021 974.291 544.886 969.857 C 533.32 965.953 456.376 969.387 437.28 968.602 C 416.243 940.743 394.253 912.843 375.028 883.723 C 404.021 883.284 433.448 882.287 462.403 883.937 C 462.379 897.999 462.019 912.172 462.713 926.215 L 484.116 926.577 C 484.094 916.403 484.353 906.146 483.969 895.983 L 531.905 896.077 C 531.696 788.385 533.465 680.464 531.612 572.801 z"/>
<path transform="translate(0,0)" fill="rgb(254,254,254)" d="M 531.612 572.801 C 546.08 563.796 567.955 556.146 583.946 549.17 C 626.876 530.441 671.87 509.851 715.948 494.382 A 13812.8 13812.8 0 0 1 716.666 769.119 A 6544.56 6544.56 0 0 0 716.816 915.921 A 5813.48 5813.48 0 0 1 827.823 915.773 A 1268.71 1268.71 0 0 1 865.321 915.376 C 878.112 929.993 889.884 944.647 900.998 960.583 L 674.771 961.466 C 673.309 912.054 674.142 862.37 674.09 812.932 L 674.068 556.33 C 663.557 560.201 590.584 592.67 584.641 597.45 C 566.539 590.141 549.275 581.073 531.612 572.801 z"/>
</svg>