<svg version="1.1" xmlns="http://www.w3.org/2000/svg" style="display: block;" viewBox="0 0 2048 2048" width="1024" height="1024">
<defs>
	<linearGradient id="Gradient1" gradientUnits="userSpaceOnUse" x1="1710.34" y1="462.078" x2="1719.89" y2="425.871">
		<stop class="stop0" offset="0" stop-opacity="1" stop-color="rgb(255,205,208)"/>
		<stop class="stop1" offset="1" stop-opacity="1" stop-color="rgb(255,252,249)"/>
	</linearGradient>
	<linearGradient id="Gradient2" gradientUnits="userSpaceOnUse" x1="1723.44" y1="640.598" x2="1711.13" y2="630.241">
		<stop class="stop0" offset="0" stop-opacity="1" stop-color="rgb(255,224,224)"/>
		<stop class="stop1" offset="1" stop-opacity="1" stop-color="rgb(255,255,244)"/>
	</linearGradient>
	<linearGradient id="Gradient3" gradientUnits="userSpaceOnUse" x1="1415.06" y1="460.848" x2="1391.93" y2="440.378">
		<stop class="stop0" offset="0" stop-opacity="1" stop-color="rgb(255,226,228)"/>
		<stop class="stop1" offset="1" stop-opacity="1" stop-color="rgb(255,255,250)"/>
	</linearGradient>
	<linearGradient id="Gradient4" gradientUnits="userSpaceOnUse" x1="1644.9" y1="691.434" x2="1656.96" y2="707.378">
		<stop class="stop0" offset="0" stop-opacity="1" stop-color="rgb(255,221,208)"/>
		<stop class="stop1" offset="1" stop-opacity="1" stop-color="rgb(255,241,240)"/>
	</linearGradient>
	<linearGradient id="Gradient5" gradientUnits="userSpaceOnUse" x1="1632.28" y1="673.066" x2="1638.08" y2="688.933">
		<stop class="stop0" offset="0" stop-opacity="1" stop-color="rgb(255,146,163)"/>
		<stop class="stop1" offset="1" stop-opacity="1" stop-color="rgb(255,205,207)"/>
	</linearGradient>
	<linearGradient id="Gradient6" gradientUnits="userSpaceOnUse" x1="1324.42" y1="278.397" x2="1250.93" y2="279.384">
		<stop class="stop0" offset="0" stop-opacity="1" stop-color="rgb(255,132,52)"/>
		<stop class="stop1" offset="1" stop-opacity="1" stop-color="rgb(255,172,58)"/>
	</linearGradient>
	<linearGradient id="Gradient7" gradientUnits="userSpaceOnUse" x1="1686.14" y1="534.348" x2="1429.9" y2="536.643">
		<stop class="stop0" offset="0" stop-opacity="1" stop-color="rgb(204,88,137)"/>
		<stop class="stop1" offset="1" stop-opacity="1" stop-color="rgb(244,116,150)"/>
	</linearGradient>
</defs>
<path transform="translate(0,0)" fill="rgb(53,59,132)" d="M 0 0 L 2048 0 L 2048 2048 L 0 2048 L 0 0 z"/>
<path transform="translate(0,0)" fill="rgb(251,251,251)" d="M 1169.19 422.465 C 1168.66 422.362 1168.12 422.281 1167.58 422.156 C 1166.04 421.794 1164.69 421.806 1163.95 420.29 C 1160.99 414.18 1161.84 401.409 1163.94 395.102 L 1166.84 395.316 C 1168.14 404.25 1169.09 413.434 1169.19 422.465 z"/>
<path transform="translate(0,0)" fill="rgb(242,239,241)" d="M 1179.75 378.822 C 1179.64 378.822 1179.54 378.83 1179.43 378.822 C 1173.8 378.388 1164.8 378.246 1161.18 373.219 C 1159.57 370.976 1159.26 369.481 1159.44 366.786 C 1160.68 364.228 1161.67 362.737 1164.39 361.574 C 1167.64 360.183 1171.42 362.148 1174.5 363.3 C 1175.5 366.137 1176.51 368.926 1177.73 371.68 C 1177.47 374.013 1177.02 375.063 1175.67 376.975 L 1179.25 377.131 L 1179.75 378.822 z"/>
<path transform="translate(0,0)" fill="rgb(252,226,233)" d="M 1499.13 689.585 C 1509.06 693.964 1519.61 696.792 1530.08 699.565 C 1529.79 703.486 1529.32 707.353 1528.86 711.255 C 1528.69 712.717 1528.79 712.108 1528.4 713.603 L 1527.21 713.76 C 1527.17 710.765 1527.11 708.107 1526.35 705.179 C 1517.24 701.699 1507.61 699.559 1498.92 695.099 C 1498.53 694.898 1498.14 694.687 1497.75 694.481 A 1205.59 1205.59 0 0 1 1485.04 708.496 L 1482.51 706.193 C 1485.45 700.338 1493.89 693.502 1499.13 689.585 z"/>
<path transform="translate(0,0)" fill="rgb(253,163,184)" d="M 1725.62 570.037 C 1731.14 565.65 1737.24 565.162 1743.27 561.945 L 1745.49 565.948 C 1741.25 567.932 1737.09 569.451 1732.63 570.865 C 1728.24 580.942 1726.57 590.763 1725.16 601.59 L 1723.52 604.765 C 1721.86 603.225 1720.04 600.81 1719.28 598.648 C 1718.02 595.052 1719.29 592.348 1720.61 588.972 A 1145.72 1145.72 0 0 1 1725.62 570.037 z"/>
<path transform="translate(0,0)" fill="rgb(251,251,251)" d="M 1449.3 666.64 L 1452.2 666.932 C 1452.21 674.076 1448.77 687.114 1453.88 692.435 C 1458.79 697.547 1473.08 706.46 1480.36 706.617 C 1481.29 706.637 1481.7 706.451 1482.51 706.193 L 1485.04 708.496 C 1484.75 708.73 1484.47 708.982 1484.17 709.199 C 1482.13 710.648 1480.37 711.05 1477.94 710.532 C 1469.94 708.823 1450.01 700.131 1446 692.796 C 1442.53 686.462 1447.04 673.141 1449.3 666.64 z"/>
<path transform="translate(0,0)" fill="rgb(242,239,241)" d="M 1166.61 379.83 C 1177.01 379.378 1252.04 393.547 1258.37 398.108 C 1259.52 400.095 1259.78 401.259 1259.88 403.545 C 1257.12 403.577 1254.8 403.8 1252.34 402.364 C 1248.66 400.209 1244.58 399.132 1240.57 397.648 C 1235.22 395.667 1229.57 393.119 1224.04 391.883 C 1205.36 387.712 1184.12 388.18 1166.61 379.83 z"/>
<path transform="translate(0,0)" fill="url(#Gradient1)" d="M 1691.92 424.836 C 1697.71 422.77 1706.84 419.059 1712.72 422.648 C 1718.36 426.093 1734.86 453.331 1735.43 459.966 C 1735.77 463.914 1732.35 468.215 1729.56 470.615 C 1728.12 471.847 1726.6 472.911 1725.03 473.959 C 1725.63 469.1 1728.12 464.768 1730.21 460.39 C 1725.72 451.134 1720.37 435.764 1711.8 429.956 C 1704.5 425.006 1697.96 426.903 1689.94 428.489 C 1690.39 426.232 1689.99 426.465 1691.92 424.836 z"/>
<path transform="translate(0,0)" fill="rgb(254,217,218)" d="M 1728.8 504.701 C 1735.98 507.044 1747.07 509.331 1750.48 517.035 C 1754.33 525.707 1753.41 552.427 1749.32 561.023 C 1748.44 562.889 1746.91 564.47 1745.49 565.948 L 1743.27 561.945 C 1743.33 561.777 1743.38 561.608 1743.44 561.44 C 1745.6 555.48 1747.64 523.326 1744.51 517.63 C 1741.97 513.001 1734.08 510.985 1729.41 509.609 C 1728.04 507.306 1728.24 507.357 1728.8 504.701 z"/>
<path transform="translate(0,0)" fill="rgb(251,251,251)" d="M 1633.5 363.598 C 1644.9 366.301 1667.63 375.233 1673.78 385.232 C 1675.32 387.735 1676.13 390.999 1675.47 393.913 C 1675.07 395.636 1674.32 397.33 1673.63 398.95 C 1672.53 397.089 1672.29 395.677 1671.78 393.585 C 1667.24 382.953 1646.29 375.299 1636.13 369.822 C 1632.23 372.313 1629.2 375.118 1625.93 378.347 C 1623.7 378.265 1622.46 377.711 1620.49 376.69 C 1624.23 371.319 1628.02 367.25 1633.5 363.598 z"/>
<path transform="translate(0,0)" fill="rgb(241,96,133)" d="M 1636.13 369.822 C 1646.29 375.299 1667.24 382.953 1671.78 393.585 C 1671.28 396.007 1671.03 397.613 1669.53 399.644 C 1668.77 399.618 1637.68 380.33 1625.93 378.347 C 1629.2 375.118 1632.23 372.313 1636.13 369.822 z"/>
<path transform="translate(0,0)" fill="url(#Gradient2)" d="M 1725.16 601.59 C 1729.07 605.581 1735.81 610.941 1735.73 616.981 C 1735.59 627.223 1719.33 651.429 1711.33 658.016 C 1708.49 660.353 1706 661.394 1702.33 660.78 C 1697.35 659.948 1692.02 657.399 1687.26 655.605 L 1687.66 654.374 L 1689.26 653.919 L 1701.29 657.833 C 1712.09 649.844 1726.17 631.932 1728.43 618.496 C 1729.4 612.719 1726.67 609.29 1723.52 604.765 L 1725.16 601.59 z"/>
<path transform="translate(0,0)" fill="rgb(251,251,251)" d="M 1399.82 597.695 C 1402.2 598.426 1403.34 599.442 1405.23 600.962 C 1399.51 605.636 1394 610.366 1388.68 615.502 C 1394.07 628.073 1401.38 639.368 1408.91 650.72 C 1413.71 648.762 1422.21 643.892 1427.02 644.971 L 1427.32 647.002 C 1422.36 649.213 1417.06 651.941 1411.83 653.402 C 1409.27 654.119 1407.02 654.292 1404.7 652.848 C 1397.02 648.084 1383.95 624.619 1382.23 615.866 C 1383.46 608.633 1394.67 603.903 1399.29 598.361 C 1399.47 598.143 1399.64 597.917 1399.82 597.695 z"/>
<path transform="translate(0,0)" fill="url(#Gradient3)" d="M 1398.86 483.108 C 1393.04 477.669 1385.06 473.56 1381.93 465.896 C 1384.05 454.546 1390.4 442.157 1397.3 432.906 C 1400.28 428.923 1404.68 424.947 1409.92 424.655 C 1415.48 424.345 1420.05 428.014 1424.23 431.191 L 1422.11 434.524 C 1417.77 432.395 1412.09 428.748 1407.17 430.01 C 1403.05 435.03 1388.78 457.403 1388.55 463.213 C 1391.57 470.149 1398.31 474.628 1404.08 479.216 L 1398.86 483.108 z"/>
<path transform="translate(0,0)" fill="url(#Gradient4)" d="M 1670.45 672.209 C 1674.51 676.416 1679.11 680.983 1678.74 687.328 C 1678.41 692.862 1674.74 697.27 1670.64 700.649 C 1661.98 707.787 1641.2 719.016 1629.78 718.076 C 1627.19 717.863 1625.3 716.439 1623.81 714.362 C 1621.17 710.666 1619.78 705.48 1619.15 701.019 C 1623.2 703.921 1626.47 708.673 1629.68 712.487 C 1646.04 706.801 1664.37 700.045 1676.47 687.127 C 1674.14 682.833 1671.46 679.018 1669.46 674.513 L 1670.45 672.209 z"/>
<path transform="translate(0,0)" fill="rgb(251,251,251)" d="M 1368.58 564.958 C 1365.91 555.032 1361.09 532.076 1366.66 523.057 C 1371.43 515.338 1383.12 514.156 1391.21 512.312 L 1391.02 515.672 C 1386.68 519.514 1379.16 521.371 1373.76 523.617 C 1373.08 535.685 1369.15 553.129 1378.15 562.749 C 1381.55 566.382 1386.92 567.849 1391.12 570.319 L 1390.98 572.138 C 1383.35 570.605 1375.88 567.603 1368.58 564.958 z"/>
<path transform="translate(0,0)" fill="rgb(251,251,251)" d="M 1449.24 407.738 C 1445.41 402.277 1442.52 394.725 1443.68 387.993 C 1444.76 381.743 1448.61 377.199 1453.8 373.771 C 1460.58 369.292 1479.25 360.118 1487.26 362.731 C 1493.38 364.729 1496.67 371.454 1499.9 376.563 L 1496.47 378.427 C 1492.56 375.029 1488.99 371.55 1485.44 367.779 C 1475.69 371.696 1454.64 377.749 1449.53 387.245 C 1446.79 392.331 1452.22 400.772 1453.2 405.973 L 1449.24 407.738 z"/>
<path transform="translate(0,0)" fill="rgb(251,251,251)" d="M 1530.26 371.917 C 1531.38 365.873 1532.21 359.145 1534.59 353.454 C 1535.99 350.123 1537.68 347.664 1541.16 346.296 C 1549.55 342.994 1575.75 341.794 1583.7 346.83 C 1590.17 350.934 1591.08 362.692 1592.27 369.474 L 1589.78 369.999 C 1586.4 363.721 1584.19 356.926 1580.26 350.957 C 1570.49 351.125 1549.05 348.164 1542.17 354.966 C 1537.96 359.131 1537.63 366.449 1536.65 372.02 C 1533.98 373 1532.73 373.023 1530.26 371.917 z"/>
<path transform="translate(0,0)" fill="rgb(254,217,218)" d="M 1530.08 699.565 C 1531.24 703.517 1531.56 707.164 1531.75 711.267 C 1532.09 714.445 1532.14 721.747 1535.05 723.649 C 1540.64 727.307 1574.27 727.061 1581.52 725.256 C 1583.71 724.71 1585.54 723.216 1586.61 721.222 A 291.069 291.069 0 0 1 1587.4 708.602 L 1590.85 709.281 C 1591.59 713.426 1591.5 717.478 1590.52 721.602 C 1590.05 723.339 1589.64 725.065 1588.65 726.599 C 1586.25 730.346 1582.32 732.01 1578.14 732.964 C 1568.27 735.212 1541.03 735.872 1532.73 729.41 C 1527.87 725.629 1527.89 719.361 1527.21 713.76 L 1528.4 713.603 C 1528.79 712.108 1528.69 712.717 1528.86 711.255 C 1529.32 707.353 1529.79 703.486 1530.08 699.565 z"/>
<path transform="translate(0,0)" fill="rgb(35,188,196)" d="M 789.93 267.334 C 795.824 272.051 800.52 278.028 801.282 285.797 A 22.7805 22.7805 0 0 1 795.778 302.884 C 791.383 307.987 784.794 311.327 778.055 311.719 C 774.576 311.921 771.068 311.127 767.674 310.446 C 773.066 302.533 775.013 293.556 779.078 285.008 C 782.016 278.828 786.338 273.182 789.93 267.334 z"/>
<path transform="translate(0,0)" fill="rgb(253,163,184)" d="M 1592.27 369.474 C 1600.9 371.187 1612.93 372.264 1620.49 376.69 C 1622.46 377.711 1623.7 378.265 1625.93 378.347 C 1637.68 380.33 1668.77 399.618 1669.53 399.644 C 1671.03 397.613 1671.28 396.007 1671.78 393.585 C 1672.29 395.677 1672.53 397.089 1673.63 398.95 C 1672.96 400.453 1671.51 402.504 1672.06 404.115 C 1674.4 410.976 1686.69 419.362 1691.92 424.836 C 1689.99 426.465 1690.39 426.232 1689.94 428.489 L 1685.5 430.999 C 1685.21 430.422 1684.83 429.62 1684.46 429.055 C 1674.47 413.818 1638.84 388.953 1621.21 385.072 C 1613.66 380.119 1601.14 378.268 1592.36 376.688 L 1593.24 376.313 C 1590.31 374.974 1591.46 373.158 1589.78 369.999 L 1592.27 369.474 z"/>
<path transform="translate(0,0)" fill="rgb(241,96,133)" d="M 1616.26 699.315 C 1627.68 695.102 1638.54 690.904 1648.96 684.48 C 1656.08 680.092 1662.7 674.776 1670.16 670.986 L 1670.45 672.209 L 1669.46 674.513 C 1671.46 679.018 1674.14 682.833 1676.47 687.127 C 1664.37 700.045 1646.04 706.801 1629.68 712.487 C 1626.47 708.673 1623.2 703.921 1619.15 701.019 L 1616.26 699.315 z"/>
<path transform="translate(0,0)" fill="rgb(115,214,214)" d="M 767.674 310.446 C 767.388 310.298 767.101 310.154 766.817 310.003 L 765.404 309.236 C 759.176 305.909 754.873 301.814 752.475 295 A 24.0248 24.0248 0 0 1 754.094 275.653 A 24.1564 24.1564 0 0 1 768.334 263.817 C 776.319 261.412 782.906 263.451 789.93 267.334 C 786.338 273.182 782.016 278.828 779.078 285.008 C 775.013 293.556 773.066 302.533 767.674 310.446 z"/>
<path transform="translate(0,0)" fill="rgb(133,112,198)" d="M 1372.08 327.154 C 1374.79 326.973 1377.62 326.748 1380.3 327.305 C 1385.12 328.305 1389.68 331.89 1392.13 336.104 C 1394.79 340.685 1395.24 346.175 1393.58 351.187 C 1391.43 357.692 1386.95 360.84 1381.15 363.921 C 1377.48 364.295 1373.59 364.917 1370 363.74 C 1365.44 362.24 1361.55 359.114 1359.42 354.766 C 1357.15 350.124 1357.14 344.637 1359 339.86 C 1361.51 333.418 1366.04 330.048 1372.08 327.154 z"/>
<path transform="translate(0,0)" fill="rgb(91,86,173)" d="M 781.631 415.2 C 785.141 415.031 788.598 415.105 791.993 416.136 C 796.611 417.538 800.814 421.21 802.743 425.639 C 804.633 429.981 804.579 434.826 802.849 439.207 C 800.274 445.724 795.459 448.497 789.308 451.159 C 784.545 451.828 779.823 452.207 775.398 449.945 A 18.3331 18.3331 0 0 1 766.102 438.166 A 18.804 18.804 0 0 1 768.431 423.344 C 771.678 418.238 775.937 416.467 781.631 415.2 z"/>
<path transform="translate(0,0)" fill="rgb(166,198,231)" d="M 1174.5 363.3 C 1202.08 369.232 1229.61 374.99 1257.33 380.197 L 1254.21 393.771 C 1239.11 390.93 1191.19 383.792 1179.75 378.822 L 1179.25 377.131 L 1175.67 376.975 C 1177.02 375.063 1177.47 374.013 1177.73 371.68 C 1176.51 368.926 1175.5 366.137 1174.5 363.3 z"/>
<path transform="translate(0,0)" fill="rgb(241,96,133)" d="M 1453.88 662.319 C 1458.3 664.326 1460.43 668.871 1465.08 670.179 L 1466.59 669.283 C 1474.53 673.562 1482.64 678.3 1490.1 683.365 C 1490.75 685.644 1490.79 685.727 1492.96 686.941 C 1494.41 687.752 1495.95 688.23 1497.51 688.778 C 1498.66 689.183 1498.2 688.952 1499.13 689.585 C 1493.89 693.502 1485.45 700.338 1482.51 706.193 C 1481.7 706.451 1481.29 706.637 1480.36 706.617 C 1473.08 706.46 1458.79 697.547 1453.88 692.435 C 1448.77 687.114 1452.21 674.076 1452.2 666.932 L 1453.88 662.319 z"/>
<path transform="translate(0,0)" fill="rgb(241,96,133)" d="M 1541.3 710.127 C 1539.05 708.535 1538.21 707.723 1537.2 705.142 L 1538.27 702.777 C 1548.2 699.52 1564.59 703.09 1575.98 701.917 C 1578.03 702.022 1581.04 701.746 1582.83 702.686 L 1586.34 704.214 C 1586.9 705.797 1587.21 706.911 1587.4 708.602 A 291.069 291.069 0 0 0 1586.61 721.222 C 1585.54 723.216 1583.71 724.71 1581.52 725.256 C 1574.27 727.061 1540.64 727.307 1535.05 723.649 C 1532.14 721.747 1532.09 714.445 1531.75 711.267 C 1535.49 709.359 1537.28 709.505 1541.3 710.127 z"/>
<path transform="translate(0,0)" fill="rgb(252,226,233)" d="M 1541.3 710.127 C 1539.05 708.535 1538.21 707.723 1537.2 705.142 L 1538.27 702.777 C 1548.2 699.52 1564.59 703.09 1575.98 701.917 C 1578.03 702.022 1581.04 701.746 1582.83 702.686 C 1579.04 706.809 1582.79 710.485 1576.38 710.969 C 1564.74 711.848 1552.9 709.311 1541.3 710.127 z"/>
<path transform="translate(0,0)" fill="rgb(251,251,251)" d="M 1259.88 403.545 C 1259.37 406.098 1259.12 408.469 1257.47 410.578 C 1242.21 408.567 1164.34 396.144 1154.92 388.915 C 1152.74 387.237 1152.29 386.07 1151.81 383.444 C 1152.8 381.21 1154.62 379.483 1156.84 378.428 C 1159.6 377.121 1162.56 378.52 1165.27 379.387 L 1166.61 379.83 C 1184.12 388.18 1205.36 387.712 1224.04 391.883 C 1229.57 393.119 1235.22 395.667 1240.57 397.648 C 1244.58 399.132 1248.66 400.209 1252.34 402.364 C 1254.8 403.8 1257.12 403.577 1259.88 403.545 z"/>
<path transform="translate(0,0)" fill="rgb(133,112,198)" d="M 254.43 719.143 C 258.311 719.068 262.124 719.118 265.792 720.547 A 20.0513 20.0513 0 0 1 276.983 731.519 A 19.2866 19.2866 0 0 1 276.675 746.764 C 273.906 752.957 269.396 755.764 263.273 758.068 C 258.961 758.197 254.789 758.288 250.755 756.528 C 245.43 754.204 241.193 749.454 239.304 743.984 C 237.626 739.127 237.798 733.62 240.295 729.068 C 243.418 723.371 248.386 720.77 254.43 719.143 z"/>
<path transform="translate(0,0)" fill="rgb(251,251,251)" d="M 1161.68 345.986 C 1174.79 349.586 1187.74 352.203 1201.19 354.072 L 1202.69 354.368 C 1213.33 357.671 1261.06 365.121 1266.33 368.615 C 1266.71 371.839 1266.43 373.679 1265.56 376.81 C 1258.92 380.633 1174.75 360.242 1159.56 358.372 L 1158.13 358.203 L 1161.68 345.986 z"/>
<path transform="translate(0,0)" fill="rgb(133,112,198)" d="M 379.558 784.36 C 384.56 784.749 388.312 785.482 392.6 788.189 C 397.685 791.399 401.536 796.164 402.762 802.138 A 18.1673 18.1673 0 0 1 399.694 816.653 C 395.186 822.864 388.86 824.655 381.637 825.834 C 376.969 825.582 372.791 824.83 368.8 822.236 A 20.6859 20.6859 0 0 1 359.502 807.867 A 20.5625 20.5625 0 0 1 363.456 792.405 C 367.756 786.743 372.753 785.183 379.558 784.36 z"/>
<path transform="translate(0,0)" fill="rgb(241,96,133)" d="M 1453.2 405.973 L 1453.59 412.882 L 1457.74 409.366 L 1459.13 409.653 L 1460 411.396 C 1436.91 431.039 1420.81 451.25 1408.75 479.144 C 1406.89 479.643 1406.21 480.263 1404.9 481.65 L 1404.08 479.216 C 1398.31 474.628 1391.57 470.149 1388.55 463.213 C 1388.78 457.403 1403.05 435.03 1407.17 430.01 C 1412.09 428.748 1417.77 432.395 1422.11 434.524 L 1424.23 431.191 C 1431.85 423.323 1439.98 413.594 1449.24 407.738 L 1453.2 405.973 z"/>
<path transform="translate(0,0)" fill="rgb(253,163,184)" d="M 1453.2 405.973 L 1453.59 412.882 C 1445.85 417.724 1439.43 425.53 1433.01 432 C 1429.31 432.693 1425.72 433.473 1422.11 434.524 L 1424.23 431.191 C 1431.85 423.323 1439.98 413.594 1449.24 407.738 L 1453.2 405.973 z"/>
<path transform="translate(0,0)" fill="rgb(133,112,198)" d="M 1755.59 819.037 C 1758.97 818.864 1762.7 818.808 1766.01 819.593 C 1774.46 821.602 1778.76 827.271 1782.93 834.361 C 1783.24 840.81 1783.61 846.728 1780.92 852.8 C 1777.92 859.588 1772.62 862.681 1765.93 865.202 C 1760.86 865.301 1755.56 865.326 1750.82 863.294 C 1745.05 860.822 1739.99 856.146 1737.72 850.229 C 1735.57 844.599 1735.64 838.25 1738.26 832.787 C 1741.84 825.337 1748.06 821.62 1755.59 819.037 z"/>
<path transform="translate(0,0)" fill="rgb(115,214,214)" d="M 294.603 586.233 C 300.092 586.286 305.417 586.78 310.207 589.674 C 317.182 593.888 319.476 600.681 321.521 608.06 C 320.714 611.996 319.802 616.174 317.959 619.767 C 314.047 627.393 307.856 630.256 299.986 632.591 C 294.907 632.88 289.438 632.286 284.915 629.826 C 277.413 625.746 274.829 618.609 272.6 610.919 C 273.58 605.795 274.675 600.91 277.588 596.489 C 281.736 590.193 287.467 587.777 294.603 586.233 z"/>
<path transform="translate(0,0)" fill="rgb(166,198,231)" d="M 1166.84 395.316 C 1193.01 402.253 1220.35 407.696 1247.14 411.613 C 1244.72 419.205 1242.48 426.939 1239.59 434.362 C 1215.89 432.158 1192.84 424.754 1169.19 422.465 C 1169.09 413.434 1168.14 404.25 1166.84 395.316 z"/>
<path transform="translate(0,0)" fill="rgb(115,214,214)" d="M 1769.38 709.197 C 1773.28 709.179 1776.87 709.403 1780.56 710.805 A 26.9044 26.9044 0 0 1 1795.96 725.899 C 1798.49 732.276 1798.44 739.448 1795.45 745.658 C 1791.91 752.974 1785.77 756.691 1778.34 759.206 C 1773.6 759.276 1769.6 759.271 1765.22 757.278 A 26.8435 26.8435 0 0 1 1750.77 741.055 C 1748.64 734.35 1749.18 726.935 1752.79 720.83 C 1756.65 714.275 1762.28 711.207 1769.38 709.197 z"/>
<path transform="translate(0,0)" fill="rgb(133,112,198)" d="M 1035.44 252.061 C 1040.09 251.858 1044.52 251.728 1048.94 253.436 A 26.9714 26.9714 0 0 1 1063.88 268.028 C 1066.59 274.421 1066.89 281.935 1064.01 288.325 C 1060.67 295.75 1054.79 299.218 1047.44 301.904 C 1042.79 302.697 1037.89 302.716 1033.4 301.141 A 24.4616 24.4616 0 0 1 1019.21 287.867 C 1016.19 281.091 1015.97 272.863 1018.96 266.037 C 1022.37 258.238 1027.68 254.851 1035.44 252.061 z"/>
<path transform="translate(0,0)" fill="rgb(238,120,68)" d="M 365.314 516.939 C 376.743 489.588 394.645 463.632 409.888 438.237 C 424.564 413.788 438.663 385.826 457.443 364.273 L 463.954 371.384 C 464.267 375.285 464.558 379.009 463.51 382.828 C 455.689 411.332 415.388 460.809 396.216 484.548 C 389.877 492.398 380.124 501.675 375.489 510.517 C 372.804 513.62 369.383 516.085 365.314 516.939 z"/>
<path transform="translate(0,0)" fill="rgb(241,96,133)" d="M 1689.94 428.489 C 1697.96 426.903 1704.5 425.006 1711.8 429.956 C 1720.37 435.764 1725.72 451.134 1730.21 460.39 C 1728.12 464.768 1725.63 469.1 1725.03 473.959 C 1721.32 482.571 1728.16 495.725 1728.8 504.701 C 1728.24 507.357 1728.04 507.306 1729.41 509.609 C 1734.08 510.985 1741.97 513.001 1744.51 517.63 C 1747.64 523.326 1745.6 555.48 1743.44 561.44 C 1743.38 561.608 1743.33 561.777 1743.27 561.945 C 1737.24 565.162 1731.14 565.65 1725.62 570.037 A 1145.72 1145.72 0 0 0 1720.61 588.972 L 1718.31 588.133 C 1720.24 572.29 1724.55 557.776 1724.91 541.523 C 1725.07 534.26 1725.29 526.559 1724.31 519.341 C 1720.96 494.657 1705.36 452.659 1687.63 434.662 C 1687.45 434.48 1686.17 433.297 1686.03 432.96 C 1685.75 432.34 1685.67 431.653 1685.5 430.999 L 1689.94 428.489 z"/>
<path transform="translate(0,0)" fill="rgb(241,96,133)" d="M 1718.31 588.133 L 1720.61 588.972 C 1719.29 592.348 1718.02 595.052 1719.28 598.648 C 1720.04 600.81 1721.86 603.225 1723.52 604.765 C 1726.67 609.29 1729.4 612.719 1728.43 618.496 C 1726.17 631.932 1712.09 649.844 1701.29 657.833 L 1689.26 653.919 L 1687.66 654.374 L 1687.26 655.605 C 1680.82 659.981 1676.13 666.097 1670.16 670.986 C 1662.7 674.776 1656.08 680.092 1648.96 684.48 C 1638.54 690.904 1627.68 695.102 1616.26 699.315 C 1608.52 700.842 1599.53 701.816 1592.4 705.233 C 1591.74 706.635 1591.26 707.767 1590.85 709.281 L 1587.4 708.602 C 1587.21 706.911 1586.9 705.797 1586.34 704.214 L 1582.83 702.686 C 1581.04 701.746 1578.03 702.022 1575.98 701.917 C 1564.59 703.09 1548.2 699.52 1538.27 702.777 L 1537.2 705.142 C 1538.21 707.723 1539.05 708.535 1541.3 710.127 C 1537.28 709.505 1535.49 709.359 1531.75 711.267 C 1531.56 707.164 1531.24 703.517 1530.08 699.565 C 1519.61 696.792 1509.06 693.964 1499.13 689.585 C 1498.2 688.952 1498.66 689.183 1497.51 688.778 C 1495.95 688.23 1494.41 687.752 1492.96 686.941 C 1490.79 685.727 1490.75 685.644 1490.1 683.365 C 1490.46 683.442 1490.82 683.508 1491.18 683.597 C 1499.6 685.697 1507.89 689.453 1516.3 691.872 C 1545.17 700.18 1577.21 703.059 1606.27 693.6 C 1614.91 690.452 1623.42 687.175 1631.75 683.265 C 1673.4 663.716 1702.64 631.171 1718.31 588.133 z"/>
<path transform="translate(0,0)" fill="rgb(252,125,159)" d="M 1681.6 651.39 C 1683.37 649.565 1692.13 639.335 1693.62 639.29 C 1693.07 644.571 1689.37 648.913 1689.26 653.919 L 1687.66 654.374 C 1684.54 653.689 1683.96 653.518 1681.6 651.39 z"/>
<path transform="translate(0,0)" fill="url(#Gradient5)" d="M 1681.6 651.39 C 1683.96 653.518 1684.54 653.689 1687.66 654.374 L 1687.26 655.605 C 1680.82 659.981 1676.13 666.097 1670.16 670.986 C 1662.7 674.776 1656.08 680.092 1648.96 684.48 C 1638.54 690.904 1627.68 695.102 1616.26 699.315 C 1608.52 700.842 1599.53 701.816 1592.4 705.233 C 1591.74 706.635 1591.26 707.767 1590.85 709.281 L 1587.4 708.602 C 1587.21 706.911 1586.9 705.797 1586.34 704.214 L 1582.83 702.686 C 1581.04 701.746 1578.03 702.022 1575.98 701.917 C 1586.55 700.826 1596.79 698.539 1606.96 695.544 C 1636.88 686.001 1659.34 673.738 1681.6 651.39 z"/>
<path transform="translate(0,0)" fill="rgb(241,96,133)" d="M 1536.65 372.02 C 1537.63 366.449 1537.96 359.131 1542.17 354.966 C 1549.05 348.164 1570.49 351.125 1580.26 350.957 C 1584.19 356.926 1586.4 363.721 1589.78 369.999 C 1591.46 373.158 1590.31 374.974 1593.24 376.313 L 1592.36 376.688 C 1601.14 378.268 1613.66 380.119 1621.21 385.072 L 1617.27 385.398 C 1571.22 372.397 1523.64 374.315 1481.38 397.859 C 1474.02 401.961 1466.95 406.633 1460 411.396 L 1459.13 409.653 L 1457.74 409.366 L 1453.59 412.882 L 1453.2 405.973 C 1452.22 400.772 1446.79 392.331 1449.53 387.245 C 1454.64 377.749 1475.69 371.696 1485.44 367.779 C 1488.99 371.55 1492.56 375.029 1496.47 378.427 L 1499.9 376.563 C 1510.06 375.559 1519.98 371.327 1530.26 371.917 C 1532.73 373.023 1533.98 373 1536.65 372.02 z"/>
<path transform="translate(0,0)" fill="rgb(253,163,184)" d="M 1530.26 371.917 C 1532.73 373.023 1533.98 373 1536.65 372.02 L 1536.2 375.1 C 1527.74 379.293 1512.94 382.164 1503.47 383.052 C 1501.07 381.579 1498.77 380.05 1496.47 378.427 L 1499.9 376.563 C 1510.06 375.559 1519.98 371.327 1530.26 371.917 z"/>
<path transform="translate(0,0)" fill="rgb(255,250,142)" d="M 1167.44 344.595 C 1167.22 336.869 1169.42 329.119 1168.05 321.434 C 1166.62 313.452 1162.54 305.509 1159.46 298.058 C 1151.42 278.6 1148.35 258.52 1152.77 237.735 C 1157.61 215.008 1170.8 193.869 1190.59 181.326 C 1211.99 167.76 1236.3 165.238 1260.64 170.831 C 1260.13 171.237 1259.64 171.66 1259.12 172.05 C 1252.6 176.968 1238.61 177.181 1230.52 179.406 C 1200.74 187.603 1172.11 214.737 1166.4 245.612 C 1163.88 259.227 1165.74 273.753 1169.04 287.075 C 1172.78 302.182 1185.91 327.222 1184.07 341.651 C 1183.77 344.004 1182.4 345.602 1180.97 347.366 C 1176.49 346.199 1172 345.396 1167.44 344.595 z"/>
<path transform="translate(0,0)" fill="rgb(241,96,133)" d="M 1404.9 481.65 C 1406.21 480.263 1406.89 479.643 1408.75 479.144 C 1398.94 506.723 1396.49 529.199 1399.74 558.332 C 1400.42 564.399 1401.9 570.384 1402.5 576.428 C 1407.15 585.734 1409.53 596.395 1413.66 606.023 C 1421.49 623.402 1434.23 641.763 1448.86 654.151 C 1454.42 658.867 1462.1 663.583 1466.59 669.283 L 1465.08 670.179 C 1460.43 668.871 1458.3 664.326 1453.88 662.319 L 1452.2 666.932 L 1449.3 666.64 C 1441.36 660.606 1434.41 653.982 1427.32 647.002 L 1427.02 644.971 C 1422.21 643.892 1413.71 648.762 1408.91 650.72 C 1401.38 639.368 1394.07 628.073 1388.68 615.502 C 1394 610.366 1399.51 605.636 1405.23 600.962 C 1403.34 599.442 1402.2 598.426 1399.82 597.695 C 1394.86 589.549 1394.09 580.887 1390.98 572.138 L 1391.12 570.319 C 1386.92 567.849 1381.55 566.382 1378.15 562.749 C 1369.15 553.129 1373.08 535.685 1373.76 523.617 C 1379.16 521.371 1386.68 519.514 1391.02 515.672 L 1391.21 512.312 C 1391.28 503.075 1394.68 491.272 1398.86 483.108 L 1404.08 479.216 L 1404.9 481.65 z"/>
<path transform="translate(0,0)" fill="rgb(253,163,184)" d="M 1391.12 570.319 C 1393.25 570.569 1395.36 570.778 1397.5 570.923 L 1398.01 572.021 C 1399.46 577.465 1406.46 596.664 1405.23 600.962 C 1403.34 599.442 1402.2 598.426 1399.82 597.695 C 1394.86 589.549 1394.09 580.887 1390.98 572.138 L 1391.12 570.319 z"/>
<path transform="translate(0,0)" fill="rgb(253,163,184)" d="M 1404.08 479.216 L 1404.9 481.65 C 1402.92 488.557 1399.72 508.833 1394.99 513.537 C 1394.53 513.718 1394.07 513.89 1393.61 514.08 C 1391.74 514.853 1392.43 514.44 1391.02 515.672 L 1391.21 512.312 C 1391.28 503.075 1394.68 491.272 1398.86 483.108 L 1404.08 479.216 z"/>
<path transform="translate(0,0)" fill="rgb(252,125,159)" d="M 1427.02 644.971 C 1427.5 644.918 1427.98 644.873 1428.46 644.813 C 1430.41 644.57 1432.23 644.177 1434.14 643.747 C 1440.22 648.432 1449.31 656.255 1453.88 662.319 L 1452.2 666.932 L 1449.3 666.64 C 1441.36 660.606 1434.41 653.982 1427.32 647.002 L 1427.02 644.971 z"/>
<path transform="translate(0,0)" fill="url(#Gradient6)" d="M 1298.68 192.238 C 1317.47 210.493 1326.73 233.191 1326.95 259.517 C 1327.13 280.265 1320.24 301.371 1305.45 316.282 C 1286.22 335.678 1270.97 333.919 1260.87 363.705 C 1257.69 363.039 1254.17 362.594 1251.1 361.57 C 1251.45 356.565 1254.46 352.272 1256.36 347.686 C 1259.62 339.858 1262.45 330.682 1266.96 323.573 C 1269.65 319.342 1274.26 315.774 1277.6 312.008 C 1289.48 298.651 1298.48 283.089 1301.71 265.41 C 1306.33 240.145 1298.6 217.287 1298.68 192.238 z"/>
<path transform="translate(0,0)" fill="rgb(215,78,44)" d="M 463.954 371.384 C 479.445 385.165 492.879 401.128 507.869 415.439 C 478.18 439.039 443.615 463.256 412.441 485.171 C 400.361 493.663 386.996 501.347 375.489 510.517 C 380.124 501.675 389.877 492.398 396.216 484.548 C 415.388 460.809 455.689 411.332 463.51 382.828 C 464.558 379.009 464.267 375.285 463.954 371.384 z"/>
<path transform="translate(0,0)" fill="rgb(253,163,184)" d="M 1460 411.396 C 1466.95 406.633 1474.02 401.961 1481.38 397.859 C 1523.64 374.315 1571.22 372.397 1617.27 385.398 C 1616.76 385.748 1616.27 386.111 1615.75 386.447 C 1602.42 395.181 1574.58 389.037 1558.57 390.547 C 1492.94 396.736 1430.17 437.787 1413.49 504.087 C 1408.28 524.795 1407.01 548.685 1410.7 569.753 C 1412.3 578.851 1415.17 588.096 1415.92 597.301 C 1416.19 600.595 1415.89 603.433 1413.66 606.023 C 1409.53 596.395 1407.15 585.734 1402.5 576.428 C 1401.9 570.384 1400.42 564.399 1399.74 558.332 C 1396.49 529.199 1398.94 506.723 1408.75 479.144 C 1420.81 451.25 1436.91 431.039 1460 411.396 z"/>
<path transform="translate(0,0)" fill="rgb(245,145,68)" d="M 507.869 415.439 C 535.439 395.077 564.576 376.046 592.812 356.556 C 624.473 334.703 655.733 312.105 688.584 292.042 C 689.355 301.346 691.054 310.396 691.119 319.776 C 690.882 325.952 691.542 330.474 686.679 334.976 C 675.318 345.494 664.895 357.049 653.255 367.219 A 851.445 851.445 0 0 1 426.537 507.802 C 407.541 515.633 386.474 518.105 367.806 525.926 C 368.968 527.169 370.088 528.109 371.482 529.084 L 371.638 530.527 C 367.843 529.225 364.218 527.015 360.662 525.157 C 362.078 522.278 363.539 519.614 365.314 516.939 C 369.383 516.085 372.804 513.62 375.489 510.517 C 386.996 501.347 400.361 493.663 412.441 485.171 C 443.615 463.256 478.18 439.039 507.869 415.439 z"/>
<path transform="translate(0,0)" fill="rgb(249,208,64)" d="M 1260.64 170.831 C 1275.63 175.958 1286.77 181.696 1298.68 192.238 C 1298.6 217.287 1306.33 240.145 1301.71 265.41 C 1298.48 283.089 1289.48 298.651 1277.6 312.008 C 1274.26 315.774 1269.65 319.342 1266.96 323.573 C 1262.45 330.682 1259.62 339.858 1256.36 347.686 C 1254.46 352.272 1251.45 356.565 1251.1 361.57 C 1234.76 359.087 1218.43 355.321 1202.22 352.066 L 1202.69 354.368 L 1201.19 354.072 C 1199.42 353.043 1196.47 352.287 1195.45 350.599 C 1190.71 349.263 1185.79 348.391 1180.97 347.366 C 1182.4 345.602 1183.77 344.004 1184.07 341.651 C 1185.91 327.222 1172.78 302.182 1169.04 287.075 C 1165.74 273.753 1163.88 259.227 1166.4 245.612 C 1172.11 214.737 1200.74 187.603 1230.52 179.406 C 1238.61 177.181 1252.6 176.968 1259.12 172.05 C 1259.64 171.66 1260.13 171.237 1260.64 170.831 z"/>
<path transform="translate(0,0)" fill="rgb(33,41,111)" d="M 1242.43 292.363 L 1246.23 296.145 C 1239.26 312.269 1234.95 342.444 1227.54 355.029 L 1226.46 354.192 C 1224.27 341.341 1237.14 305.783 1242.43 292.363 z"/>
<path transform="translate(0,0)" fill="rgb(33,41,111)" d="M 1210.17 287.023 L 1214.84 286.324 C 1213.78 292.153 1212.93 298.183 1211.38 303.896 C 1210.11 309.217 1209.03 314.689 1207.4 319.913 C 1205.43 327.665 1199.24 343.764 1200.97 351.213 L 1202.22 352.066 L 1202.69 354.368 L 1201.19 354.072 C 1199.42 353.043 1196.47 352.287 1195.45 350.599 C 1197.64 339.242 1200.51 328.017 1203.22 316.775 A 1504.3 1504.3 0 0 0 1207.32 298.684 L 1210.17 287.023 z"/>
<path transform="translate(0,0)" fill="rgb(9,24,104)" d="M 1210.17 287.023 L 1208.17 287.007 C 1202.52 286.989 1196.87 286.79 1192.63 282.477 C 1190.73 280.547 1189.89 278.24 1189.99 275.542 C 1190.14 271.655 1192.87 267.807 1195.79 265.437 C 1198.55 263.189 1202.63 261.356 1206.25 262.021 A 9.1463 9.1463 0 0 1 1211.95 265.569 C 1216.62 271.767 1215.5 279.154 1214.84 286.324 L 1210.17 287.023 z"/>
<path transform="translate(0,0)" fill="rgb(9,24,104)" d="M 1242.43 292.363 C 1244.64 286.539 1246.21 279.139 1252.52 276.543 C 1255.73 275.218 1260.68 275.576 1263.75 277.135 C 1266.7 278.636 1268.72 281.393 1269.52 284.579 C 1270.47 288.384 1269.78 292.742 1267.63 296.029 C 1265.88 298.707 1263.37 300.562 1260.18 301.129 C 1255.57 301.949 1251.12 299.909 1247.54 297.17 C 1247.1 296.835 1246.67 296.487 1246.23 296.145 L 1242.43 292.363 z"/>
<path transform="translate(0,0)" fill="rgb(33,41,111)" d="M 556.099 905.725 C 568.546 918.383 569.416 958.216 569.382 975.088 C 569.379 976.34 569.151 977.714 568.372 978.738 C 568.293 975.958 568.65 973.336 567.188 970.909 C 555.876 969.477 543.984 970.27 532.57 970.262 L 475.991 970.116 L 271.029 970.048 C 248.043 970.117 210.755 972.136 189.066 969.34 L 184.586 968.427 C 183.693 966.859 183.371 965.501 183.227 963.723 C 182.819 958.652 183.95 953.565 184.111 948.497 C 184.438 938.241 181.438 921.051 188.84 912.709 C 191.081 910.183 192.753 909.611 196 909.23 C 206.766 907.968 218.055 908.514 228.912 908.438 L 283.646 908.034 C 352.834 907.817 422.149 908.988 491.316 907.359 C 512.823 906.852 534.667 907.639 556.099 905.725 z"/>
<path transform="translate(0,0)" fill="rgb(251,251,251)" d="M 212.865 930.962 C 216.876 930.877 220.115 930.572 223.078 933.821 C 224.781 935.689 225.673 938.05 225.397 940.588 C 224.946 944.74 222.609 947.155 219.433 949.534 C 216.139 949.24 213.443 948.73 210.791 946.637 C 208.779 945.049 207.452 943.068 207.368 940.416 C 207.232 936.133 210.039 933.683 212.865 930.962 z"/>
<path transform="translate(0,0)" fill="rgb(251,251,251)" d="M 277.151 929.744 C 280.775 929.615 283.676 929.563 286.662 932.054 C 288.888 933.911 289.793 936.027 289.903 938.885 C 290.06 942.975 287.267 945.918 284.448 948.429 C 284.127 948.473 283.806 948.521 283.484 948.561 C 280.119 948.975 277.375 949.098 274.697 946.572 C 273.077 945.044 272.307 943.089 272.187 940.893 C 271.913 935.877 273.925 933.25 277.151 929.744 z"/>
<path transform="translate(0,0)" fill="rgb(251,251,251)" d="M 246.034 929.882 C 250.015 929.858 253.686 929.788 256.445 933.204 C 257.999 935.128 258.499 937.811 258.004 940.205 C 257.118 944.498 254.43 946.871 251.011 949.275 C 247.213 949.087 244.079 948.823 241.275 945.857 C 239.519 944.001 238.819 941.716 239.138 939.189 C 239.717 934.592 242.601 932.473 246.034 929.882 z"/>
<path transform="translate(0,0)" fill="rgb(33,41,111)" d="M 1503.17 908.143 C 1620.73 907.634 1738.39 906.085 1855.93 906.979 C 1862.38 910.482 1865.17 913.803 1868.75 920.141 C 1869.21 936.681 1868.14 953.177 1867.96 969.71 C 1860.61 969.703 1852.59 969.079 1845.42 970.744 C 1804.3 972.405 1762.59 970.998 1721.4 970.938 A 21136.4 21136.4 0 0 0 1487.55 971.407 C 1484.15 966.524 1485.5 938.878 1486.8 931.572 C 1488.21 923.688 1492.09 915.475 1498.78 910.756 C 1500.17 909.775 1501.68 908.949 1503.17 908.143 z"/>
<path transform="translate(0,0)" fill="rgb(251,251,251)" d="M 1581.87 930.022 C 1586.27 929.823 1589.93 929.436 1593.37 932.731 C 1595.14 934.432 1596.11 936.588 1595.9 939.068 C 1595.52 943.383 1592.76 946.003 1589.59 948.558 C 1585.49 948.523 1581.58 948.508 1578.52 945.301 C 1576.72 943.422 1575.7 941.528 1575.84 938.861 C 1576.06 934.528 1578.78 932.498 1581.87 930.022 z"/>
<path transform="translate(0,0)" fill="rgb(251,251,251)" d="M 1546.9 930.018 C 1551.49 929.665 1554.96 929.314 1558.79 932.332 C 1560.78 933.897 1562.1 935.975 1562.12 938.582 C 1562.16 942.91 1559.39 945.382 1556.42 948.005 C 1551.83 948.162 1547.62 948.574 1543.98 945.2 C 1542.06 943.418 1540.86 941.631 1541 938.906 C 1541.2 934.676 1543.89 932.491 1546.9 930.018 z"/>
<path transform="translate(0,0)" fill="rgb(251,251,251)" d="M 1512.75 928.885 C 1517.44 929.078 1521.54 929.08 1524.97 932.758 C 1526.73 934.645 1527.63 936.937 1527.32 939.55 C 1526.81 943.734 1524.27 946.29 1521.22 948.879 C 1517.07 948.966 1513.54 949.07 1510.21 946.198 C 1507.78 944.096 1506.87 941.789 1506.9 938.623 C 1506.94 934.167 1509.71 931.658 1512.75 928.885 z"/>
<path transform="translate(0,0)" fill="rgb(238,120,68)" d="M 691.119 319.776 C 693.423 336.938 692.94 355.516 693.098 372.859 C 693.468 413.208 693.106 454.814 688.991 494.977 C 686.934 532.144 681.272 569.706 673.653 606.125 C 670.958 619.011 665.879 632.183 663.957 645.074 L 658.087 662.81 A 2789.89 2789.89 0 0 1 555.019 614.989 L 555.21 736.992 C 555.215 750.227 556.843 777.375 555.475 789.008 C 555.313 790.383 555.149 791.116 554.325 792.175 L 552.562 791.981 C 524.898 787.977 501.316 788.051 474.245 795.831 L 472.943 796.058 C 470.196 788.639 471.953 733.9 471.951 722.268 L 471.703 576.37 A 5752.84 5752.84 0 0 1 406.877 547.693 C 407.108 574.936 408.794 790.121 405.219 798.293 C 402.068 785.746 404.245 739.62 404.269 723.235 A 13326.7 13326.7 0 0 1 404.734 546.94 C 394.734 542.435 379.937 537.445 371.638 530.527 L 371.482 529.084 C 370.088 528.109 368.968 527.169 367.806 525.926 C 386.474 518.105 407.541 515.633 426.537 507.802 A 851.445 851.445 0 0 0 653.255 367.219 C 664.895 357.049 675.318 345.494 686.679 334.976 C 691.542 330.474 690.882 325.952 691.119 319.776 z"/>
<path transform="translate(0,0)" fill="rgb(215,78,44)" d="M 688.991 494.977 C 686.934 532.144 681.272 569.706 673.653 606.125 C 670.958 619.011 665.879 632.183 663.957 645.074 C 648.518 631.168 629.612 619.787 612.345 608.273 C 575.456 583.673 537.911 560.556 501.675 534.917 C 552.337 536.338 599.505 530.029 647.542 513.156 C 661.282 508.33 674.242 498.886 688.19 495.174 C 688.456 495.104 688.724 495.043 688.991 494.977 z"/>
<path transform="translate(0,0)" fill="rgb(53,59,132)" d="M 473.844 577.859 C 499.511 590.509 525.92 602.319 552.121 613.835 L 552.142 735.259 C 552.139 753.56 550.256 773.91 552.562 791.981 C 524.898 787.977 501.316 788.051 474.245 795.831 C 474.789 763.53 474.136 731.136 474.075 698.827 A 11936.2 11936.2 0 0 0 473.844 577.859 z"/>
<path transform="translate(0,0)" fill="rgb(252,125,159)" d="M 1621.21 385.072 C 1638.84 388.953 1674.47 413.818 1684.46 429.055 C 1684.83 429.62 1685.21 430.422 1685.5 430.999 C 1685.67 431.653 1685.75 432.34 1686.03 432.96 C 1686.17 433.297 1687.45 434.48 1687.63 434.662 C 1705.36 452.659 1720.96 494.657 1724.31 519.341 C 1725.29 526.559 1725.07 534.26 1724.91 541.523 C 1724.55 557.776 1720.24 572.29 1718.31 588.133 C 1702.64 631.171 1673.4 663.716 1631.75 683.265 C 1623.42 687.175 1614.91 690.452 1606.27 693.6 C 1577.21 703.059 1545.17 700.18 1516.3 691.872 C 1507.89 689.453 1499.6 685.697 1491.18 683.597 C 1490.82 683.508 1490.46 683.442 1490.1 683.365 C 1482.64 678.3 1474.53 673.562 1466.59 669.283 C 1462.1 663.583 1454.42 658.867 1448.86 654.151 C 1434.23 641.763 1421.49 623.402 1413.66 606.023 C 1415.89 603.433 1416.19 600.595 1415.92 597.301 C 1415.17 588.096 1412.3 578.851 1410.7 569.753 C 1407.01 548.685 1408.28 524.795 1413.49 504.087 C 1430.17 437.787 1492.94 396.736 1558.57 390.547 C 1574.58 389.037 1602.42 395.181 1615.75 386.447 C 1616.27 386.111 1616.76 385.748 1617.27 385.398 L 1621.21 385.072 z"/>
<path transform="translate(0,0)" fill="rgb(53,59,132)" d="M 1556.39 404.386 C 1588.64 401.97 1622.27 414.986 1646.47 435.99 C 1671.8 457.976 1689.3 490.493 1691.42 524.199 C 1693.69 560.242 1680.07 595.421 1656.35 622.343 C 1631.6 650.447 1600.55 663.469 1563.49 665.746 C 1530.52 665.175 1500.37 658.208 1474.2 637.114 C 1448.13 616.099 1430.45 586.642 1427.09 553.089 A 136.674 136.674 0 0 1 1457.43 452.813 C 1483.13 421.687 1516.97 408.258 1556.39 404.386 z"/>
<path transform="translate(0,0)" fill="url(#Gradient7)" d="M 1553.56 408.43 C 1553.83 408.373 1554.1 408.29 1554.38 408.259 C 1584.72 404.9 1616.89 416.797 1640.41 435.325 C 1666.09 455.55 1684.37 486.041 1687.92 518.805 C 1691.78 554.471 1679.85 588.507 1657.32 616.056 C 1634.14 644.385 1604.14 659.25 1568 662.987 C 1533.21 663.512 1501.35 656.785 1474.01 634.064 C 1449.35 613.579 1432.31 583.269 1429.38 551.198 C 1426.33 517.862 1436.38 482.466 1457.94 456.663 C 1482.58 427.178 1515.52 411.663 1553.56 408.43 z"/>
<path transform="translate(0,0)" fill="rgb(9,24,104)" d="M 1545.78 453.029 C 1548.87 451.418 1552.51 451.877 1555.91 451.931 C 1578.78 453.463 1599.63 461.487 1615.1 478.957 C 1625.77 490.991 1632.75 505.412 1636.17 521.07 L 1635.51 522.827 L 1634.25 523.228 C 1636.22 525.042 1636.41 526.408 1637.03 528.918 C 1636.62 532.762 1637.05 536.655 1636.89 540.52 C 1636.33 554.413 1633.11 567.548 1625.98 579.542 C 1615.01 597.968 1596.76 612.381 1575.8 617.441 C 1553.45 622.835 1530.63 617.046 1511.47 605.021 A 85.1991 85.1991 0 0 1 1473.13 551.498 A 80.4719 80.4719 0 0 1 1484.09 490.303 C 1498.28 468.387 1521.14 458.462 1545.78 453.029 z"/>
<path transform="translate(0,0)" fill="rgb(251,251,251)" d="M 1545.78 453.029 C 1548.87 451.418 1552.51 451.877 1555.91 451.931 C 1556.07 480.987 1554.92 510.063 1555.23 539.098 C 1581.33 533.729 1608.5 529.831 1634.25 523.228 C 1636.22 525.042 1636.41 526.408 1637.03 528.918 C 1636.86 529.201 1636.73 529.499 1636.54 529.766 C 1632.91 534.99 1556.26 549.784 1544.82 552.749 C 1543.58 540.256 1544.57 527.151 1544.82 514.586 A 4047.74 4047.74 0 0 0 1545.78 453.029 z"/>
<path transform="translate(0,0)" fill="rgb(9,24,104)" d="M 1555.91 451.931 C 1578.78 453.463 1599.63 461.487 1615.1 478.957 C 1625.77 490.991 1632.75 505.412 1636.17 521.07 L 1635.51 522.827 L 1634.25 523.228 C 1608.5 529.831 1581.33 533.729 1555.23 539.098 C 1554.92 510.063 1556.07 480.987 1555.91 451.931 z"/>
<path transform="translate(0,0)" fill="rgb(251,251,251)" d="M 1845.42 970.744 A 2088.07 2088.07 0 0 0 1867.23 970.812 L 1866.96 1186.35 L 1867.05 1242.42 C 1867.06 1251.34 1868.18 1262.11 1866.47 1270.79 L 1865.24 1271.58 C 1866.71 1273.02 1867.11 1273.78 1867.56 1275.79 C 1866.64 1277.93 1866.44 1278.32 1864.59 1279.72 L 1860.59 1280.27 L 1696.32 1279.99 C 1663.59 1280.1 1630.78 1280.79 1598.06 1280.16 C 1590.2 1278.97 1581.6 1279.59 1573.65 1279.6 L 1517.22 1279.75 C 1507.4 1279.78 1496.93 1280.65 1487.22 1279.25 C 1486.06 1276.83 1486.65 1274.5 1486.97 1271.95 C 1487.7 1266.58 1487.27 1261.03 1487.14 1255.62 C 1488 1246.99 1491.82 1240.14 1497.09 1233.43 C 1507.53 1220.13 1523.42 1208.66 1540.41 1205.86 C 1545.38 1205.05 1550.6 1205.89 1555.57 1205.01 C 1558.43 1204.51 1560.27 1203.54 1561.88 1201.06 C 1565.36 1195.71 1564.08 1183.77 1562.7 1177.75 C 1560.85 1169.69 1556.56 1162.95 1549.45 1158.58 C 1533.38 1148.7 1505.44 1150.59 1487.79 1154.6 C 1487.65 1154.1 1487.47 1153.61 1487.37 1153.11 C 1485.92 1145.97 1485.78 974.815 1486.47 973.114 C 1486.72 972.49 1487.19 971.976 1487.55 971.407 A 21136.4 21136.4 0 0 1 1721.4 970.938 C 1762.59 970.998 1804.3 972.405 1845.42 970.744 z"/>
<path transform="translate(0,0)" fill="rgb(9,24,104)" d="M 1486.97 1271.95 L 1736.08 1271.93 C 1779.08 1271.87 1822.27 1272.64 1865.24 1271.58 C 1866.71 1273.02 1867.11 1273.78 1867.56 1275.79 C 1866.64 1277.93 1866.44 1278.32 1864.59 1279.72 L 1860.59 1280.27 L 1696.32 1279.99 C 1663.59 1280.1 1630.78 1280.79 1598.06 1280.16 C 1590.2 1278.97 1581.6 1279.59 1573.65 1279.6 L 1517.22 1279.75 C 1507.4 1279.78 1496.93 1280.65 1487.22 1279.25 C 1486.06 1276.83 1486.65 1274.5 1486.97 1271.95 z"/>
<path transform="translate(0,0)" fill="rgb(187,70,141)" d="M 1636.54 1112.03 L 1683.68 1111.61 L 1683.43 1243.85 C 1667.9 1244.73 1651.92 1243.97 1636.35 1243.98 A 9581.03 9581.03 0 0 1 1636.54 1112.03 z"/>
<path transform="translate(0,0)" fill="rgb(46,179,209)" d="M 1570.89 1092.07 L 1619.12 1092.8 A 14612 14612 0 0 1 1619.96 1243.24 L 1571.02 1243.16 C 1570.2 1192.84 1570.9 1142.4 1570.89 1092.07 z"/>
<path transform="translate(0,0)" fill="rgb(46,179,209)" d="M 1699.96 1054.93 L 1748.08 1054.97 L 1748.78 1243.64 L 1700.04 1243.53 L 1699.96 1054.93 z"/>
<path transform="translate(0,0)" fill="rgb(249,208,64)" d="M 1761.72 1008.18 L 1807.75 1008.2 L 1807.75 1142.39 C 1807.59 1176.1 1806.44 1209.88 1807.43 1243.57 C 1792.24 1244.14 1776.99 1244.01 1761.79 1244.12 C 1763.29 1165.53 1761.75 1086.79 1761.72 1008.18 z"/>
<path transform="translate(0,0)" fill="rgb(251,251,251)" d="M 189.066 969.34 C 210.755 972.136 248.043 970.117 271.029 970.048 L 475.991 970.116 L 532.57 970.262 C 543.984 970.27 555.876 969.477 567.188 970.909 C 568.65 973.336 568.293 975.958 568.372 978.738 C 567.977 990.832 567.495 1003.35 568.224 1015.42 L 568.148 1101.06 C 568.107 1118.79 568.574 1137.03 567.084 1154.69 C 546.853 1147.29 524.595 1147.47 505.004 1156.72 C 494.566 1161.66 481.148 1169.37 476.956 1180.7 C 474.6 1187.06 475.677 1193.84 478.713 1199.79 C 480.589 1203.46 483.157 1205.62 487.149 1206.72 C 504.08 1211.37 522.119 1198.84 534.426 1219.23 C 541.716 1231.32 544.208 1245.49 548.73 1258.68 C 552.542 1269.8 557.804 1280.23 563.653 1290.4 A 4123.35 4123.35 0 0 1 563.547 1377.31 C 563.451 1392.81 561.72 1411.05 564.391 1426.18 C 562.959 1427.23 561.511 1428.23 560.067 1429.25 C 548.26 1437.62 526.991 1487.89 515.567 1502.87 L 306.305 1502.08 L 245.233 1502.05 C 233.459 1502.06 221.313 1502.64 209.574 1501.84 C 201.411 1501.28 192.289 1500.22 186.833 1493.55 C 183.07 1488.94 182.174 1485.09 181.826 1479.31 C 180.079 1450.34 181.88 1420.34 181.845 1391.22 L 182.026 1194.94 L 181.993 1048.1 C 181.988 1023 180.302 996.394 182.671 971.489 C 184.648 969.41 186.32 969.74 189.066 969.34 z"/>
<path transform="translate(0,0)" fill="rgb(9,24,104)" d="M 227.223 1169.91 C 240.883 1170.91 279.083 1168.16 288.177 1171.76 C 289.259 1174.33 288.98 1175.2 288.635 1178.01 C 278.546 1178.02 232.871 1179.68 226.482 1177.02 C 225.729 1173.97 226.344 1172.87 227.223 1169.91 z"/>
<path transform="translate(0,0)" fill="rgb(33,41,111)" d="M 348.635 1091.15 C 366.989 1090.25 514.242 1089.66 519.928 1092.09 C 521.509 1094.61 521.161 1096.15 521.2 1099.08 C 483.319 1100.1 445.034 1098.96 407.115 1098.9 C 391.75 1098.88 364.177 1100.84 350.167 1098.47 C 348.49 1095.89 348.781 1094.18 348.635 1091.15 z"/>
<path transform="translate(0,0)" fill="rgb(9,24,104)" d="M 466.689 1023.49 C 481.782 1023.46 497.214 1022.55 512.267 1023.14 C 515.52 1023.27 518.802 1023.41 521.128 1025.94 C 521.275 1028.28 521.202 1028.23 519.799 1030.14 C 516.941 1031.52 514.602 1032.11 511.43 1032.37 C 500.47 1033.26 488.696 1032.13 477.668 1032.07 L 406.5 1031.99 C 392.623 1031.82 378.766 1032.27 364.896 1032.2 C 360.189 1032.17 352.423 1032.49 348.977 1028.98 C 348.725 1026.66 349.321 1026.68 350.651 1024.88 C 356.5 1022.02 452.241 1023.56 466.689 1023.49 z"/>
<path transform="translate(0,0)" fill="rgb(33,41,111)" d="M 350.137 1056.89 C 385.959 1056.05 421.954 1056.92 457.795 1056.91 C 469.539 1056.91 511.246 1055.07 520.173 1057.71 C 521.499 1060.66 520.923 1062.08 520.494 1065.24 C 502.585 1065.84 358.395 1066.9 351.781 1064.77 C 350.083 1062.09 350.345 1060.01 350.137 1056.89 z"/>
<path transform="translate(0,0)" fill="rgb(9,24,104)" d="M 226.04 1131.68 L 450.516 1131.79 C 462.687 1131.8 512.162 1130.02 519.733 1132.46 C 521.89 1134.99 521.897 1136.47 522.539 1139.68 C 504.354 1141.24 485.336 1140.08 467.041 1140.02 L 366.299 1139.89 L 270.257 1139.87 C 258.29 1139.87 243.691 1141.22 232.153 1140.31 C 230.912 1140.21 230 1139.86 228.841 1139.44 C 226.504 1136.66 226.608 1135.21 226.04 1131.68 z"/>
<path transform="translate(0,0)" fill="rgb(230,82,90)" d="M 245.339 1266.53 C 257.876 1277.63 272.524 1287.07 286.038 1297 C 312.241 1316.24 338.223 1335.56 365.422 1353.41 C 359.764 1351.7 353.905 1350.55 348.142 1349.25 C 307.513 1341.27 265.259 1334.91 225.548 1323.18 C 230.13 1303.5 236.488 1284.71 245.339 1266.53 z"/>
<path transform="translate(0,0)" fill="rgb(91,86,173)" d="M 229.785 1020.97 C 259.934 1019.66 290.668 1020.91 320.891 1021.05 C 322.415 1032.81 324.117 1083.09 321.727 1093.52 C 321.273 1095.5 320.027 1097.27 318.869 1098.9 C 318.6 1099 318.337 1099.12 318.061 1099.2 C 309.966 1101.6 251.559 1100.63 241.27 1099.66 C 237.282 1099.28 233.104 1098.83 229.606 1096.78 C 226.215 1088.39 226.261 1029.3 229.785 1020.97 z"/>
<path transform="translate(0,0)" fill="rgb(33,41,111)" d="M 225.764 1328.5 C 273.093 1340.18 321.601 1348.17 369.445 1357.56 C 357.379 1378.73 344.084 1399.09 332.293 1420.45 C 324.876 1433.43 317.231 1446.33 310.576 1459.72 C 293.557 1453.3 278.442 1443.17 265.504 1430.43 C 237.805 1403.15 226.243 1366.68 225.764 1328.5 z"/>
<path transform="translate(0,0)" fill="rgb(33,41,111)" d="M 407.764 1203.58 C 420.517 1207.06 432.172 1211.48 443.461 1218.44 C 478.673 1240.15 498.135 1273.82 507.55 1313.19 C 489.166 1318.06 470.981 1323.73 452.764 1329.19 C 426.246 1335.96 400.374 1345.01 374.088 1352.6 C 387.694 1303.57 394.274 1252.68 407.764 1203.58 z"/>
<path transform="translate(0,0)" fill="rgb(46,179,209)" d="M 358.863 1201.41 C 372.511 1199.4 386.737 1200.82 400.333 1202.45 C 395.044 1223.21 391.068 1244.4 386.648 1265.37 C 380.725 1293.46 374.61 1321.29 370.482 1349.73 C 355.487 1341.66 338.586 1327.27 324.289 1317.12 C 298.961 1299.13 274.707 1278.86 248.228 1262.61 A 358.262 358.262 0 0 1 253.038 1256.53 C 281.184 1221.73 314.863 1206.04 358.863 1201.41 z"/>
<path transform="translate(0,0)" fill="rgb(238,120,68)" d="M 505.371 1319.07 L 506.672 1319.44 C 510.133 1327.56 505.645 1353.46 503.98 1362.78 C 498.443 1393.77 474.963 1425.87 449.236 1443.41 C 411.369 1469.22 367.073 1472.37 323.212 1463.94 C 320.785 1463.31 319.045 1462.75 316.869 1461.43 C 316.692 1455.81 367.484 1374.43 374.047 1357.59 C 389.121 1354.44 404.232 1349.02 419.065 1344.71 C 447.898 1336.33 476.734 1328.12 505.371 1319.07 z"/>
<path transform="translate(0,0)" fill="rgb(9,24,104)" d="M 1227.97 1066.55 C 1244.35 1082.27 1264.51 1091.3 1287.4 1090.82 C 1303.9 1090.47 1318.44 1084.05 1329.76 1072.09 C 1339.59 1061.73 1346.87 1048.25 1351.54 1034.83 C 1353.49 1029.21 1354.52 1023.27 1357.41 1018.03 C 1357.94 1017.06 1363.65 989.463 1364.5 985.431 C 1375.12 935.258 1384.35 876.789 1426.71 842.57 C 1431.61 838.615 1438 832.842 1443.84 830.536 C 1445.76 829.777 1446.34 829.288 1447.92 828.091 C 1453.01 824.235 1460.44 822.158 1466.39 819.91 C 1506.05 804.937 1518.58 810.162 1556.66 808.021 C 1567.05 807.437 1581.35 814.34 1591.2 810.45 C 1584.49 802.995 1556.15 800.764 1546.49 800.304 C 1521.19 799.097 1498.13 801.233 1473.76 808.102 C 1468.33 809.632 1464.89 809.873 1459.96 812.966 C 1452.93 817.387 1444.12 818.965 1436.96 823.302 C 1404.67 842.877 1386.06 872.651 1373.19 907.185 C 1370.59 914.159 1367.13 921.441 1365.37 928.669 C 1360.91 947.045 1357.05 965.89 1353.06 984.4 C 1346.77 1013.55 1340.54 1054.73 1313.34 1072.66 C 1300.06 1081.41 1283.33 1081.63 1268.28 1078.3 C 1256.91 1075.79 1246.14 1070.02 1236.69 1063.3 C 1237.75 1057.66 1253.14 1041.38 1257.5 1035.04 A 275.402 275.402 0 0 0 1283.69 987.802 A 407.336 407.336 0 0 0 1303.66 930.031 C 1307.59 914.531 1310.04 898.71 1313.87 883.209 C 1317.29 869.38 1322.31 855.773 1326.9 842.296 C 1329.36 835.082 1331.45 826.689 1335.21 820.074 C 1338.8 813.75 1340.45 805.234 1342.47 798.199 C 1355.91 751.348 1356.09 697.328 1342.67 650.333 C 1317.09 560.739 1256.59 491.803 1175.89 446.982 C 1165.44 441.172 1152.81 437.281 1141.55 433.214 C 1096.11 416.805 1051.09 410.809 1002.86 413.301 C 993.872 413.765 984.953 415.297 975.975 415.942 C 970.693 416.321 951.799 421.554 948.263 419.006 C 965.685 417.053 982.552 413.516 1000.13 412.424 C 1088.71 406.92 1165.42 429.608 1235.02 485.064 C 1296.39 533.964 1342.6 610.538 1351.56 689.006 C 1356.28 730.407 1353.34 770.342 1340.11 809.99 C 1332.47 832.876 1323.23 855.282 1316.47 878.454 C 1311.83 894.389 1309.85 911.117 1305.94 927.253 C 1295.53 970.2 1276.78 1014.17 1249.07 1048.67 A 271.442 271.442 0 0 1 1237.83 1061.7 C 1253.94 1074.36 1274.03 1080.74 1294.59 1078.14 C 1307.49 1076.51 1317.35 1069.66 1324.99 1059.37 C 1344.32 1033.37 1349.08 998.078 1355.48 967.072 C 1373.11 881.727 1402.67 815.52 1498.25 800.807 C 1536.85 794.864 1582.28 798.307 1616.88 817.434 L 1617.51 818.927 C 1624.72 835.861 1641.74 849.89 1633.71 870.424 C 1631.13 877.029 1624.89 884.276 1618.17 886.909 C 1604.62 892.22 1584.82 881.225 1571.03 878.896 C 1533.89 872.62 1495.77 884.252 1478.53 919.933 C 1460.33 957.593 1466.66 1000.2 1463.65 1040.5 C 1458.18 1113.71 1415.52 1173.66 1345.89 1198.12 C 1321.2 1206.8 1296.48 1207.61 1270.61 1208 C 1289.12 1224.6 1307.52 1235.35 1333.08 1234.09 C 1397.2 1230.92 1421.37 1161.35 1487.79 1154.6 C 1505.44 1150.59 1533.38 1148.7 1549.45 1158.58 C 1556.56 1162.95 1560.85 1169.69 1562.7 1177.75 C 1564.08 1183.77 1565.36 1195.71 1561.88 1201.06 C 1560.27 1203.54 1558.43 1204.51 1555.57 1205.01 C 1550.6 1205.89 1545.38 1205.05 1540.41 1205.86 C 1523.42 1208.66 1507.53 1220.13 1497.09 1233.43 C 1491.82 1240.14 1488 1246.99 1487.14 1255.62 C 1487.27 1261.03 1487.7 1266.58 1486.97 1271.95 C 1486.65 1274.5 1486.06 1276.83 1487.22 1279.25 C 1496.93 1280.65 1507.4 1279.78 1517.22 1279.75 L 1573.65 1279.6 C 1581.6 1279.59 1590.2 1278.97 1598.06 1280.16 C 1630.78 1280.79 1663.59 1280.1 1696.32 1279.99 L 1860.59 1280.27 C 1862.78 1280.55 1864.87 1280.36 1866.58 1281.81 C 1867.52 1295.63 1866.95 1309.72 1866.93 1323.57 L 1866.91 1392.47 L 1867.05 1450.28 C 1867.14 1461.02 1867.84 1472.22 1867.09 1482.92 C 1866.75 1487.68 1865.99 1494.17 1862.57 1497.85 C 1859.55 1501.1 1854.42 1502.67 1850.18 1503.42 C 1838.96 1505.39 1825.95 1504.62 1814.54 1504.82 A 4495.39 4495.39 0 0 1 1723.72 1504.7 A 3146.88 3146.88 0 0 0 1671.82 1504.34 C 1662.59 1504.34 1652.43 1505.2 1643.3 1504.07 C 1636.27 1527.84 1631.18 1552.33 1624.64 1576.28 C 1622.53 1583.99 1620.76 1592.82 1617.66 1600.16 C 1659.68 1618.25 1702.97 1628.42 1738.7 1659.11 C 1751.44 1670.05 1763.69 1683.89 1764.62 1701.53 C 1765.49 1718 1755.96 1733.65 1745.32 1745.47 C 1687.14 1810.1 1489.02 1847.73 1402.92 1859.49 C 1368.98 1864.12 1334.7 1866.74 1300.59 1869.63 A 4019.78 4019.78 0 0 1 1191.54 1878.06 C 1012 1888.3 831.189 1884.86 653.278 1857.39 C 588.374 1847.37 524.038 1834.66 460.989 1816.04 C 412.1 1801.6 349.986 1781.35 311.643 1746.75 C 297.977 1734.42 285.809 1717.07 285.188 1698.07 C 284.631 1681.04 293.618 1665.51 305.066 1653.58 C 338.78 1618.48 400.566 1595.39 446.742 1580.42 C 455.172 1577.69 466 1572.71 474.792 1572.54 C 479.504 1567.21 483.404 1558.65 486.966 1552.4 C 496.387 1535.88 505.347 1518.92 515.567 1502.87 C 526.991 1487.89 548.26 1437.62 560.067 1429.25 C 561.511 1428.23 562.959 1427.23 564.391 1426.18 C 561.72 1411.05 563.451 1392.81 563.547 1377.31 A 4123.35 4123.35 0 0 0 563.653 1290.4 C 557.804 1280.23 552.542 1269.8 548.73 1258.68 C 544.208 1245.49 541.716 1231.32 534.426 1219.23 C 522.119 1198.84 504.08 1211.37 487.149 1206.72 C 483.157 1205.62 480.589 1203.46 478.713 1199.79 C 475.677 1193.84 474.6 1187.06 476.956 1180.7 C 481.148 1169.37 494.566 1161.66 505.004 1156.72 C 524.595 1147.47 546.853 1147.29 567.084 1154.69 C 568.574 1137.03 568.107 1118.79 568.148 1101.06 L 568.224 1015.42 C 567.495 1003.35 567.977 990.832 568.372 978.738 C 569.151 977.714 569.379 976.34 569.382 975.088 C 569.416 958.216 568.546 918.383 556.099 905.725 A 105.095 105.095 0 0 0 527.467 884.451 C 489.249 865.212 458.77 888.536 423.364 875.344 C 416.656 872.845 410.234 869.083 407.304 862.208 C 404.518 855.673 405.413 847.62 407.992 841.156 C 417.502 817.318 449.881 806.332 471.117 796.883 L 472.943 796.058 L 474.245 795.831 C 501.316 788.051 524.898 787.977 552.562 791.981 L 554.325 792.175 C 597.182 800.464 637.728 827.208 662.193 863.44 C 677.527 886.151 685.785 911.565 689.684 938.542 C 696.812 987.86 683.852 1065.18 749.356 1078.26 C 771.395 1082.65 795.226 1077.92 815.57 1069.09 C 803.647 1056.02 782.801 1034.48 778.324 1017.95 C 761.271 992.9 759.435 959.68 755.009 930.512 C 752.849 916.28 750.179 902.202 747.538 888.056 C 741.812 871.136 732.826 856.067 725.863 839.712 A 297.429 297.429 0 0 1 706.163 701.346 C 713.107 633.337 745.035 563.668 793.612 515.321 C 809.731 499.279 827.624 486.683 845.197 472.462 L 844.856 470.96 C 854.53 464.247 867.021 456.074 878.019 452.091 C 893.273 446.568 907.578 439.54 923.244 434.951 C 1002.38 411.769 1088.03 415.156 1163.31 449.98 C 1168.91 452.569 1173.94 456.161 1179.35 459.118 C 1246.85 496.025 1299.18 554.806 1325.3 627.583 C 1344.03 679.733 1350.4 743.757 1333.74 797.172 C 1325.33 824.12 1312.73 850.063 1305.16 877.245 C 1302.28 887.596 1301.28 898.318 1299.14 908.822 C 1293.93 934.404 1286.36 962.335 1275.32 986.097 C 1264.95 1008.41 1250.56 1027.12 1233.32 1044.47 C 1228.36 1049.46 1227.88 1058.88 1227.96 1065.56 L 1227.97 1066.55 z"/>
<path transform="translate(0,0)" fill="rgb(166,198,231)" d="M 1556.4 1679.39 C 1564.88 1679.12 1573.11 1678.95 1580.34 1684.13 C 1584.72 1687.27 1587.83 1692.06 1588.6 1697.42 A 15.3651 15.3651 0 0 1 1585.17 1709.65 C 1580.43 1715.23 1574.18 1716.49 1567.24 1717.05 C 1557.63 1717.36 1548.17 1718.35 1539.68 1712.85 C 1535.39 1710.08 1531.96 1705.81 1531.15 1700.67 C 1530.46 1696.24 1531.94 1692.07 1534.77 1688.65 C 1540.7 1681.52 1547.75 1680.13 1556.4 1679.39 z"/>
<path transform="translate(0,0)" fill="rgb(115,214,214)" d="M 1299.55 1091.15 A 56.4607 56.4607 0 0 0 1311.73 1087.44 C 1356.57 1067.9 1363.75 995.395 1373.05 953.049 C 1376.96 935.242 1381.76 917.618 1388.54 900.67 C 1402.64 865.469 1425.78 838.858 1461.03 823.922 C 1504 805.721 1562.21 802.36 1605.69 820.815 C 1609.91 822.609 1612.92 824.008 1614.72 828.389 C 1614.17 830.909 1613.26 832.012 1611.57 833.932 C 1611.21 833.88 1610.85 833.835 1610.49 833.775 C 1599.3 831.901 1589.45 825.127 1578.42 822.481 C 1539.81 813.216 1483.71 823.274 1451.24 845.763 C 1361.97 907.587 1395.72 1049.26 1326.66 1088.55 C 1320.38 1092.13 1311.44 1096.31 1304.13 1095.42 C 1302.67 1095.25 1301.54 1094.59 1300.31 1093.84 L 1299.55 1091.15 z"/>
<path transform="translate(0,0)" fill="rgb(242,239,241)" d="M 1033.99 1674.69 L 1534.59 1674.31 C 1527.25 1680.51 1521.73 1687.48 1517.6 1696.13 C 1502.89 1693.62 1485.47 1695.29 1470.44 1695.39 L 1377.91 1695.91 A 27777.8 27777.8 0 0 0 1052.96 1695.97 C 1048.04 1696.02 1042.62 1695.77 1037.95 1697.44 C 1033.4 1690.66 1034.17 1682.55 1033.99 1674.69 z"/>
<path transform="translate(0,0)" fill="rgb(53,59,132)" d="M 1024.03 1401.18 C 1051.07 1450.72 1097.26 1486.32 1144.31 1515.56 C 1134.22 1516.9 1122.41 1515.3 1112.15 1514.93 C 1082.29 1513.84 1052.34 1511.6 1022.48 1511.05 C 1000.2 1510.64 977.757 1510.46 955.49 1511.08 C 938.162 1511.56 918.799 1514.23 901.751 1511.45 C 950.581 1485.99 997.74 1450.72 1024.03 1401.18 z"/>
<path transform="translate(0,0)" fill="rgb(53,59,132)" d="M 1188.58 1334.06 C 1224.87 1356.05 1256.39 1367.62 1299.04 1370.86 C 1368.33 1376.13 1425.46 1351.59 1464.24 1292.99 C 1468.73 1286.21 1481.13 1260.22 1486 1256.44 C 1486.37 1256.16 1486.76 1255.89 1487.14 1255.62 C 1487.27 1261.03 1487.7 1266.58 1486.97 1271.95 C 1486.65 1274.5 1486.06 1276.83 1487.22 1279.25 C 1496.93 1280.65 1507.4 1279.78 1517.22 1279.75 L 1573.65 1279.6 C 1581.6 1279.59 1590.2 1278.97 1598.06 1280.16 C 1561.3 1282.35 1523.89 1280.34 1487.02 1280.83 L 1486.97 1349.71 C 1486.94 1361.41 1485.96 1373.63 1487.26 1385.24 C 1489.28 1386.35 1490.51 1386.49 1492.75 1386.81 C 1484.96 1388.61 1441.85 1386.72 1429.28 1386.68 L 1264.11 1387.1 A 1616.36 1616.36 0 0 1 1254.98 1419.73 C 1254.25 1419.36 1253.52 1418.99 1252.81 1418.59 C 1220.77 1400.47 1198.67 1369.01 1188.58 1334.06 z"/>
<path transform="translate(0,0)" fill="rgb(166,198,231)" d="M 1037.95 1697.44 C 1042.62 1695.77 1048.04 1696.02 1052.96 1695.97 A 27777.8 27777.8 0 0 1 1377.91 1695.91 L 1470.44 1695.39 C 1485.47 1695.29 1502.89 1693.62 1517.6 1696.13 C 1521.23 1707.18 1526.54 1715.23 1534.53 1723.53 L 1220.62 1724.18 L 1133.97 1724.45 C 1116.68 1724.55 1098.33 1725.91 1081.24 1723.44 C 1067.72 1721.49 1055.11 1715.94 1045.25 1706.36 C 1042.45 1703.63 1040.19 1700.64 1037.95 1697.44 z"/>
<path transform="translate(0,0)" fill="rgb(166,198,231)" d="M 1604.66 1396.74 C 1616.2 1396.59 1648.5 1392.78 1656.38 1401.65 C 1659.31 1404.94 1659.56 1410.06 1658.94 1414.2 C 1657.19 1426.01 1652.93 1438.03 1649.58 1449.48 L 1634.5 1502.1 C 1624.79 1536.55 1615.46 1571.07 1605.33 1605.4 C 1601.73 1617.64 1598.74 1630.36 1594.53 1642.38 C 1592.85 1647.16 1590.49 1654.32 1586.29 1657.34 C 1572.81 1667.01 1545.84 1663.14 1529.57 1663 C 1531.86 1644.08 1540.06 1624.72 1545.07 1606.26 C 1559.68 1552.38 1575.7 1499.01 1590.56 1445.23 C 1595.02 1429.07 1601.03 1413.08 1604.66 1396.74 z"/>
<path transform="translate(0,0)" fill="rgb(8,137,153)" d="M 1549.96 1172.68 C 1553.17 1179.22 1553.33 1185.96 1553.6 1193.08 C 1531.37 1193.67 1511.77 1201.67 1496.37 1217.95 C 1482.58 1232.54 1474.8 1251.18 1464.41 1268.09 C 1432.58 1319.92 1388.93 1355.87 1326.18 1358.14 C 1279.39 1359.84 1218.42 1343.52 1183.47 1311.02 C 1183.23 1310.8 1182.99 1310.57 1182.75 1310.34 C 1179.12 1283.09 1182.8 1256.06 1179.52 1228.76 C 1184.47 1232.53 1188.68 1239.18 1192.63 1244.02 C 1208.27 1263.17 1223.23 1279.84 1246.19 1290.18 C 1307.75 1317.93 1369.23 1307.8 1417.36 1260.32 C 1440.23 1237.76 1459.4 1211.31 1486.8 1193.74 C 1500.35 1185.05 1516.15 1177.69 1532.21 1175.35 C 1538.1 1174.5 1544.35 1174.78 1549.96 1172.68 z"/>
<path transform="translate(0,0)" fill="rgb(8,137,153)" d="M 1610.88 835.313 C 1617.37 841.749 1624.22 849.176 1623.97 858.979 C 1623.87 862.917 1622.66 867.068 1619.71 869.827 C 1615.92 873.37 1610.49 873.981 1605.53 873.508 C 1594.84 872.486 1584.23 868.427 1573.65 866.403 C 1543.19 860.574 1511.22 866.519 1486.49 885.968 C 1462.43 904.889 1454.86 936.366 1451.6 965.398 C 1449 988.477 1449.71 1011.8 1448.08 1034.94 C 1444.82 1080.89 1428.67 1125.82 1391.91 1155.46 C 1357.29 1183.37 1309.15 1198.29 1264.71 1192.99 C 1259.31 1192.35 1251.81 1191.27 1248.28 1186.78 C 1241.1 1177.64 1221.24 1134.89 1217.14 1123.02 C 1228.47 1129.16 1239.65 1135.13 1251.96 1139.12 C 1280.9 1148.49 1310.46 1144.93 1337.32 1130.84 C 1380.31 1108.29 1399.89 1069.49 1409.01 1023.32 C 1413.6 1000.06 1416.37 976.384 1423.43 953.681 C 1445.52 882.576 1487.97 850.261 1561.19 842.924 C 1576.33 841.407 1596.37 843.226 1609.96 835.831 C 1610.27 835.663 1610.57 835.486 1610.88 835.313 z"/>
<path transform="translate(0,0)" fill="rgb(35,188,196)" d="M 1299.55 1091.15 L 1300.31 1093.84 C 1301.54 1094.59 1302.67 1095.25 1304.13 1095.42 C 1311.44 1096.31 1320.38 1092.13 1326.66 1088.55 C 1395.72 1049.26 1361.97 907.587 1451.24 845.763 C 1483.71 823.274 1539.81 813.216 1578.42 822.481 C 1589.45 825.127 1599.3 831.901 1610.49 833.775 C 1610.85 833.835 1611.21 833.88 1611.57 833.932 L 1610.88 835.313 C 1610.57 835.486 1610.27 835.663 1609.96 835.831 C 1596.37 843.226 1576.33 841.407 1561.19 842.924 C 1487.97 850.261 1445.52 882.576 1423.43 953.681 C 1416.37 976.384 1413.6 1000.06 1409.01 1023.32 C 1399.89 1069.49 1380.31 1108.29 1337.32 1130.84 C 1310.46 1144.93 1280.9 1148.49 1251.96 1139.12 C 1239.65 1135.13 1228.47 1129.16 1217.14 1123.02 C 1212.54 1114.91 1206.56 1107.1 1201.37 1099.32 C 1200.33 1097.16 1198.77 1095.22 1197.41 1093.25 A 134.675 134.675 0 0 0 1226.78 1068.4 C 1244.59 1084.5 1265.49 1093.24 1289.69 1091.95 C 1292.98 1091.77 1296.26 1091.39 1299.55 1091.15 z"/>
<path transform="translate(0,0)" fill="rgb(251,251,251)" d="M 1598.06 1280.16 C 1630.78 1280.79 1663.59 1280.1 1696.32 1279.99 L 1860.59 1280.27 C 1862.78 1280.55 1864.87 1280.36 1866.58 1281.81 C 1867.52 1295.63 1866.95 1309.72 1866.93 1323.57 L 1866.91 1392.47 L 1867.05 1450.28 C 1867.14 1461.02 1867.84 1472.22 1867.09 1482.92 C 1866.75 1487.68 1865.99 1494.17 1862.57 1497.85 C 1859.55 1501.1 1854.42 1502.67 1850.18 1503.42 C 1838.96 1505.39 1825.95 1504.62 1814.54 1504.82 A 4495.39 4495.39 0 0 1 1723.72 1504.7 A 3146.88 3146.88 0 0 0 1671.82 1504.34 C 1662.59 1504.34 1652.43 1505.2 1643.3 1504.07 C 1647.39 1491.46 1650.43 1478.36 1654.12 1465.6 C 1660.39 1443.94 1670.96 1421.09 1670.02 1398.31 C 1668.89 1397.31 1667.73 1396.33 1666.62 1395.32 C 1651.75 1381.76 1624.07 1387.41 1605.09 1386.93 L 1601.21 1386.53 C 1593.46 1387.96 1584.4 1387.14 1576.49 1387.13 L 1529.32 1386.99 L 1492.75 1386.81 C 1490.51 1386.49 1489.28 1386.35 1487.26 1385.24 C 1485.96 1373.63 1486.94 1361.41 1486.97 1349.71 L 1487.02 1280.83 C 1523.89 1280.34 1561.3 1282.35 1598.06 1280.16 z"/>
<path transform="translate(0,0)" fill="rgb(238,120,68)" d="M 1694.92 1371.48 C 1711.25 1381.96 1734.81 1391.93 1748.77 1404.46 C 1746.73 1409.03 1734.95 1415.03 1730.5 1417.88 C 1720.67 1423.94 1711.06 1429.86 1700.17 1433.82 C 1688.58 1413.34 1690.9 1393.72 1694.92 1371.48 z"/>
<path transform="translate(0,0)" fill="rgb(35,188,196)" d="M 1767.88 1326.59 C 1793.46 1332.16 1812.58 1343.25 1828.1 1364.47 C 1821.38 1367.48 1814.92 1371.28 1808.45 1374.8 C 1799.89 1379.51 1781.19 1391.63 1772.55 1391.95 C 1771.53 1391.99 1771.39 1392.03 1770.79 1391.33 C 1765.23 1384.81 1767.84 1337.29 1767.88 1326.59 z"/>
<path transform="translate(0,0)" fill="rgb(53,59,132)" d="M 1603.86 1329.66 C 1625.14 1332.3 1640.68 1339.81 1654.05 1356.9 C 1663.57 1369.07 1668.14 1383.11 1670.02 1398.31 C 1668.89 1397.31 1667.73 1396.33 1666.62 1395.32 C 1651.75 1381.76 1624.07 1387.41 1605.09 1386.93 C 1604.64 1367.83 1603.41 1348.77 1603.86 1329.66 z"/>
<path transform="translate(0,0)" fill="rgb(35,188,196)" d="M 1827.84 1368.81 L 1829.3 1369.35 C 1833.12 1375.64 1834.42 1384.77 1835.18 1392.03 C 1837.74 1416.84 1829.04 1435.46 1813.59 1454.21 C 1808.89 1448.57 1803.97 1443.1 1799.15 1437.57 C 1791.63 1427.95 1783.39 1418.83 1775.41 1409.58 C 1775.85 1405.57 1775.89 1401.47 1776.08 1397.44 C 1794.13 1389.79 1811.51 1379.62 1827.84 1368.81 z"/>
<path transform="translate(0,0)" fill="rgb(238,120,68)" d="M 1600.89 1329.28 C 1598.23 1347.49 1601 1368.04 1601.21 1386.53 C 1593.46 1387.96 1584.4 1387.14 1576.49 1387.13 L 1529.32 1386.99 C 1534.86 1366.63 1543.11 1351.43 1562 1340.79 C 1574.11 1333.96 1587.22 1331.05 1600.89 1329.28 z"/>
<path transform="translate(0,0)" fill="rgb(249,208,64)" d="M 1756.61 1327.26 C 1758.89 1326.94 1760.82 1327.01 1763.11 1327.23 C 1765.47 1331.26 1764.13 1378.33 1764.14 1386.67 C 1756.73 1388.63 1752.17 1392.5 1746.52 1397.4 C 1738.38 1393.02 1730.5 1387.73 1722.59 1382.91 C 1712.89 1378.33 1705.63 1374.16 1698 1366.54 C 1699.97 1362.71 1701.96 1358.91 1704.49 1355.41 C 1717.35 1337.57 1735.66 1330.84 1756.61 1327.26 z"/>
<path transform="translate(0,0)" fill="rgb(238,120,68)" d="M 1750.75 1409.8 C 1752.06 1410.95 1753.39 1412.05 1754.81 1413.06 C 1757.91 1415.24 1760.69 1415.3 1764.31 1414.64 C 1767.39 1414.08 1769.93 1413.98 1773.03 1414.2 C 1783.13 1421.69 1801.83 1445.87 1809.76 1456.59 C 1795.55 1465.54 1781.6 1470.19 1764.81 1471.22 C 1760.54 1471.1 1756.26 1470.96 1752.03 1470.31 C 1730.34 1466.96 1715.5 1455.61 1702.75 1438.25 C 1719.14 1429.88 1734.95 1419.31 1750.75 1409.8 z"/>
<path transform="translate(0,0)" fill="rgb(251,251,251)" d="M 1269.68 1396.29 L 1604.66 1396.74 C 1601.03 1413.08 1595.02 1429.07 1590.56 1445.23 C 1575.7 1499.01 1559.68 1552.38 1545.07 1606.26 C 1540.06 1624.72 1531.86 1644.08 1529.57 1663 L 1194.28 1662.84 C 1200.37 1639.23 1207.92 1616.01 1214.66 1592.57 C 1224.34 1558.85 1233.39 1524.95 1243.26 1491.28 C 1252.53 1459.67 1262.11 1428.36 1269.68 1396.29 z"/>
<path transform="translate(0,0)" fill="rgb(166,198,231)" d="M 1420.09 1480.28 C 1434.42 1478.58 1450.76 1480.91 1462.91 1488.97 C 1473.9 1496.26 1480.61 1507.35 1483.2 1520.17 C 1487 1538.92 1481.89 1558.68 1471.32 1574.41 C 1458.85 1592.97 1439.99 1602.69 1418.49 1606.76 C 1403.76 1608.66 1388.86 1607.41 1376.13 1598.98 C 1364.61 1591.36 1358.16 1579.1 1355.71 1565.79 A 68.6455 68.6455 0 0 1 1367.36 1512.83 C 1379.97 1495.05 1398.74 1483.93 1420.09 1480.28 z"/>
<path transform="translate(0,0)" fill="rgb(35,188,196)" d="M 1194.85 1095.03 C 1196.45 1097.59 1198 1100.47 1199.86 1102.84 C 1210.66 1119.52 1220.89 1136.07 1229.44 1154.05 C 1248.93 1195.09 1258.31 1234.54 1309.46 1245.46 C 1335.89 1251.1 1363.47 1245.06 1385.88 1230.35 C 1401.18 1220.31 1413.84 1207.15 1428.02 1195.71 C 1457.43 1172 1495.71 1157.96 1533.77 1165.34 C 1540.07 1166.56 1545.16 1168.37 1549.96 1172.68 C 1544.35 1174.78 1538.1 1174.5 1532.21 1175.35 C 1516.15 1177.69 1500.35 1185.05 1486.8 1193.74 C 1459.4 1211.31 1440.23 1237.76 1417.36 1260.32 C 1369.23 1307.8 1307.75 1317.93 1246.19 1290.18 C 1223.23 1279.84 1208.27 1263.17 1192.63 1244.02 C 1188.68 1239.18 1184.47 1232.53 1179.52 1228.76 C 1168.12 1191.09 1154.12 1163.96 1125.38 1136.28 L 1124.7 1136.26 C 1130.5 1144.51 1137.18 1152.02 1143.1 1160.17 C 1155.86 1177.74 1166.38 1199.07 1171.95 1220.05 C 1179.35 1247.93 1174.93 1273.39 1173.56 1301.53 C 1170.7 1359.87 1200.73 1404.21 1248.88 1434.57 C 1245.44 1449.15 1241.44 1463.54 1237.38 1477.95 C 1221.8 1472.85 1206.63 1467.48 1192.02 1459.92 C 1135.91 1430.91 1095.32 1380.05 1067.29 1324.51 C 1042.84 1276.06 1029.15 1220.76 1021.97 1167.22 C 1021.93 1167.51 1021.88 1167.79 1021.84 1168.08 C 1020.68 1175.69 1020.89 1183.51 1020.18 1191.19 C 1018.9 1205.2 1016.92 1219.42 1014.29 1233.24 C 999.697 1309.94 957.668 1384.53 894.754 1431.43 C 849.188 1465.4 792.94 1479.96 738.551 1492.76 C 727.271 1490.05 714.393 1486.12 703.946 1481.09 C 719.185 1468.47 735.251 1457.79 752.64 1448.39 C 780.736 1433.21 811.35 1420.78 835.218 1398.99 C 864.272 1372.47 872.463 1334.64 870.762 1296.53 C 869.838 1275.84 867.092 1255.24 870.969 1234.69 C 875.622 1210.01 889.179 1187.19 901.805 1165.88 C 885.262 1182.28 872.831 1207.64 865.871 1229.68 C 862.671 1233.49 860.186 1238.26 857.444 1242.43 C 850.988 1252.24 843.546 1261.2 834.387 1268.62 C 801.856 1295 752.547 1303.51 711.818 1299.18 C 669.167 1294.66 620.518 1278.17 593.253 1243.28 C 583.353 1230.61 576.34 1215.82 566.192 1203.38 C 551.261 1185.09 526.427 1169.82 502.757 1167.4 C 508.095 1164.62 513.928 1162.47 519.754 1160.96 C 549.075 1153.35 578.355 1165.13 599.29 1185.91 C 615.559 1202.06 627.125 1220.01 647.527 1231.7 C 674.798 1247.31 712.011 1248.51 741.792 1240.29 C 774.923 1231.15 785.725 1215.23 799.572 1185.29 C 805.965 1171.46 812.338 1157.76 819.615 1144.36 C 828.764 1127.52 841.011 1112.76 850.401 1096.15 C 865.494 1104.5 880.478 1112.06 896.762 1117.92 C 968.502 1143.75 1054.7 1145.57 1127.79 1124.7 C 1151.38 1117.97 1173.74 1107.44 1194.85 1095.03 z"/>
<path transform="translate(0,0)" fill="rgb(9,24,104)" d="M 474.245 795.831 C 501.316 788.051 524.898 787.977 552.562 791.981 L 554.325 792.175 C 597.182 800.464 637.728 827.208 662.193 863.44 C 677.527 886.151 685.785 911.565 689.684 938.542 C 696.812 987.86 683.852 1065.18 749.356 1078.26 C 771.395 1082.65 795.226 1077.92 815.57 1069.09 C 818.951 1072.38 822.894 1075.64 825.802 1079.34 C 833.044 1085.22 841.565 1089.35 849.233 1094.63 L 850.401 1096.15 C 841.011 1112.76 828.764 1127.52 819.615 1144.36 C 812.338 1157.76 805.965 1171.46 799.572 1185.29 C 785.725 1215.23 774.923 1231.15 741.792 1240.29 C 712.011 1248.51 674.798 1247.31 647.527 1231.7 C 627.125 1220.01 615.559 1202.06 599.29 1185.91 C 578.355 1165.13 549.075 1153.35 519.754 1160.96 C 513.928 1162.47 508.095 1164.62 502.757 1167.4 C 526.427 1169.82 551.261 1185.09 566.192 1203.38 C 576.34 1215.82 583.353 1230.61 593.253 1243.28 C 620.518 1278.17 669.167 1294.66 711.818 1299.18 C 752.547 1303.51 801.856 1295 834.387 1268.62 C 843.546 1261.2 850.988 1252.24 857.444 1242.43 C 860.186 1238.26 862.671 1233.49 865.871 1229.68 C 872.831 1207.64 885.262 1182.28 901.805 1165.88 C 889.179 1187.19 875.622 1210.01 870.969 1234.69 C 867.092 1255.24 869.838 1275.84 870.762 1296.53 C 872.463 1334.64 864.272 1372.47 835.218 1398.99 C 811.35 1420.78 780.736 1433.21 752.64 1448.39 C 735.251 1457.79 719.185 1468.47 703.946 1481.09 C 698.223 1478.89 692.663 1476.33 687.077 1473.81 L 608.882 1443.01 C 597.832 1438.6 574.783 1427.3 564.391 1426.18 C 561.72 1411.05 563.451 1392.81 563.547 1377.31 A 4123.35 4123.35 0 0 0 563.653 1290.4 C 557.804 1280.23 552.542 1269.8 548.73 1258.68 C 544.208 1245.49 541.716 1231.32 534.426 1219.23 C 522.119 1198.84 504.08 1211.37 487.149 1206.72 C 483.157 1205.62 480.589 1203.46 478.713 1199.79 C 475.677 1193.84 474.6 1187.06 476.956 1180.7 C 481.148 1169.37 494.566 1161.66 505.004 1156.72 C 524.595 1147.47 546.853 1147.29 567.084 1154.69 C 568.574 1137.03 568.107 1118.79 568.148 1101.06 L 568.224 1015.42 C 567.495 1003.35 567.977 990.832 568.372 978.738 C 569.151 977.714 569.379 976.34 569.382 975.088 C 569.416 958.216 568.546 918.383 556.099 905.725 A 105.095 105.095 0 0 0 527.467 884.451 C 489.249 865.212 458.77 888.536 423.364 875.344 C 416.656 872.845 410.234 869.083 407.304 862.208 C 404.518 855.673 405.413 847.62 407.992 841.156 C 417.502 817.318 449.881 806.332 471.117 796.883 L 472.943 796.058 L 474.245 795.831 z"/>
<path transform="translate(0,0)" fill="rgb(53,59,132)" d="M 568.224 1015.42 C 568.288 1015.71 568.357 1016 568.418 1016.29 C 569.785 1022.86 569.094 1029.54 570.297 1036.13 C 581.434 1097.2 604.128 1144.46 656.799 1179.9 C 693.594 1204.66 728.311 1208.98 771.395 1209.73 C 746.751 1228.37 711.307 1234.14 681.077 1229.9 C 625.797 1222.15 612.3 1176.59 567.084 1154.69 C 568.574 1137.03 568.107 1118.79 568.148 1101.06 L 568.224 1015.42 z"/>
<path transform="translate(0,0)" fill="rgb(8,137,153)" d="M 487.286 1178.98 C 491.87 1174.44 496.956 1170.27 502.757 1167.4 C 526.427 1169.82 551.261 1185.09 566.192 1203.38 C 576.34 1215.82 583.353 1230.61 593.253 1243.28 C 620.518 1278.17 669.167 1294.66 711.818 1299.18 C 752.547 1303.51 801.856 1295 834.387 1268.62 C 843.546 1261.2 850.988 1252.24 857.444 1242.43 C 860.186 1238.26 862.671 1233.49 865.871 1229.68 C 862.913 1257.05 866.224 1284.64 862.626 1311.8 C 846.508 1328.89 822.338 1338.17 800.236 1344.35 C 732.022 1363.42 646.257 1347.16 592.336 1300.59 C 584.431 1293.77 575.987 1285.99 569.889 1277.46 C 553.719 1254.84 554.401 1215.89 528.049 1201.89 C 516.461 1195.73 502.827 1195.39 490.549 1199.39 L 487.286 1178.98 z"/>
<path transform="translate(0,0)" fill="rgb(35,188,196)" d="M 428.996 838.265 C 452.883 814.663 491.039 803.545 524.012 803.842 C 564.464 804.206 604.2 822.633 632.344 851.505 C 651.393 871.047 664.034 893.001 670.687 919.476 C 678.769 951.638 675.263 984.261 680.626 1016.61 C 688.17 1062.12 718.031 1094.35 765.653 1095.05 C 786.737 1095.36 807.036 1088.48 825.802 1079.34 C 833.044 1085.22 841.565 1089.35 849.233 1094.63 C 838.742 1104.27 828.526 1119.87 821.341 1132.09 C 807.972 1135.79 794.373 1139.13 780.536 1140.45 C 741.857 1144.12 707.344 1134.83 677.37 1109.82 C 626.692 1067.52 641.275 1021.35 635.813 964.746 C 632.043 925.675 618.732 889.039 587.509 863.725 C 549.67 833.047 512.926 833.82 466.924 836.482 C 454.275 837.215 441.609 836.928 428.996 838.265 z"/>
<path transform="translate(0,0)" fill="rgb(53,59,132)" d="M 563.653 1290.4 C 573.083 1299.43 581.076 1309.86 591.297 1318.08 C 635.647 1353.71 695.841 1368.36 751.809 1367.12 C 784.509 1366.4 824.073 1358.73 851.88 1340.61 C 841.325 1378.18 827.992 1389.84 794.374 1408.76 C 757.099 1429.73 719.573 1444.76 687.077 1473.81 L 608.882 1443.01 C 597.832 1438.6 574.783 1427.3 564.391 1426.18 C 561.72 1411.05 563.451 1392.81 563.547 1377.31 A 4123.35 4123.35 0 0 0 563.653 1290.4 z"/>
<path transform="translate(0,0)" fill="rgb(8,137,153)" d="M 428.996 838.265 C 441.609 836.928 454.275 837.215 466.924 836.482 C 512.926 833.82 549.67 833.047 587.509 863.725 C 618.732 889.039 632.043 925.675 635.813 964.746 C 641.275 1021.35 626.692 1067.52 677.37 1109.82 C 707.344 1134.83 741.857 1144.12 780.536 1140.45 C 794.373 1139.13 807.972 1135.79 821.341 1132.09 C 815.531 1143.13 799.948 1176.66 793.96 1183.66 C 791.09 1187.02 787.464 1189.34 783.294 1190.75 C 756.731 1199.74 709.658 1190.1 684.792 1177.84 C 616.982 1144.4 587.545 1080.05 585.205 1007.14 C 584.201 975.856 587.217 944.577 576.85 914.373 C 564.823 879.335 527.889 860.539 492.296 859.766 C 470.571 859.294 445.526 869.202 424.877 858.199 C 421.859 856.591 421.02 855.014 420.149 851.807 C 421.205 845.979 425.117 842.439 428.996 838.265 z"/>
<path transform="translate(0,0)" fill="rgb(8,137,153)" d="M 738.551 1492.76 C 792.94 1479.96 849.188 1465.4 894.754 1431.43 C 957.668 1384.53 999.697 1309.94 1014.29 1233.24 C 1016.92 1219.42 1018.9 1205.2 1020.18 1191.19 C 1020.89 1183.51 1020.68 1175.69 1021.84 1168.08 C 1021.88 1167.79 1021.93 1167.51 1021.97 1167.22 C 1029.15 1220.76 1042.84 1276.06 1067.29 1324.51 C 1095.32 1380.05 1135.91 1430.91 1192.02 1459.92 C 1206.63 1467.48 1221.8 1472.85 1237.38 1477.95 C 1231.53 1496.28 1226.83 1514.97 1221.15 1533.36 A 406.071 406.071 0 0 1 1167.12 1509.88 C 1107.58 1478.94 1045.4 1429.82 1024.47 1363.41 L 1022.54 1363.92 C 1014.94 1381.68 1007.36 1398.92 996.38 1414.94 C 965.681 1459.75 913.306 1491.2 863.632 1511.05 C 842.555 1519.48 820.801 1527.44 798.13 1529.97 C 799.899 1534.67 801.697 1539.14 804.08 1543.58 L 811.122 1546.39 L 812.04 1546.33 C 848.617 1560.5 886.245 1572.51 923.393 1585.13 C 937.672 1589.97 953.024 1593.92 966.854 1599.78 C 969.493 1600.9 971.098 1602 972.509 1604.55 C 976.145 1612.15 983.092 1618.48 988.918 1624.43 C 979.545 1639.74 958.259 1668.38 952.07 1683.14 C 947.844 1693.22 947.92 1729.62 946.909 1742.17 A 863.283 863.283 0 0 1 941.406 1791.69 C 940.638 1797.19 939.122 1811.08 932.853 1812.95 C 922.829 1815.94 883.994 1803.94 873.099 1799.87 L 856.175 1827.95 C 845.882 1824.64 835.951 1820.22 825.668 1816.78 C 776.3 1800.23 726.381 1783.46 678.315 1763.39 C 670.297 1777.07 662.504 1790.98 653.964 1804.34 C 623.431 1793.62 593.515 1780.52 563.646 1768.09 C 521.945 1750.73 479.948 1733.44 437.77 1717.26 C 434.607 1701.81 432.465 1684.44 425.351 1670.2 L 423.623 1668.42 C 423.97 1662.18 468.789 1583.09 474.792 1572.54 C 479.504 1567.21 483.404 1558.65 486.966 1552.4 C 496.387 1535.88 505.347 1518.92 515.567 1502.87 C 526.991 1487.89 548.26 1437.62 560.067 1429.25 C 561.511 1428.23 562.959 1427.23 564.391 1426.18 C 574.783 1427.3 597.832 1438.6 608.882 1443.01 L 687.077 1473.81 C 692.663 1476.33 698.223 1478.89 703.946 1481.09 C 714.393 1486.12 727.271 1490.05 738.551 1492.76 z"/>
<path transform="translate(0,0)" fill="rgb(0,102,130)" d="M 1022.54 1363.92 C 1020.67 1349.16 1019.71 1220.45 1023.17 1210.09 C 1027.81 1237.72 1025.37 1276.58 1025.38 1305.48 C 1025.39 1324.16 1027.22 1345.04 1024.47 1363.41 L 1022.54 1363.92 z"/>
<path transform="translate(0,0)" fill="rgb(251,251,251)" d="M 804.08 1543.58 L 811.122 1546.39 L 812.04 1546.33 C 848.617 1560.5 886.245 1572.51 923.393 1585.13 C 937.672 1589.97 953.024 1593.92 966.854 1599.78 C 969.493 1600.9 971.098 1602 972.509 1604.55 C 964.345 1622.64 950.419 1639.07 939.991 1656.05 C 917.232 1693.1 893.714 1729.48 870.199 1766.05 C 859.787 1782.24 850.51 1799.57 839.054 1815.03 C 785.939 1797.36 731.944 1779.68 680.686 1757.1 C 685.735 1748.76 690.587 1738.74 696.478 1731.03 C 703.865 1719.26 710.209 1706.71 717.409 1694.79 L 788.326 1577.08 C 791.233 1571.54 794.108 1566 797.343 1560.63 C 799.948 1555.21 801.892 1549.21 804.08 1543.58 z"/>
<path transform="translate(0,0)" fill="rgb(33,41,111)" d="M 757.754 1644.38 C 796.528 1662.96 839.379 1672.44 878.024 1691.05 C 874.983 1696.01 871.45 1700.76 868.122 1705.53 C 828.263 1689.06 787.013 1675.77 746.819 1660.06 C 750.793 1655.18 754.196 1649.58 757.754 1644.38 z"/>
<path transform="translate(0,0)" fill="rgb(9,24,104)" d="M 771.674 1622.2 C 790.231 1626.48 808.81 1634.62 826.696 1641.21 C 849.161 1649.48 873.194 1656.93 894.446 1667.93 C 891.518 1673.08 888.43 1677.68 884.749 1682.32 C 844.122 1666.53 802.992 1652.13 762.364 1636.37 C 765.335 1631.56 768.533 1626.9 771.674 1622.2 z"/>
<path transform="translate(0,0)" fill="rgb(9,24,104)" d="M 724.77 1694.66 C 740.519 1697.07 765.361 1708.92 781.115 1714.87 C 802.046 1722.78 824.263 1729.48 844.46 1739.05 C 840.656 1744.05 837.308 1749.53 833.834 1754.77 A 2494.17 2494.17 0 0 0 713.604 1709.69 L 724.77 1694.66 z"/>
<path transform="translate(0,0)" fill="rgb(9,24,104)" d="M 787.227 1596.59 C 797.276 1600.78 807.837 1604.11 818.028 1608.01 C 837.495 1615.48 856.845 1623.37 876.556 1630.17 C 888.474 1634.28 900.62 1637.67 912.501 1641.89 L 901.938 1657.08 C 897.527 1658.48 794.894 1617.26 778.276 1613.15 C 781.752 1607.8 784.516 1602.36 787.227 1596.59 z"/>
<path transform="translate(0,0)" fill="rgb(9,24,104)" d="M 740.871 1668.67 C 780.344 1685.72 822.344 1697.09 861.384 1715.26 A 385.154 385.154 0 0 1 852.684 1729.74 C 837.665 1726.44 822.462 1719.47 808.097 1714.02 L 730.803 1684.57 A 1535.46 1535.46 0 0 1 740.871 1668.67 z"/>
<path transform="translate(0,0)" fill="rgb(46,179,209)" d="M 804.08 1543.58 L 811.122 1546.39 L 812.04 1546.33 C 848.617 1560.5 886.245 1572.51 923.393 1585.13 C 937.672 1589.97 953.024 1593.92 966.854 1599.78 C 969.493 1600.9 971.098 1602 972.509 1604.55 C 964.345 1622.64 950.419 1639.07 939.991 1656.05 C 917.232 1693.1 893.714 1729.48 870.199 1766.05 C 859.787 1782.24 850.51 1799.57 839.054 1815.03 C 785.939 1797.36 731.944 1779.68 680.686 1757.1 C 685.735 1748.76 690.587 1738.74 696.478 1731.03 C 741.793 1752.65 791.186 1764.06 836.788 1784.96 C 848.999 1769.41 859.069 1752.22 869.504 1735.45 C 891.706 1699.77 912.37 1663.42 936.253 1628.81 C 922.144 1621.81 906.789 1616.93 891.942 1611.72 C 857.576 1599.64 822.606 1589.4 788.326 1577.08 C 791.233 1571.54 794.108 1566 797.343 1560.63 C 799.948 1555.21 801.892 1549.21 804.08 1543.58 z"/>
<path transform="translate(0,0)" fill="rgb(251,251,251)" d="M 804.08 1543.58 L 811.122 1546.39 C 807.811 1550.6 802.576 1559.27 797.343 1560.63 C 799.948 1555.21 801.892 1549.21 804.08 1543.58 z"/>
<path transform="translate(0,0)" fill="rgb(35,188,196)" d="M 564.391 1426.18 C 574.783 1427.3 597.832 1438.6 608.882 1443.01 L 687.077 1473.81 C 692.663 1476.33 698.223 1478.89 703.946 1481.09 C 714.393 1486.12 727.271 1490.05 738.551 1492.76 C 754.349 1498.82 771.695 1503.52 786.759 1511.04 C 767.941 1547.88 744.191 1582.59 723.371 1618.36 L 670.577 1707.16 C 660.137 1724.84 650.471 1743.93 638.674 1760.68 A 12689.5 12689.5 0 0 0 425.351 1670.2 L 423.623 1668.42 C 423.97 1662.18 468.789 1583.09 474.792 1572.54 C 479.504 1567.21 483.404 1558.65 486.966 1552.4 C 496.387 1535.88 505.347 1518.92 515.567 1502.87 C 526.991 1487.89 548.26 1437.62 560.067 1429.25 C 561.511 1428.23 562.959 1427.23 564.391 1426.18 z"/>
<path transform="translate(0,0)" fill="rgb(115,214,214)" d="M 504.06 1577.8 C 522.967 1582.78 525.714 1590.03 539.903 1601.42 L 540.799 1602.13 C 557.096 1599.37 572.429 1591.91 588.437 1587.83 C 599.68 1600.78 612.043 1613.74 621.562 1627.99 C 638.779 1617.48 656.977 1606.65 672.925 1594.33 C 678.827 1597.19 684.35 1599.61 690.969 1599.97 C 693.301 1601.55 693.636 1602.45 694.639 1604.89 C 695.156 1606.14 695.826 1607.12 696.562 1608.25 C 697.809 1610.16 698.226 1611.38 698.402 1613.7 C 697.641 1614.93 697.625 1615.76 696.052 1616 C 693.282 1616.4 690.328 1615.27 687.669 1614.54 C 671.863 1627.56 666.174 1656.3 641.734 1667.98 C 614.382 1681.06 589.567 1675.13 562.235 1665.01 C 552.546 1661.42 512.34 1648.75 508.773 1640.99 C 509.625 1628.11 518.926 1613.42 524.413 1601.66 C 520.287 1597.74 516.258 1594.42 511.516 1591.25 C 508.726 1591.21 504.676 1591.51 502.11 1590.53 C 500.192 1589.8 500.069 1589.11 499.36 1587.37 C 499.902 1583.7 502.1 1580.85 504.06 1577.8 z"/>
<path transform="translate(0,0)" fill="rgb(230,82,90)" d="M 504.06 1577.8 C 522.967 1582.78 525.714 1590.03 539.903 1601.42 L 540.799 1602.13 C 557.096 1599.37 572.429 1591.91 588.437 1587.83 C 599.68 1600.78 612.043 1613.74 621.562 1627.99 C 638.779 1617.48 656.977 1606.65 672.925 1594.33 C 678.827 1597.19 684.35 1599.61 690.969 1599.97 C 693.301 1601.55 693.636 1602.45 694.639 1604.89 C 695.156 1606.14 695.826 1607.12 696.562 1608.25 C 697.809 1610.16 698.226 1611.38 698.402 1613.7 C 697.641 1614.93 697.625 1615.76 696.052 1616 C 693.282 1616.4 690.328 1615.27 687.669 1614.54 A 819.9 819.9 0 0 1 671.446 1606.24 C 655.429 1620.1 638.876 1630.93 620.355 1641.13 C 607.879 1628.08 594.693 1613.94 584.772 1598.81 C 569.089 1603.13 552.452 1609.76 537.573 1616.33 C 533.473 1611.2 528.88 1606.47 524.413 1601.66 C 520.287 1597.74 516.258 1594.42 511.516 1591.25 C 508.726 1591.21 504.676 1591.51 502.11 1590.53 C 500.192 1589.8 500.069 1589.11 499.36 1587.37 C 499.902 1583.7 502.1 1580.85 504.06 1577.8 z"/>
<path transform="translate(0,0)" fill="rgb(115,214,214)" d="M 540.799 1602.13 C 545.049 1598.19 548.509 1589.72 551.702 1584.7 C 561.433 1569.4 596.559 1511.83 607.59 1502.57 C 611.006 1499.71 614.761 1497.79 619.234 1497.31 C 634.466 1495.67 675.962 1521.52 695.009 1523.2 C 695.395 1523.23 695.782 1523.25 696.169 1523.28 L 703.318 1527.1 C 711.546 1529.55 719.597 1532.89 725.807 1539.01 C 722.093 1548.99 717.608 1558.18 712.17 1567.34 C 708.54 1573.45 691.292 1596.12 690.969 1599.97 C 684.35 1599.61 678.827 1597.19 672.925 1594.33 C 656.977 1606.65 638.779 1617.48 621.562 1627.99 C 612.043 1613.74 599.68 1600.78 588.437 1587.83 C 572.429 1591.91 557.096 1599.37 540.799 1602.13 z"/>
<path transform="translate(0,0)" fill="rgb(230,82,90)" d="M 696.169 1523.28 L 703.318 1527.1 C 705.566 1530.5 707.125 1532.75 706.307 1537.04 C 705.651 1540.48 703.968 1543.61 701.043 1545.64 C 698.219 1547.6 694.035 1548.49 690.67 1547.68 C 687.008 1546.81 683.013 1543.38 681.094 1540.18 C 680.876 1539.81 680.683 1539.44 680.477 1539.06 C 680.523 1537.8 680.506 1536.36 680.752 1535.1 C 681.837 1529.55 685.096 1527.34 689.427 1524.28 L 696.169 1523.28 z"/>
<path transform="translate(0,0)" fill="rgb(33,41,111)" d="M 901.751 1511.45 C 918.799 1514.23 938.162 1511.56 955.49 1511.08 C 977.757 1510.46 1000.2 1510.64 1022.48 1511.05 C 1052.34 1511.6 1082.29 1513.84 1112.15 1514.93 C 1122.41 1515.3 1134.22 1516.9 1144.31 1515.56 C 1168.75 1527.76 1191.59 1541.57 1217.81 1549.97 C 1207.45 1587.69 1195.67 1624.78 1186.32 1662.79 A 6705.83 6705.83 0 0 1 1103.01 1662.73 C 1078.82 1662.36 1046.44 1658.96 1023.16 1663.97 C 1022.55 1682.91 1023.23 1698.71 1036.95 1713.5 C 1050.02 1727.58 1068.22 1734.44 1087.16 1735 C 1127.12 1736.19 1167.31 1735.19 1207.3 1735.28 A 9845.5 9845.5 0 0 0 1431.74 1735.29 A 2679.81 2679.81 0 0 1 1504.56 1735.48 C 1526.53 1735.74 1549.88 1737.01 1571.63 1733.6 C 1578.64 1732.5 1584.78 1728.83 1589.9 1723.98 C 1596.93 1717.33 1602.02 1707.84 1602.11 1698.01 C 1602.19 1689.24 1598.22 1681.34 1592.04 1675.32 A 104.644 104.644 0 0 0 1587.04 1670.79 C 1609.51 1654.82 1604.83 1622.26 1617.66 1600.16 C 1659.68 1618.25 1702.97 1628.42 1738.7 1659.11 C 1751.44 1670.05 1763.69 1683.89 1764.62 1701.53 C 1765.49 1718 1755.96 1733.65 1745.32 1745.47 C 1687.14 1810.1 1489.02 1847.73 1402.92 1859.49 C 1368.98 1864.12 1334.7 1866.74 1300.59 1869.63 A 4019.78 4019.78 0 0 1 1191.54 1878.06 C 1012 1888.3 831.189 1884.86 653.278 1857.39 C 588.374 1847.37 524.038 1834.66 460.989 1816.04 C 412.1 1801.6 349.986 1781.35 311.643 1746.75 C 297.977 1734.42 285.809 1717.07 285.188 1698.07 C 284.631 1681.04 293.618 1665.51 305.066 1653.58 C 338.78 1618.48 400.566 1595.39 446.742 1580.42 C 455.172 1577.69 466 1572.71 474.792 1572.54 C 468.789 1583.09 423.97 1662.18 423.623 1668.42 L 425.351 1670.2 C 432.465 1684.44 434.607 1701.81 437.77 1717.26 C 479.948 1733.44 521.945 1750.73 563.646 1768.09 C 593.515 1780.52 623.431 1793.62 653.964 1804.34 C 662.504 1790.98 670.297 1777.07 678.315 1763.39 C 726.381 1783.46 776.3 1800.23 825.668 1816.78 C 835.951 1820.22 845.882 1824.64 856.175 1827.95 L 873.099 1799.87 C 883.994 1803.94 922.829 1815.94 932.853 1812.95 C 939.122 1811.08 940.638 1797.19 941.406 1791.69 A 863.283 863.283 0 0 0 946.909 1742.17 C 947.92 1729.62 947.844 1693.22 952.07 1683.14 C 958.259 1668.38 979.545 1639.74 988.918 1624.43 C 983.092 1618.48 976.145 1612.15 972.509 1604.55 C 971.098 1602 969.493 1600.9 966.854 1599.78 C 953.024 1593.92 937.672 1589.97 923.393 1585.13 C 886.245 1572.51 848.617 1560.5 812.04 1546.33 C 818.985 1540.41 837.243 1536.57 846.205 1533.56 C 865.668 1527.01 882.949 1518.37 901.751 1511.45 z"/>
<path transform="translate(0,0)" fill="rgb(35,188,196)" d="M 845.197 472.462 C 858.384 464.747 871.667 457.074 885.626 450.826 A 339.122 339.122 0 0 1 1109.12 432.534 C 1188.39 453.19 1259.38 507.974 1300.73 578.616 C 1330.89 630.127 1351.17 708.998 1338.07 768.029 C 1336.46 799.026 1314.86 840.389 1305.38 871.481 C 1300.77 886.611 1298.36 902.503 1295.1 917.966 C 1290.09 941.8 1282.84 966.045 1272.31 988.007 C 1261.55 1010.45 1246.9 1027.48 1229.86 1045.3 C 1227.35 1052.51 1225.03 1060.75 1226.78 1068.4 A 134.675 134.675 0 0 1 1197.41 1093.25 C 1198.77 1095.22 1200.33 1097.16 1201.37 1099.32 L 1199.86 1102.84 C 1198 1100.47 1196.45 1097.59 1194.85 1095.03 C 1173.74 1107.44 1151.38 1117.97 1127.79 1124.7 C 1054.7 1145.57 968.502 1143.75 896.762 1117.92 C 880.478 1112.06 865.494 1104.5 850.401 1096.15 L 849.233 1094.63 C 841.565 1089.35 833.044 1085.22 825.802 1079.34 C 822.894 1075.64 818.951 1072.38 815.57 1069.09 C 803.647 1056.02 782.801 1034.48 778.324 1017.95 C 761.271 992.9 759.435 959.68 755.009 930.512 C 752.849 916.28 750.179 902.202 747.538 888.056 C 741.812 871.136 732.826 856.067 725.863 839.712 A 297.429 297.429 0 0 1 706.163 701.346 C 713.107 633.337 745.035 563.668 793.612 515.321 C 809.731 499.279 827.624 486.683 845.197 472.462 z"/>
<path transform="translate(0,0)" fill="rgb(33,41,111)" d="M 1013.17 902.224 C 1025.49 901.196 1037.5 901.495 1048.91 906.716 C 1055.68 909.815 1063.01 914.88 1065.39 922.323 A 15.976 15.976 0 0 1 1063.86 935.239 C 1058.57 944.118 1045.63 948.716 1036.05 950.788 C 1022.25 952.565 1008.12 952.199 995.634 945.251 C 989.195 941.668 982.485 935.714 980.716 928.247 C 979.793 924.355 980.437 920.527 982.651 917.186 C 988.759 907.966 1002.83 904.217 1013.17 902.224 z"/>
<path transform="translate(0,0)" fill="rgb(8,137,153)" d="M 778.324 1017.95 C 792.081 1031.06 805.771 1043.52 821.37 1054.49 C 883.753 1098.36 961.006 1115.15 1036.4 1113.34 C 1087.46 1112.12 1143.68 1098.5 1187.93 1073.13 C 1197.55 1067.62 1206.52 1061.45 1215.57 1055.06 C 1220.08 1051.87 1224.88 1047.65 1229.86 1045.3 C 1227.35 1052.51 1225.03 1060.75 1226.78 1068.4 A 134.675 134.675 0 0 1 1197.41 1093.25 C 1198.77 1095.22 1200.33 1097.16 1201.37 1099.32 L 1199.86 1102.84 C 1198 1100.47 1196.45 1097.59 1194.85 1095.03 C 1173.74 1107.44 1151.38 1117.97 1127.79 1124.7 C 1054.7 1145.57 968.502 1143.75 896.762 1117.92 C 880.478 1112.06 865.494 1104.5 850.401 1096.15 L 849.233 1094.63 C 841.565 1089.35 833.044 1085.22 825.802 1079.34 C 822.894 1075.64 818.951 1072.38 815.57 1069.09 C 803.647 1056.02 782.801 1034.48 778.324 1017.95 z"/>
<path transform="translate(0,0)" fill="rgb(33,41,111)" d="M 852.6 704.423 A 111.156 111.156 0 0 1 921.709 726.523 C 944.705 744.047 961.09 770.047 964.795 798.943 C 968.881 830.822 958.469 862.711 938.782 887.787 C 917.844 914.455 888.852 930.676 855.237 934.707 C 854.811 934.745 854.386 934.793 853.959 934.82 C 825.702 936.611 797.692 929.921 775.923 911.188 C 753.976 892.301 743.022 864.882 741.1 836.35 C 738.858 803.078 748.338 767.868 770.653 742.52 C 791.5 718.837 821.568 706.361 852.6 704.423 z"/>
<path transform="translate(0,0)" fill="rgb(242,239,241)" d="M 850.616 714.425 A 106.957 106.957 0 0 1 919.619 737.829 C 939.428 753.776 952.031 778.261 954.501 803.496 C 957.411 833.238 946.508 864.039 927.416 886.757 C 909.806 907.712 884.789 922.491 857.243 924.896 A 188.188 188.188 0 0 1 854.667 925.172 C 829.332 927.704 804.994 921.97 785.197 905.54 C 764.261 888.165 752.814 863.413 750.292 836.532 C 747.473 806.476 756.836 774.773 776.373 751.591 C 795.17 729.288 821.811 716.744 850.616 714.425 z"/>
<path transform="translate(0,0)" fill="rgb(9,24,104)" d="M 866.602 758.388 C 881.002 757.12 894.709 760.392 906.977 768.047 A 63.6324 63.6324 0 0 1 935.547 808.115 C 939.018 823.647 936.733 840.538 927.823 853.903 C 917.561 869.296 902.324 875.727 884.92 879.188 C 868.584 880.322 852.001 876.996 838.668 867.071 C 824.967 856.873 814.954 839.888 812.574 822.984 A 57.5636 57.5636 0 0 1 824.652 779.276 C 835.299 766.161 850.169 760.069 866.602 758.388 z"/>
<path transform="translate(0,0)" fill="rgb(242,239,241)" d="M 840.292 776.08 C 844.95 775.806 848.939 775.93 853.274 777.854 A 26.3531 26.3531 0 0 1 867.387 792.911 C 869.676 799.116 869.438 806 866.291 811.862 C 862.743 818.469 857.051 821.734 850.15 824.011 C 845.527 824.208 841.052 824.358 836.614 822.828 A 23.6424 23.6424 0 0 1 822.933 810.795 A 23.5938 23.5938 0 0 1 822.401 791.711 C 825.807 783.511 832.354 779.276 840.292 776.08 z"/>
<path transform="translate(0,0)" fill="rgb(33,41,111)" d="M 1179.25 703.375 C 1205.87 699.657 1238.15 712.013 1259.22 727.652 C 1283.78 745.883 1299.19 773.296 1303.61 803.431 C 1308.28 835.299 1301.02 868.526 1281.53 894.433 C 1262.81 919.311 1236.3 931.836 1206.01 935.947 C 1175.26 936.897 1147.87 930.549 1122.91 911.843 A 115.055 115.055 0 0 1 1077.77 835.486 C 1073.68 804.401 1080.9 769.586 1100.29 744.55 C 1120.12 718.944 1147.8 707.177 1179.25 703.375 z"/>
<path transform="translate(0,0)" fill="rgb(242,239,241)" d="M 1184.66 713.428 C 1210.65 712.599 1237.08 723.109 1256.6 739.944 A 111.016 111.016 0 0 1 1295.11 816.345 C 1296.95 844.189 1288.65 873.551 1269.84 894.562 C 1251.76 914.756 1225.99 925.645 1199.23 927.063 A 110.171 110.171 0 0 1 1125.8 901.483 C 1104.14 883.638 1089.3 856.892 1086.88 828.813 C 1084.36 799.636 1092.26 770.139 1111.28 747.611 C 1130.75 724.559 1155.23 715.951 1184.66 713.428 z"/>
<path transform="translate(0,0)" fill="rgb(9,24,104)" d="M 1160.52 759.207 C 1176.05 758.076 1191.31 760.426 1204.45 769.327 C 1217.99 778.499 1226.92 793.718 1229.89 809.668 C 1232.94 826.07 1228.7 842.766 1219.17 856.307 C 1208.96 870.811 1194.72 878.683 1177.47 881.807 C 1161.54 882.659 1147.56 879.192 1134 870.721 A 57.3982 57.3982 0 0 1 1108.07 834.044 C 1104.44 817.577 1107.49 799.387 1116.85 785.298 C 1127.3 769.565 1142.68 762.735 1160.52 759.207 z"/>
<path transform="translate(0,0)" fill="rgb(242,239,241)" d="M 1191.33 775.18 C 1196.74 774.699 1201.95 774.628 1207.01 776.885 C 1213.57 779.809 1218.52 785.279 1221.08 791.954 C 1223.58 798.493 1223.69 805.913 1220.76 812.338 C 1216.97 820.668 1210.31 824.706 1201.98 827.642 C 1196.87 828.206 1191.79 828.034 1186.92 826.264 C 1180.39 823.894 1175.03 819.093 1172.23 812.71 A 26.2755 26.2755 0 0 1 1172.16 792.075 C 1175.98 782.98 1182.68 778.821 1191.33 775.18 z"/>
<path transform="translate(0,0)" fill="rgb(115,214,214)" d="M 845.197 472.462 C 858.384 464.747 871.667 457.074 885.626 450.826 A 339.122 339.122 0 0 1 1109.12 432.534 C 1188.39 453.19 1259.38 507.974 1300.73 578.616 C 1330.89 630.127 1351.17 708.998 1338.07 768.029 L 1335.82 768.249 C 1333.01 747.487 1331.56 727.219 1326.32 706.777 C 1311.05 647.215 1270.64 593.762 1222.16 556.797 C 1155.51 505.985 1066.3 479.121 982.709 490.633 C 901.175 501.861 820.923 544.56 770.655 610.625 C 731.697 661.827 712.661 729.211 721.464 793.345 C 723.19 805.917 725.197 822.857 730.477 834.336 C 733.764 842.602 738.112 850.601 740.922 859.004 C 742.854 864.783 743.719 870.81 745.338 876.664 C 746.442 880.659 748.703 883.819 747.538 888.056 C 741.812 871.136 732.826 856.067 725.863 839.712 A 297.429 297.429 0 0 1 706.163 701.346 C 713.107 633.337 745.035 563.668 793.612 515.321 C 809.731 499.279 827.624 486.683 845.197 472.462 z"/>
</svg>