<svg version="1.1" xmlns="http://www.w3.org/2000/svg" style="display: block;" viewBox="0 0 2048 2048" width="1024" height="1024">
<path transform="translate(0,0)" fill="rgb(26,186,227)" d="M 0 0 L 2048 0 L 2048 2048 L 0 2048 L 0 0 z"/>
<path transform="translate(0,0)" fill="rgb(62,213,237)" d="M 1749.75 559.53 L 1749.32 557.132 C 1755.98 547.975 1789.77 529.664 1801.22 521.797 C 1811.58 514.671 1821.47 506.92 1831.72 499.642 C 1847.12 533.836 1869.88 564.797 1887.18 598.117 C 1875.08 605.025 1843.84 625.094 1831.51 625.203 C 1830.48 621.604 1829.96 617.886 1829.35 614.197 C 1809.53 594.894 1785.58 574.527 1763.65 557.544 L 1749.75 559.53 z"/>
<path transform="translate(0,0)" fill="rgb(14,19,44)" d="M 1270.78 1720.79 C 1277.4 1718.5 1279.14 1716.47 1282.13 1710.28 C 1290.94 1692.08 1295.68 1671.81 1303.81 1653.26 C 1307.87 1665.81 1317.67 1704.89 1323.56 1713.98 C 1325.99 1717.73 1329.35 1720.24 1333.3 1722.24 C 1349.76 1730.57 1368.42 1735.03 1385.17 1742.99 C 1366.1 1751.43 1344.51 1756.2 1326.25 1765.97 C 1315.56 1785.75 1306.46 1816.34 1298.25 1838.16 L 1297.15 1839.12 C 1296.46 1838.43 1279.57 1770.39 1277.54 1763.02 C 1256.66 1754.72 1235.81 1746.5 1215.08 1737.83 C 1233.59 1732.48 1252.78 1727.72 1270.78 1720.79 z"/>
<path transform="translate(0,0)" fill="rgb(254,254,253)" d="M 1302.46 1703.78 C 1303.33 1704.77 1303.06 1704.3 1303.58 1705.56 C 1308.5 1717.52 1312.14 1730.01 1324.98 1735.44 C 1329.56 1737.37 1334.47 1738.77 1338.51 1741.7 L 1338.66 1743.3 C 1334.59 1746.94 1328.82 1747.9 1323.81 1749.78 C 1310.27 1754.85 1306.75 1771.25 1301.2 1783.11 C 1296.92 1779.52 1293.15 1760.11 1290.15 1753.73 C 1289.89 1753.55 1289.62 1753.38 1289.36 1753.2 C 1281.16 1747.58 1271.08 1745.6 1262.48 1740.54 C 1269.44 1737.58 1276.95 1735.83 1283.72 1732.46 C 1295.45 1726.61 1298.39 1715.16 1302.46 1703.78 z"/>
<path transform="translate(0,0)" fill="rgb(62,213,237)" d="M 1887 1190.14 C 1913.36 1195.86 1939.35 1202.78 1965.77 1208.29 C 1959.83 1245.27 1949.67 1283.28 1937.19 1318.55 C 1924.37 1314.03 1911.54 1309.19 1898.53 1305.26 C 1891.35 1303.08 1866.41 1298.98 1862.19 1294.76 C 1881.3 1260.78 1887.43 1228.84 1887 1190.14 z"/>
<path transform="translate(0,0)" fill="rgb(62,213,237)" d="M 1723.72 1386.65 C 1741 1384.16 1756.36 1379.53 1772.61 1373.29 C 1782.16 1382.36 1794.44 1388.09 1805.85 1394.49 L 1860.03 1424.91 C 1868.64 1429.77 1877.99 1434.31 1886.15 1439.87 A 994.964 994.964 0 0 1 1823.22 1546.08 C 1817.89 1541.6 1806.86 1534.24 1805.14 1527.54 L 1805.75 1525.5 A 718.489 718.489 0 0 0 1823.92 1527.17 C 1805.19 1503.47 1789.09 1477.6 1771.6 1452.97 C 1755.87 1430.82 1738.4 1409.49 1723.72 1386.65 z"/>
<path transform="translate(0,0)" fill="rgb(62,213,237)" d="M 1858.72 734.621 L 1933.51 705.987 A 3011.76 3011.76 0 0 1 1969.99 825.175 C 1949.63 830.91 1807.55 866.127 1797.77 863.691 A 6637.81 6637.81 0 0 0 1872.73 789.766 C 1867.66 771.501 1863.37 753 1858.72 734.621 z"/>
<path transform="translate(0,0)" fill="rgb(62,213,237)" d="M 219.708 501.796 C 229.569 509.893 241.931 516.328 252.656 523.354 C 266.975 532.735 280.693 542.983 294.916 552.496 C 307.005 560.582 319.735 567.938 331.361 576.669 C 304.712 598.472 283.856 625.671 271.632 657.958 C 235.159 638.627 197.305 621.447 161.541 600.83 A 2273.1 2273.1 0 0 1 219.708 501.796 z"/>
<path transform="translate(0,0)" fill="rgb(62,213,237)" d="M 163.912 1190.2 C 178.275 1218.45 202.023 1240.5 232.574 1250.27 C 255.889 1257.73 279.781 1255.38 303.398 1250.65 C 302.23 1255.56 301.221 1260.6 299.857 1265.45 C 287.688 1267.65 275.402 1273.91 263.321 1277.13 C 212.786 1290.59 162.613 1305.48 111.893 1318.27 C 101.374 1289.22 86.9214 1238.9 83.5512 1208.54 C 110.615 1203.38 137.002 1195.84 163.912 1190.2 z"/>
<path transform="translate(0,0)" fill="rgb(62,213,237)" d="M 281.698 1384.03 C 292.75 1398.7 302.79 1414.13 312.97 1429.41 C 321.107 1441.63 329.874 1454.06 336.747 1467.04 C 328.942 1473.95 303.749 1485.51 293.632 1491.19 A 2263.46 2263.46 0 0 0 221.381 1534.38 C 201.394 1502.02 180.595 1470.13 165.987 1434.85 L 244.082 1400.1 C 256.516 1394.66 269.778 1390.47 281.698 1384.03 z"/>
<path transform="translate(0,0)" fill="rgb(62,213,237)" d="M 66.085 958.846 C 107.782 959.841 149.831 964.767 191.495 967.387 C 201.916 968.042 229.559 967.033 237.676 969.828 C 225.796 991.745 220.39 1014.06 223.857 1039.04 C 201.053 1047.38 185.917 1059.72 171.716 1079.38 C 154.969 1078.79 137.696 1081.09 121.018 1082.46 C 101.839 1084.04 82.6068 1085.08 63.4511 1086.92 C 62.6164 1045.41 63.3854 1000.21 66.085 958.846 z"/>
<path transform="translate(0,0)" fill="rgb(62,213,237)" d="M 442.772 1520.1 L 502.767 1519.91 C 512.868 1519.84 523.438 1519.09 533.496 1519.77 C 539.485 1520.1 547.786 1518.88 553.342 1520.39 C 543.194 1533.2 486.371 1591.59 483.417 1599.97 C 475.938 1602.63 468.457 1605.55 460.798 1607.64 L 478.715 1612.54 C 472.491 1622.33 462.56 1631.36 454.811 1640.12 C 430.327 1667.8 403.665 1694.37 381.214 1723.71 C 355.404 1696.75 328.716 1669.91 304.965 1641.11 C 323.716 1626.22 341.307 1609.86 359.112 1593.88 L 404.694 1553.48 C 415.928 1543.33 427.048 1530.7 439.073 1521.73 C 440.24 1520.86 441.41 1520.53 442.772 1520.1 z"/>
<path transform="translate(0,0)" fill="rgb(62,213,237)" d="M 113.173 717.315 C 147.588 730.477 182.694 740.918 217.575 752.639 C 231.914 757.457 245.617 764.555 260.569 767.401 C 268.933 808.146 281.065 833.508 306.749 866.08 A 3580.87 3580.87 0 0 1 254.229 876.189 C 247.754 872.024 97.4527 842.963 81.3057 841.515 A 1724.66 1724.66 0 0 1 97.8568 770.684 C 102.624 752.805 108.268 735.162 113.173 717.315 z"/>
<path transform="translate(0,0)" fill="rgb(62,213,237)" d="M 1822.96 968.43 C 1826.18 969.585 1828.66 969.979 1832.09 969.901 C 1848.65 969.523 1865.67 966.949 1882.24 965.534 A 8741.84 8741.84 0 0 1 1986.94 956.912 L 1986.94 1087.65 C 1965.76 1086.52 1944.71 1083.85 1923.56 1082.34 C 1895.01 1080.3 1865.17 1079.55 1837.02 1074.55 C 1805.21 1043.95 1776.35 1027.14 1732.47 1019.35 C 1760.09 1001.84 1793.35 981.667 1822.96 968.43 z"/>
<path transform="translate(0,0)" fill="rgb(62,213,237)" d="M 1518.24 1523.41 C 1543.8 1523.08 1569.41 1523.47 1594.98 1523.41 C 1604.96 1525.36 1726.95 1621.13 1746.55 1635.62 C 1733.53 1651.7 1718.91 1666.42 1704.69 1681.43 C 1691.75 1695.07 1679.4 1709.06 1665.08 1721.3 C 1652.95 1712.18 1642.29 1699.76 1631.44 1689.09 A 5275.95 5275.95 0 0 1 1571.73 1630.3 A 2035.87 2035.87 0 0 0 1534.47 1593.83 C 1524.66 1584.62 1514.17 1575.91 1505 1566.07 C 1510.04 1552.07 1513.75 1537.6 1518.24 1523.41 z"/>
<path transform="translate(0,0)" fill="rgb(62,213,237)" d="M 1664.48 310.936 C 1694.06 336.518 1721.06 364.332 1747.5 393.111 C 1715.8 424.744 1681.18 453.258 1648.03 483.298 L 1598.16 529.252 C 1588.68 538.132 1579.49 547.48 1569.48 555.774 C 1566.18 558.511 1562.81 561.571 1558.42 562.154 A 414.636 414.636 0 0 0 1559.14 557.29 C 1564.48 519.212 1554.32 484.677 1531.27 454.102 C 1540.33 439.885 1563.32 419.113 1575.71 405.787 C 1605.25 373.998 1633.24 341.172 1664.48 310.936 z"/>
<path transform="translate(0,0)" fill="rgb(62,213,237)" d="M 1455.24 169.073 C 1477.47 183.362 1501.32 195.332 1524.25 208.483 C 1535.83 215.126 1546.58 223.013 1557.97 229.922 L 1458.57 371.286 C 1451.47 381.452 1433.8 402.62 1429.91 413.037 C 1422.31 414.017 1414.8 415.129 1407.27 416.549 C 1395.06 388.738 1379.59 367.705 1352.65 352.732 C 1363.46 334.629 1373.18 315.905 1383.49 297.516 C 1394.84 277.288 1406.69 257.354 1417.77 236.977 C 1430.09 214.318 1441.96 191.185 1455.24 169.073 z"/>
<path transform="translate(0,0)" fill="rgb(62,213,237)" d="M 794.848 1703.27 C 804.449 1696.42 816.795 1690.98 827.219 1685.22 L 899.813 1645.19 C 900.847 1659.69 892.103 1691.97 888.902 1707.46 L 852.568 1875.48 C 849.307 1890.78 845.936 1906.04 843.128 1921.44 C 840.992 1933.14 839.528 1945.44 836.58 1956.94 C 816.005 1952.34 795.176 1947.86 774.774 1942.58 C 756.567 1937.87 738.675 1932.29 720.317 1928.12 C 738.614 1878.58 754.547 1827.9 770.574 1777.59 C 778.374 1753.1 784.94 1726.93 794.848 1703.27 z"/>
<path transform="translate(0,0)" fill="rgb(62,213,237)" d="M 390.315 311.539 L 534.414 479.539 C 554.26 502.726 573.272 526.303 592.287 550.168 C 599.77 559.559 608.651 568.641 615.107 578.716 L 591.629 581.758 C 547.422 547.095 505.29 532.892 449.449 532.182 C 447.504 531.984 444.275 532.112 442.524 531.477 C 440.03 530.573 417.185 505.357 413.194 501.418 A 2302.66 2302.66 0 0 0 342.633 435.164 C 330.3 423.989 318.229 412.119 305.099 401.897 C 325.5 374.111 364.657 335.305 390.315 311.539 z"/>
<path transform="translate(0,0)" fill="rgb(62,213,237)" d="M 1216.45 85.0425 C 1236.71 88.2137 1256.65 94.5298 1276.29 100.296 A 1848.04 1848.04 0 0 0 1336.03 117.07 C 1324.57 151.767 1311.57 185.908 1299.17 220.268 C 1284.53 260.86 1270.46 301.632 1253.76 341.458 C 1216.39 354.062 1185.34 377.78 1167.56 413.613 C 1157.15 434.589 1153.92 456.824 1153.74 480.02 C 1148.67 480.502 1143.61 481.089 1138.52 481.232 C 1139.1 475.724 1139.49 470.187 1140.85 464.808 L 1142.04 465.207 C 1141.74 468.571 1140.6 472.266 1140.66 475.552 C 1140.71 478.152 1141.12 478.574 1142.94 480.062 C 1144.21 480.1 1144.79 480.18 1146.14 479.89 C 1147.73 479.545 1150.64 478.323 1151.34 476.808 C 1153.73 471.668 1154.13 456.295 1151.69 451.138 C 1141.43 429.49 1208.42 130.15 1216.45 85.0425 z"/>
<path transform="translate(0,0)" fill="rgb(62,213,237)" d="M 1295.7 1567.75 C 1325.38 1559.28 1355.22 1551.54 1384.79 1542.68 C 1392.38 1550.8 1397.94 1560.98 1403.95 1570.29 A 3172.06 3172.06 0 0 0 1429.64 1609.32 C 1452.7 1643.46 1477.09 1676.74 1500.62 1710.55 C 1521.57 1740.64 1541.64 1772.6 1565.7 1800.3 C 1531.79 1824.7 1495.25 1850.05 1457.28 1867.75 C 1441.13 1834.18 1422.53 1801.74 1404.73 1769.02 L 1331.66 1632.84 C 1320.37 1611.58 1304.72 1589.73 1295.7 1567.75 z"/>
<path transform="translate(0,0)" fill="rgb(62,213,237)" d="M 1144.71 1611.43 C 1171.64 1605.05 1199 1596.77 1225.42 1588.46 C 1233.37 1617.36 1243.28 1647.02 1253.59 1675.17 C 1258.91 1689.7 1268.48 1705.6 1270.78 1720.79 C 1252.78 1727.72 1233.59 1732.48 1215.08 1737.83 C 1235.81 1746.5 1256.66 1754.72 1277.54 1763.02 C 1279.57 1770.39 1296.46 1838.43 1297.15 1839.12 L 1298.25 1838.16 C 1299.62 1838.14 1301.06 1838.4 1302.42 1838.54 C 1306.76 1841.89 1332.23 1912.49 1336.32 1922.85 C 1295.67 1934.32 1255.64 1946.38 1214.35 1955.51 C 1202.91 1894.24 1186.14 1834.13 1172.07 1773.45 C 1166.69 1750.22 1149.99 1662.84 1141.68 1648.23 C 1146.57 1635.79 1145.84 1624.49 1144.71 1611.43 z"/>
<path transform="translate(0,0)" fill="rgb(62,213,237)" d="M 1012.71 1582.43 C 1020.07 1583.75 1045.17 1577.59 1057.18 1578.29 C 1043.31 1589.21 1032.28 1602.19 1030.17 1620.49 A 55.362 55.362 0 0 0 1042.38 1661.8 A 60.7151 60.7151 0 0 0 1067.87 1679.91 C 1068.56 1695.62 1070.34 1711.27 1071.29 1726.96 L 1076.66 1827.9 C 1079.3 1875.87 1080.63 1924.09 1085.23 1971.91 A 1534.53 1534.53 0 0 1 965.189 1972.21 C 965.482 1946.12 967.743 1919.93 968.739 1893.84 L 976.737 1692.27 C 977.983 1661.35 981.647 1629.9 980.909 1598.98 C 989.442 1593.86 1002.93 1583.5 1012.71 1582.43 z"/>
<path transform="translate(0,0)" fill="rgb(62,213,237)" d="M 965.998 64.1868 C 1006.07 63.8845 1046.09 63.0654 1086.15 64.3045 C 1084.53 88.0237 1082.27 111.696 1080.76 135.425 C 1078.06 177.882 1076.16 220.429 1072.87 262.84 L 1067.07 335.039 C 1065.92 348.839 1063.85 362.91 1063.95 376.742 L 1021.48 437.673 C 1008.89 456.124 996.887 474.999 983.856 493.148 C 979.92 478.408 980.23 461.245 979.371 445.969 C 976.909 402.175 976.794 358.377 975.401 314.553 L 969.54 148.12 C 968.438 120.167 966.391 92.1517 965.998 64.1868 z"/>
<path transform="translate(0,0)" fill="rgb(62,213,237)" d="M 491.267 228.935 C 500.539 221.024 511.926 215.042 522.349 208.782 A 1420.46 1420.46 0 0 1 598.348 166.028 C 609.852 192.682 624.158 218.255 636.655 244.467 L 741.139 462.796 A 3638.5 3638.5 0 0 1 775.04 537.69 C 781.33 552.164 786.832 567.403 794.014 581.44 C 795.455 584.257 796.611 586.404 799.123 588.354 C 796.929 600.35 776.781 654.779 778.945 661.242 L 778.293 662.566 C 774.852 661.185 729.227 611.605 724.393 605.007 C 721.839 591.663 701.25 566.57 693.378 553.603 A 6847.28 6847.28 0 0 0 566.68 349.155 L 518.023 272.266 C 509.141 258.236 498.178 244.034 491.267 228.935 z"/>
<path transform="translate(0,0)" fill="rgb(62,213,237)" d="M 717.327 114.446 C 753.96 100.359 796.167 87.1355 834.739 80.5327 A 8200.15 8200.15 0 0 0 882.027 343.209 C 889.168 379.394 896.503 415.428 903.056 451.732 C 905.764 466.732 909.427 481.899 910.895 497.07 C 896.277 497.576 884.441 501.393 874.064 512.312 C 865.37 521.461 860.096 533.682 860.484 546.391 A 44.2749 44.2749 0 0 0 874.765 577.517 C 878.152 580.673 881.985 583.229 885.957 585.577 C 873.464 587.028 861.001 588.609 848.427 589.154 A 5792.6 5792.6 0 0 1 807.556 463.9 C 803.701 463.189 799.916 462.434 796.215 461.107 C 783.489 456.542 773.673 447.209 768.027 434.973 C 762.102 422.133 761.845 408.483 767.187 395.406 C 772.398 382.647 782.079 373.513 794.575 368.027 L 750.309 223.743 C 739.105 187.362 727.225 151.211 717.327 114.446 z"/>
<path transform="translate(0,0)" fill="rgb(14,19,44)" d="M 794.575 368.027 C 809.44 363.135 823.246 361.865 837.806 369.027 A 48.5501 48.5501 0 0 1 862.664 397.352 A 50.9502 50.9502 0 0 1 859.692 436.904 C 853.489 448.971 843.074 457.997 829.969 461.716 C 822.618 463.802 815.167 464.25 807.556 463.9 C 803.701 463.189 799.916 462.434 796.215 461.107 C 783.489 456.542 773.673 447.209 768.027 434.973 C 762.102 422.133 761.845 408.483 767.187 395.406 C 772.398 382.647 782.079 373.513 794.575 368.027 z"/>
<path transform="translate(0,0)" fill="rgb(234,56,118)" d="M 816.397 371.378 C 824.307 371.64 831.365 373.84 837.883 378.439 C 846.676 384.643 852.67 394.755 854.145 405.388 C 855.686 416.491 852.102 428.214 845.094 436.896 C 836.916 447.027 825.964 450.946 813.434 452.269 C 804.57 451.394 795.851 448.958 788.624 443.565 A 38.7184 38.7184 0 0 1 773.519 417.255 C 772.317 406.658 776.159 395.64 782.808 387.425 C 791.682 376.461 802.845 372.588 816.397 371.378 z"/>
<path transform="translate(0,0)" fill="rgb(254,254,253)" d="M 802.142 382.14 C 804.682 381.852 807.206 381.642 809.762 381.889 C 813.208 382.222 814.897 383.608 816.973 386.223 C 817.626 388.436 817.896 390.001 817.184 392.263 C 815.141 398.754 810.543 401.727 804.809 404.737 C 801.747 405.179 798.587 405.605 795.557 404.719 C 793.024 403.978 790.722 402.399 789.563 399.958 C 788.403 397.512 788.825 394.65 789.777 392.214 C 792.003 386.525 796.85 384.365 802.142 382.14 z"/>
<path transform="translate(0,0)" fill="rgb(14,19,44)" d="M 1063.95 376.742 C 1082.82 351.751 1100.17 325.404 1117.9 299.602 C 1137.71 270.78 1158.16 243.205 1173.04 211.391 A 3456.6 3456.6 0 0 0 1150.19 380.623 C 1147.09 406.554 1141.83 439.364 1140.85 464.808 C 1139.49 470.187 1139.1 475.724 1138.52 481.232 C 1143.61 481.089 1148.67 480.502 1153.74 480.02 C 1153.92 456.824 1157.15 434.589 1167.56 413.613 C 1185.34 377.78 1216.39 354.062 1253.76 341.458 C 1288.37 333.329 1321.14 335.361 1352.65 352.732 C 1379.59 367.705 1395.06 388.738 1407.27 416.549 C 1414.8 415.129 1422.31 414.017 1429.91 413.037 C 1466.89 413.176 1501.69 424.329 1528.32 451.024 A 87.8716 87.8716 0 0 1 1531.27 454.102 C 1554.32 484.677 1564.48 519.212 1559.14 557.29 A 414.636 414.636 0 0 1 1558.42 562.154 C 1556.05 570.336 1553.94 578.247 1550.9 586.245 C 1591.76 581.916 1632.75 574.882 1673.5 569.293 C 1698.82 565.818 1724.64 564.272 1749.75 559.53 L 1763.65 557.544 C 1785.58 574.527 1809.53 594.894 1829.35 614.197 C 1829.96 617.886 1830.48 621.604 1831.51 625.203 C 1839.66 661.854 1851.42 697.785 1858.72 734.621 C 1863.37 753 1867.66 771.501 1872.73 789.766 A 6637.81 6637.81 0 0 1 1797.77 863.691 C 1785.87 873.289 1774.87 884.613 1763.68 895.054 C 1749.03 908.712 1733.92 922.095 1720.03 936.519 C 1746.67 943.983 1772.72 953.018 1799.56 959.891 C 1806.61 961.695 1821.52 961.504 1826.9 965.201 C 1825.71 966.632 1824.53 967.44 1822.96 968.43 C 1793.35 981.667 1760.09 1001.84 1732.47 1019.35 C 1776.35 1027.14 1805.21 1043.95 1837.02 1074.55 C 1865.62 1107.52 1885.08 1145.66 1887 1190.14 C 1887.43 1228.84 1881.3 1260.78 1862.19 1294.76 C 1835.01 1333.4 1817.13 1353.26 1772.61 1373.29 C 1756.36 1379.53 1741 1384.16 1723.72 1386.65 C 1738.4 1409.49 1755.87 1430.82 1771.6 1452.97 C 1789.09 1477.6 1805.19 1503.47 1823.92 1527.17 A 718.489 718.489 0 0 1 1805.75 1525.5 C 1795.62 1522.43 1756.92 1523.94 1743.56 1523.87 L 1594.98 1523.41 C 1569.41 1523.47 1543.8 1523.08 1518.24 1523.41 C 1513.75 1537.6 1510.04 1552.07 1505 1566.07 C 1502.95 1572.68 1500.1 1579.07 1497.46 1585.47 A 2010.02 2010.02 0 0 1 1462.92 1519.98 C 1436.83 1527.4 1410.97 1535.53 1384.79 1542.68 C 1355.22 1551.54 1325.38 1559.28 1295.7 1567.75 A 1438.77 1438.77 0 0 1 1225.42 1588.46 C 1199 1596.77 1171.64 1605.05 1144.71 1611.43 C 1145.84 1624.49 1146.57 1635.79 1141.68 1648.23 C 1132.49 1664.92 1121.1 1675.27 1102.67 1680.66 A 57.047 57.047 0 0 1 1067.87 1679.91 A 60.7151 60.7151 0 0 1 1042.38 1661.8 A 55.362 55.362 0 0 1 1030.17 1620.49 C 1032.28 1602.19 1043.31 1589.21 1057.18 1578.29 C 1045.17 1577.59 1020.07 1583.75 1012.71 1582.43 C 1002.93 1583.5 989.442 1593.86 980.909 1598.98 A 4111.01 4111.01 0 0 0 923.565 1631.32 C 915.991 1635.65 906.574 1639.88 899.813 1645.19 L 827.219 1685.22 C 816.795 1690.98 804.449 1696.42 794.848 1703.27 C 776.031 1711.66 757.996 1723 740.041 1733.12 C 721.027 1743.84 701.519 1753.92 683.022 1765.51 C 690.239 1725.1 706.809 1685.03 715.536 1644.67 C 702.99 1654.62 609.572 1842.31 595.247 1872.18 C 559.835 1853.83 518.299 1830.51 485.699 1807.83 A 5961.5 5961.5 0 0 0 532.133 1741.95 C 540.782 1729.44 549.057 1715 559.214 1703.79 C 551.611 1686.38 548.495 1667.02 540.15 1649.7 C 529.024 1626.62 501.017 1620.31 478.715 1612.54 L 460.798 1607.64 C 468.457 1605.55 475.938 1602.63 483.417 1599.97 C 486.371 1591.59 543.194 1533.2 553.342 1520.39 C 547.786 1518.88 539.485 1520.1 533.496 1519.77 C 523.438 1519.09 512.868 1519.84 502.767 1519.91 L 442.772 1520.1 C 419.203 1520.05 395.565 1519.62 372.006 1520.35 C 361.068 1502.28 348.324 1484.79 336.747 1467.04 C 329.874 1454.06 321.107 1441.63 312.97 1429.41 C 302.79 1414.13 292.75 1398.7 281.698 1384.03 C 280.625 1382.23 280.099 1381 280.224 1378.92 C 280.925 1367.32 284.168 1354.86 286.11 1343.35 A 2582.42 2582.42 0 0 1 299.857 1265.45 C 301.221 1260.6 302.23 1255.56 303.398 1250.65 C 279.781 1255.38 255.889 1257.73 232.574 1250.27 C 202.023 1240.5 178.275 1218.45 163.912 1190.2 C 161.173 1183.18 158.674 1175.98 156.928 1168.65 C 149.267 1136.45 154.575 1107.36 171.716 1079.38 C 185.917 1059.72 201.053 1047.38 223.857 1039.04 C 220.39 1014.06 225.796 991.745 237.676 969.828 C 246.437 959.293 253.879 950.004 264.3 940.834 C 234.594 925.168 206.538 906.779 177.371 890.206 C 202.789 884.625 228.799 881.836 254.229 876.189 A 3580.87 3580.87 0 0 0 306.749 866.08 C 281.065 833.508 268.933 808.146 260.569 767.401 C 255.288 729.358 259.999 694.317 271.632 657.958 C 283.856 625.671 304.712 598.472 331.361 576.669 C 367.172 549.675 404.88 535.74 449.449 532.182 C 505.29 532.892 547.422 547.095 591.629 581.758 L 615.107 578.716 C 640.069 576.409 666.335 572.331 691.398 573.228 C 704.286 581.582 713.405 594.464 724.393 605.007 C 729.227 611.605 774.852 661.185 778.293 662.566 L 778.945 661.242 C 776.781 654.779 796.929 600.35 799.123 588.354 C 815.532 589.872 831.974 590.635 848.427 589.154 C 861.001 588.609 873.464 587.028 885.957 585.577 C 881.985 583.229 878.152 580.673 874.765 577.517 A 44.2749 44.2749 0 0 1 860.484 546.391 C 860.096 533.682 865.37 521.461 874.064 512.312 C 884.441 501.393 896.277 497.576 910.895 497.07 C 917.554 497.761 923.731 498.662 929.787 501.693 C 943.381 508.498 949.686 521.026 954.487 534.635 C 964.438 520.98 974.591 507.274 983.856 493.148 C 996.887 474.999 1008.89 456.124 1021.48 437.673 L 1063.95 376.742 z"/>
<path transform="translate(0,0)" fill="rgb(122,146,216)" d="M 1572.37 1151.9 C 1573.57 1151.88 1572.89 1151.75 1574.3 1152.7 C 1574.44 1157.52 1575.42 1167.35 1572.53 1171.19 L 1570.67 1169.56 L 1561.75 1156.25 L 1572.37 1151.9 z"/>
<path transform="translate(0,0)" fill="rgb(251,183,58)" d="M 1718.31 961.688 C 1732.72 965.336 1746.33 971.562 1760.79 975.027 A 3782.07 3782.07 0 0 1 1723.81 994.708 C 1722.96 994.537 1722.08 994.086 1721.27 993.759 C 1725.94 990.694 1731.38 990.899 1734.95 988.534 C 1737.92 986.566 1739.21 983.549 1740.28 980.292 C 1739.71 976.899 1739.6 973.592 1739.51 970.157 C 1732.53 967.405 1725.26 965.227 1718.18 962.717 L 1718.31 961.688 z"/>
<path transform="translate(0,0)" fill="rgb(251,183,58)" d="M 1477.14 1505.24 C 1485.5 1507.84 1493.43 1511.62 1501.4 1515.18 L 1496.1 1534.71 L 1495.49 1536.8 L 1494.2 1537.17 C 1486.98 1529.83 1481.76 1514.75 1477.14 1505.24 z"/>
<path transform="translate(0,0)" fill="rgb(26,186,227)" d="M 710.922 1464.9 L 723.575 1483.34 C 715.555 1493.48 711.429 1505.83 701.261 1514.33 C 703.42 1497.81 707.246 1481.15 710.922 1464.9 z"/>
<path transform="translate(0,0)" fill="rgb(26,186,227)" d="M 561.283 1697.12 C 564.323 1684.67 568.006 1672.18 572.799 1660.29 C 582.191 1636.98 595.186 1628.87 617.317 1619.51 C 612.805 1633.67 571.724 1690.14 561.283 1697.12 z"/>
<path transform="translate(0,0)" fill="rgb(102,78,152)" d="M 1599.51 1145.77 L 1640.22 1134.54 C 1638.18 1145.01 1637.21 1157.45 1638.9 1168.03 C 1624.72 1168.92 1610.58 1169.3 1596.86 1173.39 C 1596.67 1163.9 1597.79 1155.09 1599.51 1145.77 z"/>
<path transform="translate(0,0)" fill="rgb(26,186,227)" d="M 533.496 1519.77 A 393.435 393.435 0 0 1 556.253 1519.11 C 550.731 1535.87 542.607 1562.94 531.126 1576.07 C 526.919 1580.88 521.647 1584.29 515.966 1587.1 C 505.607 1592.23 494.275 1596.01 483.417 1599.97 C 486.371 1591.59 543.194 1533.2 553.342 1520.39 C 547.786 1518.88 539.485 1520.1 533.496 1519.77 z"/>
<path transform="translate(0,0)" fill="rgb(172,26,88)" d="M 1209.46 1120.26 C 1226.02 1138.33 1239.67 1159.77 1254.03 1179.62 C 1266.68 1197.09 1280.67 1214.45 1292.25 1232.63 L 1290.38 1249.84 C 1281.88 1241.49 1274.65 1229.57 1267.52 1219.97 C 1246.22 1191.31 1225.65 1162.47 1205.9 1132.74 C 1206.93 1128.5 1208.07 1124.39 1209.46 1120.26 z"/>
<path transform="translate(0,0)" fill="rgb(234,56,118)" d="M 1438.18 1375.31 C 1463.81 1376.4 1489.58 1375.94 1515.25 1376.03 L 1643.5 1376.53 C 1646.15 1379.43 1648.45 1382.68 1650.84 1385.8 C 1645.06 1389.06 1472.92 1384.53 1447.04 1386.36 C 1443.93 1382.84 1441.1 1378.98 1438.18 1375.31 z"/>
<path transform="translate(0,0)" fill="rgb(234,56,118)" d="M 949.007 1376.88 A 14531 14531 0 0 1 1141.76 1376.92 C 1147.12 1380.16 1152.09 1383.7 1157.09 1387.46 C 1135.98 1390.63 1112.04 1388.24 1090.57 1388.19 A 5586.13 5586.13 0 0 0 957.067 1389.04 C 954.214 1385.14 951.669 1380.92 949.007 1376.88 z"/>
<path transform="translate(0,0)" fill="rgb(234,56,118)" d="M 336.434 1374.8 C 395.966 1375.99 455.736 1375.18 515.292 1374.92 C 520.052 1378.55 524.382 1382.79 528.803 1386.82 C 521.975 1389.74 367.582 1388 347.738 1388.56 C 343.77 1384.18 340.148 1379.4 336.434 1374.8 z"/>
<path transform="translate(0,0)" fill="rgb(225,97,26)" d="M 280.981 920.833 C 290.547 919.306 301.247 919.669 310.972 919.167 L 373.5 916.019 L 363.443 969.746 C 350.289 962.499 337.64 954.432 324.671 946.871 C 310.051 938.348 295.021 930.293 280.981 920.833 z"/>
<path transform="translate(0,0)" fill="rgb(172,26,88)" d="M 1380.49 954.547 C 1385.84 950.11 1391.11 945.566 1396.41 941.07 C 1414.36 963.344 1430.75 987.02 1447.72 1010.05 C 1455.78 1020.99 1463.58 1032.74 1472.84 1042.67 L 1458.52 1055.71 C 1447.55 1042.9 1437.54 1029.1 1427.26 1015.74 A 6414.82 6414.82 0 0 1 1380.49 954.547 z"/>
<path transform="translate(0,0)" fill="rgb(234,56,118)" d="M 717.686 1375.97 C 788.732 1375.65 859.714 1376.8 930.773 1375.83 C 933.252 1380.09 936.08 1384.19 938.734 1388.34 C 888.747 1389.04 838.68 1388.75 788.685 1388.77 C 776.693 1388.77 736.885 1387 727.867 1389.73 C 724.09 1385.51 720.965 1380.58 717.686 1375.97 z"/>
<path transform="translate(0,0)" fill="rgb(254,254,253)" d="M 558.204 1554.66 C 560.436 1563.57 562.733 1572.43 566.743 1580.73 C 574.013 1595.78 586.121 1603.91 601.458 1609.17 C 565.742 1627.7 577.368 1617.65 559.756 1651.33 L 557.952 1651.75 C 547.808 1626.49 536.875 1618.79 513.061 1607.75 C 517.413 1605.85 521.864 1604 526.069 1601.8 C 545.96 1591.38 551.948 1574.66 558.204 1554.66 z"/>
<path transform="translate(0,0)" fill="rgb(225,97,26)" d="M 1540.18 1090.86 C 1547.74 1094.22 1558.9 1094.27 1567.18 1095.71 C 1581.9 1098.29 1596.54 1101.73 1611.16 1104.84 C 1620.06 1106.73 1629.46 1108.06 1638.11 1110.85 C 1620.33 1115.25 1602.8 1120.65 1585.12 1125.41 C 1568.59 1129.87 1551.82 1133.61 1535.45 1138.65 C 1528.74 1130.23 1522.35 1121.75 1516.22 1112.89 A 558.084 558.084 0 0 1 1540.18 1090.86 z"/>
<path transform="translate(0,0)" fill="rgb(253,215,46)" d="M 249.004 903.793 C 269.848 898.197 291.513 895.533 312.827 892.395 A 1787.62 1787.62 0 0 0 380.162 881.102 C 377.81 892.71 375.711 904.382 373.5 916.019 L 310.972 919.167 C 301.247 919.669 290.547 919.306 280.981 920.833 A 2221.66 2221.66 0 0 0 249.004 903.793 z"/>
<path transform="translate(0,0)" fill="rgb(251,183,58)" d="M 1089.92 1569.54 C 1091.17 1568.9 1092.2 1568.39 1093.55 1567.99 C 1106.25 1564.26 1121.55 1563.59 1134.68 1561.83 A 3453.11 3453.11 0 0 1 1235.16 1549.72 C 1254.5 1547.58 1275.01 1543.65 1294.41 1543.31 C 1296.42 1543.27 1297.57 1543.69 1299.3 1544.61 C 1273.09 1552.74 1246.6 1559.93 1220.36 1567.99 C 1191.85 1576.74 1163.51 1586.37 1134.85 1594.62 C 1120.67 1581.71 1109.5 1572.63 1089.92 1569.54 z"/>
<path transform="translate(0,0)" fill="rgb(251,183,58)" d="M 1581.19 1053.8 A 1187.39 1187.39 0 0 1 1680.65 1098.82 A 655.45 655.45 0 0 1 1638.11 1110.85 C 1629.46 1108.06 1620.06 1106.73 1611.16 1104.84 C 1596.54 1101.73 1581.9 1098.29 1567.18 1095.71 C 1558.9 1094.27 1547.74 1094.22 1540.18 1090.86 C 1553.62 1078.43 1566.82 1065.14 1581.19 1053.8 z"/>
<path transform="translate(0,0)" fill="rgb(172,26,88)" d="M 593.817 1100.78 C 631.834 1099.67 670.394 1095.63 708.354 1095.99 A 1033.39 1033.39 0 0 0 692.685 1168.76 C 692.612 1168.33 692.601 1167.9 692.467 1167.49 C 691.995 1166.05 601.019 1103.86 593.817 1100.78 z"/>
<path transform="translate(0,0)" fill="rgb(122,146,216)" d="M 324.875 720.512 C 327.73 730.938 330.193 741.68 336.995 750.377 C 355.998 755.825 367.705 758.779 384.582 746.095 C 389.181 742.639 393.397 738.599 398.598 736.049 C 398.855 735.923 399.117 735.808 399.376 735.688 C 396.679 758.01 392.928 780.991 387.98 802.915 A 1290.27 1290.27 0 0 1 381.854 839.42 C 367.843 832.996 355.982 820.987 347.568 808.268 C 332.265 785.133 319.165 748.521 324.875 720.512 z"/>
<path transform="translate(0,0)" fill="rgb(185,206,240)" d="M 336.995 750.377 C 355.998 755.825 367.705 758.779 384.582 746.095 C 389.181 742.639 393.397 738.599 398.598 736.049 C 398.855 735.923 399.117 735.808 399.376 735.688 C 396.679 758.01 392.928 780.991 387.98 802.915 C 387.602 802.815 387.208 802.764 386.846 802.614 C 365.907 793.964 346.355 770.315 336.995 750.377 z"/>
<path transform="translate(0,0)" fill="rgb(251,183,58)" d="M 903.147 506.193 C 911.312 505.849 918.337 505.657 925.877 509.475 C 934.671 513.928 940.882 522.369 943.621 531.729 C 946.386 541.179 945.653 551.507 940.852 560.185 C 934.805 571.116 925.564 574.983 914.211 578.278 C 904.934 579.492 896.328 579.065 888.019 574.217 C 879.64 569.329 873.981 560.904 871.77 551.541 A 37.2252 37.2252 0 0 1 877.264 522.127 C 883.602 512.817 892.403 508.381 903.147 506.193 z"/>
<path transform="translate(0,0)" fill="rgb(254,254,253)" d="M 892.867 519.212 C 896.587 519.412 899.856 519.286 903.116 521.246 C 904.739 523.437 905.424 523.964 904.936 526.846 C 904.01 532.313 897.004 536.235 892.768 538.899 C 891.247 539.104 889.002 539.517 887.523 539.211 C 884.807 538.648 884.097 537.541 882.45 535.539 C 881.69 532.25 881.855 529.904 883.42 526.936 C 885.688 522.633 888.328 520.694 892.867 519.212 z"/>
<path transform="translate(0,0)" fill="rgb(62,213,237)" d="M 563.456 1519.2 L 663.637 1518.84 A 1085.11 1085.11 0 0 1 608.96 1593.86 C 605.639 1592.53 602.311 1591.18 599.135 1589.53 C 576.896 1577.97 570.287 1541.56 563.456 1519.2 z"/>
<path transform="translate(0,0)" fill="rgb(172,26,88)" d="M 757.891 690.289 A 187.449 187.449 0 0 0 778.697 711.932 C 772.207 742.22 767.694 773.326 762.66 803.904 C 757.827 833.265 752.38 862.586 748.205 892.043 L 723.755 893.03 C 726.552 867.458 732.395 842.59 737.048 817.334 A 2616.81 2616.81 0 0 0 757.891 690.289 z"/>
<path transform="translate(0,0)" fill="rgb(251,183,58)" d="M 1403.73 1430.47 L 1455.74 1500.78 C 1414.62 1511.28 1373.93 1523.54 1332.98 1534.71 C 1346.88 1509.64 1384.12 1449.37 1403.73 1430.47 z"/>
<path transform="translate(0,0)" fill="rgb(236,153,66)" d="M 1692.15 952.804 C 1700.88 955.626 1709.83 958.183 1718.31 961.688 L 1718.18 962.717 C 1725.26 965.227 1732.53 967.405 1739.51 970.157 C 1739.6 973.592 1739.71 976.899 1740.28 980.292 C 1739.21 983.549 1737.92 986.566 1734.95 988.534 C 1731.38 990.899 1725.94 990.694 1721.27 993.759 C 1722.08 994.086 1722.96 994.537 1723.81 994.708 C 1694.08 1012.45 1665.63 1032.45 1636.45 1051.12 C 1624.61 1045.51 1612.82 1039.82 1600.65 1034.95 C 1631.6 1008.07 1659.85 978.147 1692.15 952.804 z"/>
<path transform="translate(0,0)" fill="rgb(253,215,46)" d="M 1079.74 1581.18 C 1090.73 1580.05 1100.41 1580.7 1110.12 1586.53 A 45.5997 45.5997 0 0 1 1130.64 1614.21 C 1133.43 1625.45 1131.21 1637.74 1125.11 1647.54 C 1118.11 1658.8 1107.89 1664.19 1095.32 1666.98 C 1085.59 1667.42 1077.09 1667.05 1068.12 1662.59 A 44.4214 44.4214 0 0 1 1045.76 1636.49 C 1042.32 1625.96 1042.99 1615 1048.05 1605.11 C 1054.83 1591.85 1066.05 1585.42 1079.74 1581.18 z"/>
<path transform="translate(0,0)" fill="rgb(122,146,216)" d="M 311.317 968.861 C 324.275 976.803 338.189 984.645 349.564 994.782 C 342.587 1031.36 336.92 1068.13 330.055 1104.71 C 324.783 1132.8 317.696 1161.6 314.69 1190.02 C 293.582 1199.92 272.363 1206.02 249.492 1197.6 C 234.477 1192.08 222.621 1181.64 215.979 1166.93 C 214.252 1163.11 213.033 1159.28 212.172 1155.17 L 214.448 1157.61 C 222.433 1166.12 233.651 1171.57 245.407 1171.75 C 258.98 1171.95 274.201 1166.6 283.932 1157.1 C 290.006 1151.18 294.143 1143.8 296.957 1135.86 C 302.671 1119.73 304.128 1101.79 307.281 1084.98 C 311.643 1061.73 319.128 1037.74 319.008 1013.95 C 311.347 1002.41 297.658 995.732 285.177 990.663 C 292.751 981.549 301.659 975.519 311.317 968.861 z"/>
<path transform="translate(0,0)" fill="rgb(254,254,253)" d="M 324.875 720.512 C 327.278 686.548 342.898 656.416 368.504 634.002 C 384.578 619.932 402.478 611.576 422.666 605.145 A 6157.23 6157.23 0 0 1 406.39 695.594 C 404.097 708.354 403.212 723.451 399.376 735.688 C 399.117 735.808 398.855 735.923 398.598 736.049 C 393.397 738.599 389.181 742.639 384.582 746.095 C 367.705 758.779 355.998 755.825 336.995 750.377 C 330.193 741.68 327.73 730.938 324.875 720.512 z"/>
<path transform="translate(0,0)" fill="rgb(14,19,44)" d="M 393.913 649.328 C 396.153 650.994 398.513 652.495 399.868 655.002 C 401.12 657.318 403.591 660.891 404.225 663.264 C 404.873 665.692 403.885 666.069 402.622 667.867 L 398.934 667.675 C 395.319 672.039 393.317 680.405 391.023 685.79 C 389.712 680.014 392.943 670.326 390.219 665.852 C 388.071 666.385 386.25 666.842 384.019 666.849 L 383.641 665.099 C 386.463 663.406 389.916 661.496 392.14 659.048 C 394.415 656.545 393.904 652.509 393.913 649.328 z"/>
<path transform="translate(0,0)" fill="rgb(254,254,253)" d="M 1697.38 1040.91 C 1734.03 1040.82 1767.64 1049.14 1797.25 1071.69 A 169.698 169.698 0 0 1 1861.33 1182.89 A 162.321 162.321 0 0 1 1828.55 1301.39 C 1808.02 1327.5 1777.12 1348.96 1744.81 1357.31 C 1732.04 1360.6 1718.95 1361.88 1705.88 1363.38 C 1700.87 1358.1 1696.58 1352.49 1692.35 1346.57 L 1692.54 1345.16 C 1712.22 1343.42 1730.38 1342.52 1749.17 1335.48 C 1785.74 1321.78 1813.73 1296.21 1829.66 1260.48 C 1844.85 1226.41 1842.68 1187.69 1829.38 1153.34 C 1810.74 1105.18 1763.92 1068.29 1711.34 1066.86 C 1692.56 1066.35 1679.65 1073.12 1661.26 1064.92 C 1671.58 1055.77 1685.41 1047.8 1697.38 1040.91 z"/>
<path transform="translate(0,0)" fill="rgb(254,254,253)" d="M 457.287 557.425 C 490.522 556.171 521.828 567.754 550.486 583.45 C 536.946 585.271 522.195 588.479 508.521 587.776 C 498.245 587.248 487.869 584.591 477.636 583.294 C 440.637 578.604 396.706 590.693 367.306 613.577 C 335.324 638.47 312.173 673.963 307.421 714.723 C 303.163 751.251 311.051 793.171 334.152 822.56 C 345.076 835.967 356.929 846.854 370.524 857.449 A 238.104 238.104 0 0 0 338.19 863.914 C 305.583 831.82 286.021 792.913 282.53 747.049 C 279.032 701.101 293.562 653.722 324.004 618.859 C 359.061 578.711 405.061 560.963 457.287 557.425 z"/>
<path transform="translate(0,0)" fill="rgb(234,56,118)" d="M 1306.64 598.535 C 1319.15 608.859 1329.35 625.364 1339.51 638.13 C 1354.99 657.576 1370.65 676.808 1387.34 695.241 C 1355.38 724.667 1324.68 755.479 1292.8 785.02 A 1510.51 1510.51 0 0 0 1251.27 826.44 C 1256.42 795.586 1265.35 765.126 1272.9 734.799 L 1306.64 598.535 z"/>
<path transform="translate(0,0)" fill="rgb(225,97,26)" d="M 772.996 1520.09 L 956.043 1519.4 C 999.478 1519.29 1043.24 1520.39 1086.55 1516.7 C 1062.72 1530.04 1038.51 1542.69 1014.75 1556.15 C 998.34 1565.44 981.905 1576.31 964.816 1584.24 C 957.603 1580.51 900.519 1574.43 887.252 1572.59 C 846.146 1566.91 804.508 1561.75 763.668 1554.49 C 767.145 1543.1 770.114 1531.64 772.996 1520.09 z"/>
<path transform="translate(0,0)" fill="rgb(172,26,88)" d="M 1650.84 1385.8 C 1668.48 1407.12 1685.72 1429.97 1701.02 1453.02 L 1497.99 1453.16 C 1480.43 1431.37 1464.03 1408.6 1447.04 1386.36 C 1472.92 1384.53 1645.06 1389.06 1650.84 1385.8 z"/>
<path transform="translate(0,0)" fill="rgb(172,26,88)" d="M 528.803 1386.82 C 557.437 1409.63 584.072 1434.95 612.64 1457.96 C 590.138 1454.8 558.525 1457.02 535.223 1457.1 A 10387.6 10387.6 0 0 0 393.556 1457.78 L 366.274 1416.96 C 360.004 1407.76 352.873 1398.45 347.738 1388.56 C 367.582 1388 521.975 1389.74 528.803 1386.82 z"/>
<path transform="translate(0,0)" fill="rgb(251,183,58)" d="M 1129.47 331.707 C 1131.27 340.115 1115.85 469.084 1113.71 488.088 C 1106.51 490.674 1099.52 494.143 1092.95 498.057 C 1061.57 516.758 1046.31 543.465 1037.68 578.122 C 1019.15 572.481 958.591 580.433 936.868 583.363 L 935.107 582.384 L 935.721 581.07 C 944.25 575.747 952.538 573.377 962.366 571.517 L 1070.21 415.92 C 1089.86 387.91 1111.14 360.562 1129.47 331.707 z"/>
<path transform="translate(0,0)" fill="rgb(172,26,88)" d="M 938.734 1388.34 C 946.443 1397.15 952.777 1407.64 959.571 1417.19 C 969.148 1430.64 979.461 1443.96 988.196 1457.95 C 916.327 1458.14 844.338 1457.4 772.484 1458.53 A 2515.39 2515.39 0 0 0 727.867 1389.73 C 736.885 1387 776.693 1388.77 788.685 1388.77 C 838.68 1388.75 888.747 1389.04 938.734 1388.34 z"/>
<path transform="translate(0,0)" fill="rgb(172,26,88)" d="M 1157.09 1387.46 C 1177.59 1400.53 1196.45 1418.36 1214.9 1434.24 C 1223.71 1441.82 1232.5 1450.02 1242.49 1456.05 A 19248.3 19248.3 0 0 0 1005.37 1457.91 C 993.972 1444.23 963.946 1404.24 957.067 1389.04 A 5586.13 5586.13 0 0 1 1090.57 1388.19 C 1112.04 1388.24 1135.98 1390.63 1157.09 1387.46 z"/>
<path transform="translate(0,0)" fill="rgb(122,146,216)" d="M 1799.52 1132.79 C 1816.89 1149.74 1824.67 1183.7 1824.82 1207.16 A 120.129 120.129 0 0 1 1790.39 1291.31 A 130.002 130.002 0 0 1 1697.5 1329.06 C 1691.45 1329.03 1685.65 1328.6 1679.7 1327.52 C 1666.18 1310.89 1653.56 1293.51 1640.48 1276.53 C 1630.6 1263.72 1609.57 1240.27 1603.9 1226.28 C 1598.01 1211.73 1596.94 1189.05 1596.86 1173.39 C 1610.58 1169.3 1624.72 1168.92 1638.9 1168.03 C 1639.91 1173.23 1641 1178.38 1642.46 1183.48 C 1650 1209.74 1665.26 1233.74 1689.66 1247.11 C 1710.38 1258.47 1738.88 1263.54 1761.84 1256.74 A 68.3925 68.3925 0 0 0 1802.24 1223.46 C 1817.01 1195.12 1808.79 1161.44 1799.52 1132.79 z"/>
<path transform="translate(0,0)" fill="rgb(254,254,253)" d="M 253.7 1059.74 C 251.452 1048.36 248.999 1037.26 248.876 1025.59 C 248.638 1003.16 256.168 982.422 272.205 966.5 C 276.352 962.383 284.256 955.118 290.459 955.659 C 291.819 955.777 291.515 955.932 292.31 957.136 C 292.009 962.739 274.94 978.027 270.299 985.585 C 256.036 1008.82 257.022 1034.65 262.948 1060.28 C 270.656 1062.4 278.201 1064 286.107 1065.17 C 280.937 1058.73 276.878 1051.38 274.724 1043.38 C 269.653 1024.55 275.552 1006.81 285.177 990.663 C 297.658 995.732 311.347 1002.41 319.008 1013.95 C 319.128 1037.74 311.643 1061.73 307.281 1084.98 C 304.128 1101.79 302.671 1119.73 296.957 1135.86 C 294.143 1143.8 290.006 1151.18 283.932 1157.1 C 274.201 1166.6 258.98 1171.95 245.407 1171.75 C 233.651 1171.57 222.433 1166.12 214.448 1157.61 L 212.172 1155.17 C 210.867 1145.02 210.215 1135.84 212.728 1125.82 C 218.302 1103.59 234.507 1090.28 253.481 1079.11 C 246.821 1080.43 239.914 1081.67 233.516 1083.97 A 54.605 54.605 0 0 0 201.656 1113.38 C 194.171 1129.95 194.077 1150.28 200.713 1167.13 A 77.7276 77.7276 0 0 0 241.855 1209.33 C 264.826 1219.3 288.646 1217.12 311.467 1208.28 C 310.892 1212.4 310.009 1216.48 309.227 1220.57 C 300.49 1225.02 291.737 1228.11 281.996 1229.46 A 91.8576 91.8576 0 0 1 212.396 1211.37 C 193.853 1196.98 181.169 1174.46 178.279 1151.18 C 175.482 1128.66 182.616 1106.25 196.667 1088.57 C 212.043 1069.23 229.787 1062.47 253.7 1059.74 z"/>
<path transform="translate(0,0)" fill="rgb(225,97,26)" d="M 1339.16 1341.9 C 1348.8 1353.59 1357.03 1367.21 1365.89 1379.55 C 1378.22 1396.74 1391.39 1413.3 1403.73 1430.47 C 1384.12 1449.37 1346.88 1509.64 1332.98 1534.71 C 1321.91 1537.75 1310.47 1542.39 1299.3 1544.61 C 1297.57 1543.69 1296.42 1543.27 1294.41 1543.31 C 1275.01 1543.65 1254.5 1547.58 1235.16 1549.72 A 3453.11 3453.11 0 0 0 1134.68 1561.83 C 1121.55 1563.59 1106.25 1564.26 1093.55 1567.99 C 1092.2 1568.39 1091.17 1568.9 1089.92 1569.54 C 1078.29 1571.2 1067.99 1573.7 1057.18 1578.29 C 1045.17 1577.59 1020.07 1583.75 1012.71 1582.43 C 1024.46 1573.59 1039.28 1567.09 1052.17 1559.92 A 2261.5 2261.5 0 0 0 1125.33 1518.13 C 1150.08 1519.83 1175.37 1518.52 1200.17 1518.16 L 1320.78 1516.04 C 1322.9 1502.54 1323.67 1488.61 1325.05 1475 L 1333.54 1395.99 C 1335.37 1378.01 1336.35 1359.75 1339.16 1341.9 z"/>
<path transform="translate(0,0)" fill="rgb(251,183,58)" d="M 763.668 1554.49 C 804.508 1561.75 846.146 1566.91 887.252 1572.59 C 900.519 1574.43 957.603 1580.51 964.816 1584.24 C 909.939 1616.56 853.369 1646.85 797.37 1677.23 C 770.708 1691.69 744.179 1708.73 716.425 1720.87 C 730.603 1665.08 749.887 1610.36 763.668 1554.49 z"/>
<path transform="translate(0,0)" fill="rgb(209,56,31)" d="M 805.178 1601.02 C 808.784 1600.76 814.178 1600.63 817.078 1603.3 C 818.725 1604.81 819.605 1606.38 819.395 1608.67 C 818.216 1621.49 780.369 1648.36 769.583 1657.71 L 759.439 1665.98 A 2489.07 2489.07 0 0 0 787.507 1625.37 C 793.077 1617.21 798.285 1608.13 805.178 1601.02 z"/>
<path transform="translate(0,0)" fill="rgb(254,254,253)" d="M 1697.95 1081.03 A 123.093 123.093 0 0 1 1784.5 1114.97 A 121.052 121.052 0 0 1 1799.52 1132.79 C 1808.79 1161.44 1817.01 1195.12 1802.24 1223.46 A 68.3925 68.3925 0 0 1 1761.84 1256.74 C 1738.88 1263.54 1710.38 1258.47 1689.66 1247.11 C 1665.26 1233.74 1650 1209.74 1642.46 1183.48 C 1641 1178.38 1639.91 1173.23 1638.9 1168.03 C 1637.21 1157.45 1638.18 1145.01 1640.22 1134.54 L 1653.14 1130.62 C 1672.96 1124.72 1693.01 1119.93 1712.97 1114.58 C 1724.41 1111.51 1735.74 1107.77 1747.27 1105.09 C 1731.21 1096.3 1714.19 1089.48 1697.95 1081.03 z"/>
<path transform="translate(0,0)" fill="rgb(14,19,44)" d="M 1748.15 1167.1 C 1750.42 1167.24 1752.81 1167.44 1755.02 1168 C 1758.65 1168.92 1762.05 1171.91 1763.65 1175.25 C 1765.33 1178.75 1765.28 1182.79 1763.78 1186.34 C 1761.47 1191.77 1757.47 1194.2 1752.21 1196.3 C 1749.66 1196.2 1746.87 1196.01 1744.46 1195.1 A 14.811 14.811 0 0 1 1736.1 1187.23 A 12.8672 12.8672 0 0 1 1736.27 1176.39 C 1738.69 1171.29 1743.05 1168.89 1748.15 1167.1 z"/>
<path transform="translate(0,0)" fill="rgb(14,19,44)" d="M 1697.93 1198.18 C 1700.77 1198.03 1703.98 1197.71 1706.77 1198.4 C 1711.15 1199.49 1715.13 1202.98 1717.22 1206.92 A 16.1326 16.1326 0 0 1 1718.12 1219.8 C 1715.92 1225.86 1711.55 1228.52 1705.89 1230.94 C 1703.82 1231 1701.73 1231.04 1699.69 1230.62 C 1694.54 1229.56 1690.06 1226.53 1687.46 1221.9 A 15.6031 15.6031 0 0 1 1686.32 1209.08 C 1688.46 1203.1 1692.43 1200.8 1697.93 1198.18 z"/>
<path transform="translate(0,0)" fill="rgb(122,146,216)" d="M 1640.22 1134.54 L 1653.14 1130.62 C 1653.55 1130.82 1653.96 1131.02 1654.37 1131.21 C 1660.21 1133.91 1667.35 1131.25 1671.33 1137.3 C 1672.21 1144.8 1667.71 1152.45 1663.25 1158.18 C 1657.23 1165.91 1647.93 1166.32 1638.9 1168.03 C 1637.21 1157.45 1638.18 1145.01 1640.22 1134.54 z"/>
<path transform="translate(0,0)" fill="rgb(234,56,118)" d="M 1205.9 1132.74 C 1225.65 1162.47 1246.22 1191.31 1267.52 1219.97 C 1274.65 1229.57 1281.88 1241.49 1290.38 1249.84 C 1285.89 1270.68 1284.14 1292.39 1281.15 1313.5 C 1274.87 1357.78 1268.54 1401.62 1263.77 1446.1 C 1244.04 1429.7 1225.16 1412.29 1205.78 1395.48 C 1192.85 1384.26 1179.4 1373.68 1166.56 1362.36 C 1169.66 1330.93 1177.06 1299.14 1182.26 1267.97 C 1189.76 1222.98 1195.7 1177.17 1205.9 1132.74 z"/>
<path transform="translate(0,0)" fill="rgb(234,56,118)" d="M 680.519 605.388 C 703.816 636.128 733.349 660.843 757.891 690.289 A 2616.81 2616.81 0 0 1 737.048 817.334 C 732.395 842.59 726.552 867.458 723.755 893.03 C 694.779 896.904 659.552 896.453 629.883 897.696 A 6544.74 6544.74 0 0 1 651.958 767.963 C 662.088 713.799 672.987 659.997 680.519 605.388 z"/>
<path transform="translate(0,0)" fill="rgb(234,56,118)" d="M 538.416 1359.83 C 542.072 1346.4 543.681 1331.78 546.435 1318.09 L 572.511 1192.41 C 578.209 1164.21 582.696 1134.72 590.428 1107.06 C 591.168 1104.41 591.622 1102.6 593.817 1100.78 C 601.019 1103.86 691.995 1166.05 692.467 1167.49 C 692.601 1167.9 692.612 1168.33 692.685 1168.76 C 674.979 1261.61 654.986 1354.08 636.438 1446.77 L 538.416 1359.83 z"/>
<path transform="translate(0,0)" fill="rgb(62,213,237)" d="M 723.575 1483.34 A 1232.94 1232.94 0 0 0 750.32 1524.55 A 4757.35 4757.35 0 0 1 725.651 1610.72 C 722.379 1621.71 719.929 1634.2 715.536 1644.67 C 702.99 1654.62 609.572 1842.31 595.247 1872.18 C 559.835 1853.83 518.299 1830.51 485.699 1807.83 A 5961.5 5961.5 0 0 0 532.133 1741.95 C 540.782 1729.44 549.057 1715 559.214 1703.79 L 561.283 1697.12 C 571.724 1690.14 612.805 1633.67 617.317 1619.51 C 625.669 1614.95 636.133 1612.07 645.13 1608.76 L 637.769 1605.81 C 627.963 1602.52 618.455 1597.96 608.96 1593.86 A 1085.11 1085.11 0 0 0 663.637 1518.84 C 674.559 1518.79 685.517 1518.54 696.432 1518.99 C 699.542 1517.44 699.711 1517.41 701.261 1514.33 C 711.429 1505.83 715.555 1493.48 723.575 1483.34 z"/>
<path transform="translate(0,0)" fill="rgb(26,186,227)" d="M 663.637 1518.84 C 674.559 1518.79 685.517 1518.54 696.432 1518.99 C 683.256 1538.73 669.361 1558.03 656.004 1577.66 C 649.794 1586.79 642.762 1595.97 637.769 1605.81 C 627.963 1602.52 618.455 1597.96 608.96 1593.86 A 1085.11 1085.11 0 0 0 663.637 1518.84 z"/>
<path transform="translate(0,0)" fill="rgb(234,56,118)" d="M 1396.41 941.07 A 19209.5 19209.5 0 0 1 1645.7 708.7 C 1665.35 690.465 1685.17 672.355 1704.62 653.906 C 1721.53 637.851 1738.89 618.932 1758.39 606.191 C 1763.77 634.694 1770.8 662.773 1777.42 690.998 C 1781.88 710.05 1785.28 729.656 1791.97 748.094 L 1641.61 886.524 C 1585.6 938.733 1529.99 991.711 1472.84 1042.67 C 1463.58 1032.74 1455.78 1020.99 1447.72 1010.05 C 1430.75 987.02 1414.36 963.344 1396.41 941.07 z"/>
<path transform="translate(0,0)" fill="rgb(254,254,253)" d="M 1191.99 505.385 C 1183.99 498.269 1181.5 490.562 1180.93 479.96 C 1179.31 450.213 1189.04 422.301 1209.05 400.245 C 1228.93 378.349 1254.8 365.951 1284.37 364.794 C 1311.46 363.735 1336.65 371.282 1356.57 390.089 C 1375.45 407.905 1384.16 430.333 1388.45 455.41 C 1411.27 442.156 1436.57 436.858 1462.47 443.731 C 1486.97 450.235 1506.55 466.049 1519.09 487.939 C 1532.97 512.175 1535.6 538.834 1528.21 565.639 C 1525.69 574.787 1522.29 583.741 1518.86 592.58 C 1511.74 593.179 1503.23 594.761 1496.26 593.265 C 1501.33 588.706 1505.12 582.309 1508.02 576.173 C 1517.13 556.877 1519.21 532.054 1511.65 511.955 A 80.855 80.855 0 0 0 1468.44 466.794 C 1441.3 454.945 1417.9 459.909 1391.31 470.404 C 1405.14 469.26 1419.81 467.242 1433.6 469.419 A 76.336 76.336 0 0 1 1483.22 500.394 C 1496.17 518.336 1502.64 542.517 1500.46 564.54 C 1499.5 574.17 1496.95 583.661 1495.36 593.213 C 1492.66 594.884 1491.73 594.723 1488.63 594.803 C 1475.36 600.438 1443.44 635.077 1431.02 647.572 C 1417.17 642.476 1401.57 641.254 1387.15 638.076 C 1381.58 632.283 1376.73 625.562 1371.58 619.385 C 1354.23 598.609 1337.09 576.415 1318.41 556.878 C 1310.68 557.481 1302.93 556.74 1295.22 557.617 C 1275.15 560.222 1254.76 560.805 1234.6 562.591 C 1189.74 566.564 1144.69 570.644 1099.67 572.215 C 1112.8 548.764 1131.36 533.562 1157.31 526.18 C 1164.38 524.168 1171.7 522.815 1178.9 521.348 C 1152.86 520.375 1127.09 523.24 1107.18 541.852 C 1097.29 551.098 1091.06 562.689 1085.46 574.848 L 1065.91 575.639 C 1072.62 550.383 1087.4 530.245 1110.3 517.173 C 1135.13 503.001 1164.23 501.796 1191.99 505.385 z"/>
<path transform="translate(0,0)" fill="rgb(14,19,44)" d="M 1437.04 498.999 C 1444.95 499.93 1451.78 502.421 1458.43 506.889 C 1470.19 514.781 1479.67 527.577 1482.18 541.613 C 1476.8 539.574 1466.22 523.841 1461.26 518.763 C 1453.83 511.141 1445.84 504.966 1437.04 498.999 z"/>
<path transform="translate(0,0)" fill="rgb(14,19,44)" d="M 1279.57 382.337 C 1284.53 381.763 1289.74 381.851 1294.72 382.254 C 1317.87 384.127 1338.86 395.728 1353.76 413.367 C 1365.21 426.918 1379.93 455.146 1378.3 473.185 C 1377.42 471.391 1377.5 471.869 1377.18 470.364 A 86.937 86.937 0 0 0 1370.25 449.812 C 1360.14 428.496 1338.79 407.983 1316.36 400.222 C 1295.59 393.037 1275.78 396.395 1256.45 405.855 A 122.212 122.212 0 0 0 1253.99 407.282 C 1238.1 416.783 1226.71 430.678 1222.35 448.852 C 1215.71 476.579 1225.92 498.285 1240.25 521.266 L 1238.86 520.242 C 1223.18 508.501 1212.34 491.709 1209.6 472.189 C 1206.55 450.549 1213.22 428.035 1226.43 410.76 C 1239.81 393.266 1258.22 385.219 1279.57 382.337 z"/>
<path transform="translate(0,0)" fill="rgb(160,161,175)" d="M 1261.46 537.026 C 1318.82 550.798 1376.82 563.306 1433.7 578.932 C 1451.64 583.86 1471.43 587.961 1488.63 594.803 C 1475.36 600.438 1443.44 635.077 1431.02 647.572 C 1417.17 642.476 1401.57 641.254 1387.15 638.076 C 1381.58 632.283 1376.73 625.562 1371.58 619.385 C 1354.23 598.609 1337.09 576.415 1318.41 556.878 C 1310.68 557.481 1302.93 556.74 1295.22 557.617 C 1283.2 549.065 1272.55 549.033 1261.46 537.026 z"/>
<path transform="translate(0,0)" fill="rgb(254,254,253)" d="M 1720.94 594.537 L 1721.46 595.281 L 1718.11 598.871 L 1719.36 599.655 C 1718.74 599.631 1718.07 599.364 1717.49 599.583 C 1713.94 600.906 1658.18 653.723 1648.61 662.517 L 1427.97 863.47 C 1397.25 891.556 1367.79 921.093 1336.35 948.393 C 1349.04 962.922 1360.38 979.043 1372.06 994.417 C 1399.95 1031.1 1426.8 1068.5 1454.35 1105.41 A 13416 13416 0 0 1 1573.21 1265.41 C 1590.89 1289.44 1609.27 1313.03 1626.15 1337.63 C 1600.78 1338.77 1575.05 1337.96 1549.65 1337.85 L 1416.43 1337.1 C 1400.5 1314.36 1382.09 1292.7 1365.03 1270.74 L 1275.99 1154.93 C 1256.08 1129.16 1235.27 1103.76 1216.37 1077.25 C 1204.1 1088.11 1191.45 1098.52 1179.48 1109.73 C 1166.78 1185.95 1155.78 1262.46 1142.45 1338.58 L 1129.3 1338.19 L 951.676 1338.25 C 954.821 1298.4 963.027 1258.66 969.632 1219.26 L 998.905 1040.09 L 1044.88 761.565 C 1053.04 712.503 1059.39 659.339 1070.46 611.297 C 1090.22 607.842 1118.53 607.845 1139.41 606.359 L 1274.92 595.853 C 1267.26 635.764 1255.23 675.329 1245.21 714.742 A 7601.69 7601.69 0 0 0 1200.96 899.644 L 1380.34 734.003 C 1408.78 707.912 1436.87 681.682 1464.67 654.904 C 1476.05 643.946 1488.61 633.622 1498.96 621.719 L 1649.72 603.751 C 1673.45 600.859 1697.13 596.648 1720.94 594.537 z"/>
<path transform="translate(0,0)" fill="rgb(251,183,58)" d="M 1244.68 611.596 C 1248.96 611.137 1253.29 611.013 1257.58 610.779 L 1177.79 938.265 C 1197.4 925.599 1215.13 905.896 1232.13 889.894 L 1302.76 824.386 L 1425.97 709.161 C 1452.57 684.486 1479.88 660.499 1505.74 635.041 C 1539.61 629.72 1574.24 626.885 1608.36 623.47 C 1631.43 621.161 1654.59 617.92 1677.74 616.645 C 1630.16 655.396 1587.64 699.602 1542.35 740.879 A 11365.3 11365.3 0 0 0 1401.41 870.502 C 1373.75 896.085 1345.25 921.318 1318.62 947.95 C 1342.07 972.928 1361.42 1002.67 1382.05 1029.97 A 9020.01 9020.01 0 0 1 1510.64 1203.49 C 1539.04 1245.4 1571.78 1284.33 1601.2 1325.51 L 1424.87 1324.65 C 1402.48 1297.87 1381.53 1270.12 1360.19 1242.53 A 10597.7 10597.7 0 0 0 1218.44 1060.52 C 1201.02 1073.36 1184.57 1089.19 1168.35 1103.58 C 1162.69 1124.31 1159.68 1154.56 1156.18 1176.3 A 10675.5 10675.5 0 0 0 1132.58 1325.63 C 1112.04 1324.72 1091.26 1325.24 1070.69 1325.28 L 964.856 1325.67 C 971.601 1296.44 975.006 1265.58 979.887 1235.91 A 14586.2 14586.2 0 0 0 1009.12 1058.94 L 1052.68 793.029 C 1061.97 737.143 1072.5 681.298 1080.4 625.208 C 1135.06 619.498 1190 616.904 1244.68 611.596 z"/>
<path transform="translate(0,0)" fill="rgb(254,254,253)" d="M 825.024 622.128 L 913.616 615.526 C 946.877 612.766 980.22 609.349 1013.56 607.769 C 1011.27 630.712 1005.89 654.063 1002.01 676.831 L 979.899 808.611 L 925.675 1138.18 C 914.839 1204.42 902.927 1270.7 893.826 1337.2 C 875.12 1338.42 856.209 1337.99 837.466 1337.97 L 753.75 1337.86 A 2327.01 2327.01 0 0 1 697.622 1337.01 C 699.298 1321.45 702.594 1305.92 705.418 1290.53 L 720.312 1210.81 C 729.316 1162.34 736.388 1113.36 746.338 1065.09 C 727.101 1066.73 707.553 1067.02 688.257 1067.81 A 8887.96 8887.96 0 0 0 567.816 1073.08 C 563.915 1102.86 556.695 1132.36 550.814 1161.8 L 515.363 1337.94 L 395.037 1338.23 C 372.361 1338.31 349.581 1339.18 326.921 1338.45 C 336.081 1293.79 343.693 1248.6 351.823 1203.73 A 13332.8 13332.8 0 0 0 384.797 1021.48 A 17557.1 17557.1 0 0 0 453.592 624.151 C 515.806 619.602 577.842 613.28 640.028 608.584 C 644.519 608.223 649.056 608.109 653.558 607.882 C 647.981 628.21 645.671 649.864 642.114 670.637 L 625.627 762.541 L 606.815 868.946 C 603.194 889.155 598.722 909.507 596.385 929.885 C 655.764 925.667 715.259 923.415 774.66 919.61 C 775.277 906.753 778.424 893.457 780.647 880.76 A 5401.5 5401.5 0 0 0 791.28 818.665 A 11722.1 11722.1 0 0 1 812.39 693.17 C 816.438 669.503 819.945 645.587 825.024 622.128 z"/>
<path transform="translate(0,0)" fill="rgb(236,153,66)" d="M 834.45 635.17 C 888.916 634.24 943.372 623.597 997.755 622.423 C 991.592 654.913 986.824 687.833 981.511 720.48 L 957.379 867.003 L 881.143 1325.39 C 840.355 1323.74 799.01 1325.23 758.152 1325.35 L 711.993 1325.32 A 10038.7 10038.7 0 0 0 739.808 1172.1 C 747.122 1131.83 755.053 1091.77 761.582 1051.35 C 694.021 1054.5 625.716 1053.4 558.384 1059.91 A 13213 13213 0 0 1 504.459 1325.56 L 344.159 1325.79 A 25595.6 25595.6 0 0 0 423.657 880.091 L 450.568 725.121 C 455.621 696.265 462.188 667.049 465.383 637.936 C 521.709 632.104 578.549 626.083 635.049 622.593 L 635.343 622.813 C 637.134 627.251 634.232 639.048 633.396 644.048 L 580.891 943.448 C 649.558 941.498 718.166 935.147 786.768 931.943 C 789.003 902.974 794.58 874.009 799.403 845.37 L 821.99 713.606 C 826.412 687.546 831.344 661.424 834.45 635.17 z"/>
<path transform="translate(0,0)" fill="rgb(251,183,58)" d="M 944.601 651.429 C 952.3 650.576 960.482 650.875 968.25 650.641 C 955.183 739.591 938.377 828.164 923.215 916.786 L 860.544 1301.95 L 741.323 1301.9 C 757.053 1209.42 775.973 1117.39 792.388 1025.01 C 777.939 1026.06 763.479 1025.9 749.005 1026.25 C 727.326 1026.77 705.636 1027.78 683.962 1028.53 C 635.813 1030.22 587.086 1033.25 538.928 1032.81 C 527.893 1100.81 512.446 1167.9 498.52 1235.35 C 493.948 1257.49 490.189 1279.82 485.926 1302.02 L 374.386 1302.04 C 375.617 1295.81 376.536 1289.5 377.566 1283.24 C 386.558 1226.65 398.457 1170.33 408.632 1113.92 L 460.964 813.065 C 469.448 763.594 479.895 714.117 486.38 664.351 C 525.953 658.932 567.355 654.659 607.266 653.951 C 601.633 690.944 594.513 727.593 588.154 764.448 L 552.801 972.099 C 605.092 970.987 657.615 967.778 709.847 965.01 C 742.461 963.282 775.308 962.526 807.84 959.869 C 808.545 933.68 816.431 895.238 820.713 868.46 C 831.982 797.982 845.391 727.865 856.272 657.342 C 885.699 656.632 915.224 653.391 944.601 651.429 z"/>
</svg>